<svg width="15" height="11" viewBox="0 0 15 11" fill="none" xmlns="http://www.w3.org/2000/svg">
<path d="M14.4388 1.80218L5.93876 10.3022C5.86473 10.3765 5.77676 10.4354 5.6799 10.4756C5.58303 10.5159 5.47919 10.5366 5.37431 10.5366C5.26943 10.5366 5.16558 10.5159 5.06872 10.4756C4.97186 10.4354 4.88389 10.3765 4.80985 10.3022L1.0911 6.58343C1.01698 6.5093 0.95818 6.4213 0.918063 6.32446C0.877947 6.22761 0.8573 6.12381 0.8573 6.01898C0.8573 5.91415 0.877947 5.81035 0.918063 5.7135C0.95818 5.61665 1.01698 5.52865 1.0911 5.45452C1.16523 5.3804 1.25323 5.3216 1.35008 5.28148C1.44693 5.24137 1.55073 5.22072 1.65556 5.22072C1.76039 5.22072 1.86419 5.24137 1.96104 5.28148C2.05789 5.3216 2.14589 5.3804 2.22001 5.45452L5.37497 8.60948L13.3112 0.6746C13.4609 0.524898 13.6639 0.440796 13.8756 0.440796C14.0873 0.440796 14.2904 0.524898 14.4401 0.6746C14.5898 0.824302 14.6739 1.02734 14.6739 1.23905C14.6739 1.45076 14.5898 1.6538 14.4401 1.80351L14.4388 1.80218Z" fill="#030303"/>
</svg>
