<svg width="8" height="104" viewBox="0 0 8 104" fill="none" xmlns="http://www.w3.org/2000/svg">
<path d="M3.74359 0.425781L6.98563 6.04117H0.501546L3.74359 0.425781Z" fill="white" fill-opacity="0.7"/>
<path d="M3.74359 13.9028L6.98563 19.5182H0.501546L3.74359 13.9028Z" fill="white" fill-opacity="0.7"/>
<path d="M3.74359 27.3796L6.98563 32.995H0.501546L3.74359 27.3796Z" fill="white" fill-opacity="0.7"/>
<path d="M3.74359 40.8567L6.98563 46.4721H0.501546L3.74359 40.8567Z" fill="white" fill-opacity="0.7"/>
<path d="M3.74359 54.3335L6.98563 59.9489H0.501546L3.74359 54.3335Z" fill="white" fill-opacity="0.7"/>
<path d="M0 70.0566H7.48713" stroke="white" stroke-opacity="0.7"/>
<path d="M0 73.0515H7.48713" stroke="white" stroke-opacity="0.7"/>
<path d="M0 76.0464H7.48713" stroke="white" stroke-opacity="0.7"/>
<path d="M0 79.0413H7.48713" stroke="white" stroke-opacity="0.7"/>
<path d="M0 82.0361H7.48713" stroke="white" stroke-opacity="0.7"/>
<path d="M0 85.031H7.48713" stroke="white" stroke-opacity="0.7"/>
<path d="M0 88.0259H7.48713" stroke="white" stroke-opacity="0.7"/>
<path d="M0 91.0208H7.48713" stroke="white" stroke-opacity="0.7"/>
<path d="M0 94.0156H7.48713" stroke="white" stroke-opacity="0.7"/>
<path d="M0 97.0105H7.48713" stroke="white" stroke-opacity="0.7"/>
<path d="M0 100.005H7.48713" stroke="white" stroke-opacity="0.7"/>
<path d="M0 103H7.48713" stroke="white" stroke-opacity="0.7"/>
</svg>
