<svg width="23" height="23" viewBox="0 0 23 23" fill="none" xmlns="http://www.w3.org/2000/svg">
<g clip-path="url(#clip0_203_815)">
<path fill-rule="evenodd" clip-rule="evenodd" d="M2.17246 8.79899C2.21686 8.67021 2.29843 8.55748 2.40688 8.47504C2.51532 8.39261 2.64577 8.34417 2.78174 8.33586L16.6215 7.50515C16.7494 7.49731 16.8769 7.52527 16.9897 7.58589C17.1026 7.64652 17.1963 7.7374 17.2603 7.84833C17.3244 7.95926 17.3562 8.08586 17.3523 8.21389C17.3484 8.34193 17.3088 8.46633 17.2381 8.57314L9.59882 20.1434C9.52375 20.2572 9.41662 20.3461 9.29098 20.399C9.16534 20.4518 9.02685 20.4663 8.89302 20.4404C8.75919 20.4145 8.63604 20.3495 8.53916 20.2536C8.44228 20.1578 8.37601 20.0353 8.34875 19.9017L7.23043 14.4346L10.4445 12.5789C10.6028 12.4876 10.7182 12.3371 10.7655 12.1606C10.8128 11.9841 10.7881 11.7961 10.6967 11.6378C10.6054 11.4796 10.4549 11.3641 10.2784 11.3168C10.1019 11.2695 9.91384 11.2943 9.7556 11.3857L6.54149 13.2413L2.36538 9.53962C2.26357 9.44917 2.19085 9.33057 2.15641 9.19881C2.12196 9.06705 2.12794 8.9277 2.17246 8.79899Z" fill="white"/>
</g>
<defs>
<clipPath id="clip0_203_815">
<rect width="16.5346" height="16.5346" fill="white" transform="translate(0 8.26733) rotate(-30)"/>
</clipPath>
</defs>
</svg>
