<svg width="14" height="19" viewBox="0 0 14 19" fill="none" xmlns="http://www.w3.org/2000/svg">
<path d="M2.08416 11.3743C1.98689 11.2699 1.86959 11.1861 1.73926 11.1281C1.60892 11.07 1.46823 11.0388 1.32557 11.0362C1.1829 11.0337 1.0412 11.06 0.908896 11.1134C0.776596 11.1668 0.656415 11.2464 0.555522 11.3473C0.454629 11.4482 0.375091 11.5684 0.321653 11.7007C0.268215 11.833 0.241972 11.9747 0.244489 12.1173C0.247006 12.26 0.278231 12.4007 0.336303 12.531C0.394375 12.6613 0.478103 12.7786 0.582493 12.8759L6.24916 18.5426C6.34761 18.6414 6.46462 18.7199 6.59347 18.7734C6.72232 18.8269 6.86047 18.8545 6.99999 18.8545C7.13952 18.8545 7.27767 18.8269 7.40651 18.7734C7.53536 18.7199 7.65237 18.6414 7.75083 18.5426L13.4175 12.8759C13.5219 12.7786 13.6056 12.6613 13.6637 12.531C13.7218 12.4007 13.753 12.26 13.7555 12.1173C13.758 11.9747 13.7318 11.833 13.6783 11.7007C13.6249 11.5684 13.5454 11.4482 13.4445 11.3473C13.3436 11.2464 13.2234 11.1668 13.0911 11.1134C12.9588 11.06 12.8171 11.0337 12.6744 11.0362C12.5318 11.0388 12.3911 11.07 12.2607 11.1281C12.1304 11.1861 12.0131 11.2699 11.9158 11.3742L8.06249 15.2276L8.06249 1.50008C8.06249 1.21829 7.95055 0.948038 7.75129 0.748781C7.55203 0.549524 7.28178 0.437582 6.99999 0.437582C6.7182 0.437582 6.44795 0.549524 6.24869 0.748781C6.04943 0.948038 5.93749 1.21829 5.93749 1.50008L5.93749 15.2276L2.08416 11.3743Z" fill="white"/>
</svg>
