<svg width="117" height="40" viewBox="0 0 117 40" fill="none" xmlns="http://www.w3.org/2000/svg">
<g clip-path="url(#clip0_144_10847)">
<path d="M108.449 28.3159C108.449 28.3159 107.473 28.3855 106.45 28.4785C106.543 28.2229 106.683 28.0139 106.799 27.7119C106.799 27.7119 105.312 28.0603 105.079 28.5946C104.917 28.6178 104.8 28.6178 104.684 28.6411C103.941 28.734 103.336 29.4773 103.336 29.4773C103.336 29.4773 103.964 29.4076 104.707 29.3147C104.173 30.4297 103.313 32.2415 103.313 32.2415L104.777 32.0557C105.335 30.8246 105.753 29.9186 106.125 29.1521C106.381 29.1289 106.613 29.0824 106.776 29.0592C107.659 28.943 108.449 28.3159 108.449 28.3159Z" fill="black"/>
<path d="M65.8314 31.6608C66.6447 31.6608 67.2024 31.8466 67.5045 32.2183C67.8066 32.5899 67.7833 33.101 67.458 33.7281C67.063 34.4715 66.7144 35.0986 65.7849 35.5864C64.8554 36.0742 63.9724 36.3065 62.857 36.3065C62.0437 36.3065 61.486 36.1207 61.2071 35.7258C60.9283 35.3541 60.9515 34.8431 61.2769 34.2392C61.6487 33.4958 62.4387 32.7293 63.3682 32.2415C64.2745 31.7537 65.0181 31.6608 65.8314 31.6608ZM64.4371 32.6131C64.0189 32.8222 63.4379 33.3565 63.1126 33.9836C62.462 35.238 62.9964 35.6793 63.4844 35.6561C64.2048 35.6097 64.7857 35.1451 65.2272 34.4482C65.599 33.8675 65.8546 33.3565 65.8546 32.9384C65.8314 32.5202 65.4828 32.1021 64.4371 32.6131Z" fill="black"/>
<path d="M49.3793 30.4762C49.3793 30.4762 48.264 30.453 47.7063 31.0801C47.1486 31.7073 45.1269 34.0302 45.1269 34.0302L44.6622 30.8711C44.6622 30.8711 43.6397 31.0104 42.9891 31.2427L43.57 35.4472L45.0804 35.2845L49.3793 30.4762Z" fill="black"/>
<path d="M46.9395 34.6109C50.9363 35.0058 53.8642 33.7282 53.4924 32.7758C53.3065 32.3112 52.8185 32.0789 51.6102 31.684C50.8433 31.4518 52.0284 30.7084 54.3522 30.8014L54.7704 30.2671C54.7704 30.2671 52.3538 30.2903 50.8201 30.8014C49.635 31.1962 48.9146 31.986 49.8209 32.3345C50.7271 32.6829 51.4243 32.799 51.6334 33.1707C52.0284 33.8443 49.8441 34.2624 47.4739 34.0766L46.9395 34.6109Z" fill="black"/>
<path d="M92.1361 32.0789C92.1361 32.0789 91.6713 32.3809 90.9742 32.6596C90.5095 32.8455 89.5335 33.1474 89.1849 32.9616C88.6272 32.6829 89.0687 32.0325 89.0687 32.0325C89.0687 32.0325 92.0431 31.475 92.1826 31.4053C92.4614 31.2659 93.2282 30.1045 92.229 29.7096C91.3228 29.3379 88.6505 30.058 87.7907 32.0092C87.3027 33.1242 87.8372 33.5191 88.3019 33.6585C89.6032 34.0534 91.1369 33.4262 91.6713 32.8919L92.1361 32.0789ZM91.3228 30.1974C91.9037 30.1277 91.346 31.0801 91.0672 31.1962C90.3933 31.4285 89.3708 31.5446 89.3708 31.5446C89.3708 31.5446 90.2539 30.3367 91.3228 30.1974Z" fill="black"/>
<path d="M41.8272 34.0767C41.8272 34.0767 41.223 34.4251 40.34 34.7503C39.7359 34.9826 38.4346 35.3078 37.8769 35.0755C37.0403 34.7503 37.5515 34.007 37.5515 34.007C37.5515 34.007 41.4787 33.5192 41.7807 33.3333C42.1293 33.1243 42.9891 31.8467 41.5019 31.3589C40.1541 30.9175 36.5756 31.7305 35.739 33.9837C35.2743 35.2846 36.1108 35.7491 36.7615 35.9117C38.6437 36.3995 40.6886 35.6794 41.3392 35.0523L41.8272 34.0767ZM40.3168 31.8931C41.1301 31.8235 40.5259 32.9617 40.1541 33.0314C39.3408 33.194 37.8304 33.3333 37.8304 33.3333C37.8304 33.3333 38.8528 32.0325 40.3168 31.8931Z" fill="black"/>
<path d="M97.6666 32.288C96.923 32.497 96.5512 32.5203 96.8997 31.7072C97.1321 31.1498 98.2243 29.245 98.2243 29.245C98.2243 29.245 97.3412 29.3147 96.7371 29.3844C94.8084 29.5934 93.7859 30.5458 93.3212 31.2891C92.6705 32.3344 92.7867 33.101 93.4141 33.2171C94.3669 33.4262 95.6914 32.1486 95.6914 32.1486C95.6914 32.1486 95.5055 33.0313 96.4815 32.9616C97.0392 32.9151 97.4342 32.6596 97.4342 32.6596L97.6666 32.288ZM94.5992 32.1718C94.1345 32.2647 94.2507 31.5911 94.576 31.1265C95.1105 30.3135 95.8773 30.058 96.7835 30.0115C96.7835 30.0115 96.0167 31.8931 94.5992 32.1718Z" fill="black"/>
<path d="M76.265 30.8246C77.5895 30.7084 77.543 31.1265 77.543 31.1265C79.0302 30.2438 80.4245 30.5458 80.4245 30.5458C80.4245 30.5458 80.0527 30.871 79.5182 31.1498C78.612 31.5911 78.0543 30.8246 77.1945 32.0092C76.7994 32.5435 75.684 34.7502 75.684 34.7502L73.9645 35.0057C74.8243 33.5656 76.265 30.8246 76.265 30.8246Z" fill="black"/>
<path d="M99.6882 29.1057C100.966 28.9431 100.78 29.4541 100.78 29.4541C102.198 28.5249 103.546 28.7805 103.546 28.7805C103.546 28.7805 103.197 29.1289 102.663 29.4076C101.803 29.8722 101.222 29.1521 100.409 30.3368C100.037 30.8711 99.3629 32.59 99.3629 32.59L97.8989 32.7758C98.8052 30.9872 99.6882 29.1057 99.6882 29.1057Z" fill="black"/>
<path d="M69.5958 35.54C67.7833 35.5633 67.9925 34.6109 68.2016 34.0766C68.3643 33.6585 68.829 32.8687 69.1776 32.2648C69.1776 32.2648 69.4797 31.8234 69.8515 31.6144C70.2233 31.4053 71.2689 31.2195 71.2689 31.2195C71.2689 31.2195 70.3627 32.8223 69.9676 33.7282C69.6656 34.4483 69.5261 34.9129 70.5253 34.7967C71.2225 34.7038 71.5245 34.3786 72.059 33.5424C72.454 32.9152 72.8956 32.0789 73.1047 31.6376C73.2906 31.2427 73.8948 31.0336 74.9637 30.9872C74.9637 30.9872 73.9645 32.7526 73.4997 33.6585C72.8026 34.9593 71.1992 35.54 69.5958 35.54Z" fill="black"/>
<path d="M57.4427 38.0487C59.3482 34.8896 60.9748 32.1253 63.252 29.5702C63.252 29.5702 61.3466 29.6398 61.091 30.0347L58.7672 33.3565C58.7672 33.3565 57.9772 30.9407 57.768 30.058C57.768 30.058 56.8153 30.1044 56.3505 30.3135C56.3505 30.3135 57.3498 33.4494 57.768 34.5876C57.8377 34.7502 57.7216 34.9128 57.6286 35.0289C57.5357 35.1683 57.4195 35.3309 57.3265 35.4703C55.1887 35.7026 39.4802 37.375 37.3889 37.468C36.4361 37.5144 34.368 37.3983 32.2999 36.3994C30.8127 35.6793 30.2085 35.0754 29.1629 34.4947C29.1629 34.4947 30.3944 34.3321 32.4858 33.5423C35.9017 32.2415 38.1789 29.6166 33.5082 28.8965C29.8832 28.339 18.8222 30.4296 18.8222 30.4296C18.8222 30.4296 19.6356 31.08 20.7509 30.871C22.122 30.5922 23.7718 30.2903 25.4449 30.058C24.4689 31.5446 20.9601 36.9105 18.799 39.9999C18.799 39.9999 21.9593 39.8837 22.4473 39.1172C22.6564 38.7688 23.8183 36.7246 25.0266 34.5876C26.5603 35.447 30.2085 37.7699 30.9521 38.1184C31.8119 38.49 32.7646 38.5829 33.973 38.49C39.9682 38.1184 52.3073 36.4227 56.9547 36.0278C55.6767 37.9093 54.7472 39.303 54.7472 39.303C60.5797 38.49 108.309 33.3565 108.309 33.3565L110.447 32.6828C110.424 32.6828 69.1078 37.1428 57.4427 38.0487ZM27.7454 29.756C29.6044 29.5702 31.2542 29.5469 32.207 29.8257C34.6934 30.569 31.8584 32.3344 29.9994 33.1009C28.0475 33.9139 25.4914 34.425 25.0266 34.5179C26.0955 32.6364 27.2109 30.6619 27.7454 29.756Z" fill="black"/>
<path d="M87.2562 28.3856C86.9309 28.9431 86.5126 29.8026 86.0943 30.6853L83.3523 31.0105C83.8171 29.9419 84.2354 28.9895 84.5374 28.3159C84.5374 28.3159 83.91 28.3624 83.3756 28.4553C82.8179 28.5714 82.5158 28.6876 82.5158 28.6876C82.5158 28.6876 82.8411 28.8269 82.9341 29.036C81.9581 30.8479 80.1688 34.6806 80.1688 34.6806L81.7954 34.518C82.2369 33.5656 82.632 32.6132 83.0038 31.7538C83.7009 31.6144 84.9557 31.4286 85.769 31.3124C85.0951 32.8223 84.5142 34.216 84.5142 34.216L85.9549 34.0767C87.2562 30.7782 88.4878 28.525 88.8363 27.921C88.8596 27.9442 87.5815 27.8513 87.2562 28.3856Z" fill="black"/>
<path d="M89.0919 1.95117V22.9268H93.3908V14.1231H97.1088V22.9268H101.384V1.95117H97.1088V10.3135H93.3908V1.95117H89.0919Z" fill="black"/>
<path d="M55.909 1.95117V22.9268H59.8593V9.59345L62.1598 22.9268H64.7857L67.1326 9.59345V22.9268H71.083V1.95117H65.2272L63.5076 12.0325L61.7648 1.95117H55.909Z" fill="black"/>
<path d="M31.1845 1.95117L33.8103 11.3356L36.4361 1.95117H40.7118L36.0876 16.0511V22.9268H31.533V16.0511L26.9088 1.95117H31.1845Z" fill="black"/>
<path d="M49.7744 1.95117H44.0812L40.34 22.95H44.6157L45.3361 17.9558H48.5428L49.2632 22.95H53.5388L49.7744 1.95117ZM46.9394 6.68985L48.0083 14.1231H45.8937L46.9394 6.68985Z" fill="black"/>
<path d="M82.9341 1.95117H77.2409L73.4997 22.95H77.7521L78.4725 17.9558H81.6792L82.3996 22.95H86.6753L82.9341 1.95117ZM80.0759 6.68985L81.1448 14.1231H79.0069L80.0759 6.68985Z" fill="black"/>
<path d="M113.259 1.95117H107.566L103.824 22.95H108.077L108.797 17.9558H112.004L112.724 22.95H117L113.259 1.95117ZM110.401 6.68985L111.469 14.1231H109.355L110.401 6.68985Z" fill="black"/>
<path d="M12.4087 24.8316C19.2638 24.8316 24.8175 19.2799 24.8175 12.4042C24.8175 5.55168 19.2638 0 12.4087 0C5.55372 0 0 5.55168 0 12.4274C0 19.2799 5.55372 24.8316 12.4087 24.8316ZM22.7958 18.4204C22.7494 18.5134 22.6332 18.5598 22.5402 18.5366L20.8439 18.1649C19.0081 20.8595 15.9176 22.6249 12.4087 22.6249C8.8999 22.6249 5.80934 20.8595 3.97359 18.1649L2.27726 18.5366C2.18431 18.5598 2.06812 18.5134 2.02165 18.4204C1.97517 18.3275 1.97517 18.2114 2.04489 18.1417L3.22999 16.8641C2.57934 15.5168 2.23078 14.0302 2.23078 12.4274C2.23078 7.03833 6.39027 2.64808 11.6651 2.25319L12.1996 0.58072C12.2461 0.487805 12.339 0.418118 12.432 0.418118C12.5482 0.418118 12.6179 0.487805 12.6644 0.58072L13.1988 2.25319C18.4737 2.64808 22.6332 7.03833 22.6332 12.4274C22.6332 14.007 22.2614 15.5168 21.634 16.8641L22.8191 18.1417C22.8423 18.2114 22.8423 18.3275 22.7958 18.4204Z" fill="black"/>
<path d="M22.5634 18.1881L20.0073 15.4471C19.6588 15.6097 19.2173 15.5865 18.8687 15.3775C18.4969 15.1684 18.2878 14.82 18.2413 14.4251C18.1716 13.8444 17.8463 13.3101 17.2886 12.9849L16.2429 12.3809L20.8671 9.70963L20.3559 8.82693L15.2204 11.8234L14.3374 11.3124V10.2903L19.4729 7.31706L18.9617 6.43436L14.3374 9.08245V7.89778C14.3374 7.2706 14.0353 6.71311 13.5706 6.36468C13.2685 6.13239 13.0594 5.76073 13.0594 5.34261C13.0594 4.92449 13.2685 4.55283 13.5706 4.32054L12.4784 0.720077C12.4784 0.696848 12.4552 0.650391 12.4087 0.650391C12.3623 0.650391 12.339 0.673619 12.339 0.720077L11.2469 4.32054C11.5489 4.55283 11.7581 4.92449 11.7581 5.34261C11.7581 5.76073 11.5489 6.13239 11.2469 6.36468C10.7821 6.71311 10.48 7.2706 10.48 7.89778V9.10568L5.87903 6.41113L5.36781 7.29383L10.5033 10.2671V11.2892L9.62025 11.8002L4.46156 8.85016L3.95034 9.73285L8.5978 12.4042L7.55212 13.0081C7.01766 13.3101 6.6691 13.8676 6.59939 14.4483C6.55292 14.8432 6.34378 15.1916 5.97198 15.4007C5.60019 15.6097 5.18191 15.633 4.83335 15.4704L2.27725 18.2114C2.25401 18.2346 2.23077 18.2578 2.25401 18.3043C2.27725 18.3275 2.30048 18.3507 2.34696 18.3275L5.99522 17.468C6.0417 17.0732 6.25083 16.7247 6.62263 16.5157C6.99443 16.3066 7.4127 16.3066 7.76126 16.446C8.29572 16.6783 8.92313 16.655 9.48082 16.3531L10.5265 15.7491V21.0917H11.5489V15.1219L12.432 14.6109L13.315 15.1219V21.0685H14.3374V15.7259L15.3831 16.3298C15.9176 16.655 16.5682 16.655 17.1027 16.4227C17.4512 16.2601 17.8927 16.2834 18.2413 16.4924C18.6131 16.7015 18.8222 17.0732 18.8687 17.4448L22.517 18.3043C22.5402 18.3043 22.5867 18.3043 22.6099 18.2811C22.6099 18.2578 22.5867 18.2114 22.5634 18.1881ZM12.4087 13.4262L11.5257 12.9152V11.8931L12.4087 11.3821L13.2917 11.8931V12.9152L12.4087 13.4262ZM11.5257 7.89778C11.5257 7.40997 11.9207 7.01508 12.4087 7.01508C12.8967 7.01508 13.2917 7.40997 13.2917 7.89778V9.6864L12.4087 10.1974L11.5257 9.6864V7.89778ZM8.94636 15.4239C8.52809 15.6794 7.9704 15.5168 7.73802 15.0987C7.48241 14.6806 7.64507 14.1231 8.06334 13.8908L9.62025 12.9849L10.5033 13.4959V14.518L8.94636 15.4239ZM17.1027 15.0987C16.8471 15.5168 16.3126 15.6794 15.8943 15.4239L14.3374 14.518V13.4959L15.2204 12.9849L16.7773 13.8908C17.1956 14.1231 17.335 14.6806 17.1027 15.0987ZM15.3831 16.3298C15.3599 16.3066 15.3599 16.3066 15.3831 16.3298V16.3298Z" fill="black"/>
</g>
<defs>
<clipPath id="clip0_144_10847">
<rect width="117" height="40" fill="white"/>
</clipPath>
</defs>
</svg>
