<svg width="208" height="71" viewBox="0 0 208 71" fill="none" xmlns="http://www.w3.org/2000/svg">
<g clip-path="url(#clip0_203_819)">
<path d="M192.798 50.2607C192.798 50.2607 191.063 50.3844 189.245 50.5493C189.41 50.0958 189.658 49.7247 189.865 49.1887C189.865 49.1887 187.221 49.8072 186.808 50.7555C186.518 50.7967 186.312 50.7967 186.105 50.838C184.783 51.0029 183.709 52.3223 183.709 52.3223C183.709 52.3223 184.825 52.1986 186.147 52.0337C185.196 54.0128 183.668 57.2288 183.668 57.2288L186.271 56.8989C187.262 54.7137 188.006 53.1057 188.667 51.745C189.121 51.7038 189.534 51.6214 189.823 51.5801C191.393 51.374 192.798 50.2607 192.798 50.2607Z" fill="white"/>
<path d="M117.034 56.198C118.479 56.198 119.471 56.5278 120.008 57.1875C120.545 57.8472 120.504 58.7543 119.925 59.8676C119.223 61.187 118.603 62.3002 116.951 63.1661C115.299 64.0319 113.729 64.4442 111.746 64.4442C110.3 64.4442 109.308 64.1144 108.813 63.4134C108.317 62.7537 108.358 61.8467 108.937 60.7746C109.598 59.4553 111.002 58.0946 112.655 57.2288C114.266 56.3629 115.588 56.198 117.034 56.198ZM114.555 57.8885C113.811 58.2596 112.779 59.2079 112.2 60.3211C111.044 62.5476 111.994 63.331 112.861 63.2898C114.142 63.2073 115.175 62.3827 115.959 61.1457C116.62 60.115 117.075 59.2079 117.075 58.4657C117.034 57.7235 116.414 56.9814 114.555 57.8885Z" fill="white"/>
<path d="M87.7855 54.0952C87.7855 54.0952 85.8026 54.0539 84.8111 55.1672C83.8197 56.2804 80.2256 60.4035 80.2256 60.4035L79.3994 54.7961C79.3994 54.7961 77.5817 55.0435 76.425 55.4558L77.4578 62.9186L80.143 62.63L87.7855 54.0952Z" fill="white"/>
<path d="M83.4479 61.4343C90.5533 62.1353 95.7585 59.8676 95.0975 58.1771C94.767 57.3525 93.8995 56.9401 91.7513 56.2392C90.3881 55.8269 92.4949 54.5075 96.626 54.6724L97.3696 53.7241C97.3696 53.7241 93.0733 53.7654 90.3468 54.6724C88.2399 55.3734 86.9593 56.7752 88.5704 57.3937C90.1815 58.0122 91.4209 58.2183 91.7927 58.878C92.4949 60.0737 88.6117 60.8159 84.398 60.486L83.4479 61.4343Z" fill="white"/>
<path d="M163.797 56.9402C163.797 56.9402 162.971 57.4762 161.732 57.971C160.906 58.3008 159.171 58.8368 158.551 58.507C157.559 58.0122 158.344 56.8577 158.344 56.8577C158.344 56.8577 163.632 55.8682 163.88 55.7445C164.376 55.4971 165.739 53.4355 163.963 52.7346C162.352 52.0749 157.601 53.3531 156.072 56.8165C155.205 58.7956 156.155 59.4965 156.981 59.7439C159.295 60.4448 162.021 59.3316 162.971 58.3833L163.797 56.9402ZM162.352 53.6005C163.384 53.4768 162.393 55.1673 161.897 55.3734C160.699 55.7857 158.881 55.9919 158.881 55.9919C158.881 55.9919 160.451 53.8479 162.352 53.6005Z" fill="white"/>
<path d="M74.3595 60.486C74.3595 60.486 73.2854 61.1045 71.7156 61.6817C70.6415 62.0941 68.3281 62.6713 67.3366 62.259C65.8495 61.6817 66.7583 60.3623 66.7583 60.3623C66.7583 60.3623 73.7398 59.4965 74.2769 59.1666C74.8965 58.7956 76.425 56.5279 73.7811 55.662C71.3851 54.8786 65.0232 56.3217 63.5361 60.3211C62.7098 62.6301 64.197 63.4547 65.3537 63.7433C68.6999 64.6092 72.3353 63.331 73.492 62.2177L74.3595 60.486ZM71.6743 56.6103C73.1202 56.4866 72.0461 58.5069 71.3851 58.6306C69.9392 58.9193 67.254 59.1666 67.254 59.1666C67.254 59.1666 69.0717 56.8577 71.6743 56.6103Z" fill="white"/>
<path d="M173.629 57.3112C172.307 57.6823 171.646 57.7235 172.266 56.2804C172.679 55.2909 174.621 51.9099 174.621 51.9099C174.621 51.9099 173.051 52.0336 171.977 52.1573C168.548 52.5284 166.731 54.2189 165.904 55.5382C164.748 57.3937 164.954 58.7543 166.07 58.9604C167.763 59.3315 170.118 57.0638 170.118 57.0638C170.118 57.0638 169.788 58.6306 171.523 58.5069C172.514 58.4244 173.216 57.9709 173.216 57.9709L173.629 57.3112ZM168.176 57.105C167.35 57.27 167.557 56.0743 168.135 55.2496C169.085 53.8065 170.448 53.353 172.06 53.2705C172.06 53.2705 170.696 56.6103 168.176 57.105Z" fill="white"/>
<path d="M135.582 54.7136C137.937 54.5074 137.854 55.2496 137.854 55.2496C140.498 53.6828 142.977 54.2188 142.977 54.2188C142.977 54.2188 142.316 54.7961 141.366 55.2908C139.755 56.0742 138.763 54.7136 137.235 56.8164C136.532 57.7647 134.549 61.6817 134.549 61.6817L131.492 62.1352C133.021 59.5789 135.582 54.7136 135.582 54.7136Z" fill="white"/>
<path d="M177.223 51.6627C179.496 51.374 179.165 52.2811 179.165 52.2811C181.685 50.6319 184.081 51.0854 184.081 51.0854C184.081 51.0854 183.461 51.7039 182.511 52.1987C180.983 53.0233 179.95 51.7451 178.504 53.8479C177.843 54.7962 176.645 57.8473 176.645 57.8473L174.043 58.1772C175.654 55.0024 177.223 51.6627 177.223 51.6627Z" fill="white"/>
<path d="M123.726 63.0835C120.504 63.1247 120.875 61.4343 121.247 60.4859C121.536 59.7438 122.363 58.3419 122.982 57.2699C122.982 57.2699 123.519 56.4865 124.18 56.1154C124.841 55.7444 126.7 55.4145 126.7 55.4145C126.7 55.4145 125.089 58.2595 124.387 59.8675C123.85 61.1456 123.602 61.9703 125.378 61.7641C126.618 61.5992 127.155 61.0219 128.105 59.5376C128.807 58.4244 129.592 56.9401 129.964 56.1567C130.294 55.4557 131.368 55.0847 133.269 55.0022C133.269 55.0022 131.492 58.1358 130.666 59.7438C129.427 62.0527 126.576 63.0835 123.726 63.0835Z" fill="white"/>
<path d="M102.12 67.5366C105.508 61.9292 108.4 57.0227 112.448 52.4873C112.448 52.4873 109.061 52.611 108.606 53.3119L104.475 59.2079C104.475 59.2079 103.071 54.9199 102.699 53.3531C102.699 53.3531 101.005 53.4356 100.179 53.8067C100.179 53.8067 101.955 59.3729 102.699 61.3932C102.823 61.6818 102.616 61.9704 102.451 62.1766C102.286 62.424 102.079 62.7126 101.914 62.96C98.1132 63.3723 70.1871 66.3409 66.4691 66.5058C64.7754 66.5883 61.0987 66.3821 57.422 64.6092C54.7782 63.331 53.7041 62.259 51.8451 61.2283C51.8451 61.2283 54.0346 60.9396 57.7525 59.5378C63.8252 57.2288 67.8737 52.5697 59.5702 51.2916C53.1257 50.302 33.4618 54.0128 33.4618 54.0128C33.4618 54.0128 34.9076 55.1673 36.8906 54.7962C39.3279 54.3014 42.261 53.7654 45.2354 53.3531C43.5003 55.9919 37.2624 65.5163 33.4205 71C33.4205 71 39.0387 70.7939 39.9063 69.4333C40.2781 68.8148 42.3436 65.1864 44.4918 61.3932C47.2183 62.9187 53.7041 67.0418 55.026 67.6603C56.5545 68.32 58.2483 68.4849 60.3964 68.32C71.0546 67.6603 92.9907 64.6504 101.253 63.9495C98.9807 67.2892 97.3283 69.7631 97.3283 69.7631C107.697 68.32 192.55 59.2079 192.55 59.2079L196.35 58.0122C196.309 58.0122 122.858 65.9286 102.12 67.5366ZM49.3251 52.8171C52.63 52.4873 55.5631 52.446 57.2568 52.9408C61.6771 54.2602 56.6371 57.3938 53.3323 58.7544C49.8622 60.1975 45.318 61.1046 44.4918 61.2695C46.3921 57.9298 48.375 54.4251 49.3251 52.8171Z" fill="white"/>
<path d="M155.122 50.3844C154.544 51.374 153.8 52.8995 153.057 54.4663L148.182 55.0436C149.008 53.1469 149.752 51.4564 150.289 50.2607C150.289 50.2607 149.173 50.3432 148.223 50.5081C147.232 50.7143 146.695 50.9204 146.695 50.9204C146.695 50.9204 147.273 51.1678 147.438 51.5389C145.703 54.7549 142.522 61.5581 142.522 61.5581L145.414 61.2695C146.199 59.579 146.901 57.8885 147.562 56.363C148.802 56.1156 151.032 55.7857 152.478 55.5796C151.28 58.2596 150.247 60.7335 150.247 60.7335L152.809 60.4861C155.122 54.6312 157.312 50.6318 157.931 49.5598C157.973 49.601 155.7 49.4361 155.122 50.3844Z" fill="white"/>
<path d="M158.386 3.46338V40.6951H166.028V25.0685H172.638V40.6951H180.239V3.46338H172.638V18.3066H166.028V3.46338H158.386Z" fill="white"/>
<path d="M99.3938 3.46338V40.6951H106.417V17.0284L110.506 40.6951H115.175L119.347 17.0284V40.6951H126.37V3.46338H115.959L112.902 21.3577L109.804 3.46338H99.3938Z" fill="white"/>
<path d="M55.4391 3.46338L60.1073 20.1208L64.7754 3.46338H72.3766L64.1557 28.4907V40.6951H56.0588V28.4907L47.8379 3.46338H55.4391Z" fill="white"/>
<path d="M88.4878 3.46338H78.3666L71.7156 40.7363H79.3168L80.5974 31.8716H86.2983L87.5789 40.7363H95.1801L88.4878 3.46338ZM83.4479 11.8745L85.3482 25.0685H81.5889L83.4479 11.8745Z" fill="white"/>
<path d="M147.438 3.46338H137.317L130.666 40.7363H138.226L139.507 31.8716H145.208L146.488 40.7363H154.089L147.438 3.46338ZM142.357 11.8745L144.257 25.0685H140.457L142.357 11.8745Z" fill="white"/>
<path d="M201.349 3.46338H191.228L184.577 40.7363H192.137L193.417 31.8716H199.118L200.399 40.7363H208L201.349 3.46338ZM196.268 11.8745L198.168 25.0685H194.409L196.268 11.8745Z" fill="white"/>
<path d="M22.06 44.0761C34.2467 44.0761 44.12 34.2218 44.12 22.0174C44.12 9.85424 34.2467 0 22.06 0C9.87329 0 0 9.85424 0 22.0587C0 34.2218 9.87329 44.0761 22.06 44.0761ZM40.5259 32.6963C40.4433 32.8612 40.2367 32.9437 40.0715 32.9024L37.0558 32.2427C33.7923 37.0256 28.2979 40.1591 22.06 40.1591C15.822 40.1591 10.3277 37.0256 7.06415 32.2427L4.04846 32.9024C3.88322 32.9437 3.67666 32.8612 3.59404 32.6963C3.51142 32.5314 3.51142 32.3252 3.63535 32.2015L5.7422 29.9338C4.5855 27.5424 3.96584 24.9036 3.96584 22.0587C3.96584 12.493 11.3605 4.70035 20.738 3.99942L21.6882 1.03078C21.7708 0.865854 21.936 0.74216 22.1013 0.74216C22.3078 0.74216 22.4318 0.865854 22.5144 1.03078L23.4645 3.99942C32.8421 4.70035 40.2367 12.493 40.2367 22.0587C40.2367 24.8624 39.5758 27.5424 38.4604 29.9338L40.5672 32.2015C40.6085 32.3252 40.6085 32.5314 40.5259 32.6963Z" fill="white"/>
<path d="M40.1128 32.284L35.5686 27.4188C34.949 27.7074 34.164 27.6662 33.5444 27.2951C32.8834 26.924 32.5116 26.3055 32.429 25.6046C32.3051 24.5738 31.7267 23.6255 30.7353 23.0483L28.8763 21.9763L37.0971 17.2347L36.1883 15.6679L27.0586 20.9867L25.4888 20.0796V18.2655L34.6185 12.9879L33.7096 11.4211L25.4888 16.1214V14.0187C25.4888 12.9054 24.9517 11.9159 24.1255 11.2974C23.5885 10.8851 23.2167 10.2254 23.2167 9.48323C23.2167 8.74107 23.5885 8.08137 24.1255 7.66906L22.1839 1.27823C22.1839 1.237 22.1426 1.15454 22.06 1.15454C21.9774 1.15454 21.936 1.19577 21.936 1.27823L19.9944 7.66906C20.5315 8.08137 20.9033 8.74107 20.9033 9.48323C20.9033 10.2254 20.5315 10.8851 19.9944 11.2974C19.1682 11.9159 18.6312 12.9054 18.6312 14.0187V16.1627L10.4516 11.3799L9.5428 12.9466L18.6725 18.2242V20.0384L17.1027 20.9455L7.93168 15.7091L7.02284 17.2759L15.285 22.0175L13.426 23.0895C12.4759 23.6255 11.8562 24.6151 11.7323 25.6458C11.6496 26.3468 11.2779 26.9652 10.6169 27.3363C9.95591 27.7074 9.21231 27.7486 8.59265 27.46L4.04846 32.3253C4.00715 32.3665 3.96584 32.4077 4.00715 32.4902C4.04846 32.5314 4.08977 32.5727 4.17239 32.5314L10.6582 31.0059C10.7408 30.3049 11.1126 29.6865 11.7736 29.3154C12.4346 28.9443 13.1782 28.9443 13.7978 29.1917C14.748 29.604 15.8634 29.5628 16.8548 29.0268L18.7138 27.9548V37.4379H20.5315V26.8415L22.1013 25.9345L23.6711 26.8415V37.3967H25.4888V27.9135L27.3478 28.9856C28.2979 29.5628 29.4546 29.5628 30.4048 29.1505C31.0244 28.8619 31.8093 28.9031 32.429 29.2742C33.09 29.6453 33.4618 30.3049 33.5444 30.9646L40.0302 32.4902C40.0715 32.4902 40.1541 32.4902 40.1954 32.449C40.1954 32.4077 40.1541 32.3253 40.1128 32.284ZM22.06 23.8317L20.4902 22.9246V21.1104L22.06 20.2033L23.6298 21.1104V22.9246L22.06 23.8317ZM20.4902 14.0187C20.4902 13.1528 21.1925 12.4519 22.06 12.4519C22.9275 12.4519 23.6298 13.1528 23.6298 14.0187V17.1935L22.06 18.1005L20.4902 17.1935V14.0187ZM15.9047 27.3775C15.1611 27.8311 14.1696 27.5425 13.7565 26.8003C13.3021 26.0581 13.5913 25.0686 14.3349 24.6563L17.1027 23.0483L18.6725 23.9554V25.7695L15.9047 27.3775ZM30.4048 26.8003C29.9503 27.5425 29.0002 27.8311 28.2566 27.3775L25.4888 25.7695V23.9554L27.0586 23.0483L29.8264 24.6563C30.57 25.0686 30.8179 26.0581 30.4048 26.8003ZM27.3478 28.9856C27.3065 28.9443 27.3065 28.9443 27.3478 28.9856V28.9856Z" fill="white"/>
</g>
<defs>
<clipPath id="clip0_203_819">
<rect width="208" height="71" fill="white"/>
</clipPath>
</defs>
</svg>
