<svg width="32" height="50" viewBox="0 0 32 50" fill="none" xmlns="http://www.w3.org/2000/svg">
<mask id="mask0_530_1213" style="mask-type:alpha" maskUnits="userSpaceOnUse" x="0" y="0" width="32" height="50">
<rect width="32" height="50" fill="#D9D9D9"/>
</mask>
<g mask="url(#mask0_530_1213)">
<path d="M8.96768 4.56836C8.60776 4.53221 8.87893 4.20656 8.2486 4.27897C7.97845 4.31517 7.61828 4.35138 7.52877 4.20667C7.52902 4.13431 7.88932 4.06192 8.0696 3.98954C8.15973 3.95335 8.24987 3.91716 8.43002 3.88097C8.52016 3.84478 8.78994 3.91712 8.79032 3.80858C8.70043 3.7724 8.61055 3.73623 8.52066 3.70006C8.34102 3.59153 8.16125 3.51918 8.34178 3.37444C10.233 3.08484 10.233 3.08484 9.33532 2.39748C9.33545 2.3613 9.33557 2.32512 9.33557 2.32512C10.5965 2.10793 9.78778 1.71 9.78892 1.38437C9.88045 0.950196 10.6903 1.02249 11.4105 0.986253C11.9507 0.950029 12.2219 0.624378 12.8513 0.805232C13.6612 0.877528 14.4715 0.8051 15.0125 0.55179C15.5533 0.334661 16.0041 0.117539 16.7232 0.406928C17.3526 0.587781 17.5329 0.515405 17.5339 0.225958C17.8043 0.117393 18.074 0.225914 18.2539 0.26208C18.6139 0.262051 18.7934 0.40676 19.0634 0.406738C19.1537 0.334369 18.8836 0.370572 18.8837 0.334391C18.704 0.225863 18.7044 0.11732 18.9747 0.0449362C21.6234 0.0449362 30.3799 0.00888682 32 0.0449363C45.4111 0.188572 50.478 0.187103 63.7994 0.222203C71.2702 0.257778 78.7411 0.257172 86.212 0.256565C86.572 0.256536 87.022 0.292681 87.382 0.292651C89.0023 0.256339 90.7125 0.2562 92.3322 0.400792C92.7821 0.436937 93.1424 0.364546 93.5026 0.328336C96.6534 0.219537 99.8032 0.364005 102.954 0.327569C106.554 0.254915 110.244 0.363158 113.845 0.254323C114.025 0.254308 114.205 0.254294 114.295 0.254287C118.165 0.362515 122.036 0.253658 125.906 0.325706C130.137 0.361544 134.368 0.288839 138.598 0.324676C139.498 0.324603 140.308 0.469261 141.208 0.469188C141.568 0.469159 141.928 0.577672 142.107 0.722381C142.466 1.0118 143.005 1.19266 143.725 1.37351C144.534 1.55434 143.904 1.69912 143.363 1.80771C144.173 1.84382 144.534 1.66289 144.805 1.4096C144.986 1.22868 145.346 1.12011 145.617 0.975363C146.518 0.541119 146.878 0.577271 147.416 1.08376C147.596 1.19229 147.686 1.337 147.955 1.40934C148.764 1.73491 148.943 2.20524 149.391 2.6032C149.84 3.00115 150.379 3.36292 150.557 3.83325C150.646 4.08651 150.915 4.33976 151.815 4.41204C152.355 4.48436 152.624 4.73761 152.713 4.95469C152.802 5.24413 152.083 5.09946 151.722 5.24421C152.082 5.35273 152.622 5.24414 152.892 5.38884C153.251 5.56972 152.801 5.71448 152.62 5.8954C152.258 6.36578 152.887 6.72754 153.336 7.08931C154.144 7.7405 154.592 8.39172 154.229 9.11536C154.229 9.18773 154.319 9.26008 154.318 9.36862C154.497 9.58569 154.047 9.839 154.586 10.0922C154.945 10.2731 154.404 10.5988 153.773 10.7074C153.143 10.816 152.964 10.5989 152.694 10.418C152.605 10.3095 152.425 10.1648 152.246 10.0562C151.617 9.69447 151.618 9.33266 152.429 9.00697C152.61 8.93459 152.7 8.86222 152.88 8.6813C151.979 9.007 151.258 9.29651 151.256 9.76686C151.256 9.91158 151.076 10.0201 150.895 10.1287C150.084 10.4182 150.893 10.6714 150.892 10.9609C150.982 10.9609 150.982 10.9247 151.072 10.9247C151.882 11.0693 151.521 11.2503 151.161 11.395C150.98 11.5036 150.62 11.5398 150.35 11.6122C149.358 12.0464 149.358 12.0464 148.28 11.6485C148.19 11.5762 148.19 11.5038 148.19 11.4314C149.091 11.2143 149.272 10.8886 148.644 10.4907C148.374 10.3098 148.285 10.1289 148.196 9.91183C147.745 9.98423 147.294 10.3823 147.025 10.0567C147.294 10.2375 148.104 10.4184 147.832 10.8164C147.652 10.9249 147.472 10.9973 147.202 11.0335C146.841 11.0697 146.572 10.9612 146.302 10.9251C145.582 10.8166 145.133 10.6719 145.674 10.3462C145.133 10.5633 145.312 10.7442 145.492 10.9613C145.671 11.1422 145.76 11.3231 145.22 11.4317C144.68 11.5041 144.32 11.3956 144.231 11.1423C144.142 10.8529 143.512 10.8167 142.972 10.7806C142.882 10.7806 142.972 10.8891 142.881 10.9253C143.061 11.0339 141.98 11.1787 142.97 11.2148C143.42 11.3233 143.059 11.5404 143.329 11.6851C143.509 11.7213 143.688 11.7936 143.778 11.866C143.868 11.9745 143.868 12.0469 143.687 12.1192C142.787 12.1917 142.158 11.8661 141.348 11.83C141.078 11.83 141.079 11.6853 141.169 11.5767C141.259 11.432 141.35 11.2511 140.72 11.2873C140.27 11.3235 139.999 11.4321 139.999 11.613C140.088 11.9024 140.447 12.1195 141.077 12.1918C141.976 12.3003 141.796 12.4088 141.345 12.6621C140.804 12.9516 140.174 13.0602 139.363 13.1326C139.813 13.3497 139.992 13.5668 140.712 13.6029C141.162 13.639 141.252 13.5305 141.433 13.4219C141.793 13.2772 141.433 13.2772 141.253 13.2049C140.714 12.9516 140.895 12.6984 141.795 12.5897C142.426 12.5173 143.146 12.4811 143.597 12.264C144.047 12.2639 144.407 12.3001 144.767 12.3724C144.765 12.8428 144.313 13.277 143.772 13.675C143.591 13.8197 143.591 13.9283 143.861 14.0006C145.39 14.3623 145.297 15.1221 146.195 15.6648C146.195 15.7009 146.285 15.7371 146.285 15.7733C146.284 15.9542 147.004 16.1712 146.553 16.316C145.922 16.4969 145.291 16.7141 144.391 16.678C144.121 16.678 143.852 16.6418 143.672 16.5333C142.863 16.0992 141.783 16.0269 140.342 16.2441C140.792 16.3165 141.332 16.3888 141.151 16.6421C141.061 16.7868 140.88 16.9315 141.33 17.04C141.78 17.1124 142.32 17.0761 142.59 16.9676C143.492 16.461 144.391 16.678 145.381 16.9673C145.56 17.0397 145.74 17.0035 145.921 16.9673C146.191 16.8949 146.461 16.7502 146.731 16.8949C147 17.0396 146.73 17.1843 146.55 17.2929C146.459 17.3652 146.279 17.4014 146.099 17.4738C145.919 17.51 145.738 17.5824 145.558 17.6186C144.658 17.691 145.377 18.0528 144.926 18.2337C144.835 18.5232 145.376 18.3422 145.646 18.4146C146.456 18.3783 147.176 18.1973 147.897 18.1611C148.256 18.2696 148.256 18.4143 148.255 18.5591C148.255 18.74 147.984 18.8847 147.624 18.9933C147.263 19.0657 146.813 19.0657 146.633 19.2828C146.002 19.5361 145.012 19.3191 144.201 19.5363C144.561 19.6448 144.921 19.6086 145.281 19.6447C145.641 19.6809 146.001 19.717 146.181 19.8617C146.36 20.0426 146.089 20.1512 145.819 20.2236C145.459 20.3683 145.188 20.4769 144.738 20.5493C144.108 20.6217 144.287 20.7664 144.467 20.9111C144.466 20.9835 144.647 20.9111 144.557 20.9111C144.467 20.9111 144.467 20.9111 144.467 20.875C144.558 20.6217 144.918 20.4769 145.458 20.4769C146.088 20.4768 145.997 20.7301 146.087 20.8748C146.176 21.0557 146.176 21.2366 146.265 21.4175C146.355 21.5622 146.264 21.7431 146.714 21.7793C146.984 21.7793 147.254 21.6707 147.345 21.5622C147.525 21.4174 147.526 21.2727 147.166 21.1642C146.717 21.0195 146.177 20.911 145.908 20.6577C145.639 20.3321 145.729 20.1874 146.539 20.1873C147.079 20.1873 147.529 20.2596 148.07 20.0425C148.431 19.8977 149.24 20.1509 149.599 20.4042C149.958 20.6574 150.047 21.0192 151.218 20.7659C151.668 20.6573 152.208 20.8381 152.207 21.1276C152.205 21.6703 152.115 21.6703 150.855 21.5619C150.315 21.5257 149.685 21.5258 149.056 21.3811C149.595 21.6343 150.044 21.779 150.764 21.779C151.664 21.8151 152.203 22.1407 152.833 22.3577C153.102 22.4662 152.922 22.5748 152.652 22.611C152.381 22.6834 152.022 22.611 151.661 22.7196C152.2 23.009 152.83 23.1537 153.641 22.9727C154.091 22.8641 154.541 22.8641 155.081 22.864C155.171 22.864 155.351 22.864 155.441 22.9002C156.431 23.0087 155.439 23.5153 156.338 23.6599C157.148 23.8046 157.417 24.0216 157.146 24.3835C157.056 24.492 157.055 24.6367 157.235 24.7453C157.505 24.7091 157.505 24.6367 157.595 24.5643C157.866 24.311 158.317 24.2386 158.947 24.2748C159.576 24.3471 159.936 24.4918 159.935 24.7451C159.934 25.0707 159.843 25.4325 161.013 25.4324C162.001 26.0474 163.8 26.2282 164.788 26.8431C165.058 27.0602 165.237 27.2773 165.416 27.4944C165.685 27.7838 164.785 27.82 164.604 28.0371C164.874 28.1095 164.964 28.0733 165.054 28.0371C165.775 27.7838 166.405 27.8561 166.584 28.2179C166.673 28.3988 166.402 28.5797 167.213 28.5435C167.573 28.5434 167.662 28.8329 168.111 28.9414C168.831 29.086 169.731 29.1945 169.729 29.6287C169.819 29.7734 170.268 29.8457 170.538 29.9181C170.718 29.9542 170.808 30.0266 170.808 30.0628C170.897 30.1713 170.807 30.2437 170.987 30.3522C170.897 30.2075 170.808 29.9904 171.258 29.9904C172.068 29.9541 171.977 30.3159 172.517 30.4244C172.696 30.4968 172.697 30.3882 172.607 30.4244C171.978 30.135 171.439 29.7733 170.63 29.5201C170.36 29.4115 170.18 29.303 170.271 29.1221C170.812 28.905 171.352 28.7964 171.891 29.1582C171.981 29.2305 171.89 29.3752 172.16 29.3752C173.871 29.3027 174.229 29.8092 174.677 30.2795C174.767 30.3881 174.767 30.5328 174.946 30.6413C175.484 31.184 175.933 31.7267 175.48 32.3418C175.119 32.7036 175.298 33.1378 174.756 33.4996C174.486 33.6805 174.215 33.8615 173.764 34.0424C174.124 34.1871 174.393 34.2956 174.753 34.4403C175.114 34.2594 175.294 34.1147 174.845 33.8976C174.575 33.7529 174.576 33.5358 174.847 33.3911C175.207 33.2101 175.657 33.3186 176.017 33.391C176.736 33.7165 176.824 34.1145 177.003 34.5125C177.361 35.1637 177.628 35.815 177.806 36.4662C178.073 37.4069 177.889 38.3838 177.256 39.3245C176.985 39.7226 176.983 40.0844 177.792 40.4099C178.062 40.5184 178.512 40.627 178.241 40.8079C177.88 41.0612 177.16 40.9889 176.801 40.8804C176.171 40.7357 175.631 40.8081 175.09 40.8805C174.01 40.9529 174.011 40.555 173.652 40.3379C173.384 39.7952 173.386 39.2525 173.208 38.7098C173.209 38.3842 173.84 38.0585 173.391 37.6967C173.212 37.6244 173.212 37.4435 172.852 37.5159C172.582 37.5882 172.761 37.6968 172.941 37.7329C173.121 37.8053 173.211 37.8415 173.12 37.95C172.129 38.2034 172.668 38.6737 172.307 38.9993C172.126 39.2164 172.125 39.4697 171.854 39.723C171.312 40.3019 171.58 40.8446 172.569 41.3149C172.838 41.4234 172.838 41.5319 172.837 41.6767C172.745 42.2556 173.103 42.7982 174.272 43.2323C174.542 43.3047 174.721 43.4494 174.811 43.5579C174.99 43.8112 174.72 43.8835 174.09 43.8474C174.9 43.9197 175.439 44.1006 175.618 44.4985C175.886 45.0412 176.244 45.5839 176.242 46.1266C176.241 46.3799 176.781 46.4884 177.231 46.5969C177.68 46.7054 178.49 46.7777 177.859 47.1396C177.769 47.2119 177.858 47.2481 177.948 47.3205C179.115 48.1525 178.842 49.0571 178.929 49.9616C179.018 50.251 178.657 50.5043 177.757 50.5768C176.857 50.4321 176.768 50.0703 176.589 49.7809C176.321 49.4191 176.682 49.0211 176.594 48.5869C176.143 48.8764 176.232 49.1658 176.231 49.4553C176.139 49.8171 174.788 50.2152 173.888 50.1429C173.528 50.1068 173.438 49.9982 173.349 49.8897C173.169 49.7088 172.99 49.5641 172.72 49.4194C172.451 49.2747 172.181 49.2385 172 49.4194C171.729 49.6727 171.459 49.8537 170.738 49.8899C169.928 49.9261 169.839 49.6005 169.57 49.4196C169.39 49.2749 169.03 49.3111 168.76 49.275C167.771 49.1665 167.681 48.9856 168.402 48.6961C169.033 48.4066 169.754 48.3704 170.563 48.4788C170.923 48.515 171.283 48.5873 171.464 48.4064C171.644 48.2255 171.284 48.1532 171.015 48.117C170.025 47.9 170.386 47.6467 170.837 47.3934C170.387 47.502 170.026 47.6106 169.666 47.6829C169.125 47.8277 168.495 47.9363 168.046 47.6107C167.597 47.2851 168.318 47.1765 168.858 47.0679C169.128 46.9956 169.488 46.9955 169.579 46.8508C169.399 46.7061 169.039 46.7423 168.859 46.8147C168.228 46.9956 167.418 47.0681 166.698 47.0681C165.798 47.1044 165.347 47.3215 164.896 47.5748C164.805 47.6472 164.625 47.7195 164.805 47.7919C164.985 47.8642 165.255 47.828 165.435 47.7556C165.706 47.6471 165.797 47.3576 166.426 47.4661C167.236 47.5746 168.136 47.6469 168.585 48.0087C168.854 48.2619 169.123 48.5152 168.222 48.7323C167.321 48.9495 167.14 49.2027 167.949 49.5283C168.219 49.6368 168.308 49.7815 167.948 49.9263C167.407 50.1072 166.777 50.1797 166.147 50.0712C165.697 49.9988 165.698 49.8179 165.879 49.637C166.149 49.4199 166.51 49.2028 165.791 48.9858C165.701 48.9496 165.611 48.9134 165.611 48.8772C165.613 48.5154 165.163 48.4431 164.442 48.5879C163.541 48.8051 162.821 48.9137 162.553 48.3348C162.463 48.1901 162.103 48.2263 162.013 48.2986C161.562 48.5881 160.932 48.5158 160.212 48.5159C159.582 48.5159 158.771 48.5884 158.77 48.9863C158.769 49.2034 158.409 49.2758 157.869 49.312C157.239 49.3483 156.609 49.3121 155.889 49.2398C155.439 49.2037 155.169 49.059 155.17 48.8419C155.261 48.661 155.261 48.4801 155.172 48.2992C154.903 47.9374 155.354 47.7927 156.164 47.7926C156.884 47.7925 157.604 47.7201 158.324 47.72C158.415 47.5391 158.055 47.5392 157.875 47.5392C156.525 47.4669 155.447 47.0328 153.916 47.0691C153.466 47.0692 152.926 46.9607 152.837 46.7798C152.479 46.2371 151.309 46.0563 150.41 45.7669C150.32 45.7307 150.321 45.6946 150.321 45.6222C150.231 45.4413 150.952 45.2965 150.503 45.1518C150.053 45.0072 149.692 45.1519 149.242 45.2243C148.882 45.2967 148.522 45.2605 148.162 45.2968C147.712 45.333 147.441 45.4777 147.35 45.6948C147.89 45.6586 147.712 45.2606 148.432 45.3691C149.061 45.4776 149.24 45.7308 149.059 45.9841C148.969 46.0927 148.879 46.2012 149.149 46.2374C149.418 46.3097 149.689 46.2373 149.959 46.1649C150.77 45.9116 151.31 45.8392 151.398 46.3819C151.398 46.5266 151.667 46.6352 152.117 46.6713C153.017 46.7074 152.836 46.9969 152.656 47.214C152.475 47.5034 151.934 47.5397 151.304 47.4674C150.675 47.3589 149.955 47.2142 149.684 47.6846C150.044 47.4675 150.495 47.3227 151.034 47.4674C151.664 47.6482 152.474 47.7205 152.923 47.9738C153.103 48.0461 153.102 48.1185 153.373 48.0461C154.273 47.9375 154.362 48.1545 154.182 48.4078C154.091 48.5164 153.911 48.5887 153.91 48.7335C153.819 49.0591 153.369 49.0591 152.92 48.9145C152.2 48.6974 151.39 48.6975 150.58 48.7337C149.68 48.77 148.87 48.553 148.061 48.4083C147.341 48.2998 146.711 48.2275 146.35 48.5894C146.169 48.7703 145.719 48.8065 145.179 48.8065C144.999 48.8066 144.819 48.8428 144.909 48.9151C144.998 49.0236 145.178 49.0236 145.358 48.9874C145.989 48.7703 146.799 48.7702 147.519 48.7702C147.97 48.7701 148.149 48.8787 148.239 49.0234C148.507 49.4213 147.245 49.928 146.346 49.8195C145.986 49.7834 145.806 49.8196 145.715 49.9281C145.535 50.109 145.264 50.29 144.724 50.1453C144.185 50.0368 143.645 49.9283 143.646 49.6026C143.647 49.3856 144.008 49.0961 143.108 49.06C142.118 49.0239 142.297 49.3857 142.206 49.6389C142.114 50.0369 140.583 50.2542 139.774 50.001C139.505 49.8924 139.505 49.7839 139.595 49.6392C139.686 49.5668 139.866 49.4944 140.136 49.422C140.587 49.2773 141.037 49.1325 140.858 48.9154C140.769 48.7707 139.239 48.6623 138.788 48.7709C138.068 48.9518 137.257 49.0604 136.537 49.2414C135.816 49.4224 135.095 49.531 134.196 49.3863C134.645 49.4948 134.825 49.6034 134.554 49.7843C134.013 50.11 131.852 50.4358 130.862 50.3273C130.502 50.2911 130.322 50.2188 130.323 50.0741C130.235 49.6037 129.425 49.4591 128.434 49.7124C128.254 49.7486 127.983 49.821 127.894 49.7848C126.995 49.3507 126.813 49.8211 126.453 49.9658C125.912 50.2192 125.192 50.1107 124.562 50.1831C124.202 50.2193 124.112 50.0022 124.293 49.8937C124.744 49.6404 125.285 49.387 125.196 49.0252C125.196 48.9167 125.466 48.8805 125.737 48.8805C127.536 48.9527 127.536 48.9527 128.618 48.4461C127.267 48.7356 126.006 49.0975 124.478 48.555C124.656 48.9167 124.026 49.0977 123.485 49.2425C122.224 49.5682 121.322 50.111 119.701 50.2197C118.801 50.2921 117.542 49.9666 117.453 49.6048C117.363 49.4601 117.544 49.243 117.004 49.243C116.464 49.2069 115.924 49.2793 115.653 49.4602C115.292 49.7135 114.931 49.9668 114.211 50.0754C113.581 50.184 113.04 50.184 112.501 49.9308C111.782 49.569 111.602 49.6052 111.061 49.9671C110.79 50.1842 110.52 50.2928 109.981 50.0395C109.891 49.9672 109.711 49.8225 109.441 49.8949C108.36 50.1482 108.091 49.7503 107.732 49.497C107.373 49.2438 107.013 49.1714 106.562 49.3886C105.841 49.6781 105.392 49.3887 104.853 49.2802C104.673 49.244 104.673 49.1716 104.673 49.0993C104.764 48.8822 106.566 48.4479 107.015 48.5564C107.465 48.6649 108.005 48.5925 108.365 48.6286C107.645 48.6287 106.746 48.484 106.207 48.1223C106.027 48.0137 105.847 47.9414 105.577 48.0861C104.766 48.448 103.956 48.4119 103.237 48.014C103.147 47.9416 102.877 47.9416 102.697 48.014C102.517 48.0864 102.336 48.1588 102.606 48.2673C103.505 48.5567 103.144 48.8823 102.603 49.1718C101.972 49.4975 101.161 49.4975 100.352 49.2082C100.082 49.3891 100.441 49.5338 100.441 49.6785C100.529 50.0765 100.079 50.2936 99.0883 50.3299C98.6382 50.3299 98.0979 50.4023 97.648 50.3662C96.0278 50.3663 95.848 50.294 95.6703 49.6427C95.5814 49.3171 96.2121 49.1361 97.0217 49.2808C97.3815 49.3531 97.5609 49.534 98.1011 49.4978C98.3718 49.2807 97.7423 49.136 97.8329 48.9551C97.1119 49.2084 95.042 49.1362 94.5028 48.883C94.2331 48.7745 94.3236 48.6298 94.504 48.5212C94.7746 48.3765 95.0451 48.2317 94.7758 48.0147C94.0544 48.4127 93.155 48.1957 92.2549 48.1958C92.2544 48.3405 92.6145 48.3405 92.8844 48.3766C93.2443 48.4128 93.6043 48.4127 93.784 48.5213C94.1429 48.8469 94.412 49.1001 95.4919 49.1724C96.0318 49.2085 95.5809 49.4618 95.2206 49.5342C94.1398 49.7152 93.2402 49.5706 92.341 49.3174C91.4418 49.0642 90.6329 48.7024 89.5535 48.5216C89.5524 48.8111 91.173 48.7024 90.5414 49.1366C90.5413 49.1728 90.8113 49.1728 90.9912 49.2089C91.4411 49.2451 92.2516 49.1365 92.3406 49.4259C92.5194 49.7877 91.5296 49.6792 91.1692 49.7878C90.4484 50.005 89.7276 50.1859 88.8272 50.2945C88.467 50.3307 88.1968 50.3669 87.8368 50.367C87.2967 50.367 86.8467 50.3671 87.0278 50.0414C87.1182 49.9329 87.1186 49.8243 86.939 49.7158C86.5795 49.5349 86.1296 49.4988 85.6797 49.4626C85.3198 49.4265 85.2293 49.5712 85.1389 49.6798C84.8681 49.8969 85.3178 50.0054 85.6774 50.1139C85.7673 50.1501 85.9471 50.2224 85.8567 50.331C84.5965 50.3311 83.3364 50.3312 82.0762 50.3313C81.5362 50.3313 81.3565 50.2228 81.4473 50.0057C81.7187 49.6077 81.5401 49.2097 81.6315 48.8117C81.1813 48.8479 81.0909 48.9565 80.9105 49.065C80.1883 49.6802 78.838 49.7165 77.6697 49.1738C77.3103 48.993 77.1312 48.7397 76.4116 48.595C76.4104 48.9568 76.0494 49.2101 75.2388 49.3549C74.7885 49.4273 74.6081 49.5359 74.6074 49.753C74.6068 49.8977 74.3367 49.9339 74.0667 49.9339C73.7066 49.9339 73.437 49.8254 73.5275 49.6807C73.528 49.536 73.6184 49.4274 73.7089 49.2827C73.7095 49.1018 73.6199 48.9933 73.17 48.9571C72.63 48.921 72.3595 49.0657 72.3589 49.2466C72.4479 49.5361 72.1769 49.7893 71.816 50.0426C71.455 50.3321 69.8343 50.477 69.2048 50.2961C69.025 50.2238 68.9354 50.1152 69.0257 50.0429C69.2965 49.8258 69.6566 49.7896 70.2862 49.9342C69.657 49.681 69.5678 49.4639 70.2885 49.283C70.7389 49.1744 71.0095 49.0296 70.8302 48.8126C70.5609 48.5955 70.201 48.5594 69.6608 48.5956C68.9407 48.5956 68.3104 48.6681 67.5906 48.5958C67.2307 48.5596 67.0505 48.5958 66.8701 48.7044C66.239 48.9939 65.4284 49.1386 64.4382 49.1749C63.5379 49.2112 63.3575 49.3197 63.9865 49.6453C64.256 49.79 64.6157 49.8985 64.345 50.0794C63.9843 50.2604 63.5341 50.2966 62.9944 50.1881C62.4548 50.0796 62.0047 50.0796 61.3744 50.152C59.9336 50.3331 59.304 50.1884 58.1367 49.3925C58.5847 49.9714 57.1444 50.0077 56.6041 50.0801C55.2531 50.2973 53.9041 49.9717 52.6449 49.7186C52.3751 49.6462 52.4656 49.5015 52.6459 49.4291C53.0064 49.2844 53.4568 49.1758 53.9965 49.2843C54.806 49.4651 55.2566 49.3204 55.7974 49.1032C56.2482 48.8861 56.7884 48.8499 57.4188 48.7413C58.3196 48.5603 59.3997 48.5602 60.1209 48.2345C60.3915 48.0898 60.7517 48.0536 61.2016 48.0897C61.5615 48.1259 62.1016 48.1258 62.1909 48.3067C62.2803 48.4876 61.7402 48.4877 61.4698 48.5962C61.3797 48.6324 61.2896 48.6686 61.1994 48.7048C59.938 49.0667 59.938 49.0667 61.1966 49.5008C61.4668 49.4646 61.467 49.3922 61.3773 49.3199C61.288 49.1028 60.9289 48.8496 61.3794 48.7048C62.0103 48.4877 62.8206 48.4152 63.6309 48.379C63.8109 48.379 64.0809 48.3789 64.1705 48.4875C64.2594 48.8131 64.8 48.6683 65.34 48.6683C64.3506 48.4875 63.7215 48.1981 63.813 47.7639C63.6328 47.8363 63.6317 48.1257 63.1819 48.0534C62.2823 47.9087 62.6436 47.5469 62.7345 47.2936C62.1047 47.2213 61.8342 47.3661 61.5636 47.5108C60.3007 48.3069 59.4002 48.4155 57.2412 48.0539C57.0613 48.0177 56.9713 48.0177 56.7913 48.0177C55.3508 48.1264 55.3507 48.1264 54.0013 47.9094C54.2704 48.1988 54.5394 48.4883 53.6388 48.6331C52.9182 48.7778 51.6585 48.6332 51.1195 48.3438C50.85 48.1991 50.7605 48.0544 50.4909 47.9097C50.2215 47.7288 49.9519 47.6203 49.3214 47.7289C50.6709 47.9097 50.2186 48.561 51.298 48.778C51.388 48.778 51.3877 48.8503 51.3877 48.8503C51.2066 49.176 50.5764 49.2122 49.946 49.2846C49.4059 49.3208 48.7762 49.2124 48.8668 49.0314C49.048 48.7058 48.5982 48.6335 48.0584 48.5612C47.3387 48.4527 47.159 48.3441 47.8797 48.1632C48.15 48.0908 48.4203 48.0184 48.2409 47.8375C48.0614 47.6928 47.7015 47.6567 47.3413 47.6929C46.711 47.7653 46.1708 47.8015 45.5405 47.8739C44.9101 47.9463 44.3702 47.9102 44.0109 47.6931C43.8313 47.5846 43.3813 47.5485 43.562 47.3676C43.7427 47.1866 44.1029 47.1142 44.5529 47.1504C45.3627 47.2227 45.5436 46.9694 45.8143 46.7885C46.0851 46.5714 45.5451 46.5352 45.2755 46.4267C45.0058 46.3182 44.9162 46.2097 45.0967 46.0649C45.2773 45.9202 45.6376 45.8478 45.9975 45.8839C47.1674 45.9562 47.6183 45.7029 47.6201 45.1964C45.9985 45.5945 44.1094 45.269 42.6677 45.7033C42.3978 45.6671 42.5773 45.8119 42.5776 45.7395C43.1178 45.7033 43.3872 45.8842 43.837 45.9565C43.9269 45.9926 44.0169 45.9926 44.1067 46.0288C44.5563 46.1735 44.9157 46.3544 45.3653 46.4991C45.635 46.5714 45.9948 46.6437 45.7243 46.7885C45.5438 46.9332 45.2733 47.0418 44.8235 46.9695C44.2839 46.861 43.7435 46.9334 43.2934 46.9696C42.5731 47.0058 41.7629 47.0421 42.4815 47.4762C42.5712 47.5485 42.571 47.6209 42.3907 47.6933C42.1204 47.7657 41.8504 47.7657 41.5806 47.6933C41.0412 47.5125 40.4116 47.3678 39.7819 47.2593C39.3321 47.187 39.3328 47.0061 39.3334 46.8252C39.4244 46.5357 39.2452 46.3187 38.4351 46.3187C37.805 46.3188 37.1747 46.3912 37.3533 46.7892C37.4425 47.0062 36.9917 47.2234 37.261 47.4404C37.3507 47.5128 37.2605 47.5851 36.9903 47.6214C36.7202 47.6576 36.4503 47.6214 36.1805 47.5491C35.7311 47.3682 35.3717 47.1873 34.7418 47.115C34.1124 46.9342 34.743 46.7894 34.8336 46.6085C35.014 46.4999 35.1943 46.4275 35.4646 46.3551C36.1852 46.2104 36.2761 45.9571 36.0069 45.7038C35.9174 45.5591 35.5579 45.4144 35.9183 45.3059C36.2789 45.1611 36.7284 45.3058 36.9983 45.342C37.628 45.4504 38.2582 45.4142 38.8884 45.378C40.0587 45.3417 40.7795 45.1246 41.0512 44.6542C41.4131 44.1114 42.3145 43.7496 43.6652 43.6047C43.7552 43.6047 43.8455 43.5324 43.7557 43.46C43.3957 43.46 43.1252 43.5686 42.855 43.641C42.6748 43.6772 42.4045 43.7496 42.3148 43.6772C41.5066 43.1346 40.0651 43.4965 39.0758 43.2795C39.5251 43.4965 40.3349 43.5688 40.8742 43.7859C41.4135 44.0029 41.3222 44.3647 40.6922 44.3648C39.5219 44.401 38.8902 44.8715 37.72 44.8715C37.45 44.8716 37.2699 44.9078 36.9998 44.9078C36.1897 44.9079 35.8302 44.7632 36.6417 44.3651C35.38 44.7994 36.367 45.7038 34.1171 45.5955C34.4762 45.8487 34.7465 45.7763 35.0165 45.7763C35.2866 45.7763 35.737 45.6677 35.9164 45.8486C36.0958 46.0295 35.7352 46.1742 35.3749 46.2466C35.0146 46.319 34.6545 46.3552 34.7437 46.5723C34.5624 46.9341 34.2015 47.1874 33.1219 47.0428C32.6721 46.9704 32.4924 46.8619 32.6731 46.681C32.7636 46.5363 32.8541 46.3915 32.6746 46.2468C32.5847 46.2107 32.4946 46.2468 32.4945 46.283C32.1338 46.464 31.9526 46.7896 31.1427 46.7535C30.1527 46.7174 30.2441 46.3194 29.8849 46.0661C29.795 46.03 29.705 46.03 29.6151 45.9938C29.3455 45.8853 28.9858 45.7768 28.8964 45.5959C29.0776 45.2702 29.5277 45.2702 30.0672 45.4149C30.6068 45.5596 31.1465 45.6681 31.5975 45.3786C31.7779 45.27 32.1381 45.2338 32.4083 45.1976C32.9486 45.1252 33.3988 45.089 33.1299 44.7634C33.0401 44.691 33.1305 44.5825 33.3106 44.5463C34.2114 44.3653 33.9419 44.2206 33.4026 44.0036C32.7735 43.7142 33.7639 43.6417 34.2146 43.4608C33.6741 43.5694 33.2241 43.5694 33.0435 43.7141C32.6817 44.2207 31.9616 44.2208 30.8819 44.1123C30.162 44.04 29.3517 44.1124 28.7209 44.3296C28.6307 44.3657 28.5407 44.3658 28.4507 44.3658C27.9106 44.3658 27.7301 44.5105 27.5495 44.6915C26.6488 44.8363 26.0191 44.7278 25.4802 44.4022C25.6624 43.7871 24.8541 43.2806 23.9556 42.8104C23.6857 42.7742 23.7765 42.5571 23.2363 42.5933C22.1558 42.702 20.9863 42.5211 19.9054 42.7383C19.1849 42.8469 18.8256 42.6299 18.3763 42.4128C18.0169 42.2319 17.6574 42.0872 18.1082 41.8701C18.3787 41.7254 18.2894 41.5445 18.47 41.3636C18.5605 41.2188 19.0111 41.0741 19.2805 41.255C19.6395 41.5444 20.0898 41.472 20.63 41.4357C21.1702 41.3995 21.71 41.4718 22.0691 41.7613C22.1601 41.4718 21.8003 41.3995 21.5305 41.3271C20.2716 40.9654 20.3621 40.8207 21.6234 40.495C22.6146 40.2054 23.7855 39.9883 23.8776 39.3732C23.8783 39.1923 23.9688 39.0475 23.6092 38.9028C23.3396 38.7943 23.2501 38.6496 23.1606 38.5049C23.0712 38.324 22.8018 38.1431 22.3519 38.107C21.2721 37.9985 21.5428 37.8176 21.9937 37.5643C22.1741 37.4557 22.4444 37.3833 22.3553 37.1301C21.994 37.4919 21.7227 37.8537 20.8223 37.9262C20.6423 37.9262 20.9123 37.9262 20.9122 37.9624C22.0812 38.2879 22.5295 38.7944 23.0679 39.2647C23.5168 39.5903 23.2464 39.6989 22.4363 39.6989C22.2563 39.6989 21.9864 39.6628 21.8961 39.7351C21.1748 40.097 20.275 39.9885 19.3747 40.061C18.2043 40.1334 17.7547 39.9887 17.2158 39.6632C17.1261 39.5908 16.9462 39.5546 16.6763 39.5185C16.3157 39.6632 16.1347 39.9527 15.4151 39.808C14.8754 39.6995 14.607 39.2292 14.9678 39.0121C15.1482 38.9035 15.4186 38.795 15.5992 38.6502C15.6896 38.5417 16.1399 38.4693 15.6003 38.3246C15.1508 38.1799 15.4216 37.9628 16.3226 37.7095C15.6022 37.7819 14.2527 37.6011 13.5334 37.3841C13.3536 37.3117 12.9034 37.3479 12.8138 37.2394C12.5444 37.0585 12.6349 36.9138 13.0852 36.8414C13.4455 36.769 13.9853 36.8413 13.9859 36.6604C13.987 36.371 14.528 36.0815 14.079 35.7921C13.63 35.5026 13.6308 35.2494 14.2618 34.9961C14.7125 34.8151 14.0827 34.7428 13.9029 34.6705C13.0038 34.3811 12.8249 34.0555 13.1865 33.6213C13.367 33.4765 13.5475 33.3318 13.9973 33.4041C14.9868 33.5849 15.7974 33.4402 16.6982 33.2592C17.0585 33.1868 17.5087 33.1506 17.8684 33.2229C18.2284 33.2591 18.588 33.3676 18.3175 33.5123C17.5961 33.8742 18.7658 34.0188 18.8549 34.2721C18.8546 34.3444 19.2147 34.3444 19.3948 34.3082C19.6651 34.2358 19.4853 34.1635 19.3956 34.0911C19.3058 34.0188 19.1262 33.9102 19.2163 33.8741C20.1174 33.5845 20.119 33.1504 20.2105 32.7162C20.3015 32.4267 21.0215 32.4629 21.5612 32.5714C21.921 32.6437 22.3701 32.8969 22.8209 32.6798C23.1815 32.535 22.7321 32.3542 22.6427 32.1733C22.4635 31.92 22.1036 31.8839 21.5634 31.9201C20.9332 31.9563 20.3032 31.9564 19.944 31.7031C19.8541 31.667 19.8542 31.6308 19.8545 31.5584C20.1254 31.3051 20.5753 31.3413 21.0253 31.3774C20.0357 31.2328 19.4065 30.9796 18.9578 30.5816C18.5988 30.2922 18.2403 29.8581 16.9797 29.9667C16.8897 29.9667 16.7997 29.9667 16.7998 29.9305C15.7219 29.3155 15.5396 29.9668 14.999 30.1116C14.9089 30.1478 14.9087 30.184 14.8186 30.2201C14.6379 30.4011 14.5474 30.5458 14.997 30.6905C15.4466 30.799 15.3559 31.0161 15.1753 31.1608C14.9947 31.3417 14.5449 31.2694 14.185 31.2333C13.645 31.1971 13.105 31.1972 12.7442 31.4143C12.4736 31.559 12.0236 31.5591 11.8441 31.4144C11.2159 30.8717 9.41566 30.8718 8.69735 30.3654C8.51771 30.2568 8.0674 30.3292 7.79737 30.3293C6.71724 30.3293 6.3577 30.1846 6.44923 29.7505C6.44987 29.5696 6.17996 29.5334 5.91018 29.4611C5.55052 29.3526 5.371 29.2078 5.64167 29.0269C5.91233 28.846 6.36277 28.7374 6.90271 28.7735C7.35276 28.7735 7.62241 28.882 7.71179 29.0629C7.71141 29.1715 7.62076 29.3524 8.07069 29.3885C8.52062 29.4247 8.70115 29.2799 8.97156 29.1714C9.78318 28.7371 9.69494 28.2306 8.52594 27.9051C7.8965 27.7242 7.4472 27.5072 6.9079 27.2901C6.45835 27.1454 6.09932 26.856 6.91018 26.6389C7.36074 26.4941 7.18173 26.2047 7.7223 26.0599C7.09223 26.06 6.46202 26.0962 6.46316 25.7706C6.46418 25.4811 7.09438 25.4449 7.72458 25.4087C9.97498 25.3723 11.3239 25.734 11.6811 26.5299C12.4925 26.1681 12.4927 26.0957 11.6849 25.4445C11.2361 25.0827 10.7872 24.7572 9.61696 24.7934C9.25692 24.7935 8.80648 24.902 8.6271 24.7211C8.3577 24.5403 8.62824 24.3955 8.98879 24.2508C9.16881 24.2508 8.98917 24.1422 8.98891 24.2146C8.98879 24.2508 8.98879 24.2508 8.89877 24.2508C8.0888 24.2147 7.72927 24.07 8.00044 23.7443C8.36188 23.3463 7.91284 23.0569 7.28377 22.7675C6.65484 22.4419 6.65572 22.1886 7.55647 22.0077C7.82675 21.9353 9.26642 22.0799 9.5362 22.1522C9.80598 22.2246 10.1659 22.2607 10.5258 22.2969C11.0655 22.4054 11.0663 22.1883 11.1568 22.0436C11.3374 21.8626 11.6973 21.8988 11.9671 21.9711C12.7761 22.2967 13.8565 22.2242 14.8466 22.2242C15.5667 22.2241 15.7466 22.2603 16.0157 22.5135C16.4637 23.0924 16.9135 23.1647 18.3542 23.0199C19.0746 22.9474 19.4341 23.0921 20.0634 23.3092C19.6154 22.7303 18.4465 22.3686 18.899 21.6811C17.8167 22.2963 16.6463 22.3687 15.2074 22.007C15.0275 21.9709 14.8473 22.0071 14.5773 22.0071C13.5871 22.0434 12.8674 21.9349 12.5086 21.5731C12.4187 21.5369 12.4188 21.5007 12.3289 21.4646C11.9705 20.9942 11.4296 21.2476 10.8889 21.4285C9.80762 21.7542 7.82802 21.5735 7.19959 21.1032C7.11059 20.8137 6.84157 20.5243 7.74231 20.3433C8.28276 20.2347 7.92348 20.0177 7.6537 19.9454C6.9345 19.6921 7.20516 19.5112 7.6561 19.2579C7.65623 19.2217 7.74624 19.2217 7.74637 19.1855C7.92842 18.6066 8.91891 18.498 10.1789 18.5341C10.2692 18.4617 10.5392 18.4617 10.4496 18.3532C10.2705 18.0999 10.8107 18.0637 11.261 17.9913C11.351 17.9913 11.441 17.9913 11.441 17.9913C11.5311 17.9551 11.621 17.9913 11.801 17.9912C11.7114 17.8827 11.5318 17.7742 11.262 17.7018C10.9921 17.6657 10.9023 17.5933 10.9926 17.521C11.1729 17.4486 11.2631 17.3762 11.5333 17.34C11.7133 17.34 11.8933 17.34 11.9832 17.3762C12.0732 17.3761 12.1628 17.4847 12.2532 17.3761C12.0735 17.3038 11.8034 17.3038 11.6235 17.2676C11.2638 17.1953 11.4442 17.0868 11.6246 16.9782C11.895 16.8696 12.2551 16.8334 12.6154 16.761C12.7956 16.7248 12.9757 16.6886 13.0659 16.6525C13.2461 16.5801 13.1565 16.4715 13.1569 16.363C13.0678 16.1097 12.9785 15.8927 13.699 15.7841C14.87 15.5307 15.1409 15.2774 14.7829 14.6985C14.8733 14.59 15.0536 14.5176 15.234 14.4091C15.9544 14.3005 14.9652 14.0473 15.5058 13.9025C15.0565 13.6854 15.6873 13.4683 15.5082 13.2151C15.5088 13.0342 15.3293 12.8894 14.8796 12.7809C14.1603 12.5639 13.531 12.3469 12.5406 12.4193C12.3606 12.4193 12.0004 12.4555 12.0009 12.3108C12.0013 12.2023 12.2715 12.1661 12.5415 12.1661C13.6215 12.2021 13.7134 11.6594 14.5239 11.5508C14.704 11.5146 14.6144 11.4061 14.4345 11.3699C13.2649 11.2253 13.987 10.6463 13.2674 10.5017C11.9184 10.1762 11.3792 9.92294 11.5614 9.30785C11.6523 9.05457 11.563 8.83749 11.0235 8.69281C10.1241 8.4758 10.2152 8.18635 10.3963 7.86071C10.6679 7.42651 10.5791 7.06471 9.2291 7.02864C8.68916 6.9925 8.77968 6.84777 8.87019 6.70304C9.32189 6.23265 9.14289 5.94322 7.70335 5.76243C6.62372 5.6178 7.25494 5.29212 7.70588 5.03881C8.7869 4.78546 9.05693 4.78544 9.32709 4.74924C9.50711 4.74922 9.77701 4.78538 9.95716 4.74918C9.95741 4.67682 9.77714 4.7492 9.77727 4.71302C9.68726 4.71303 9.59725 4.71303 9.50723 4.71304C9.23733 4.67688 9.14757 4.60453 8.96768 4.56836Z" fill="#FEBD00"/>
<path d="M150.951 45.5763C151.761 45.6842 152.21 45.9721 153.02 46.0441C153.289 46.08 153.559 46.188 153.468 46.3679C153.287 46.7999 154.277 46.8358 154.817 46.8717C156.437 46.9076 157.696 47.2674 159.136 47.4112C159.495 47.4472 159.405 47.5912 159.224 47.6992C159.134 47.7711 158.954 47.8791 158.684 47.7712C157.875 47.5913 157.063 47.9513 156.254 47.7354L156.164 47.7354C155.984 47.8074 155.533 47.9154 155.803 47.9874C156.612 48.2752 155.08 48.7792 156.43 48.9591C156.97 49.031 157.51 49.067 158.14 49.0309C158.59 48.9949 158.95 49.0309 158.861 48.7429C158.772 48.383 160.123 48.095 161.113 48.2389C161.473 48.2748 161.652 48.3828 161.923 48.1668C162.104 47.9509 162.644 47.9148 163.184 47.9508C163.724 48.0227 163.363 48.1667 163.363 48.3107C163.362 48.5266 163.722 48.5626 164.172 48.4906C164.443 48.4186 164.713 48.3466 164.983 48.2745C165.434 48.1665 165.794 48.2025 166.153 48.3464C166.692 48.5263 166.332 48.6343 165.971 48.8503C165.881 48.9223 165.881 48.9223 165.881 48.9223C165.881 48.8863 165.971 48.8863 165.971 48.8503C166.061 48.8143 166.061 48.8143 165.971 48.8503C165.971 48.8863 165.881 48.8863 165.971 48.8503C166.331 48.8503 166.782 48.6703 166.781 48.8503C166.871 49.0662 167.14 49.2821 166.599 49.4621C166.329 49.5701 165.968 49.7141 166.508 49.8221C167.048 49.93 167.678 49.822 168.129 49.678C168.579 49.5339 168.039 49.462 167.86 49.39C167.141 49.1022 167.232 48.8142 168.133 48.5262C169.124 48.1662 169.036 47.7344 167.776 47.5905C167.236 47.5545 166.966 47.4106 166.517 47.3027C166.246 47.6266 166.154 48.0225 164.895 47.7707C164.715 47.7347 164.625 47.7347 164.535 47.6627C164.536 47.5908 165.888 46.8348 166.158 46.8348C167.238 46.9067 168.229 46.7627 169.22 46.5466C169.76 46.4026 170.3 46.4746 170.569 46.6905C170.839 46.9424 170.119 46.9065 169.848 46.9785C169.758 47.0145 169.488 47.0145 169.398 47.0505C169.038 47.1585 168.317 47.1945 168.677 47.4465C169.036 47.7344 169.486 47.5184 169.847 47.4464C170.207 47.3743 170.567 47.2663 170.928 47.1943C171.108 47.1583 171.109 46.9424 171.558 47.1223C171.828 47.2662 171.647 47.3382 171.467 47.4102C170.566 47.6982 171.106 47.8062 171.825 47.9141C172.185 47.986 172.725 48.058 172.274 48.3099C172.003 48.4539 171.912 48.7059 171.103 48.526C170.384 48.3461 169.574 48.2742 168.942 48.6701C168.852 48.7421 168.312 48.7422 168.491 48.8861C168.581 48.9941 168.941 49.066 169.211 49.03C170.022 48.922 170.201 49.1019 170.38 49.3539C170.47 49.4978 170.469 49.7138 171.099 49.6777C171.549 49.6417 171.999 49.6057 172.09 49.3897C172.091 49.2097 172.271 49.0298 172.721 49.0297C173.262 48.9937 173.441 49.2096 173.62 49.3896C173.71 49.4616 173.89 49.5335 174.07 49.6055C174.339 49.7134 173.978 50.1094 174.879 49.9293C175.599 49.7853 176.679 49.7852 176.501 49.2814C176.412 49.0294 176.593 48.8135 176.684 48.5615C176.774 48.3456 177.315 48.2736 177.764 48.3455C178.304 48.4534 177.764 48.5255 177.493 48.6335C177.313 48.7054 177.223 48.8134 177.403 48.8854C178.212 49.1733 177.581 49.2453 176.951 49.3173C177.22 49.5333 177.581 49.3533 177.851 49.4252C176.859 49.8212 177.848 50.1091 178.207 50.433C179.107 50.3969 180.187 50.4688 180.549 50.0009C180.64 49.7849 180.731 49.533 180.461 49.317C180.282 49.0651 180.373 48.8132 180.554 48.5612C180.826 48.1293 181.276 48.1293 182.085 48.4171C182.264 48.5251 182.084 48.7051 182.534 48.777C182.714 48.777 182.803 48.813 182.983 48.849C183.163 48.8489 182.983 48.9209 183.073 48.8489C183.073 48.813 182.983 48.813 182.983 48.813C182.624 48.669 182.264 48.4891 182.265 48.2732C182.985 48.3091 182.716 48.0572 182.897 47.9132C182.987 47.8052 183.077 47.6612 183.528 47.6612C183.618 47.6612 183.707 47.6972 183.797 47.6972C184.067 47.8051 184.337 47.8771 184.697 47.8051C185.147 47.769 185.237 47.841 185.236 48.021C185.236 48.057 185.146 48.093 185.146 48.129C184.876 48.2729 183.975 48.345 184.604 48.6329C184.424 48.8128 184.693 48.9568 184.963 49.0647C184.422 49.3527 184.6 49.7486 184.149 50.0366C184.059 50.0366 184.059 50.0726 183.969 50.0726C183.609 50.1086 183.339 50.0366 183.34 49.9287C183.341 49.5328 182.711 49.4608 181.721 49.3529C182.621 49.6048 183.16 49.7847 183.249 50.1446C183.248 50.3966 183.787 50.5405 184.508 50.4324C184.598 50.4324 184.598 50.4324 184.688 50.4324C185.138 50.4684 185.228 50.5764 185.047 50.7203C184.957 50.8283 184.776 50.9363 185.136 51.0083C185.316 51.0442 185.586 51.0082 185.676 50.9722C185.946 50.9002 185.947 50.7563 185.857 50.6123C185.498 50.3604 184.869 50.1085 186.13 49.8924C186.219 50.2164 187.208 50.3962 187.117 50.7921C187.116 50.9721 187.567 50.9361 187.927 50.936C188.647 50.936 189.457 50.9719 190.177 50.8279C190.088 50.576 189.637 50.7919 189.458 50.684C190.54 50.18 191.8 50.2159 192.788 50.7197C193.057 50.8637 193.328 50.8276 193.688 50.8276C194.408 50.8275 193.778 50.6836 193.778 50.6117C193.779 50.5037 193.959 50.4677 194.139 50.4677C194.409 50.4676 194.769 50.4676 194.769 50.6116C194.768 50.6836 194.768 50.8995 194.948 50.8275C196.209 50.4675 197.287 51.1152 198.458 50.8992C199.719 50.7191 201.068 50.863 202.329 50.8629C203.679 50.8628 205.029 50.8987 206.379 50.8986C206.919 50.8985 207.549 50.8625 207.64 50.5745C207.64 50.5026 207.821 50.4666 208.001 50.4665C208.271 50.5025 208.18 50.5745 208.09 50.6465C207.819 50.8265 208.269 50.8264 208.539 50.8264C209.169 50.8623 209.799 50.8623 210.52 50.8622C210.7 50.8622 210.97 50.8622 210.97 50.7542C210.881 50.5023 211.421 50.4663 211.781 50.3583C212.322 50.1783 212.863 49.9983 211.873 49.7824C211.783 49.7824 211.694 49.7464 211.694 49.7104C211.155 49.4585 211.155 49.4585 210.524 49.7105C210.163 49.8545 209.623 49.9625 209.083 49.8546C208.453 49.7107 208.274 49.4948 208.365 49.2428C208.456 48.9549 209.177 48.7749 209.448 48.4869C209.628 48.3429 209.898 48.4869 209.987 48.5948C210.256 48.9187 210.706 48.9547 211.516 48.9906C212.326 49.0265 213.586 49.0624 213.494 49.6023C213.494 49.7463 213.674 49.8182 213.943 49.8542C215.113 49.9621 214.932 50.25 214.301 50.502C213.4 50.898 214.03 50.9339 214.84 50.9339C216.82 50.9697 218.89 51.0415 220.871 50.8614C220.961 50.8614 221.141 50.8614 221.231 50.8614C221.681 50.8973 222.4 51.0772 222.401 50.7533C222.402 50.5734 222.943 50.2134 221.774 50.1055C221.234 50.0696 221.325 49.6737 221.416 49.4577C221.416 49.3497 221.507 49.2058 221.237 49.1698C220.877 49.0978 220.786 49.2418 220.606 49.3138C220.336 49.4578 219.975 49.5658 219.975 49.7457C219.974 49.9257 219.614 49.9617 219.164 49.8898C218.714 49.7818 218.715 49.7099 219.075 49.5659C219.436 49.3859 219.887 49.1699 219.528 48.882C219.348 48.7021 219.979 48.522 220.339 48.558C221.329 48.6299 221.869 48.4139 222.321 48.09C222.049 48.4859 222.588 48.8458 222.317 49.2057C221.955 49.7096 223.034 49.9974 223.573 50.3573C223.753 50.4653 224.112 50.5012 223.842 50.6812C223.211 51.0052 223.751 51.0051 224.381 51.0411C225.64 51.1489 226.631 50.8969 227.622 50.6809C227.443 50.465 226.992 50.645 226.722 50.573C226.453 50.501 226.273 50.4291 226.273 50.3211C226.364 50.1771 226.544 50.1051 226.904 50.1411C227.174 50.1771 227.444 50.213 227.714 50.141C227.894 50.105 228.255 49.925 228.344 50.105C228.434 50.213 229.064 50.3569 228.433 50.5009C228.163 50.5369 228.162 50.6449 228.432 50.6808C228.702 50.7528 228.792 50.8608 229.152 50.8247C229.242 50.7887 229.332 50.7527 229.422 50.7527C230.143 50.5007 230.772 50.8246 231.402 50.7886C232.032 50.7525 231.764 50.2487 232.754 50.2486C233.204 50.2486 233.655 50.1405 233.924 50.3925C234.283 50.6804 235.003 50.8243 235.812 50.9682C236.442 51.1121 236.982 51.112 237.612 51.04C238.062 51.004 238.513 50.896 239.142 51.0399C239.772 51.1478 240.043 50.7879 240.044 50.4999C240.045 50.428 240.045 50.356 240.135 50.284C239.235 50.2841 239.146 49.9242 238.877 49.7082C238.697 49.5643 239.328 49.5642 239.507 49.6362C240.047 49.8161 240.406 49.996 240.768 49.6001C240.858 49.4921 241.218 49.5641 241.398 49.6001C241.757 49.672 242.117 49.708 242.478 49.6C242.478 49.42 241.938 49.4201 241.759 49.3121C241.579 49.2401 240.769 49.2762 241.13 49.0602C241.31 48.9522 241.671 48.7003 242.3 48.8442C243.11 49.0241 243.74 48.952 244.461 48.772C245.722 48.484 246.172 48.5199 247.16 49.0237C247.52 49.2037 248.33 49.2396 248.599 49.5275C248.688 49.6715 248.958 49.8154 248.777 49.9234C248.507 50.0674 248.237 49.9954 248.058 49.8515C248.058 49.7795 248.148 49.7075 248.058 49.6715C247.79 49.2756 245.54 49.0239 244.819 49.2759C244.729 49.3119 244.729 49.3119 244.639 49.3479C244.188 49.6358 244.278 49.6358 243.468 49.5279C243.288 49.6359 243.558 49.6719 243.648 49.7078C243.917 49.8158 244.367 49.8877 244.006 50.0677C243.646 50.2477 243.285 50.3917 242.565 50.3198C241.486 50.2119 241.395 50.2479 240.854 50.5719C241.214 50.6798 241.935 50.4638 242.024 50.7877C242.023 50.8957 242.473 50.9316 242.833 50.9316C243.103 50.9316 243.463 50.9316 243.643 51.0035C244.003 51.1475 244.452 51.4354 244.812 51.1834C245.173 50.9314 244.273 50.8955 243.824 50.7876C243.734 50.7876 243.734 50.7516 243.554 50.7156C244.185 50.4996 244.636 50.0677 245.444 50.7155C245.624 50.8954 246.165 50.6434 246.255 50.5354C246.346 50.3555 246.706 50.2835 246.886 50.3914C247.515 50.6433 248.505 50.5353 249.135 50.7511C249.404 50.8231 249.854 50.8231 250.125 50.6791C250.395 50.5351 250.126 50.4271 249.946 50.3192C249.318 49.8873 249.318 49.8873 250.668 49.6713C251.028 49.8512 249.947 49.9593 250.577 50.1392C250.937 50.1392 250.938 49.9592 251.118 49.8872C251.388 49.7432 251.748 49.7432 252.108 49.7791C252.378 49.8151 252.648 49.9231 252.647 50.067C252.647 50.283 252.197 50.211 251.927 50.247C251.566 50.2831 251.386 50.3911 251.746 50.463C252.556 50.5709 252.914 50.9308 253.724 51.0027C254.174 51.0387 254.624 51.0746 254.355 50.8587C253.906 50.3549 255.257 50.2828 255.438 49.8869C255.888 50.0308 255.707 50.2107 255.617 50.2827C255.074 50.9666 256.516 50.7146 257.145 50.7865C257.325 50.8225 257.866 50.6785 258.046 50.5705C258.317 50.4265 257.867 50.3186 257.687 50.2466C256.788 49.9947 256.25 49.5269 254.719 49.671C254.9 49.383 255.44 49.311 256.07 49.3469C255.711 49.095 255.261 49.131 254.721 49.2031C255.352 48.7351 256.342 48.7711 257.242 48.807C257.423 48.627 256.703 48.663 256.973 48.4831C257.334 48.4111 257.603 48.519 257.693 48.591C258.501 49.2388 259.762 48.9507 260.932 48.8787C261.923 48.8066 262.373 48.9145 261.921 49.3105C261.831 49.4184 261.74 49.5264 262.1 49.5624C262.37 49.5984 262.371 49.4904 262.461 49.4184C262.822 48.9865 263 49.5983 263.361 49.4183C263.632 49.2383 262.912 49.1664 263.183 48.9505C264.261 49.3463 264.533 48.9144 264.984 48.6984C265.164 48.6264 265.254 48.5184 265.074 48.4464C264.895 48.3745 264.625 48.3745 264.355 48.4105C264.084 48.4465 263.814 48.5905 263.454 48.5185C263.184 48.4826 262.734 48.6266 262.734 48.3746C262.825 48.2307 263.095 48.1587 263.455 48.2306C264.265 48.3385 264.445 48.2665 264.536 47.9066C264.537 47.6547 264.177 47.7267 263.997 47.7267C263.277 47.6908 263.819 47.1868 263.009 47.2229C262.468 47.2589 262.377 47.6188 261.747 47.6189C261.657 47.6189 261.567 47.5829 261.567 47.5829C263.01 46.827 263.1 46.827 264.178 47.3308C264.54 46.9708 264.811 46.7189 265.981 46.5388C267.332 46.3588 267.601 46.7906 268.5 46.8985C268.05 47.0785 267.69 47.0426 267.33 46.9346C266.611 46.7547 265.44 46.8628 265.079 47.1507C264.898 47.2947 264.898 47.4747 265.348 47.5466C266.157 47.6905 266.336 47.9424 266.335 48.2664C266.425 48.4823 266.604 48.6622 267.145 48.4463C267.686 48.2303 268.945 48.5181 268.857 47.9782C269.127 47.9782 269.487 47.9422 269.667 47.9782C270.027 48.0141 269.666 48.1221 269.666 48.1941C269.665 48.482 269.035 48.4821 268.494 48.5901C268.764 48.7341 269.214 48.806 269.483 48.9859C269.842 49.2019 270.201 49.7057 271.552 49.3817C272.183 49.2017 272.452 49.5256 272.541 49.7775C272.719 50.3533 272.809 50.3893 274.249 50.2452C274.699 50.2092 275.15 50.1372 275.69 50.1372C276.41 50.1371 276.95 50.0651 276.861 49.7052C276.862 49.5252 277.223 49.4172 277.672 49.4532C278.122 49.4891 278.122 49.6691 277.941 49.7771C277.31 50.173 278.39 50.3169 278.749 50.3888C279.379 50.5328 279.65 50.2448 279.831 49.9929C279.831 49.9569 279.921 49.9569 280.011 49.9209C280.461 49.9568 280.28 50.3167 281 50.2447C281.63 50.1727 281.991 50.0647 282.262 49.8127C282.352 49.7407 282.443 49.5248 282.533 49.5607C283.431 49.9566 283.793 49.4887 284.423 49.4166C284.694 49.3806 284.873 49.4166 284.873 49.4886C284.963 49.5965 284.962 49.7405 284.872 49.8845C284.871 49.9925 284.601 50.0645 284.421 49.9925C283.792 49.7406 283.251 50.0646 282.621 49.9926C283.338 50.7844 285.499 50.6402 286.581 50.1723C286.851 50.0643 286.852 49.9563 286.402 49.9563C286.042 49.9564 285.682 49.9924 285.321 49.9924C285.953 49.4525 286.852 49.8483 287.392 49.9563C288.381 50.1361 288.29 50.4241 287.388 50.964C288.829 50.9639 288.829 50.9639 289.28 50.424C289.461 50.136 290.812 50.028 291.441 50.2439C292.25 50.5317 293.691 50.4596 294.232 50.0637C294.683 49.7757 295.043 49.9556 295.222 50.1356C295.491 50.4235 295.941 50.5314 296.661 50.3874C297.832 50.1714 298.19 50.7832 299.18 50.7831C299.54 50.7831 299 50.9991 298.999 51.215C299.81 50.999 300.62 51.0349 301.52 51.1068C302.329 51.1787 303.05 50.9268 303.861 50.8187C303.951 50.8187 304.131 50.6747 304.041 50.6387C303.413 50.0989 304.403 50.2068 305.123 50.2068C305.663 50.2067 306.024 50.0987 306.294 49.9187C306.475 49.8467 306.205 49.7748 306.025 49.7028C305.576 49.5229 305.215 49.7029 304.855 49.7749C304.494 49.8469 304.134 49.9549 303.955 49.667C303.865 49.487 303.416 49.4151 303.325 49.667C303.233 50.0629 302.694 49.883 302.244 49.8471C301.884 49.8111 301.165 49.4873 301.433 50.0271C301.433 50.0631 301.253 50.1351 301.073 50.1351C300.893 50.1711 300.803 50.0631 300.803 50.0272C300.625 49.5953 300.175 49.3794 299.094 49.7394C299.004 49.7754 298.824 49.7754 298.644 49.7754C297.564 49.7755 299.275 49.3434 298.195 49.3075C297.565 49.3076 297.566 49.1996 297.927 48.9117C298.107 48.7677 298.288 48.6237 298.738 48.6597C299.368 48.7316 298.647 48.9116 298.916 49.0555C299.727 48.7675 300.627 48.9114 301.527 48.9474C302.157 48.9833 302.786 49.1992 303.238 48.7673C303.418 48.6233 303.868 48.7312 304.138 48.8032C304.767 48.9471 305.397 49.055 305.669 48.6231C305.85 48.3712 306.12 48.2272 306.749 48.515C307.199 48.695 307.829 48.7309 308.01 48.371C308.01 48.263 308.19 48.227 308.371 48.155C308.641 48.083 309.091 48.1549 309.092 47.939C309.092 47.723 308.371 47.9391 308.372 47.7231C308.463 47.5431 309.003 47.6151 309.273 47.4351C309.544 47.2191 310.084 47.3631 310.083 47.507C310.082 47.9029 310.622 47.8669 311.342 47.8308C311.251 48.1548 310.8 48.4067 310.26 48.4068C308.28 48.4789 308.277 49.0908 307.915 49.6307C307.825 49.7387 307.825 49.8106 307.555 49.8467C307.284 49.8827 306.745 49.6308 306.834 49.9547C306.834 50.1346 307.013 50.2786 307.463 50.3145C307.823 50.3505 308.273 50.3865 308.182 50.5664C308.092 50.7104 308.001 50.9264 307.461 50.9624C306.921 50.9984 306.83 51.2864 306.109 51.3944C307.729 51.4303 309.079 51.4301 310.429 51.466C307.819 51.5742 305.209 51.5024 302.598 51.5027C284.506 51.5041 266.504 51.3616 248.503 51.2551C230.591 51.1486 212.679 51.042 194.767 50.9355C191.527 50.8998 188.376 51.008 185.136 51.1162C183.515 51.1523 181.985 51.2245 180.727 50.6847C180.367 50.5048 179.737 50.6128 179.197 50.6128C160.475 50.4344 141.843 50.2919 123.121 50.2934C107.459 50.2947 91.7974 50.296 76.2258 50.2252C75.7757 50.2253 75.3258 50.1893 74.8757 50.1894C74.786 50.1174 74.6061 50.0814 74.4259 50.1174C74.3359 50.1174 74.4258 50.1534 74.4257 50.1894C71.275 50.2616 68.1249 50.1899 64.8845 50.1902C53.9033 50.1551 42.9221 50.12 31.9411 50.0489C31.221 50.0489 30.5009 50.049 29.7813 49.9051C29.6014 49.8691 29.4218 49.7611 29.5119 49.7251C30.0524 49.6171 29.5124 49.5812 29.5127 49.5092C29.1538 49.1853 29.6956 48.6814 30.5061 48.5733C31.2266 48.4653 31.5861 48.6092 31.7645 49.0771C32.3952 48.8971 32.9359 48.7171 33.746 48.717C32.847 48.3932 31.6765 48.5013 30.7771 48.2854C30.4173 48.2134 30.0574 48.1775 30.1482 47.9615C30.2387 47.8175 30.509 47.7455 30.869 47.7455C31.3192 47.7095 31.6796 47.6015 32.0399 47.5295C32.4904 47.4215 33.0308 47.3134 33.3898 47.6013C33.5695 47.7093 33.7494 47.7453 33.9295 47.7093C34.1997 47.6733 34.02 47.5653 33.9303 47.4933C33.6619 47.0255 34.7419 47.0614 35.2826 46.8814C36.0929 46.8093 36.4521 47.0612 36.8114 47.2771C36.991 47.3851 37.2608 47.4571 37.5312 47.3491C37.8016 47.2411 37.5318 47.1691 37.3519 47.1331C36.9923 47.0252 37.1726 46.9532 37.353 46.8452C37.5332 46.7732 37.8035 46.7012 37.7139 46.5932C37.5345 46.4133 37.0849 46.2694 37.8055 46.1253C38.5261 45.9813 39.2465 45.9093 39.9659 46.0892C40.5055 46.2331 40.3247 46.4491 40.2339 46.665C40.2336 46.773 39.9631 46.881 40.3231 46.9169C41.1326 47.0608 41.8524 47.1688 42.3915 47.4207C42.4814 47.4566 42.7515 47.4566 42.8417 47.3846C42.932 47.3126 42.7522 47.2407 42.6625 47.1687C41.6735 46.8449 42.3041 46.7008 43.1143 46.6648C43.8345 46.6287 44.6456 46.3407 45.4546 46.6646C45.6343 46.7366 45.9047 46.6286 45.995 46.5566C46.1754 46.4486 45.9056 46.3766 45.7257 46.3406C45.0959 46.2687 44.7366 46.0528 44.3774 45.8009C44.4676 45.7649 44.5577 45.7289 44.7379 45.6929C44.5577 45.7289 44.5575 45.8009 44.3774 45.8009C43.6572 45.8369 43.2088 45.3691 42.308 45.5851C43.2091 45.2971 44.1102 45.0091 45.2802 45.045C46.1802 45.0809 46.9005 45.0089 47.6211 44.8649C47.9814 44.7928 48.2516 44.7568 48.6111 44.9008C49.0605 45.0807 48.3402 45.1527 48.3401 45.1887C48.5176 45.9085 47.2582 45.6927 46.3581 45.6928C46.088 45.6928 45.8179 45.7288 45.7276 45.8008C45.5471 45.9448 45.8167 46.0527 46.0866 46.0887C47.166 46.3045 46.3549 46.5925 46.174 46.8445C45.993 47.1324 45.4533 47.0245 45.0035 46.9526C44.6436 46.9166 44.3733 46.9886 44.1928 47.1326C44.8227 47.1685 44.7313 47.5644 45.4515 47.5284C46.0817 47.4923 46.8921 47.4203 47.4325 47.3123C48.4234 47.0962 48.8726 47.3481 49.1417 47.6001C49.4107 47.888 48.7804 47.96 48.1502 47.996C48.0602 47.9961 48.0601 48.032 47.9698 48.104C48.6899 48.104 49.2292 48.3199 49.8592 48.3558C50.0385 48.5358 48.7779 48.6798 49.5874 48.8597C50.3068 49.0396 50.9378 48.7876 51.6585 48.6076C50.7588 48.4997 50.3993 48.3198 50.4906 47.9599C50.4916 47.6719 49.3216 47.636 49.1429 47.2761C49.2329 47.2761 49.4129 47.2761 49.5029 47.2761C50.7638 47.0601 51.2125 47.4559 51.4814 47.7798C51.8398 48.2477 52.7399 48.2476 53.6399 48.2835C54.3599 48.2835 54.8106 48.1035 54.1817 47.7796C54.002 47.6717 53.6424 47.5637 54.0028 47.4557C54.3632 47.3477 54.633 47.4197 54.9027 47.5276C55.532 47.7435 56.2518 47.8154 57.0627 47.5994C57.4231 47.4914 57.8738 47.3114 57.7824 47.7073C57.782 47.8153 58.2318 47.8873 58.4122 47.7793C58.7727 47.6353 59.0425 47.7072 59.4024 47.7432C60.3919 47.9231 60.5738 47.3832 61.3838 47.4191C60.8448 47.1312 61.6551 47.0592 62.0155 46.9512C62.2861 46.8072 62.8266 46.6632 63.2762 46.8071C63.7257 46.951 63.3653 47.0591 63.0948 47.203C62.8242 47.347 63.2738 47.491 63.273 47.7069C63.9036 47.5629 63.8154 47.059 64.8046 47.3109C64.804 47.4908 63.7237 47.5269 64.353 47.7428C64.8026 47.8867 64.7108 48.3906 65.7918 48.1386C65.972 48.1026 66.152 48.1026 66.1517 48.1746C66.2415 48.2465 66.2412 48.3185 66.1511 48.3545C65.6104 48.5345 64.8902 48.5706 64.2601 48.5706C63.7201 48.5707 64.171 48.3187 64.0815 48.1747C63.7216 48.1388 63.4512 48.2468 63.181 48.2828C62.2806 48.3548 61.2003 48.4269 61.8282 49.0387C62.0077 49.1826 61.9169 49.3986 61.4666 49.4706C61.0163 49.5426 60.927 49.3627 60.7473 49.2547C59.759 48.7509 59.759 48.7509 61.2005 48.3549C61.4708 48.2829 61.7412 48.1749 62.1015 48.1029C61.2918 47.995 60.6622 47.8511 59.9407 48.247C59.5798 48.499 58.3194 48.5711 57.7792 48.6071C56.699 48.6432 56.0683 48.8232 55.6173 49.0752C55.0762 49.3632 54.6262 49.3632 53.9968 49.1833C53.4572 49.0394 53.1868 49.1474 52.8264 49.2554C52.6462 49.2914 52.5558 49.3994 52.8257 49.4353C53.9952 49.6152 55.1646 49.831 56.5148 49.8309C56.6948 49.8309 56.875 49.7949 56.9653 49.6869C57.0565 49.363 57.5064 49.399 58.136 49.5429C57.8667 49.3269 57.4174 49.111 58.1381 48.931C58.4077 49.075 58.6773 49.1829 58.8568 49.3269C59.5748 49.9387 60.2045 50.0466 61.7359 49.6865C62.2764 49.5785 62.636 49.6865 62.9057 49.7944C63.3552 49.9383 63.8053 49.9383 64.0758 49.7943C64.4365 49.6143 63.8065 49.5784 63.6269 49.4704C63.2674 49.3265 62.9977 49.2186 63.2685 49.0026C63.5392 48.8226 63.7193 48.7866 64.3493 48.8225C65.3394 48.8225 66.3299 48.7144 66.7814 48.2825C66.8718 48.1745 66.8722 48.0665 67.142 48.1385C68.0412 48.3903 69.0318 48.2463 70.0221 48.2102C70.8323 48.1742 70.9214 48.4261 71.1907 48.642C71.4598 48.8939 71.1894 49.0019 70.739 49.11C70.1986 49.218 69.3882 49.29 70.3773 49.5779C70.6471 49.6498 70.6466 49.7938 70.3763 49.8658C70.0159 49.9738 70.1065 49.7938 69.9268 49.7219C69.747 49.6499 69.567 49.6499 69.3867 49.7219C69.2066 49.7579 69.1163 49.8299 69.1159 49.9379C69.1155 50.0459 69.3854 50.0818 69.5655 50.0818C70.2857 50.0458 71.3648 50.3336 71.4572 49.6498C71.4578 49.4698 71.6389 49.1819 71.8196 48.9659C72.0005 48.7139 72.3612 48.534 72.991 48.6059C73.4408 48.6778 74.1607 48.7498 73.7095 49.0737C73.6192 49.1457 73.619 49.2177 73.6186 49.3257C73.6182 49.4336 73.1674 49.6496 73.8875 49.6496C74.6076 49.6495 73.9781 49.4696 74.0685 49.3616C74.249 49.2176 74.4294 49.1097 74.8798 49.0376C75.5102 48.9296 76.3207 48.8216 75.6921 48.3897C75.4228 48.1738 75.8729 48.1738 76.1428 48.2097C76.5927 48.2457 76.9523 48.3896 77.0417 48.5696C77.4003 48.9655 78.2999 49.1093 79.1995 49.2532C79.7392 49.3612 80.2799 49.1812 80.1906 48.9652C80.1015 48.7133 80.5519 48.6053 80.8224 48.4973C81.0928 48.3893 81.3632 48.2813 81.8127 48.4252C82.2623 48.5692 81.722 48.6412 81.6317 48.7132C81.5409 48.9291 81.6299 49.217 81.5392 49.433C81.0867 50.1169 82.1671 50.0448 83.2472 50.0447C83.9673 50.0447 84.6873 50.0806 85.7674 50.0805C84.598 49.8647 84.2386 49.6847 84.7801 49.2888C85.3218 48.8208 85.9506 49.1807 86.4905 49.2167C87.4801 49.3605 87.659 49.6844 87.0277 50.0444C88.1072 50.2243 88.8285 49.8643 89.7289 49.7923C90.4492 49.7202 90.8106 49.3243 91.8006 49.3602C91.9807 49.3602 92.0709 49.2882 91.9812 49.2162C91.8914 49.1442 91.7115 49.1083 91.4414 49.1443C90.7208 49.2883 90.1815 49.0724 89.5515 49.0365C89.4624 48.7845 90.272 48.9284 90.2727 48.7125C89.7328 48.6765 89.1928 48.6406 88.9237 48.3887C88.8341 48.2807 88.6544 48.1727 89.0147 48.1007C89.1949 48.0647 89.4649 48.0647 89.6445 48.1727C90.5435 48.4965 91.5325 48.8203 92.4316 49.1082C93.3307 49.3961 94.591 49.36 95.4022 49.036C94.772 49.072 94.2318 49.1081 93.7821 49.0001C93.6024 48.9282 93.2424 48.8922 93.3328 48.7842C93.9647 48.2803 92.9743 48.3523 92.3444 48.3164C91.9843 48.3164 91.5343 48.3165 91.625 48.1005C91.7154 47.9925 91.7163 47.7406 92.4358 47.9205C92.6157 47.9565 94.0548 48.2443 94.3269 47.6684C94.4174 47.5244 94.9572 47.5964 95.0467 47.7403C95.136 47.9563 95.4052 48.1722 94.8644 48.3882C94.6841 48.4602 94.234 48.4962 94.5035 48.6402C94.6831 48.7481 94.8631 48.7481 95.1332 48.7481C95.4032 48.7481 95.5831 48.784 95.853 48.82C96.4827 48.9279 97.2924 49.0358 97.474 48.6039C97.4742 48.5319 97.5646 48.424 97.8345 48.4599C97.9245 48.4599 98.1042 48.5679 98.104 48.6039C97.8331 48.8558 98.1927 48.9998 98.4621 49.1797C98.6417 49.2877 98.7312 49.4316 98.3708 49.5396C98.0104 49.6476 97.7405 49.6117 97.4708 49.5037C97.291 49.4317 97.1114 49.3238 96.8416 49.2518C96.5718 49.1799 96.3019 49.1439 96.0316 49.2159C95.7614 49.2879 95.7609 49.4319 95.8504 49.5758C96.478 50.2596 96.478 50.2596 98.4589 50.0795C100.26 49.8994 100.26 49.8994 99.8121 49.2156C99.7225 49.1076 99.5428 48.9997 99.9032 48.8917C100.264 48.8196 100.533 48.8556 100.713 48.9996C100.982 49.2515 101.252 49.1795 101.793 49.1074C102.513 48.9994 102.694 48.7475 102.785 48.4955C102.876 48.3156 102.696 48.1716 102.066 48.2436C101.886 48.2796 101.706 48.2437 101.886 48.1717C102.247 48.0277 101.977 47.7758 102.518 47.6677C102.788 47.6317 102.968 47.6317 103.148 47.7037C103.507 47.8836 103.596 48.1715 104.497 48.0995C105.217 48.0274 105.308 47.7755 105.849 47.5595C106.297 48.0993 107.286 48.3512 108.546 48.4591C108.816 48.495 109.356 48.423 109.175 48.639C108.995 48.8189 108.725 48.639 108.545 48.603C107.825 48.5671 107.015 48.6751 106.386 48.3873C106.206 48.3153 106.026 48.4233 105.935 48.4953C105.845 48.6032 105.755 48.6752 105.574 48.7472C105.304 48.8192 104.674 48.7473 104.763 49.0352C105.304 48.9272 105.572 49.4671 106.293 49.1071C106.834 48.8551 107.645 48.7471 107.823 49.2869C107.912 49.4309 108.272 49.5388 108.452 49.6468C108.541 49.7188 108.721 49.7547 108.991 49.7547C109.892 49.6107 109.892 49.6107 110.431 49.9345C110.791 49.8625 110.612 49.7186 110.702 49.6466C111.063 49.2867 111.693 49.2506 112.412 49.5385C113.491 50.0063 114.481 49.9702 115.113 49.3943C115.474 49.0703 115.925 48.9623 116.735 48.9263C117.545 48.9262 117.995 48.9982 117.724 49.3581C117.543 49.5381 117.543 49.6101 118.083 49.538C118.353 49.502 118.533 49.574 118.623 49.6819C118.712 49.7899 118.172 50.0059 118.982 49.9339C119.702 49.8978 120.872 49.8257 120.963 49.6458C121.055 49.1779 122.315 49.1778 122.495 49.1778C123.395 49.1777 122.946 48.7818 123.577 48.7458C124.477 48.7097 124.208 48.4578 123.848 48.2419C123.759 48.1699 123.849 48.0979 124.029 48.0259C124.299 47.9899 124.389 48.0619 124.479 48.1339C125.467 48.5657 126.457 48.6016 127.629 48.2776C127.719 48.2416 127.809 48.2056 127.899 48.1696C128.26 48.0616 128.8 47.8456 129.16 48.0255C129.519 48.1694 128.799 48.3495 128.528 48.4215C127.988 48.5655 127.626 48.9254 126.727 48.8175C126.277 48.7816 126.726 49.1414 126.096 49.0695C125.646 49.0335 126.007 48.8176 125.647 48.7456C125.467 48.7096 125.197 48.7456 125.287 48.7816C125.735 49.2495 124.744 49.4655 124.293 49.7895C124.293 49.7895 124.383 49.8614 124.383 49.8974C124.743 49.9334 124.924 49.5015 125.463 49.7894C125.733 49.9333 125.913 49.7533 126.094 49.6813C126.364 49.5374 126.545 49.4294 126.815 49.2854C127.085 49.1774 127.356 49.0694 127.716 49.1413C128.165 49.2493 127.445 49.3573 127.715 49.4653C128.164 49.5012 128.075 49.3573 128.345 49.2853C128.796 49.1413 129.427 48.9613 129.785 49.3211C129.965 49.5011 130.866 49.2851 130.864 49.609C130.864 49.7529 130.143 49.861 130.683 49.9689C131.223 50.0768 132.123 50.1128 132.393 50.0048C133.024 49.7528 134.104 49.7167 134.556 49.3927C134.106 49.2128 133.835 49.5368 133.475 49.3928C133.566 49.2129 133.837 49.1049 134.287 49.1048C136.177 49.1407 137.528 48.7447 138.97 48.3846C139.24 48.3126 141.489 48.5284 141.489 48.6364C141.578 48.8883 141.217 49.1043 140.677 49.2483C140.316 49.3563 139.686 49.4283 139.865 49.6083C140.135 49.8962 140.855 49.6442 141.395 49.7161C141.845 49.7521 141.936 49.5361 142.027 49.3561C142.027 49.2842 142.027 49.2122 142.027 49.1762C141.489 48.6364 142.839 48.7082 143.289 48.6722C143.919 48.6362 144.008 48.9241 144.008 49.176C144.007 49.32 143.737 49.428 144.096 49.6079C145.534 50.2556 145.357 49.4998 145.897 49.3198C146.886 49.6437 147.427 49.5716 147.968 49.0317C148.149 48.8878 148.149 48.7798 147.97 48.6718C147.7 48.5279 147.43 48.7079 147.25 48.6719C146.17 48.492 145.629 48.888 144.728 48.96C144.729 48.852 144.729 48.7801 144.639 48.6721C144.37 48.4562 144.281 48.2762 145.18 48.3841C145.63 48.4201 145.991 48.3841 146.171 48.2041C146.713 47.8081 147.253 47.8081 148.332 47.988C149.142 48.1319 149.951 48.4197 151.032 48.2757C152.022 48.1676 152.741 48.4195 153.641 48.6354C153.641 48.4554 153.372 48.2755 153.822 48.1675C154.092 48.0955 154.363 47.9515 154.093 47.8435C153.824 47.6636 153.553 47.8796 153.283 47.9156C153.103 47.9516 152.923 47.9876 152.653 48.0236C152.833 47.8076 153.374 47.5197 152.204 47.5917C152.114 47.5918 151.934 47.5558 151.754 47.5198C150.585 47.16 150.585 47.16 149.774 47.6279C149.683 47.6639 149.593 47.6639 149.413 47.7359C149.504 47.52 149.415 47.304 149.595 47.1601C149.776 47.0161 150.047 46.6921 150.856 46.98C151.126 47.052 151.576 47.0879 151.846 47.0879C152.476 47.0878 152.476 46.9079 152.567 46.7279C152.568 46.584 152.568 46.404 151.938 46.548C151.217 46.692 151.488 46.3681 151.218 46.2961C150.859 46.1522 151.04 45.9722 150.95 45.7563C150.5 45.9003 150.139 46.0803 149.689 46.1163C149.419 46.1523 149.058 46.2963 148.789 46.1524C148.609 46.0444 148.43 45.8285 148.61 45.7565C149.241 45.4325 148.431 45.3606 148.252 45.1447C148.072 45.1807 148.072 45.1807 148.072 45.1807C147.981 45.3606 148.07 45.6126 147.35 45.6486C146.9 45.6846 146.901 45.5047 146.901 45.4327C146.902 45.1808 147.263 44.9648 147.803 44.9647C148.433 44.9287 148.973 44.8567 149.514 44.7846C149.964 44.7126 150.504 44.6046 150.773 44.8565C150.953 45.0365 151.042 45.2164 150.412 45.3604C150.951 45.4684 150.951 45.5403 150.951 45.5763C150.771 45.6123 150.681 45.6124 150.501 45.6484C150.681 45.6483 150.771 45.6123 150.951 45.5763Z" fill="#FEBD00"/>
<path d="M35.2832 46.809C35.2827 46.953 35.1023 47.0609 34.7421 47.097C34.1118 47.169 33.9314 47.277 34.3807 47.4929C34.5605 47.5649 34.9198 47.7808 34.3797 47.7808C34.0197 47.7809 33.3893 47.8529 33.03 47.637C32.7608 47.421 32.5809 47.3851 32.2203 47.5291C31.7696 47.7091 31.4092 47.8171 30.7791 47.8171C30.5991 47.8171 30.329 47.8531 30.3287 47.9251C30.3283 48.0331 30.5082 48.0691 30.6882 48.0691C31.3183 48.069 31.767 48.4649 32.3981 48.1769C32.5782 48.1409 32.7581 48.1769 32.848 48.2128C33.1169 48.5367 33.8372 48.4647 34.5575 48.4287C34.2867 48.6446 33.9261 48.7886 33.3861 48.7887C32.936 48.7887 32.4857 48.8607 32.305 49.0407C32.1246 49.1487 32.0344 49.2207 31.6746 49.1487C31.4048 49.0767 31.135 49.0048 31.3154 48.8968C31.4958 48.7888 31.7664 48.6448 31.2264 48.6089C30.9565 48.5729 30.4166 48.537 30.2359 48.7169C30.0554 48.8609 30.2347 49.0768 29.6045 49.1129C29.4244 49.1129 29.8737 49.3288 29.9634 49.4368C29.6031 49.5088 29.3332 49.4728 28.9733 49.4369C27.8037 49.257 27.6255 48.7531 27.2667 48.3933C26.9077 48.1054 26.2772 48.2134 26.0078 48.0334C25.5588 47.7455 26.9987 47.8174 26.6394 47.6015C26.3703 47.3496 26.4622 46.8097 25.0208 47.1337C24.8407 47.1697 24.5708 47.1338 24.3009 47.0978C24.2114 46.9538 24.7517 46.8818 24.5722 46.7379L24.4822 46.7379C24.753 46.5219 24.1225 46.6299 24.0327 46.558C23.6736 46.306 23.7647 45.9821 24.1255 45.7661C24.3963 45.5502 24.5771 45.3342 24.6679 45.1183C24.5784 44.9743 24.0385 44.9024 24.2192 44.7224C24.2194 44.6504 24.1296 44.6144 23.9497 44.5784C23.5896 44.5785 23.4104 44.3625 22.9599 44.4706C22.6898 44.5066 22.42 44.4346 22.2397 44.5066C22.0596 44.5426 21.9689 44.7226 21.6991 44.6506C21.2496 44.5067 20.5301 44.3268 20.5305 44.2188C20.7121 43.7869 19.9012 44.0029 19.6315 43.895C19.5417 43.859 19.5419 43.787 19.6321 43.751C19.7224 43.643 20.3525 43.643 19.9932 43.427C19.9035 43.3551 19.6338 43.2471 19.994 43.2111C20.4443 43.1391 20.7146 43.0671 20.355 42.9231C20.0854 42.8152 19.8159 42.6712 19.3655 42.7433C18.9152 42.8153 18.6452 42.8153 18.2855 42.7074C18.3757 42.6714 18.4658 42.6354 18.3759 42.5994C18.3759 42.5994 18.2859 42.5994 18.3758 42.6354C18.3757 42.6714 18.3756 42.7074 18.2855 42.7074C17.8355 42.7074 17.2957 42.6355 17.5663 42.4555C17.9274 42.1675 17.6584 41.8796 17.6594 41.5917C18.3802 41.3757 18.4709 41.1957 17.6615 40.9798C17.212 40.8359 17.3026 40.6559 17.5734 40.44C17.6638 40.332 18.0242 40.224 17.6644 40.152C17.3046 40.0801 16.7648 40.0081 16.4045 40.0802C15.9542 40.1522 16.2237 40.2961 16.3134 40.4041C16.4031 40.4761 16.4029 40.548 16.1326 40.62C15.5033 40.4041 14.7829 40.4762 14.0629 40.4762C13.7028 40.4763 13.4325 40.5483 13.2531 40.3683C13.3437 40.2244 14.2433 40.3683 13.9742 40.0803C13.9746 39.9724 14.0649 39.9004 14.335 39.8644C14.5151 39.8644 14.6951 39.8643 14.6952 39.8284C14.6955 39.7564 14.5153 39.7924 14.3353 39.7924C13.8851 39.8284 13.7947 39.9364 13.9741 40.1163C13.7032 40.3683 13.3437 40.2244 12.9837 40.1884C12.6241 40.0805 12.3544 39.9725 11.9946 39.9006C11.185 39.7567 11.9959 39.5406 11.8165 39.3607C11.637 39.2167 12.1767 39.3247 12.4467 39.3247C12.6268 39.2886 13.0769 39.2886 12.9871 39.2166C12.538 38.9647 13.4395 38.5688 12.2701 38.3529C11.9102 38.3169 11.0108 38.1011 11.3721 37.7411C11.4625 37.6331 11.0122 37.7052 10.8323 37.6692C10.6524 37.6332 10.5625 37.5972 10.5628 37.5252C10.5629 37.4893 10.5632 37.4173 10.5633 37.3813C10.8342 37.1293 11.375 36.9133 11.8253 36.8413C12.996 36.6973 12.7267 36.4813 12.1875 36.2294L12.0976 36.1934C12.8187 35.9055 11.6483 35.9775 11.6488 35.8336C11.379 35.7616 11.4697 35.5816 11.1998 35.5457C10.7499 35.5097 10.6609 35.2218 9.94039 35.3298C9.49008 35.4018 9.49084 35.1859 9.67124 35.0779C10.0322 34.8259 9.85252 34.718 9.22257 34.682C8.41272 34.6101 8.50362 34.3582 8.41449 34.1063C8.41499 33.9623 8.59527 33.8903 8.77579 33.7463C8.2356 33.7823 7.69516 33.8904 7.24586 33.6744C6.61692 33.3506 6.79846 32.9187 6.34954 32.5948C5.99038 32.3429 6.89149 32.0549 7.79122 32.1628C8.06201 31.9468 8.15215 31.9108 8.6027 31.7668C8.24266 31.7668 7.79248 31.8029 7.43282 31.6949C7.25317 31.587 7.0734 31.515 6.89376 31.407C6.71424 31.2631 6.35458 31.1551 5.99491 31.0472C5.63512 30.9752 5.45624 30.6513 4.91504 30.9753C4.73464 31.0833 4.28471 31.0473 3.92492 30.9754C3.65501 30.9394 3.56525 30.8674 3.47549 30.7955C3.29724 30.2916 2.57879 29.8238 2.49067 29.2839C2.8516 29.0319 2.58257 28.744 2.76348 28.4921C3.1244 28.2401 3.4852 28.0241 4.02577 27.8801C4.29605 27.8081 4.56634 27.7361 4.29681 27.5922C4.11691 27.5562 3.93702 27.5202 3.75725 27.4483C3.48772 27.3043 3.4881 27.1963 3.66863 27.0524C4.20919 26.9083 4.92928 26.9083 5.20032 26.6203C5.56137 26.3324 5.56226 26.0804 4.93281 25.9005C4.39325 25.7566 4.48351 25.6846 4.93394 25.5766C5.56452 25.4326 5.9257 25.1086 6.37651 24.8927C6.73719 24.7127 6.55767 24.5687 6.19813 24.4248C5.83859 24.2809 5.47893 24.1729 5.74971 23.9569C5.57032 23.777 5.57083 23.633 6.11102 23.597C6.47119 23.561 6.65146 23.489 6.83186 23.381C6.922 23.345 6.922 23.345 7.01213 23.309C7.19241 23.237 7.64246 23.237 7.46307 23.057C7.37331 22.985 7.19342 22.9491 7.1034 22.9491C6.74311 23.0211 7.10265 23.165 6.92238 23.237C6.56183 23.381 6.29066 23.705 5.57158 23.4171C5.21242 23.1652 4.49183 23.3092 4.04241 23.1293C3.68287 22.9853 3.41309 22.9134 3.41372 22.7334C3.59437 22.5535 3.86466 22.4814 4.31471 22.4814C4.58462 22.5174 4.58399 22.6973 4.94428 22.6253C5.75488 22.4813 6.29583 22.2293 6.567 21.9054C6.92729 21.8334 7.73751 21.7973 6.9283 21.5454C6.7484 21.5095 6.74878 21.4015 7.01894 21.3655C7.37898 21.3654 7.64914 21.3294 7.91955 21.2214C8.63901 21.4013 9.53899 21.4372 10.2584 21.6171C10.7081 21.7251 11.2489 21.5091 11.6095 21.3651C11.97 21.2211 12.2406 21.0771 12.7804 21.1491C13.2302 21.221 13.4096 21.4009 13.2288 21.6169C13.0487 21.6529 13.0489 21.5809 13.1388 21.6169C13.1388 21.6169 13.1388 21.6169 13.2288 21.6169C13.4089 21.5809 13.3191 21.5449 13.3189 21.5809C13.3189 21.5809 13.3189 21.5809 13.2289 21.5809C13.8576 21.9768 14.6672 22.1207 15.748 21.9406C16.0181 21.9046 16.1083 21.8686 16.3779 21.9766C17.0969 22.3004 17.9971 22.2644 18.8083 21.9404C19.1689 21.7964 19.6196 21.6164 20.4292 21.7603C19.5283 21.9763 19.4374 22.2283 20.1564 22.5521C20.6056 22.768 20.3342 23.164 21.3241 23.2359C21.5041 23.2358 21.3235 23.4158 21.1434 23.4158C20.7833 23.4518 20.2425 23.6678 20.0634 23.3799C19.7948 22.984 19.2538 23.236 18.8938 23.2361C18.5338 23.2361 18.4426 23.56 18.0831 23.4161C17.3641 23.0922 16.5544 22.9843 16.3756 22.6244C16.2865 22.3725 16.3768 22.3005 15.4765 22.3365C14.4863 22.3726 12.9556 22.5167 12.2379 21.8329C12.0558 22.4448 12.0565 22.2289 10.7962 22.2649C9.44608 22.2651 9.80701 22.0131 9.71788 21.7612C9.71813 21.6892 9.6285 21.5812 9.35834 21.6172C8.8179 21.7252 9.2677 21.7972 9.26744 21.8692C9.26694 22.0131 8.9964 22.1571 8.63661 22.0852C8.09693 21.9772 7.91678 22.0132 7.82601 22.2292C7.82551 22.3732 7.5551 22.4812 8.18467 22.6251C8.72436 22.733 9.1729 23.1649 9.08175 23.4888C8.89959 24.1006 8.80958 24.1007 10.3398 24.1005C10.4291 24.2805 10.0693 24.2085 9.8892 24.2445C9.43889 24.3166 9.25824 24.4965 9.34775 24.6405C9.52714 24.8204 9.88769 24.6764 10.158 24.6044C11.2387 24.4244 11.5971 24.8922 12.2266 25.0721C12.946 25.252 12.4941 25.7919 13.3933 26.0438C13.4832 26.0798 12.4009 26.6917 12.1309 26.6918C11.8609 26.6918 11.5009 26.6558 11.6813 26.5478C12.2223 26.2958 11.3228 26.116 11.6835 25.936C11.3238 25.828 10.1514 26.476 10.694 25.7561C10.7844 25.6481 10.6046 25.5762 10.4246 25.5762C9.52462 25.5402 8.62464 25.5043 7.81454 25.5044C7.36449 25.5044 7.09408 25.6124 7.27347 25.7924C7.3631 25.9003 7.54287 25.9723 7.90317 25.9003C8.17332 25.8643 8.3541 25.6483 8.71364 25.7923C8.98317 25.9362 8.71251 26.1162 8.4421 26.2242C8.2617 26.3322 7.63175 26.2962 8.26119 26.4761C8.53097 26.5481 8.08067 26.6201 7.81063 26.6201C7.54048 26.6561 7.09042 26.6562 7.26994 26.8001C7.44946 26.9441 7.35831 27.268 7.98851 27.232C8.5287 27.1959 8.889 27.1239 8.52782 27.4479C8.43756 27.5199 9.33666 27.8077 9.78646 27.8797C10.5962 27.9876 10.5055 28.1675 10.3246 28.4195C10.0535 28.7434 10.3221 29.1393 9.33124 29.3553C9.06083 29.4633 8.79054 29.5353 8.43075 29.4634C8.07083 29.4274 8.07146 29.2475 8.07184 29.1395C8.07235 28.9955 8.34301 28.8155 7.62305 28.7796C7.08298 28.7797 6.72269 28.8517 6.54204 29.0316C6.27125 29.2476 6.9012 29.2835 7.17098 29.3555C7.62065 29.4634 7.98057 29.4994 7.4395 29.7874C7.07882 29.9674 7.88816 30.1833 8.24833 30.1472C9.32897 30.0032 9.8684 30.1831 10.4973 30.507C10.8568 30.6869 11.4865 30.7948 12.0261 30.9027C12.3859 30.9747 13.2865 30.8307 12.7451 31.2266C12.6548 31.2986 13.1045 31.4065 13.1948 31.3345C13.7368 30.7586 14.726 31.0465 15.7158 31.1184C15.7166 30.9024 16.0774 30.6865 15.0875 30.6146C14.7276 30.5786 14.9088 30.2547 15.5393 30.1107C15.7192 30.1466 15.7192 30.1466 15.7192 30.1466C15.6292 30.1466 15.6293 30.1106 15.5393 30.1107C15.3594 30.0747 15.5397 30.0027 15.4494 30.0747C15.4493 30.1107 15.6292 30.1466 15.5393 30.1107C15.4511 29.6068 16.5316 29.4987 17.4325 29.2827C17.3412 29.6426 17.4306 29.8226 18.5111 29.7145C19.2314 29.6425 19.4998 30.1103 19.7691 30.3263C20.3078 30.7221 20.7567 31.046 21.8364 31.1539C22.1063 31.1899 22.6461 31.2618 22.3755 31.4418C22.195 31.5858 21.8354 31.4418 21.5656 31.3699C21.116 31.2619 20.8457 31.3339 20.5751 31.4779C19.9447 31.5859 19.9454 31.37 19.7659 31.226C19.5864 31.0821 19.7672 30.8661 19.5877 30.7222C19.3181 30.5782 18.9584 30.5063 18.418 30.5783C17.7877 30.6503 17.6985 30.4344 17.4289 30.2905C16.8881 30.5064 17.0675 30.6864 17.6971 30.8303C17.9674 30.7583 18.148 30.5783 18.5082 30.5423C18.8682 30.5423 19.2283 30.5422 19.4079 30.6502C19.7673 30.8301 19.3165 31.0461 19.4958 31.262C19.5854 31.37 19.405 31.478 19.0451 31.442C18.0551 31.4061 17.1541 31.6581 16.1646 31.4783C15.9847 31.4423 15.6248 31.4063 15.6247 31.4423C15.2627 31.9822 13.5519 32.1623 13.3697 32.7742C14.2709 32.4862 14.8107 32.5581 15.1695 32.918C15.2592 32.99 15.3491 33.026 15.5292 32.9899C15.7994 32.9539 15.7997 32.882 15.8899 32.81C15.9803 32.702 15.8007 32.594 15.9811 32.486C16.1617 32.3061 16.4326 32.0541 16.9724 32.126C18.322 32.3059 19.0434 31.9099 19.9446 31.6219C20.1248 31.5499 20.3951 31.4779 20.6654 31.4059C21.2048 31.5858 21.7445 31.6938 22.465 31.5857C22.8252 31.5497 23.4555 31.4777 23.4547 31.6936C23.5437 31.9815 24.3529 32.2334 23.9918 32.5574C23.6307 32.8453 23.091 32.7374 22.5515 32.5935C22.1018 32.4855 21.7426 32.2336 21.2019 32.4136C20.8414 32.5576 20.8408 32.7376 21.2901 32.9535C21.5596 33.0974 21.1988 33.3134 20.5683 33.4214C20.2982 33.4574 19.6677 33.5655 20.2972 33.7454C20.5669 33.8173 20.9269 33.8533 20.7462 34.0333C20.5657 34.1773 20.2055 34.2133 19.9355 34.2133C19.5753 34.2493 19.0355 34.1774 19.036 34.0334C18.9469 33.7815 18.7674 33.6375 18.1377 33.5296C18.0478 33.4936 17.8684 33.3137 18.3186 33.2777C18.5886 33.2776 18.8586 33.2776 18.8591 33.1336C18.7696 32.9897 18.4095 33.0257 18.1396 32.9897C17.5996 32.9538 17.3291 33.0978 16.8788 33.1698C15.978 33.3498 15.1679 33.3499 14.3585 33.17C13.726 33.8539 13.726 33.8539 15.5229 34.7895C14.6222 34.9695 14.0814 35.1855 15.0701 35.5814C15.2499 35.6533 15.4293 35.8333 15.1587 35.9773C14.8882 36.1212 14.8878 36.2292 15.0672 36.4092C15.3364 36.6611 14.616 36.7331 14.166 36.7331C13.8059 36.7332 13.626 36.6972 13.5354 36.8772C13.5349 37.0211 13.8051 36.9851 13.9849 37.0211C14.5249 37.057 14.7044 37.201 14.7937 37.4169C14.7932 37.5609 15.1519 37.9208 15.603 37.6328C16.2343 37.2728 16.8642 37.3448 17.764 37.4167C17.7635 37.5607 17.4931 37.6687 17.1331 37.6687C16.5031 37.6327 16.3223 37.8487 16.2318 37.9927C16.141 38.2086 16.8616 38.0646 17.041 38.2445C16.2307 38.3166 16.4992 38.7485 15.6885 38.9285C15.3282 39.0005 15.7772 39.2884 15.9566 39.4683C16.0462 39.5763 16.3161 39.6123 16.5863 39.5763C17.2168 39.4682 16.5874 39.2523 16.858 39.1084C16.948 39.1083 17.038 39.1083 17.1279 39.1443C17.8473 39.3242 18.2057 39.7921 18.8356 39.864C19.4655 39.8999 20.2762 39.7199 21.0858 39.8638C21.4456 39.9358 21.626 39.8278 21.8064 39.7198C22.2575 39.4318 22.7982 39.2518 23.6972 39.5757C23.2486 39.1438 23.1602 38.6759 22.2611 38.3881C21.8117 38.2082 21.7231 37.8123 20.7325 37.9563C20.7325 37.9563 20.6427 37.8843 20.6428 37.8484C20.6431 37.7764 20.8234 37.7044 20.9133 37.7404C22.0831 37.8122 22.6238 37.6322 22.3556 37.1284C22.3558 37.0564 22.4463 36.9124 22.6262 36.9484C22.8963 36.9484 23.2561 37.0203 23.5258 37.0923C23.7956 37.1643 23.6153 37.2363 23.4352 37.2723C23.0745 37.4523 22.7138 37.6322 22.263 37.8482C23.433 37.8841 24.1524 38.1 24.0607 38.5679C24.0606 38.6039 24.1504 38.6759 24.1502 38.7119C25.8596 38.9637 24.6874 39.5396 24.5064 39.8276C24.3253 40.1155 23.1543 40.3675 22.2535 40.5836C21.9832 40.6556 21.5332 40.6196 21.4425 40.8356C21.4418 41.0155 21.7114 41.1595 22.1613 41.1954C23.2411 41.3033 23.15 41.5912 22.9688 41.9512C22.2489 41.8792 22.1605 41.4114 21.1699 41.5554C20.9898 41.5914 20.72 41.5195 20.5396 41.6274C19.9986 41.8794 19.8191 41.7355 19.73 41.4835C19.7304 41.3756 19.8209 41.2316 19.3708 41.2316C19.0107 41.2677 19.1902 41.4116 19.1898 41.5196C19.1896 41.5916 19.2791 41.7355 19.1891 41.7355C17.9278 42.0595 19.1873 42.2394 19.4564 42.4913C19.6358 42.6713 20.0859 42.6712 20.3562 42.5992C21.5274 42.2752 22.7866 42.563 24.0471 42.455C24.4073 42.4189 24.3165 42.6349 24.5864 42.6709C24.7661 42.7788 25.2157 42.8868 25.1254 42.9947C24.7634 43.5346 25.6624 43.8585 26.2011 44.2543C26.7401 44.5422 27.2797 44.6862 28.1806 44.4701C28.3611 44.3262 28.6314 44.2541 28.9016 44.1821C28.9917 44.1821 29.0817 44.1821 29.1717 44.1821C30.5222 44.074 31.692 44.1819 32.7707 44.5777C33.0404 44.6857 33.3102 44.7576 33.1296 44.9016C32.9491 45.0456 32.5893 44.9737 32.4094 44.9377C31.8697 44.8297 31.3294 44.9018 30.6997 44.7938C31.1493 44.9378 32.0491 45.0097 31.778 45.3336C31.5972 45.5496 31.0572 45.5136 30.6976 45.4057C30.158 45.2618 29.7977 45.3338 29.7068 45.5857C29.4357 45.9097 28.8046 46.1977 28.5334 46.5216C28.2621 46.8815 28.6217 47.0255 29.6118 47.0254C29.6128 46.7375 29.3436 46.4855 29.5247 46.1976C29.6152 46.0536 29.5263 45.7297 30.426 45.8376C30.9651 46.1255 31.1438 46.4854 31.4126 46.8453C31.5914 47.2052 31.9518 47.0972 32.4022 46.9892C32.8528 46.8452 33.3929 46.8451 33.8432 46.7731C34.9224 47.025 35.0138 46.6291 35.3746 46.4131C35.6448 46.3771 35.7346 46.413 35.8243 46.521C35.7341 46.557 35.0138 46.6291 35.2832 46.809Z" fill="#FEBD00"/>
<path d="M16.042 40.5843C16.1325 40.4403 15.7728 40.3684 15.6831 40.2604C15.5936 40.1165 15.684 40.0085 15.9544 39.9005C16.2249 39.7565 16.4046 39.8645 16.6745 39.9004C16.8544 39.9364 17.1242 40.0084 17.3043 39.9724C18.8351 39.7923 18.1137 40.1882 17.933 40.3682C17.7524 40.5482 17.3018 40.6922 17.8412 40.8721C18.0208 41.0161 17.8405 41.0881 17.5702 41.1601C17.21 41.1961 16.8499 41.2321 16.3997 41.2681C16.2205 41.0162 16.1313 40.8003 16.042 40.5843Z" fill="#FEBD00"/>
<path d="M4.40448 22.4094C3.95455 22.3735 3.68392 22.5535 3.32375 22.5896C3.23386 22.5536 3.05396 22.5176 2.96407 22.4816C2.6045 22.3377 1.88466 22.2659 2.15553 22.0139C2.51629 21.7979 3.05575 21.9777 3.41556 22.0497C3.86537 22.1216 4.22553 22.0855 4.40591 21.9775C4.76679 21.7255 5.39723 21.6174 5.93789 21.4374C6.38806 21.4013 6.83824 21.3652 6.65726 21.6532C6.02635 21.9052 5.48533 22.1932 4.85442 22.4453C4.76429 22.4813 4.58438 22.4454 4.40448 22.4094Z" fill="#FEBD00"/>
<path d="M12.0975 36.1218C12.367 36.2657 13.2675 36.1577 13.1763 36.4816C13.0854 36.7335 12.4552 36.7696 12.005 36.8056C11.825 36.8056 11.5549 36.8416 11.6447 36.8776C11.6436 37.2015 10.9237 37.1656 10.4731 37.3096C10.2931 37.3096 10.2032 37.2736 10.0232 37.2737C9.84353 37.1657 10.1137 37.1297 10.2938 37.0937C10.6555 36.6258 11.0168 36.2658 12.0975 36.1218Z" fill="#FEBD00"/>
<path d="M17.4806 41.1601C17.571 41.0521 17.6613 40.9801 17.7517 40.8721C18.1117 40.8721 18.6519 40.836 18.5611 41.052C18.4705 41.232 18.4695 41.5199 17.6594 41.52C17.9298 41.412 18.0203 41.268 17.4806 41.1601Z" fill="#FEBD00"/>
<path d="M7.43275 31.5151C7.97244 31.623 8.78367 31.299 9.41248 31.6589C8.60239 31.659 8.15196 31.767 7.79116 31.9829C7.88167 31.839 7.8823 31.659 7.43275 31.5151Z" fill="#FEBD00"/>
<path d="M24.5716 46.738C24.6612 46.8459 25.2014 46.8099 25.111 46.9179C25.0204 47.0979 24.3908 46.9539 24.2103 47.0979C24.0303 47.0979 23.8504 47.062 23.8504 47.062C23.8509 46.918 24.1213 46.81 24.5716 46.738Z" fill="#FEBD00"/>
<path d="M18.253 0.489976C18.2531 0.453985 18.2532 0.417993 18.2533 0.382002C18.5235 0.345989 18.7938 0.273985 18.9739 0.237979C18.8835 0.34596 18.7932 0.453941 19.1529 0.525894C19.243 0.525887 19.2428 0.561878 19.2428 0.561878C19.2426 0.633861 19.2426 0.633861 19.2426 0.633861C18.7016 0.885843 18.6129 0.525938 18.253 0.489976Z" fill="#FEBD00"/>
<path d="M13.8842 40.0448C14.2431 40.3687 13.6132 40.3328 13.1631 40.3328C12.9832 40.2969 12.8935 40.2249 12.8937 40.1529C13.1643 40.0089 13.7036 40.2248 13.8842 40.0448Z" fill="#FEBD00"/>
<path d="M23.0494 44.3986C23.3201 44.2186 23.3201 44.2186 24.0391 44.5425C23.859 44.5425 23.589 44.5425 23.409 44.5425C23.1389 44.5425 23.0492 44.4706 23.0494 44.3986Z" fill="#FEBD00"/>
<path d="M9.50571 5.09742C9.14567 5.09745 8.87576 5.06148 8.51572 5.06151C8.60611 4.95353 9.14617 4.95348 9.05667 4.80953C9.23656 4.8455 9.41646 4.88148 9.59635 4.91746C9.68624 4.95344 9.68599 5.02542 9.50571 5.09742Z" fill="#FEBD00"/>
<path d="M19.6318 43.6793C19.6316 43.7153 19.6314 43.7872 19.6313 43.8232C19.451 43.8952 19.1808 43.9312 18.9104 44.0392C18.9112 43.8233 19.3614 43.7873 19.6318 43.6793Z" fill="#FEBD00"/>
<path d="M10.4722 37.6335C10.2922 37.6335 10.1123 37.5975 9.93254 37.5256C10.0229 37.4176 10.203 37.4176 10.383 37.4176C10.4729 37.4536 10.5626 37.5255 10.6525 37.5615C10.6524 37.5975 10.5622 37.6335 10.4722 37.6335Z" fill="#FEBD00"/>
<path d="M22.117 27.951C23.1076 27.807 23.5573 27.9149 23.556 28.2748C23.5559 28.3108 23.5557 28.3468 23.5555 28.4188C24.7259 28.3467 24.8135 29.0305 25.9841 28.8865C25.1724 29.3544 24.3614 29.6064 22.8318 29.4626C23.5526 29.2466 24.5433 29.0665 23.3746 28.6707C23.5534 29.0306 22.9229 29.1386 22.3823 29.2827C21.9318 29.4267 21.5711 29.6066 21.8402 29.8586L21.8401 29.8945C22.1993 30.1465 21.4787 30.2905 21.2979 30.5064C21.2978 30.5424 21.0278 30.5425 20.9379 30.5065C20.5785 30.3265 20.4896 30.0026 20.6699 29.9306C21.4815 29.4987 19.8619 29.3188 20.2232 28.9589C20.2233 28.9229 19.9533 28.9229 19.8633 28.9229C19.1428 29.031 18.5131 28.9231 17.9737 28.7431C17.704 28.6352 17.3444 28.5272 16.9838 28.6712C16.7134 28.7792 16.1732 28.8153 16.4425 29.0312C16.7117 29.2831 16.1716 29.2832 15.8118 29.2112C15.5419 29.1752 15.2722 29.0673 14.9121 29.1033C14.5518 29.1753 13.9223 28.9954 13.7414 29.2474C13.5606 29.4633 14.0103 29.5713 14.37 29.6792C14.5498 29.7512 14.9994 29.8591 14.5491 29.9311C13.8285 30.0751 13.7363 30.723 12.7471 30.4351C12.0277 30.2552 11.6675 30.2913 11.0373 30.3273C10.9473 30.3273 10.7674 30.2913 10.5876 30.2194C11.4876 30.2553 12.0288 29.9313 12.8392 29.8593C13.1093 29.8233 13.3796 29.7513 13.2901 29.6073C13.2005 29.4993 13.0211 29.3194 12.661 29.3194C11.4906 29.3915 11.5813 29.2115 11.9425 28.8876C12.0329 28.7796 11.8537 28.5277 11.6741 28.4197C11.315 28.1318 11.3162 27.8079 11.1372 27.52C11.8579 27.34 12.3962 27.8438 13.2072 27.5918C13.2072 27.5918 13.6562 27.8797 13.3855 28.0597C13.0246 28.3116 13.3838 28.5636 13.7438 28.5635C14.194 28.5275 15.1835 28.7074 15.2751 28.2395C15.2756 28.0955 15.5462 27.9515 15.727 27.7356C14.7366 27.8076 14.0166 27.7717 13.568 27.3758C13.1192 27.0159 13.8398 26.8719 14.2901 26.7999C14.6504 26.7279 15.3703 26.7638 15.5495 27.0158C15.639 27.1597 15.7286 27.2677 16.1788 27.2317C17.2593 27.1236 18.0681 27.4834 19.0582 27.4834C19.4183 27.4833 19.4178 27.6273 19.3274 27.7353C19.237 27.8433 19.0566 27.9512 19.4164 28.0232C19.6863 28.0592 19.8666 27.9872 20.0468 27.9152C20.8578 27.6632 20.8578 27.6632 21.2166 28.0231C21.396 28.203 21.9363 28.131 22.2961 28.2029C22.476 28.2389 22.6563 28.1669 22.6564 28.1309C22.8369 27.9869 22.2965 28.0949 22.117 27.951Z" fill="#FEBD00"/>
<path d="M30.5176 45.2619C30.8778 45.2259 31.3274 45.3338 31.4181 45.1538C31.5087 44.9739 31.0588 44.9379 30.789 44.866C30.3392 44.794 29.9797 44.6501 29.8908 44.3262C30.7894 44.758 31.9605 44.47 32.8596 44.7578C32.0503 44.5419 31.6918 44.1101 30.5214 44.1821C30.0712 44.2182 29.531 44.2542 29.1715 44.1103C30.0729 43.7143 31.1531 43.7142 32.3226 43.8941C32.6825 43.93 32.8624 43.966 33.0429 43.822C33.2236 43.6421 33.1346 43.3541 33.7648 43.3181C34.305 43.2821 34.6654 43.1741 35.1158 43.066C35.2046 43.426 34.4842 43.498 33.7633 43.75C35.4736 43.7139 34.6617 44.2178 34.8409 44.4697C34.9304 44.6137 34.3909 44.4338 34.0306 44.5058C34.6591 44.9736 33.9385 45.1176 32.9481 45.1897C32.7681 45.1897 32.5881 45.1897 32.4977 45.2977C31.9569 45.5137 31.3267 45.5497 30.5176 45.2619Z" fill="#FEBD00"/>
<path d="M33.5731 46.6655C33.0325 46.8095 32.4021 46.9175 31.8614 47.0975C31.501 47.2055 31.3211 47.1695 31.0514 47.0616C30.7816 46.9896 30.962 46.8816 30.8723 46.8097C30.7835 46.4498 30.4247 46.0899 30.246 45.73C30.5158 45.8019 31.5066 45.5859 30.875 46.0179C30.6045 46.1618 31.0541 46.3058 31.4138 46.3777C31.8635 46.4857 32.0438 46.4137 32.3143 46.2697C32.585 46.0897 32.8557 45.9097 33.2163 45.7297C33.6655 45.9816 33.9346 46.2336 33.4837 46.4855C33.2133 46.5935 33.213 46.6655 33.5731 46.6655Z" fill="#FEBD00"/>
<path d="M30.2458 45.73C29.0745 46.054 29.6132 46.4499 29.8819 46.8097C30.151 47.0977 29.8809 47.0977 29.341 47.0617C27.9912 46.9539 27.4524 46.594 28.2643 46.0901C28.6251 45.8741 28.7163 45.5142 29.5268 45.4061C29.8865 45.5141 30.1561 45.622 30.2458 45.73Z" fill="#FEBD00"/>
<path d="M27.3767 42.5269C27.7356 42.8508 28.3649 43.0667 29.0844 43.2466C29.5348 43.1386 28.9054 42.9587 29.2658 42.8507C29.8058 42.8866 29.985 43.1026 30.4348 43.1745C30.7946 43.2465 30.6141 43.3905 30.4338 43.4625C30.1631 43.6424 30.0738 43.4625 29.984 43.3905C29.7144 43.2826 29.534 43.3906 29.3538 43.4266C29.0835 43.4986 28.8134 43.5346 28.4534 43.4986C26.6536 43.3908 26.4741 43.2468 27.3767 42.5269Z" fill="#FEBD00"/>
<path d="M26.291 44.1107C25.6622 43.7508 24.2227 43.535 25.035 42.9231C25.1252 42.8511 24.8558 42.6712 24.6763 42.5272C25.2164 42.5272 25.3059 42.6711 25.3953 42.8511C25.4845 43.067 25.6639 43.247 26.1135 43.3909C26.8328 43.6068 26.2017 43.8948 26.291 44.1107Z" fill="#FEBD00"/>
<path d="M13.5135 17.2623C13.4231 17.3703 13.6925 17.5502 13.2423 17.5862C12.8821 17.6223 12.8828 17.4423 12.7031 17.3343C12.8834 17.2623 13.1537 17.1903 13.5135 17.2623Z" fill="#FEBD00"/>
<path d="M13.5139 17.2622C13.2438 17.2982 12.9736 17.3342 12.7034 17.3702C12.5234 17.3702 12.4334 17.3702 12.2535 17.3343C12.3438 17.2623 12.4339 17.2263 12.5242 17.1543C12.7941 17.1902 13.2445 17.0822 13.5139 17.2622Z" fill="#FEBD00"/>
<path d="M19.2423 0.633732C19.2424 0.59774 19.2426 0.561749 19.2426 0.561749C19.4227 0.525743 19.6031 0.417755 19.8728 0.525707C20.0527 0.561684 20.0524 0.633666 19.8721 0.705663C19.6019 0.777667 19.4223 0.633717 19.2423 0.633732Z" fill="#FEBD00"/>
<path d="M28.9916 44.0744C28.8111 44.2184 28.5408 44.2904 28.2705 44.3624C27.9116 44.0385 28.6314 44.1104 28.9916 44.0744Z" fill="#FEBD00"/>
<path d="M8.60887 4.16189C8.69913 4.0899 9.05917 4.08987 9.14956 3.98189C9.32958 3.98188 9.59962 3.98185 9.50923 4.08983C9.32857 4.26981 8.87877 4.19786 8.60887 4.16189Z" fill="#FEBD00"/>
<path d="M9.77693 4.88155C10.047 4.88153 10.0477 4.66558 10.4075 4.73754C10.5871 4.8455 10.3169 4.9175 10.2266 4.98949C9.95632 5.0615 9.68629 5.06152 9.77693 4.88155Z" fill="#FEBD00"/>
<path d="M9.77626 4.88157C9.86614 4.91755 10.046 4.95353 10.2259 4.98951C10.1353 5.16947 9.86526 5.16949 9.50547 5.09754C9.50572 5.02556 9.50597 4.95357 9.5061 4.91758C9.59624 4.88158 9.68625 4.88158 9.77626 4.88157Z" fill="#FEBD00"/>
<path d="M19.497 30.7224C20.0369 30.7583 19.9464 30.9023 19.9459 31.0463C20.0353 31.2262 19.9444 31.4782 20.5742 31.5501C20.2127 31.982 19.1319 32.162 18.231 32.3781C17.9608 32.4501 17.6907 32.4501 17.4208 32.4141C16.7011 32.3062 16.2507 32.4142 16.4296 32.7381C16.5191 32.8821 16.2488 32.9541 16.2484 33.0621C16.2479 33.206 16.0675 33.314 15.7075 33.314C15.3473 33.3501 15.1677 33.2421 14.9881 33.0982C14.8087 32.9182 14.7205 32.4143 13.9983 33.0263C13.9079 33.1342 13.4582 33.0263 13.1882 33.0263C13.0082 33.0263 12.8285 32.9184 13.0088 32.8464C13.3696 32.6304 12.7414 32.0906 14.3612 32.1984C14.6312 32.1984 15.1727 31.8025 15.3536 31.5505C15.5345 31.2986 15.6244 31.3345 16.0741 31.4425C17.1533 31.6943 18.235 31.2623 19.5842 31.5142C19.0453 31.1903 19.4061 30.9743 19.497 30.7224Z" fill="#FEBD00"/>
<path d="M12.5502 35.2221C12.3702 35.2221 12.1902 35.2221 12.01 35.2581C11.7399 35.2941 11.2896 35.3661 11.1101 35.2222C10.9305 35.0782 11.2012 34.8982 11.3816 34.7903C11.6521 34.6463 11.9223 34.6103 12.282 34.7182C12.4619 34.7542 12.6418 34.7902 12.8216 34.8261C13.1814 34.8981 13.8118 34.826 13.6309 35.078C13.6301 35.2939 13.1798 35.366 12.5502 35.2221Z" fill="#FEBD00"/>
<path d="M22.8728 43.5711C22.6013 44.003 22.0614 43.967 21.2519 43.7871C20.4424 43.6072 20.3527 43.5353 21.0745 43.0313C21.4343 43.1033 21.6139 43.2112 21.6134 43.3552C22.0631 43.4631 22.6937 43.3191 22.8728 43.5711Z" fill="#FEBD00"/>
<path d="M17.1592 30.039C17.6086 30.2189 17.968 30.3988 18.3273 30.6148C18.6866 30.8307 18.1458 31.0467 17.8755 31.1187C17.425 31.2627 17.4257 31.0467 17.3362 30.9028C17.2466 30.7948 17.0667 30.7588 16.7968 30.7229C16.167 30.6509 16.0772 30.579 16.7977 30.4709C17.608 30.3989 16.6186 30.183 17.1592 30.039Z" fill="#FEBD00"/>
<path d="M19.6684 33.0979C19.4889 32.9539 19.0394 32.81 19.0401 32.5941C19.0408 32.4141 19.1313 32.2701 19.6713 32.2701C20.2114 32.27 20.6611 32.378 20.6603 32.5939C20.6594 32.8459 20.2988 33.0259 19.6684 33.0979Z" fill="#FEBD00"/>
<path d="M13.256 39.4329C13.2565 39.2889 13.2572 39.109 13.2577 38.965C13.2582 38.821 12.8088 38.6411 13.5291 38.5691C14.0693 38.533 14.6087 38.713 14.7882 38.8569C15.1474 39.1088 14.4277 39.0009 14.2474 39.0729C13.887 39.1809 13.7063 39.3609 13.256 39.4329Z" fill="#FEBD00"/>
<path d="M25.2929 46.4141C24.6626 46.4861 24.483 46.3782 24.4837 46.1622C24.4842 46.0182 24.7549 45.8383 25.2948 45.8742C25.7447 45.9102 26.1043 46.0541 26.1937 46.2341C26.1928 46.486 25.653 46.4141 25.2929 46.4141Z" fill="#FEBD00"/>
<path d="M22.8722 43.5709C22.5127 43.4269 21.9722 43.5349 21.7028 43.355C22.0629 43.355 22.1531 43.283 22.0636 43.139C21.9745 42.8871 22.5151 42.7431 22.8751 42.7431C23.415 42.779 23.1441 43.031 23.0536 43.1749C23.053 43.3549 22.9626 43.4629 22.8722 43.5709Z" fill="#FEBD00"/>
<path d="M27.989 47.6016C28.4388 47.6736 28.6186 47.7455 28.528 47.8895C28.4375 48.0335 28.3469 48.2134 27.8068 48.2135C27.3568 48.2135 27.1774 48.0336 27.1779 47.8896C27.2684 47.7456 27.7187 47.6736 27.989 47.6016Z" fill="#FEBD00"/>
<path d="M6.92185 23.2374C6.83196 23.2014 6.74208 23.1655 6.74208 23.1655C6.83272 22.9855 6.38317 22.8416 6.65396 22.6256C7.10351 22.7695 8.00374 22.7335 8.00273 23.0214C8.09224 23.1654 7.37203 23.2014 6.92185 23.2374Z" fill="#FEBD00"/>
<path d="M27.8173 45.1902C27.6367 45.3342 27.546 45.5502 27.0059 45.5502C26.6459 45.5502 26.3763 45.4063 26.3768 45.2623C26.3776 45.0464 27.0078 45.0103 27.3681 44.9383C27.6383 44.9023 27.8176 45.0822 27.8173 45.1902Z" fill="#FEBD00"/>
<path d="M12.8111 37.8852C12.9012 37.8492 12.9915 37.7772 12.9915 37.7772C13.5314 37.8132 13.9822 37.5972 14.5218 37.7411C14.6117 37.7771 14.7013 37.885 14.5212 37.921C13.981 37.9571 13.3509 37.9571 12.8111 37.8852Z" fill="#FEBD00"/>
<path d="M13.256 39.4328C13.1654 39.6128 12.9849 39.7567 12.4452 39.6488C12.2653 39.6128 11.9055 39.5409 12.0859 39.4329C12.4467 39.2169 12.8962 39.3608 13.256 39.4328Z" fill="#FEBD00"/>
<path d="M6.72318 28.5281C7.44327 28.528 7.62442 28.2041 8.16386 28.384C8.34375 28.42 8.3435 28.492 8.16323 28.564C7.80256 28.744 7.44289 28.636 6.72318 28.5281Z" fill="#FEBD00"/>
<path d="M14.2453 39.6487C14.6057 39.5407 14.9656 39.5767 15.2351 39.7206C15.4149 39.7926 15.3246 39.8646 15.1444 39.9366C14.6937 40.1166 14.5144 39.9006 14.2445 39.8647C14.0647 39.7927 14.065 39.7207 14.2453 39.6487Z" fill="#FEBD00"/>
<path d="M7.99874 24.1369C7.90835 24.2449 7.81796 24.3529 7.54793 24.3529C7.36791 24.3529 7.18789 24.353 7.18827 24.245C7.18864 24.137 7.27903 24.029 7.6392 23.993C7.8191 24.029 7.90886 24.101 7.99874 24.1369Z" fill="#FEBD00"/>
<path d="M13.3185 21.4731C13.1381 21.5811 12.9579 21.6531 12.778 21.6171C12.5081 21.5811 12.3283 21.5091 12.4187 21.4012C12.5089 21.3292 12.5991 21.2932 12.779 21.3292C12.9589 21.3651 13.1388 21.4011 13.3185 21.4731Z" fill="#FEBD00"/>
<path d="M18.2853 42.6357C18.2857 42.5277 17.7457 42.4917 17.9264 42.3118C18.2864 42.3117 18.6463 42.3477 18.6457 42.5277C18.7353 42.6356 18.4653 42.6356 18.2853 42.6357Z" fill="#FEBD00"/>
<path d="M14.2449 39.6488C14.2446 39.7207 14.2444 39.7927 14.2441 39.8647C14.1539 39.9367 14.0637 39.9727 13.9735 40.0447C13.7934 40.0447 13.5234 40.0447 13.6138 39.9367C13.6144 39.7568 13.7948 39.6488 14.2449 39.6488Z" fill="#FEBD00"/>
<path d="M22.7327 32.0898C22.6425 32.1617 22.5521 32.2697 22.282 32.2697C22.192 32.2698 22.1021 32.2338 22.1023 32.1978C22.1027 32.0898 22.2828 32.0538 22.553 32.0178C22.643 32.0178 22.7329 32.0538 22.7327 32.0898Z" fill="#FEBD00"/>
<path d="M20.2746 39.9722C20.5438 39.9721 20.5436 40.0441 20.5433 40.1161C20.5432 40.1521 20.5429 40.2241 20.4532 40.2241C20.2735 40.2601 20.1841 40.1881 20.1843 40.1161C20.0947 40.0801 20.0949 40.0082 20.2746 39.9722Z" fill="#FEBD00"/>
<path d="M18.5072 30.6147C18.9578 30.4707 19.318 30.4347 19.497 30.7226C19.1368 30.7586 18.777 30.6867 18.5072 30.6147Z" fill="#FEBD00"/>
<path d="M8.96992 29.1758C8.88005 29.2117 8.79017 29.2477 8.70029 29.2837C8.5208 29.2838 8.43117 29.2478 8.52117 29.1758C8.61105 29.1398 8.70092 29.1038 8.88055 29.0678C8.97043 29.0318 9.06005 29.0678 8.96992 29.1758Z" fill="#FEBD00"/>
<path d="M16.2588 30.1111C15.8981 30.292 15.7181 30.292 15.4483 30.2197C15.3584 30.1835 15.3586 30.1473 15.3588 30.075C15.6287 30.1111 15.8988 30.1111 16.2588 30.1111Z" fill="#FEBD00"/>
<path d="M25.1207 43.9308C25.3001 43.9667 25.4795 44.0027 25.3895 44.0747C25.3893 44.1107 25.2097 44.1467 25.12 44.1467C24.9405 44.1467 24.851 44.0748 24.941 44.0028C24.9411 43.9668 25.0308 43.9668 25.1207 43.9308Z" fill="#FEBD00"/>
<path d="M18.0844 22.6606C17.9948 22.6247 17.905 22.6247 17.9051 22.5887C17.9054 22.5167 17.9953 22.4807 18.1749 22.4447C18.2646 22.4447 18.3543 22.4807 18.4439 22.5166C18.4435 22.6246 18.2639 22.6606 18.0844 22.6606Z" fill="#FEBD00"/>
<path d="M13.1709 37.5617C13.081 37.5979 12.9911 37.6341 12.9014 37.6341C12.8116 37.6341 12.6323 37.5979 12.6323 37.5979C12.5428 37.5256 12.7224 37.4894 12.9019 37.4894C12.9019 37.4894 12.9915 37.5255 13.1709 37.5617Z" fill="#FEBD00"/>
<path d="M17.7786 32.738C17.8682 32.7742 17.8681 32.8104 17.868 32.8465C17.8677 32.9189 17.6881 32.9551 17.5087 32.9189C17.419 32.9189 17.4192 32.8466 17.3296 32.8104C17.5091 32.8104 17.599 32.7742 17.7786 32.738Z" fill="#FEBD00"/>
<path d="M8.98633 24.3892C8.89645 24.4254 8.71683 24.4616 8.62695 24.4978C8.44745 24.4978 8.44758 24.4616 8.53745 24.4254C8.62733 24.3892 8.80696 24.353 8.89683 24.3169C8.98658 24.3169 8.98646 24.353 8.98633 24.3892Z" fill="#FEBD00"/>
<path d="M29.5272 44.9026C29.4373 44.9388 29.3473 45.0112 29.2576 45.0112C29.1678 45.0112 29.0782 44.975 28.9886 44.9389C28.9887 44.9027 29.0786 44.8665 29.0787 44.8303C29.1685 44.8303 29.3478 44.8665 29.5272 44.9026Z" fill="#FEBD00"/>
<path d="M16.2679 27.6276C16.9872 27.8435 16.8062 28.1314 17.1656 28.3113C17.2555 28.3473 17.0751 28.4553 16.8949 28.4913C16.7149 28.4913 16.6252 28.4193 16.6253 28.3834C16.4461 28.1314 16.3568 27.9515 16.2679 27.6276Z" fill="#FEBD00"/>
<path d="M19.0539 28.7069C19.1444 28.563 18.9652 28.347 19.5954 28.311C19.6854 28.311 19.8653 28.347 19.8651 28.383C19.8644 28.5989 19.4142 28.6349 19.0539 28.7069Z" fill="#FEBD00"/>
<path d="M21.3919 29.3908C21.212 29.3549 21.0321 29.3189 21.0324 29.2469C21.0328 29.1389 21.3028 29.1389 21.4828 29.1389C21.6627 29.1749 21.8426 29.2108 21.8422 29.3188C21.662 29.3908 21.4819 29.3908 21.3919 29.3908Z" fill="#FEBD00"/>
<path d="M19.9555 28.491C20.3155 28.4909 20.7656 28.4909 20.855 28.6709C20.8549 28.7068 20.7647 28.7428 20.6747 28.7428C20.1345 28.7789 19.955 28.6349 19.9555 28.491Z" fill="#FEBD00"/>
<path d="M17.795 28.2399C17.7053 28.2037 17.7055 28.1676 17.6158 28.1314C17.7056 28.1314 17.7955 28.0952 17.8852 28.0952C17.975 28.0952 18.0646 28.1314 18.0645 28.1675C18.154 28.2399 17.9745 28.2399 17.795 28.2399Z" fill="#FEBD00"/>
</g>
</svg>
