<svg width="22" height="50" viewBox="0 0 22 50" fill="none" xmlns="http://www.w3.org/2000/svg">
<mask id="mask0_530_1214" style="mask-type:alpha" maskUnits="userSpaceOnUse" x="0" y="0" width="22" height="50">
<rect width="22" height="50" fill="#D9D9D9"/>
</mask>
<g mask="url(#mask0_530_1214)">
<path d="M14.0485 2.59029C13.9572 2.95021 13.4156 3.38215 14.4947 3.67C14.674 3.88593 14.5835 4.0299 13.9534 4.02995C12.8738 3.88607 11.9723 4.28205 10.8925 4.17416C10.9815 4.46209 11.6116 4.46203 11.7009 4.67797C11.4306 4.74998 10.9803 4.822 10.6203 4.82203C8.9103 4.75018 7.91853 5.21815 6.83702 5.61414C6.56661 5.72214 6.47634 5.79412 6.38583 5.9381C6.38495 6.19004 6.02517 6.11808 5.66538 6.04613C5.75488 6.19009 6.02454 6.29804 6.11404 6.442C6.38294 6.7659 6.02188 7.05385 5.12178 7.05393C4.4917 7.05398 4.13128 7.16198 3.77061 7.34197C4.67084 7.3059 5.3917 7.0899 6.29206 7.01784C7.37257 6.90978 8.27191 7.12566 8.36028 7.59353C8.44915 7.91745 8.89831 8.16935 9.52776 8.34926C9.97743 8.45719 10.0667 8.67313 10.5162 8.81706C10.9663 8.81703 11.0576 8.45711 11.6873 8.56503C12.1371 8.63698 12.1363 8.85292 12.2257 9.03287C12.2262 8.88891 12.2266 8.78093 12.137 8.67297C12.0473 8.565 11.5975 8.49305 11.9579 8.38505C12.2283 8.27706 12.5879 8.42099 12.9478 8.45695C12.5885 8.24103 12.0487 8.1691 11.4187 8.13316C11.0588 8.09719 10.7888 8.09722 10.519 8.02525C10.0693 7.91732 9.52953 7.84538 9.62055 7.55744C9.80158 7.2695 10.2515 7.30545 10.8816 7.3054C11.6017 7.30534 12.3219 7.26929 12.8609 7.55718C12.9507 7.62915 13.3107 7.62913 13.5808 7.6291C14.481 7.59304 14.7504 7.77297 14.7493 8.0969C14.839 8.16887 14.8388 8.24085 14.9287 8.27684C15.5582 8.42075 16.0078 8.56468 15.9165 8.9246C15.9156 9.17654 16.2747 9.46444 16.9042 9.60835C16.4536 9.78835 16.093 9.93234 16.362 10.2202C16.5414 10.4002 15.7311 10.4722 15.9105 10.6522C16.0895 10.9401 16.2685 11.228 15.5476 11.444C15.3675 11.48 15.2774 11.516 15.0973 11.516C14.7373 11.5161 14.4674 11.4801 14.2865 11.732C14.1056 11.984 14.1943 12.3439 13.4735 12.5599C14.1037 12.5239 14.734 12.4518 14.823 12.7398C14.822 13.0277 14.3711 13.2797 13.5608 13.3157C12.6607 13.3158 12.4804 13.4238 12.9293 13.7477C13.468 14.1435 13.1964 14.5754 13.105 14.9714C13.1041 15.2233 12.3834 15.4033 11.6632 15.4394C11.3932 15.4394 11.0334 15.3674 10.943 15.4754C10.4904 16.1953 8.96211 15.6555 8.24114 15.9075C8.33103 15.9435 8.60132 15.8715 8.87123 15.9075C9.32116 15.9434 9.41052 16.1234 9.05035 16.1594C8.05985 16.2674 7.96847 16.6634 7.51729 16.9873C8.4179 16.8433 9.2271 17.0951 9.9468 17.2031C10.8465 17.311 10.9354 17.6349 10.3942 17.9588C10.2138 18.0668 10.0334 18.1748 9.67313 18.2468C8.86253 18.3909 8.77188 18.5708 9.22106 18.8227C9.49058 18.9667 9.57996 19.1466 9.21954 19.2546C8.76898 19.3986 8.4997 19.1827 8.23005 19.0747C8.05015 19.0388 7.96052 18.9308 7.69048 18.9308C7.95976 19.1468 8.31905 19.3627 9.03888 19.4346C10.0287 19.5065 10.3877 19.8304 10.7467 20.1183C11.1057 20.4062 10.8353 20.5142 10.0255 20.4423C9.66556 20.4063 9.39565 20.3703 9.03548 20.4064C8.49529 20.4424 7.86496 20.5144 8.58404 20.8023C8.76381 20.8743 8.85333 21.0182 8.85295 21.1262C8.85194 21.4141 8.76104 21.6661 7.7713 21.5582C7.5914 21.5222 7.41127 21.5582 7.14099 21.6302C7.68067 21.7381 8.04006 21.9181 8.12919 22.17C8.30833 22.4219 8.66724 22.7458 9.47721 22.7817C10.1972 22.8177 10.3767 22.9616 10.1058 23.2136C9.83487 23.4655 9.38431 23.6095 8.66472 23.4656C8.39494 23.3937 8.21544 23.2497 7.94553 23.2138C7.5841 23.6097 7.58383 23.6817 8.5732 23.8975C8.75309 23.9335 9.02302 23.9695 8.93276 24.0415C8.48056 24.6534 9.83146 24.4373 10.3711 24.5452C10.461 24.5812 10.6412 24.5452 10.7312 24.5452C11.1813 24.5452 11.7213 24.5451 11.9005 24.7971C11.9896 25.049 11.7191 25.193 11.1786 25.301C9.91871 25.2291 8.74856 25.2292 7.84694 25.6612C7.66654 25.7692 7.3065 25.7692 6.94621 25.8412C6.58591 25.9132 6.04535 26.0572 5.77608 25.8413C5.50668 25.6614 6.04697 25.5893 6.31738 25.4813C6.85807 25.3013 6.85822 25.2654 6.5897 24.8335C6.31904 25.0135 6.67806 25.3014 5.95772 25.3734C5.41753 25.4094 4.87771 25.3375 4.5183 25.1576C4.69744 25.4095 4.78658 25.6614 4.78558 25.9494C4.78457 26.2373 4.51427 26.3093 4.06459 26.2013C3.34501 26.0574 2.53468 26.1295 1.72496 26.0216C2.26452 26.1655 2.98522 25.9855 3.25425 26.2734C3.43364 26.4533 3.07336 26.5253 2.62318 26.5614C3.34314 26.5973 4.06233 26.8492 4.69379 26.4532C4.87419 26.3452 5.324 26.4172 5.59378 26.4892C5.86343 26.5971 5.95307 26.7051 5.77255 26.8491C5.68228 26.921 5.50199 26.993 5.4116 27.101C5.05017 27.497 4.1502 27.461 3.3401 27.4611C3.33821 28.001 2.34874 27.8211 1.71879 27.7852C1.17885 27.7492 0.998552 27.8212 0.907911 28.0012C0.817396 28.1451 0.816908 28.2891 0.726393 28.4331C0.636004 28.5411 0.455725 28.6131 0.185693 28.6131C-0.0843393 28.6131 -0.354251 28.5771 -0.353873 28.4692C-0.352738 28.1452 -1.07296 28.1813 -1.34274 28.1093C-1.70253 28.0374 -1.70289 28.1453 -1.61263 28.0734C-1.61263 28.0734 -1.61263 28.0734 -1.52262 28.0733C-0.892918 28.1813 -0.623384 28.3252 -0.984562 28.6492C-1.16521 28.8291 -0.716185 29.117 -1.25701 29.333C-1.70769 29.513 -2.06824 29.657 -2.69794 29.5491C-3.32764 29.4412 -3.23686 29.2252 -3.05609 29.0092C-2.69415 28.4693 -2.69415 28.4693 -4.40436 28.4695C-4.13495 28.6494 -3.23472 28.6133 -3.50576 28.9013C-3.86694 29.2252 -4.40801 29.5132 -5.30837 29.5853C-6.20873 29.6573 -7.10896 29.6934 -7.91994 29.9454C-8.19035 30.0534 -8.55014 29.9814 -8.81992 29.9095C-9.17971 29.8375 -9.44961 29.8016 -9.63026 29.9815C-9.72065 30.0895 -9.90105 30.1975 -9.54138 30.3054C-9.2716 30.3774 -9.00133 30.3054 -8.82105 30.2334C-8.28011 29.9814 -7.20036 30.0893 -6.65916 29.7653C-6.5689 29.6934 -6.2091 29.7653 -6.11947 29.8733C-6.02984 29.9812 -6.39064 30.1972 -5.67043 30.1612C-5.13024 30.1251 -4.41092 30.341 -4.04974 30.0171C-3.86909 29.8371 -3.68818 29.5851 -3.05848 29.6931C-2.42878 29.801 -1.70932 29.9809 -1.53043 30.3048C-1.35117 30.5207 -1.71186 30.7007 -2.25217 30.7727C-2.8825 30.8448 -3.51306 30.9888 -4.2329 30.9169C-4.86272 30.8449 -5.40329 30.9889 -6.12401 31.169C-4.95425 31.2768 -3.69208 30.7009 -2.97426 31.3487C-2.88387 31.2407 -2.88362 31.1687 -2.88337 31.0967C-2.88223 30.7728 -2.43218 30.7728 -1.98275 30.9527C-0.993896 31.3125 0.0854662 31.5284 1.43613 31.3843C1.61628 31.3483 1.79617 31.3843 1.88593 31.4562C2.06469 31.8161 2.96405 32.032 3.23282 32.3919C3.41322 32.2839 3.50361 32.1759 3.77402 32.0679C3.9543 31.9959 4.22446 31.9599 4.40436 31.9959C4.67414 32.0679 4.67387 32.1399 4.58348 32.2478C4.31282 32.4278 4.31233 32.5718 4.85202 32.6797C5.21181 32.7517 5.03128 32.8956 4.76087 33.0036C4.58059 33.0756 4.40044 33.1116 4.13028 33.1476C2.68935 33.3637 0.890389 33.0039 0.442352 32.4281C0.352846 32.2842 0.443509 32.1042 -0.0965557 32.1042C-0.54661 32.1043 -0.726905 32.1763 -0.907431 32.3203C-1.26848 32.6082 -1.89855 32.6083 -2.61851 32.5723C-2.97843 32.5364 -3.33783 32.3564 -3.69837 32.5004C-4.05905 32.6804 -4.32971 32.8604 -4.24059 33.1123C-4.15146 33.3643 -5.23349 33.9042 -5.7738 33.9762C-5.95383 33.9763 -6.13397 34.0123 -6.22373 33.9403C-6.58289 33.6884 -7.30272 33.6165 -7.84228 33.4725C-8.74138 33.1847 -8.74074 33.0047 -7.74974 32.7527C-7.47945 32.6807 -7.29908 32.5727 -7.20856 32.4287C-7.65824 32.3208 -8.19815 32.2849 -8.64783 32.1769C-8.82772 32.1409 -8.91687 31.889 -9.36755 32.069C-9.72798 32.177 -9.99851 32.321 -9.7291 32.5009C-9.19017 32.8248 -8.92127 33.1487 -8.65249 33.5086C-8.47323 33.7245 -7.84341 33.7965 -7.39361 33.8684C-6.40399 34.0123 -5.23398 34.0482 -4.60554 34.516C-4.51591 34.624 -4.15601 34.6599 -3.97573 34.588C-3.07449 34.264 -1.99485 34.4078 -1.00448 34.3358C-0.914468 34.3358 -0.824594 34.3718 -0.73471 34.4077C-0.286295 34.8756 -0.467319 35.1635 -1.54858 35.4875C-1.909 35.5955 -2.53933 35.6676 -2.36031 35.9555C-1.91038 35.9914 -1.54997 35.8834 -1.54959 35.7755C-1.27817 35.3795 -0.108049 35.3794 0.433024 35.0915C0.703561 34.9475 1.15325 35.0554 1.51291 35.1634C1.96246 35.3073 1.69205 35.4153 1.42164 35.5233C1.06109 35.6673 1.06045 35.8472 0.879927 35.9912C0.608886 36.2792 0.33773 36.6031 -0.741895 36.4592C-0.83241 36.6032 -0.652377 36.6032 -0.562367 36.6032C-0.29246 36.6392 0.157582 36.6391 0.157078 36.7831C0.156448 36.963 -0.203962 37.071 -0.564005 37.0711C-1.46399 37.0352 -2.27486 37.2512 -3.17497 37.2512C-3.98507 37.2513 -4.43498 37.2153 -4.25357 36.8194C-4.1628 36.6035 -4.8819 36.3156 -3.62112 36.1355C-4.25106 36.0996 -4.70111 36.0996 -4.79049 35.9197C-4.3393 35.5957 -3.43856 35.4157 -2.98763 35.1637C-3.79772 35.1638 -4.69833 35.3078 -5.68858 35.3439C-6.40879 35.38 -6.67857 35.308 -7.03773 35.0561C-7.48678 34.7682 -7.66542 34.3723 -8.5649 34.1924C-8.65491 34.1924 -8.56503 34.2284 -8.56515 34.2644C-8.56591 34.4803 -7.84656 34.6962 -8.20723 34.8762C-8.65791 35.0562 -9.28687 34.7323 -9.73705 34.7684C-10.8176 34.8764 -11.9867 34.5886 -13.0678 34.8766C-14.0588 35.1286 -15.0484 34.9848 -15.8578 34.7689C-15.9477 34.7329 -15.9472 34.5889 -16.2177 34.7329C-16.5788 35.0209 -17.2986 34.9489 -17.9288 34.985C-18.0189 35.021 -17.9289 35.021 -17.8389 35.021C-16.7591 35.1289 -15.86 35.4167 -14.6886 35.0567C-14.2381 34.9127 -13.1585 35.0566 -12.8897 35.4165C-12.8002 35.5604 -12.4404 35.6324 -11.99 35.5244C-11.7197 35.4524 -11.3594 35.3804 -11.0897 35.4883C-10.7302 35.6322 -10.8207 35.7762 -10.9113 35.9562C-10.9116 36.0282 -11.0919 36.1002 -11.2722 36.1722C-12.3539 36.6401 -12.1745 36.8201 -10.5547 36.9279C-10.1948 36.9639 -9.92464 36.9279 -9.83425 36.8199C-9.74361 36.6399 -10.0136 36.6399 -10.2835 36.604C-11.0935 36.568 -11.4534 36.5321 -10.912 36.1361C-10.551 35.8842 -10.3699 35.5602 -9.73906 35.3442C-9.37864 35.2362 -9.28787 35.0203 -8.74806 35.0922C-8.11836 35.2001 -8.47904 35.3801 -8.38966 35.5601C-7.93771 35.0202 -7.57742 34.9482 -6.67883 35.38C-6.13965 35.6319 -5.23941 35.5958 -4.79036 35.8837C-5.42182 36.2797 -6.14139 36.1357 -6.86072 35.9199C-6.77109 36.0278 -6.05115 36.0638 -6.2318 36.2437C-6.32257 36.4597 -6.95212 36.3158 -7.31267 36.4598C-6.95351 36.7117 -6.5041 36.8916 -5.78452 37.0355C-4.97493 37.1794 -4.43574 37.4313 -3.98683 37.7552C-3.62766 38.0071 -3.8083 38.1871 -4.61827 38.1511C-4.97831 38.1512 -5.24835 38.1512 -5.60827 38.1152C-6.23822 38.0793 -6.59838 38.1153 -6.41937 38.4032C-6.32986 38.5472 -6.4204 38.6911 -6.78069 38.7632C-7.23113 38.8712 -7.68092 38.7992 -8.04059 38.6913C-8.40025 38.5833 -8.57964 38.4034 -8.93931 38.2955C-9.02944 38.3314 -9.02944 38.3314 -8.93956 38.3674C-8.67028 38.5834 -7.59104 38.8352 -8.13174 39.0152C-8.67256 39.2312 -9.66303 39.3393 -10.4726 39.1954C-11.1922 39.0514 -12.0024 39.0875 -12.7224 39.0516C-12.8123 39.0156 -12.9023 39.0156 -12.9922 38.9796C-13.1709 38.6197 -14.2499 38.2959 -13.6182 37.8279C-14.069 38.0439 -14.0699 38.2959 -14.5206 38.4759C-14.6107 38.5119 -14.7009 38.5479 -14.7909 38.5479C-15.0612 38.6199 -15.4202 38.332 -15.5112 38.6199C-15.6926 39.0158 -16.1418 38.7639 -16.5016 38.692C-16.3221 38.8359 -15.9627 39.0158 -16.5034 39.1958C-16.9539 39.3398 -17.4942 39.4119 -17.9439 39.3039C-18.6635 39.16 -19.203 39.0161 -20.1038 39.1961C-20.7344 39.3401 -20.8232 39.0162 -20.9125 38.8003C-21.3629 38.9083 -21.2737 39.1242 -21.6339 39.1603C-22.0842 39.2323 -22.5346 39.3403 -22.8036 39.0524C-23.1624 38.6925 -23.7017 38.4766 -24.6923 38.6206C-24.9625 38.6567 -25.1425 38.6567 -25.4124 38.6207C-25.6823 38.5847 -26.1322 38.5488 -26.2219 38.4408C-26.3114 38.2969 -25.9511 38.2248 -25.7707 38.1169C-25.5904 38.0449 -25.3201 37.9729 -25.1396 37.8289C-25.6795 37.7929 -26.0403 38.0089 -26.4899 37.865C-27.0295 37.7211 -26.4887 37.5411 -26.6679 37.2891C-27.6588 37.5052 -28.8278 37.1813 -29.7294 37.6133C-29.9098 37.7213 -30.3599 37.7213 -30.6295 37.6134C-30.8993 37.5414 -30.9888 37.3974 -30.9883 37.2535C-30.8978 37.1095 -30.7172 36.9655 -30.267 36.9295C-29.7269 36.8935 -29.0968 36.8934 -28.5569 36.9294C-28.1069 36.9653 -27.6569 36.9653 -27.2067 36.9293C-26.4862 36.8212 -25.9459 36.7492 -26.7549 36.4253C-27.2942 36.2094 -27.1137 36.0655 -26.3933 35.9934C-25.8531 35.9574 -25.2229 35.9213 -24.6832 36.0293C-24.3235 36.1012 -23.9639 36.2452 -24.1443 36.3532C-24.5955 36.6771 -23.9655 36.713 -23.5159 36.821C-22.5265 37.0369 -21.7174 37.3247 -21.449 37.7926C-21.3594 37.9005 -21.3596 37.9725 -20.9098 38.0445C-20.6386 37.6845 -19.7376 37.4325 -20.006 36.9647C-20.0952 36.7487 -19.645 36.7127 -19.1951 36.7487C-19.0151 36.7486 -18.6553 36.8206 -18.6548 36.6766C-18.6545 36.6046 -18.6542 36.4967 -18.744 36.4607C-18.9237 36.3527 -19.1939 36.3887 -19.3741 36.4607C-20.0047 36.6048 -20.6353 36.7488 -20.3665 37.1087C-20.1875 37.3966 -20.3679 37.5046 -21.0875 37.3607C-21.5372 37.2527 -22.1672 37.2528 -22.5268 37.1088C-22.8863 36.9649 -23.4259 36.821 -23.3351 36.605C-23.2443 36.3891 -22.6144 36.425 -22.2541 36.353C-22.254 36.317 -22.2538 36.281 -22.3438 36.281C-23.9638 36.2092 -23.9638 36.2092 -23.1515 35.5973C-23.3312 35.4893 -23.6015 35.5613 -23.7815 35.5613C-24.5917 35.5974 -25.3122 35.7054 -26.1218 35.5615C-26.5716 35.4896 -27.3814 35.4176 -27.9221 35.5976C-28.2825 35.7056 -28.5524 35.6697 -28.7321 35.5617C-29.0017 35.4538 -29.0912 35.3098 -28.9107 35.1658C-28.8204 35.0938 -28.6403 35.0578 -28.46 34.9858C-27.3785 34.5898 -27.2879 34.4099 -27.736 33.87C-27.8257 33.7621 -27.8252 33.6181 -28.0047 33.4742C-28.7258 33.7622 -29.5352 33.5823 -30.2552 33.5463C-31.0652 33.5104 -30.8842 33.2225 -30.6134 33.0065C-30.4328 32.8625 -30.0724 32.7545 -29.7121 32.6825C-29.532 32.6465 -29.1717 32.5745 -29.3513 32.4665C-30.5189 31.7468 -29.8863 31.0269 -29.5237 30.2711C-29.5235 30.2351 -29.4333 30.1631 -29.4328 30.0191C-29.6137 30.2711 -29.7941 30.3791 -30.0644 30.4511C-30.3346 30.5231 -30.5149 30.5951 -30.0651 30.667C-29.9751 30.667 -29.8853 30.739 -29.9753 30.739C-31.0569 31.135 -30.4288 31.7108 -31.1504 32.1427C-31.4211 32.3227 -31.8709 32.2508 -32.0504 32.1068C-32.4097 31.8909 -32.6799 31.9629 -32.9506 32.1429C-33.1311 32.2869 -33.5815 32.3589 -33.762 32.5029C-34.3032 32.8268 -35.0234 32.8629 -35.7428 32.683C-36.5523 32.5031 -36.1014 32.2511 -35.9205 31.9992C-35.1993 31.6752 -34.0284 31.4591 -34.0265 30.9193C-34.0263 30.8833 -33.9362 30.8473 -33.7561 30.8113C-32.1354 30.6672 -32.4932 30.0554 -32.1317 29.6234C-31.8605 29.2995 -31.589 28.8676 -32.9386 28.7237C-33.3884 28.6518 -33.4776 28.3998 -33.207 28.2559C-32.666 27.9679 -32.6648 27.644 -32.6639 27.392C-32.6647 27.608 -33.0256 27.8599 -33.3865 28.1119C-33.8375 28.3639 -34.1084 28.6158 -33.8396 28.9757C-33.6605 29.2277 -33.7514 29.4796 -34.5617 29.5516C-35.3721 29.6237 -35.4611 29.3358 -35.6403 29.1198C-35.9989 28.688 -35.3677 28.364 -34.7363 28.004C-35.1863 27.9681 -35.6363 27.9681 -35.6369 28.1481C-35.6381 28.472 -35.9992 28.796 -35.6403 29.1198C-35.2814 29.4437 -34.8324 29.7316 -35.3738 30.1276C-35.6448 30.3795 -34.7448 30.4155 -34.6555 30.6314C-35.0162 30.8114 -35.5562 30.7754 -36.006 30.7035C-36.4547 30.3436 -37.3545 30.2357 -38.1644 30.1998C-36.9067 30.8835 -36.9081 31.2794 -38.3502 31.8554C-37.3606 31.9993 -37.3614 32.2152 -37.9925 32.5032C-38.4433 32.7192 -39.2541 32.9352 -38.5353 33.2951C-38.4456 33.367 -38.536 33.475 -38.7161 33.511C-39.617 33.727 -39.3481 34.0509 -39.2592 34.3749C-39.1721 35.2026 -38.6349 36.0304 -39.178 36.8942C-39.2687 37.0742 -40.0791 37.1822 -39.7199 37.4341C-39.4507 37.6501 -39.4516 37.902 -39.4524 38.1539C-39.4527 38.2259 -39.4524 38.1539 -39.4526 38.1899C-39.4532 38.3699 -39.1839 38.5858 -39.7242 38.6578C-40.2645 38.7299 -40.6242 38.6219 -40.8935 38.406C-40.984 38.55 -40.0843 38.6579 -40.8949 38.8019C-40.9849 38.8019 -41.2548 38.7659 -40.895 38.8379C-39.5459 39.1257 -39.1872 39.5216 -39.9991 40.0255C-40.36 40.2775 -40.1805 40.4215 -39.9111 40.6014C-39.1925 41.0332 -38.9241 41.5011 -39.5558 41.969C-39.8265 42.149 -39.3766 42.185 -39.1968 42.2569C-38.7475 42.4728 -38.4783 42.7248 -39.0194 43.0127C-39.3801 43.1927 -39.5608 43.4087 -39.7416 43.6246C-39.9225 43.8766 -40.3732 44.0566 -41.0037 44.1646C-41.8142 44.2727 -42.1751 44.5246 -41.9063 44.8845C-41.7273 45.1724 -41.6384 45.4963 -41.7296 45.8203C-41.8202 46.0002 -41.731 46.2162 -41.3714 46.3601C-40.8322 46.612 -40.8331 46.8639 -41.6438 47.044C-42.5447 47.26 -41.1946 47.2599 -41.4651 47.4039C-41.6457 47.5838 -41.6464 47.7638 -41.7371 47.9797C-41.0167 47.8717 -41.7357 47.5838 -41.2853 47.4758C-40.835 47.4038 -40.3847 47.3318 -39.9349 47.4037C-39.3957 47.6556 -39.1267 47.9435 -39.1278 48.2675C-38.9476 48.1955 -39.307 48.0155 -38.9468 47.9795C-38.5866 47.9435 -38.4069 48.0155 -38.2272 48.1234C-37.9577 48.2674 -37.6879 48.3393 -37.2377 48.3033C-36.4274 48.2313 -37.237 48.0873 -37.0566 47.9794C-36.9663 47.9074 -36.9661 47.8354 -36.7859 47.7994C-36.1552 47.6194 -35.7058 47.7993 -35.166 47.8712C-34.8062 47.9432 -34.3561 47.9432 -34.357 48.1951C-34.4478 48.411 -34.6284 48.591 -35.1686 48.6271C-36.1589 48.6631 -36.9701 48.9871 -37.9599 48.9152C-38.0501 48.9512 -38.1401 48.9512 -38.2301 48.9512C-38.4101 48.9512 -38.59 48.9153 -38.7704 49.0232C-39.1317 49.3832 -39.3119 49.4192 -40.1211 49.1673C-40.4808 49.0594 -40.5703 48.9154 -40.6596 48.7355C-40.7493 48.6275 -40.8385 48.4116 -41.3787 48.4476C-41.4692 48.5916 -41.1992 48.5915 -41.1093 48.6275C-40.4796 48.7355 -40.5704 48.9514 -40.8411 49.1314C-41.1118 49.3474 -41.6518 49.3114 -42.0114 49.2035C-42.8205 48.9156 -43.9906 48.9157 -44.7096 48.5918C-45.159 48.4119 -45.4293 48.4839 -45.7 48.6639C-46.3314 49.0598 -47.1417 49.0959 -47.9504 48.7001C-48.1301 48.6281 -48.1296 48.4841 -48.4899 48.5561C-48.8502 48.6282 -48.4906 48.7361 -48.4008 48.8081C-48.311 48.88 -48.1313 48.952 -48.1315 49.024C-48.042 49.168 -47.7725 49.3119 -48.2229 49.4199C-48.6734 49.5279 -49.0331 49.456 -49.2125 49.276C-49.3918 49.0601 -49.662 49.0961 -50.0221 49.1321C-50.5623 49.1682 -51.1023 49.1322 -51.3716 48.9163C-51.6407 48.6644 -51.0104 48.5923 -50.6499 48.4843C-50.1092 48.3043 -50.1993 48.3043 -50.8278 47.8725C-51.0982 47.9805 -51.1888 48.1245 -51.3692 48.2325C-52.0006 48.6284 -52.2706 48.6284 -52.9896 48.3046C-53.349 48.1246 -54.5192 48.1247 -54.0675 47.6568C-53.9773 47.6208 -54.3374 47.6208 -54.5174 47.6209C-54.9674 47.6209 -55.2372 47.5489 -55.1466 47.369C-55.0559 47.189 -54.7855 47.081 -54.4256 47.117C-53.1658 47.2248 -51.9951 47.0448 -50.8245 46.9367C-50.0142 46.8647 -49.2945 46.9726 -48.6652 47.1885C-48.3055 47.2964 -47.8558 47.4044 -47.4962 47.5123C-46.327 47.8002 -46.237 47.8001 -45.0654 47.3682C-45.7852 47.2962 -46.415 47.2243 -46.684 46.9364C-46.8634 46.7565 -47.0437 46.8284 -47.404 46.9005C-48.1246 47.0445 -48.3944 46.9725 -48.3032 46.6486C-48.3031 46.6126 -48.213 46.5766 -48.213 46.5766C-48.9339 46.8286 -49.2926 46.4327 -49.8327 46.4328C-51.273 46.4689 -51.9915 46.037 -52.8905 45.7132C-52.9804 45.6772 -52.9803 45.6412 -53.0702 45.6052C-53.0694 45.3893 -52.9788 45.2093 -53.5183 45.0654C-54.058 44.9575 -53.6971 44.7055 -53.6966 44.5615C-54.5959 44.3457 -55.407 44.6337 -56.2173 44.6697C-56.7574 44.7057 -56.488 44.8857 -56.3084 44.9936C-55.7692 45.2455 -56.2195 45.3176 -56.6697 45.3536C-57.39 45.4256 -58.0197 45.3177 -58.7396 45.2458C-59.7293 45.1379 -59.9997 45.2459 -59.8211 45.6418C-59.7326 46.0737 -58.9231 46.2535 -58.1134 46.3615C-57.7535 46.3974 -57.4838 46.5054 -57.2141 46.5773C-57.1235 46.4334 -57.4836 46.4334 -57.6635 46.3974C-58.1132 46.2895 -58.2925 46.1095 -58.0219 45.9296C-57.7511 45.7136 -57.2111 45.7495 -56.8515 45.8575C-56.3119 46.0014 -55.9517 45.9654 -55.5012 45.8214C-54.7803 45.6054 -54.1507 45.7133 -54.0619 46.0732C-53.8837 46.5771 -54.4248 46.901 -55.5954 47.0091C-56.1355 47.0451 -56.4058 47.1171 -56.5866 47.3331C-56.7676 47.621 -57.3082 47.765 -57.669 47.981C-58.0298 48.197 -58.3894 48.0531 -58.8392 47.9811C-59.4689 47.8732 -60.0085 47.7653 -60.4598 48.1252C-60.6405 48.3052 -61.1808 48.3772 -61.721 48.4132C-62.4414 48.4853 -63.0707 48.2694 -63.0698 48.0175C-63.0695 47.9455 -62.9793 47.8735 -62.9792 47.8375C-62.707 47.2256 -62.707 47.2256 -61.1769 47.2615C-62.4358 46.9017 -62.976 46.9377 -63.6978 47.4416C-63.9686 47.6576 -64.9586 47.6217 -65.4978 47.3698C-65.6774 47.2618 -65.8571 47.1539 -65.9467 47.0459C-66.1259 46.794 -66.5755 46.6861 -67.2057 46.7221C-67.5659 46.7581 -67.8359 46.7581 -68.1957 46.6862C-68.7353 46.5423 -68.7343 46.2543 -68.1038 46.1463C-67.6535 46.0743 -67.2032 46.0023 -66.6632 46.0022C-66.3031 46.0022 -66.1228 45.9302 -66.0323 45.7862C-65.851 45.4263 -65.2206 45.3183 -64.5014 45.5702C-63.8721 45.7861 -63.1526 45.966 -62.7937 46.2899C-63.1525 45.93 -64.2321 45.7861 -64.3205 45.3182C-64.3199 45.1383 -65.3102 45.2103 -65.6696 45.0304C-66.2987 44.7425 -66.5699 45.0665 -66.9302 45.1385C-67.3806 45.2465 -67.741 45.3545 -68.1014 45.4625C-69.1827 45.7865 -70.6222 45.6067 -70.9804 45.0668C-71.0699 44.9229 -71.1594 44.7789 -70.799 44.6709C-70.4386 44.5629 -70.0787 44.5989 -69.6288 44.6708C-69.2691 44.7428 -69.1797 44.9227 -68.7294 44.8507C-68.6394 44.8507 -68.4592 44.8147 -68.5493 44.8507C-69.0883 44.5268 -70.0785 44.5629 -70.798 44.383C-71.2476 44.275 -71.6068 44.0231 -72.2366 43.9512C-72.1476 44.2391 -72.3288 44.563 -72.2398 44.851C-72.2404 45.0309 -72.6908 45.1389 -73.141 45.175C-73.5912 45.211 -73.6807 45.067 -73.7702 44.9231C-73.9495 44.7071 -74.3089 44.5272 -74.3983 44.3473C-74.5773 44.0593 -74.9366 43.8434 -75.7465 43.8075C-76.2865 43.7716 -76.5559 43.5916 -76.7353 43.4117C-77.1837 42.9438 -77.9026 42.62 -79.3428 42.6201C-79.5228 42.6201 -79.6126 42.5481 -79.8825 42.5122C-79.973 42.6561 -79.7938 42.8721 -80.3342 42.9801C-80.7845 43.0521 -81.1444 43.0161 -81.5044 42.9802C-82.2241 42.8723 -82.8546 43.0163 -83.4851 43.1243C-84.3858 43.3043 -85.0155 43.1964 -85.3743 42.8365C-85.5537 42.6566 -85.5533 42.5486 -85.0131 42.5126C-83.6627 42.4405 -84.292 42.2246 -84.8315 42.0447C-85.0112 41.9727 -85.1909 41.8647 -85.4608 41.8288C-85.1011 41.9367 -84.3815 42.0806 -84.4722 42.2606C-84.6531 42.5125 -85.4632 42.5126 -86.0931 42.4767C-86.543 42.4407 -87.173 42.4048 -87.2637 42.5847C-87.3543 42.7647 -86.9951 43.0166 -86.3652 43.0525C-85.8252 43.0885 -85.4662 43.3764 -84.7457 43.2684C-84.2954 43.1963 -84.3865 43.4843 -84.5669 43.5923C-84.8376 43.8082 -85.1988 44.1322 -84.6591 44.2401C-83.9396 44.384 -83.5784 44.0601 -83.3076 43.8441C-82.5856 43.3042 -81.1448 43.1241 -80.0656 43.376C-79.346 43.5199 -79.3469 43.7718 -79.8875 43.9518C-81.0589 44.3118 -82.6797 44.4559 -83.6717 44.9958C-84.4815 44.9239 -85.2015 44.888 -85.7427 45.212C-85.8328 45.248 -86.1027 45.212 -86.1925 45.14C-86.9112 44.7442 -88.0816 44.8163 -88.9812 44.6724C-88.6214 44.7443 -88.4416 44.8163 -87.9914 44.7803C-87.0912 44.7442 -86.5524 45.1041 -85.8328 45.248C-85.2931 45.3559 -85.0235 45.4638 -84.5725 45.2119C-84.0316 44.9599 -83.3117 45.0318 -82.682 45.1397C-82.3223 45.2117 -82.0524 45.2477 -81.8716 45.0317C-81.7811 44.8877 -81.4209 44.8517 -81.0609 44.8517C-80.8808 44.8517 -80.6109 44.8876 -80.5205 44.7797C-80.4294 44.4557 -79.9792 44.4197 -79.3496 44.5636C-78.72 44.7075 -78.3606 44.8874 -78.6318 45.2114C-78.7221 45.2834 -78.7223 45.3554 -78.7225 45.3914C-78.8126 45.4274 -78.8127 45.4633 -78.9028 45.4993C-79.3532 45.5714 -79.9834 45.6074 -80.254 45.7874C-80.3442 45.8234 -80.6143 45.8594 -80.4346 45.9314C-79.4459 46.3632 -80.7957 46.2553 -81.0663 46.3993C-82.1485 47.0112 -83.7668 46.4715 -85.0276 46.6516C-85.2078 46.6876 -85.4774 46.5796 -85.6572 46.5076C-86.0167 46.3637 -86.3764 46.2558 -86.9171 46.4358C-87.3678 46.6158 -87.4584 46.7957 -86.9191 47.0116C-86.8292 47.0476 -86.8293 47.0836 -86.7395 47.1196C-86.7402 47.3355 -86.5607 47.4795 -86.2012 47.6234C-86.0214 47.6954 -85.7517 47.8033 -85.9321 47.9113C-86.1127 48.0553 -86.4725 47.9834 -86.6523 47.9474C-87.2819 47.8035 -88.0023 47.8755 -88.7226 47.9475C-88.5432 48.1275 -88.1835 48.2354 -87.9139 48.3434C-86.745 48.7032 -86.656 48.9911 -87.558 49.5311C-89.8086 49.6392 -92.0587 49.5674 -94.2189 49.5676C-100.43 49.5681 -106.55 49.5686 -112.761 49.5691C-112.941 49.5691 -113.121 49.5331 -113.391 49.5331C-114.832 49.6052 -116.181 49.4974 -117.711 49.4975C-117.35 49.2095 -116.9 49.0296 -116.359 48.8855C-115.909 48.7415 -115.818 48.6336 -116.358 48.4896C-117.437 48.1658 -117.346 48.0578 -116.355 47.6978C-115.904 47.5178 -115.724 47.3019 -115.723 47.0859C-115.721 46.69 -115.091 46.546 -114.37 46.438C-114.19 46.402 -113.92 46.402 -113.65 46.3299C-113.199 46.2219 -112.569 46.1139 -113.468 45.898C-113.648 45.8621 -113.738 45.7541 -113.918 45.6821C-114.007 45.6102 -114.187 45.5742 -114.458 45.6462C-114.638 45.6822 -114.548 45.7182 -114.548 45.7902C-114.46 46.33 -115.812 46.798 -117.071 46.6182C-117.521 46.5462 -117.612 46.6542 -117.792 46.7622C-117.882 46.8702 -118.153 47.0861 -118.423 47.0142C-119.772 46.7263 -121.034 47.2663 -122.293 47.0505C-122.923 46.9425 -123.643 46.9426 -124.364 47.0866C-124.544 47.1226 -124.724 47.1226 -124.904 47.0867C-125.084 47.0507 -124.993 46.7628 -125.354 46.9787C-125.624 47.0867 -125.354 47.1587 -125.084 47.2307C-124.815 47.3026 -124.005 47.4465 -123.645 47.4465C-122.925 47.4464 -122.926 47.6984 -122.656 47.8783C-122.476 47.7703 -122.205 47.6263 -121.846 47.6623C-121.216 47.7342 -120.676 47.7702 -120.315 47.4462C-120.314 47.4102 -117.345 47.5899 -117.345 47.5899C-116.895 47.7699 -117.076 48.0578 -117.887 48.1658C-118.697 48.2739 -119.238 48.3459 -119.599 48.7418C-119.96 49.0658 -121.13 49.1019 -122.121 49.1379C-122.211 49.138 -122.301 49.138 -122.391 49.138C-123.021 49.066 -123.651 49.1021 -124.281 49.1741C-125.362 49.2822 -124.55 48.7782 -125.359 48.6703C-125.989 48.5984 -126.529 48.3465 -127.339 48.4545C-128.059 48.5266 -128.418 48.2747 -128.778 48.0228C-129.77 48.5987 -131.03 48.4908 -132.289 48.239C-133.098 48.0951 -133.729 48.2031 -134 48.563C-134.271 48.887 -135.172 49.103 -135.982 48.9951C-136.522 48.9592 -136.341 48.8152 -136.251 48.7072C-135.709 48.0953 -135.978 47.9154 -137.508 47.7715C-137.238 47.8435 -136.698 47.7715 -136.608 47.9514C-136.519 48.1314 -136.879 48.2034 -137.15 48.3114C-138.231 48.6714 -139.671 48.6715 -140.57 48.3476C-140.84 48.2397 -141.109 48.1317 -141.019 47.9518C-140.928 47.7718 -140.478 47.8437 -140.208 47.7717C-139.758 47.6637 -139.218 47.7357 -138.947 47.5557C-139.668 47.6637 -140.568 47.6278 -141.108 47.8438C-141.739 48.0958 -142.28 48.3118 -143.18 48.1319C-143.45 48.0959 -143.54 48.1319 -143.72 48.2039C-144.081 48.3839 -144.531 48.4919 -144.981 48.348C-145.43 48.2041 -146.15 48.0601 -145.969 47.7362C-145.968 47.6642 -145.878 47.6282 -146.058 47.5563C-146.508 47.6643 -146.33 48.0242 -147.05 48.0602C-148.13 48.1683 -149.211 48.2763 -150.291 48.3124C-151.011 48.3125 -151.19 48.0246 -151.279 47.7726C-151.368 47.4847 -151.638 47.3408 -152.448 47.4488C-152.989 47.5208 -153.439 47.4489 -153.708 47.269C-153.888 47.161 -154.067 47.089 -154.247 47.0171C-154.966 46.7292 -155.685 46.4413 -154.334 46.1173C-154.244 46.1173 -154.244 46.0453 -154.334 45.9733C-154.875 46.3693 -155.955 46.3694 -156.856 46.4774C-157.306 46.5494 -157.485 46.3335 -157.575 46.1535C-157.664 45.9376 -157.753 45.7217 -158.203 45.5777C-158.742 45.3978 -159.101 45.2179 -158.65 44.9659C-158.199 44.6779 -157.479 44.5339 -156.579 44.6058C-156.309 44.6418 -156.129 44.7498 -155.859 44.7497C-156.848 44.4259 -158.289 44.498 -158.83 44.9299C-159.191 45.1819 -159.282 45.4338 -160.091 45.038C-160.63 44.7861 -161.081 45.0741 -161.352 45.2901C-160.63 44.8941 -160.45 44.8941 -159.822 45.2539C-159.732 45.3259 -159.642 45.3619 -159.462 45.3979C-158.742 45.4698 -158.473 45.6857 -158.654 45.9377C-158.835 46.2256 -159.465 46.1897 -160.005 46.2257C-159.735 46.2977 -159.465 46.2257 -159.195 46.1897C-158.835 46.1536 -158.474 46.1176 -158.205 46.2616C-157.935 46.4055 -158.116 46.5495 -158.386 46.6575C-158.747 46.8375 -158.928 47.0174 -159.648 47.0895C-160.008 47.1255 -160.279 47.3775 -160.909 47.4495C-161.72 47.5215 -161.99 47.4496 -161.899 47.1976C-161.808 46.8737 -162.167 46.8377 -162.798 46.8738C-162.978 46.8738 -163.248 46.8738 -163.428 46.9098C-165.048 47.0179 -165.048 47.0179 -166.037 46.5501C-166.309 47.018 -167.478 46.6942 -168.018 46.9102C-167.299 47.0901 -167.21 47.27 -168.29 47.3781C-167.03 47.486 -166.311 47.8098 -165.592 48.0977C-165.053 48.3136 -165.234 48.5296 -165.864 48.6376C-166.585 48.7816 -167.395 48.7457 -168.114 48.6378C-168.834 48.5299 -168.113 48.2419 -168.292 48.0259C-168.653 48.2419 -169.104 48.3859 -169.015 48.7098C-169.016 48.9618 -169.556 48.9978 -170.096 48.9259C-170.905 48.818 -171.535 48.6021 -172.074 48.3862C-172.793 48.0983 -171.713 48.0622 -171.532 47.8822C-171.892 47.7023 -172.162 47.7743 -172.342 47.8823C-172.883 48.1343 -173.424 48.2063 -173.602 47.7384C-173.963 47.9184 -173.693 48.0264 -173.513 48.1343C-173.334 48.3143 -173.064 48.4582 -173.515 48.6382C-173.876 48.7822 -174.326 48.7822 -174.776 48.7103C-175.315 48.6384 -175.765 48.5664 -176.305 48.5305C-176.845 48.4945 -177.295 48.4226 -177.746 48.6386C-178.016 48.7825 -178.376 48.7106 -178.645 48.5667C-178.915 48.4227 -179.185 48.3507 -179.545 48.5307C-179.276 48.7107 -178.196 48.7826 -178.737 49.0705C-179.188 49.3585 -179.817 49.0706 -180.447 48.9987C-181.167 48.8908 -181.797 48.7828 -182.336 48.6029C-182.606 48.531 -183.146 48.567 -182.965 48.351C-182.785 48.1711 -182.514 48.0631 -182.064 48.063C-181.704 48.063 -181.434 48.063 -181.074 48.099C-180.174 48.1349 -179.994 48.0269 -180.353 47.703C-180.442 47.631 -180.622 47.5231 -180.532 47.4511C-180.351 47.3431 -179.991 47.3431 -179.812 47.415C-179.542 47.487 -179.542 47.451 -179.451 47.343C-179.18 47.0191 -178.46 46.947 -177.83 47.019C-176.84 47.0909 -175.85 47.1988 -175.492 47.6666C-175.76 47.1988 -177.02 47.0909 -177.649 46.731C-178.008 46.5511 -178.639 46.6951 -179.089 46.8031C-179.81 46.9471 -180.53 47.0552 -181.43 46.9473C-181.61 46.9113 -181.97 46.8753 -182.06 46.9833C-182.241 47.0913 -181.881 47.1273 -181.701 47.1992C-181.431 47.2712 -180.981 47.3431 -181.162 47.5231C-181.343 47.7031 -181.793 47.6671 -182.153 47.6672C-182.513 47.6672 -182.783 47.6312 -183.053 47.7392C-183.504 47.9192 -183.954 47.8832 -184.493 47.7033C-184.314 47.9193 -184.044 48.0272 -183.775 48.1352C-183.685 48.1712 -183.595 48.2071 -183.595 48.2431C-183.327 48.855 -183.778 49.035 -185.398 48.9991C-186.478 48.9992 -187.469 49.1432 -188.548 48.9274C-189.088 48.8194 -189.627 48.7115 -189.987 48.4956C-190.616 48.1717 -191.156 48.1718 -191.697 48.4957C-192.148 48.7477 -192.598 48.8557 -193.318 48.7118C-193.678 48.6398 -194.038 48.7119 -194.398 48.7479C-195.389 48.8919 -195.748 48.784 -195.747 48.3521C-195.746 48.1361 -195.746 48.1361 -197.007 48.2442C-195.927 48.5321 -195.928 48.64 -197.189 48.8921C-198.18 49.1081 -199.169 48.9642 -200.159 48.9643C-200.429 48.9643 -200.609 48.8564 -200.519 48.7484C-200.337 48.3525 -200.967 48.1006 -201.506 47.8127C-201.685 47.7407 -201.865 47.6687 -201.865 47.5608C-201.773 47.1289 -201.952 46.697 -201.86 46.2651C-202.041 46.517 -202.491 46.5171 -203.031 46.5531C-203.662 46.5892 -204.112 46.6972 -204.023 46.9851C-203.934 47.237 -204.474 47.381 -204.565 47.669C-204.025 47.489 -203.844 47.273 -203.483 47.129C-203.213 47.057 -203.033 46.949 -202.673 46.985C-202.403 47.0209 -202.223 47.1289 -202.224 47.2729C-202.225 47.5968 -202.136 47.8487 -201.416 48.0646C-200.967 48.2085 -200.968 48.5684 -201.329 48.7844C-201.6 49.0364 -202.23 48.9285 -202.68 48.9285C-204.84 48.9647 -207.09 48.9648 -209.25 48.893C-210.42 48.8571 -210.6 48.7852 -209.969 48.3892C-209.608 48.1732 -209.787 48.0653 -210.147 47.8854C-210.955 47.3815 -211.854 46.9857 -213.564 46.9859C-213.924 46.9859 -214.013 46.734 -214.463 46.662C-214.824 46.806 -215.184 46.95 -215.275 47.13C-215.455 47.3099 -215.366 47.4899 -214.916 47.5978C-214.467 47.7417 -214.106 47.6337 -213.746 47.4897C-213.566 47.4178 -213.475 47.3458 -213.295 47.2738C-213.115 47.2018 -212.935 47.1658 -212.665 47.1657C-212.125 47.2377 -211.407 47.9574 -211.678 48.1374C-212.58 48.7134 -213.751 48.9294 -215.371 48.8216C-215.641 48.8216 -215.911 48.7856 -216 48.7136C-216.18 48.5697 -216.18 48.6417 -216.361 48.7137C-216.721 48.8577 -217.171 48.8577 -217.621 48.8217C-220.501 48.75 -223.382 48.7862 -226.262 48.7864C-227.342 48.7865 -228.603 48.9306 -229.592 48.5708C-229.681 48.5348 -229.682 48.6428 -229.772 48.6788C-230.223 48.8587 -231.033 48.8588 -231.302 48.7149C-232.021 48.247 -233.012 48.4631 -234.002 48.4631C-233.642 48.6431 -233.463 48.787 -234.273 48.8591C-235.084 48.9671 -235.893 48.8952 -236.704 48.8953C-237.154 48.8953 -237.153 48.7513 -237.243 48.6074C-237.422 48.3914 -237.691 48.2115 -238.051 48.0676C-238.411 48.1756 -238.142 48.2835 -238.052 48.3555C-237.872 48.5354 -237.693 48.7154 -238.144 48.8954C-238.324 48.9674 -238.684 48.9674 -238.954 48.9314C-239.584 48.8595 -239.313 48.6435 -239.312 48.4636C-239.312 48.4276 -239.312 48.3556 -239.402 48.3196C-239.401 48.1397 -239.671 47.9957 -239.85 47.8518C-239.579 47.5278 -240.028 47.096 -238.947 46.8799C-238.317 46.9519 -238.588 47.1678 -238.408 47.3118C-238.228 47.2038 -238.317 47.0598 -238.137 46.9878C-237.146 46.6278 -237.054 46.1959 -237.503 45.7281C-237.772 45.4402 -236.781 45.4041 -236.69 45.1162C-237.861 45.1883 -238.04 44.8643 -238.128 44.5404C-238.218 44.3245 -238.488 44.2885 -238.938 44.2526C-240.377 44.0727 -239.386 43.7487 -239.205 43.4968C-239.025 43.3888 -238.485 43.4247 -238.484 43.2088C-238.844 43.2448 -238.755 43.4248 -239.115 43.4608C-239.475 43.4968 -239.745 43.4248 -240.105 43.4249C-240.825 43.3529 -240.824 43.209 -240.283 43.029C-239.923 42.921 -239.743 42.849 -239.652 42.669C-239.561 42.3091 -238.84 42.1651 -238.031 42.345C-237.581 42.4529 -237.401 42.3809 -236.95 42.2729C-238.12 42.129 -238.749 41.7692 -239.378 41.4453C-239.737 41.2654 -240.007 41.0854 -239.106 40.9774C-238.296 40.9053 -237.665 40.6533 -236.854 40.5453C-237.484 40.5454 -238.114 40.5454 -238.475 40.7974C-238.656 40.9414 -239.016 41.0134 -239.466 40.9414C-239.916 40.8335 -240.455 40.7256 -240.455 40.5096C-240.454 40.2577 -240.543 40.0057 -240.362 39.8618C-240.453 40.0417 -240.903 40.1137 -241.533 40.0058C-241.623 40.0058 -241.713 40.0058 -241.803 39.9698C-242.253 39.8619 -242.974 40.1499 -243.063 39.826C-243.152 39.5381 -242.611 39.394 -241.981 39.286C-241.891 39.286 -241.8 39.214 -241.8 39.214C-241.981 39.286 -242.341 39.2861 -242.611 39.3581C-242.971 39.3941 -243.421 39.4301 -243.601 39.2862C-243.78 39.1422 -243.33 39.0702 -243.15 38.9982C-242.879 38.9262 -242.699 38.8542 -242.789 38.7102C-242.878 38.6023 -243.148 38.5663 -243.418 38.5663C-243.958 38.5664 -244.318 38.5664 -244.587 38.3145C-244.767 38.1345 -245.308 38.3145 -245.667 38.2426C-245.757 38.2066 -245.847 38.2066 -245.937 38.1346C-246.744 37.3429 -246.382 36.695 -244.76 36.191C-244.31 36.2989 -244.491 36.5149 -243.952 36.6588C-244.401 36.5149 -244.4 36.2989 -244.76 36.191C-244.85 36.083 -244.849 35.9751 -244.759 35.9031C-243.858 35.5431 -244.216 35.1112 -244.215 34.7153C-244.214 34.6073 -244.214 34.5354 -244.394 34.4634C-244.933 34.2475 -245.022 33.9956 -244.841 33.7076C-244.66 33.3837 -245.199 33.0598 -245.468 32.8079C-246.007 32.34 -245.915 31.8002 -246.543 31.3323C-246.002 31.0804 -245.731 30.7204 -245.01 30.5044C-245.639 30.1445 -245.907 29.6767 -246.266 29.2448C-246.535 28.9569 -246.085 28.8849 -245.455 29.0288C-245.095 29.1368 -244.646 29.2087 -244.105 29.0647C-245.095 29.1367 -246.714 28.669 -246.983 28.3451C-247.252 27.9852 -246.891 27.6972 -245.9 27.4452C-245.089 27.2292 -245.088 26.9773 -245.986 26.5095C-246.077 26.7254 -246.078 26.9414 -246.708 26.9414C-247.338 26.9415 -248.148 26.9775 -248.687 26.7616C-248.867 26.6897 -248.957 26.5097 -249.227 26.5097C-250.307 26.4378 -251.026 26.3659 -249.945 25.8979C-249.854 25.8619 -249.944 25.754 -250.124 25.754C-250.934 25.6821 -250.932 25.1782 -251.922 25.1423C-252.102 25.1423 -252.282 25.0703 -252.192 24.9983C-251.83 24.4224 -253.448 24.0267 -253.176 23.4148C-253.898 23.7388 -254.438 23.8468 -255.157 23.4869C-255.876 23.1271 -255.966 23.1631 -254.885 22.947C-254.615 22.911 -254.524 22.839 -254.524 22.7311C-254.614 22.5871 -254.973 22.4792 -255.243 22.4792C-257.134 22.6953 -257.402 21.9755 -257.851 21.6156C-258.299 21.2557 -258.839 21.0398 -259.648 20.8599C-259.828 20.824 -260.188 20.788 -260.098 20.752C-259.736 20.3201 -260.816 20.1042 -260.994 19.7803C-260.816 20.1402 -260.187 20.4641 -260.188 20.86C-260.009 21.0759 -259.83 21.2559 -259.109 21.2558C-258.659 21.2558 -258.39 21.3637 -258.48 21.5077C-258.662 21.8676 -257.943 22.2995 -259.204 22.5155C-259.294 22.5155 -259.204 22.6235 -259.115 22.7314C-258.484 22.5154 -258.302 21.9756 -257.133 22.3354C-256.414 22.5513 -256.325 22.9832 -257.046 23.3071C-255.335 23.091 -255.248 23.7389 -254.348 23.9548C-253.179 24.2426 -253.361 24.7105 -253.813 25.1784C-254.173 25.2864 -254.623 25.3584 -255.073 25.3945C-255.163 25.3945 -255.163 25.3585 -255.253 25.3585C-255.433 25.3225 -255.343 25.2145 -255.523 25.2145C-255.523 25.2865 -255.523 25.3225 -255.614 25.3945C-255.704 25.4305 -255.794 25.4305 -255.974 25.4305C-256.514 25.3586 -256.693 25.1787 -256.872 24.9987C-257.411 24.5669 -257.859 24.135 -258.848 23.8471C-259.747 23.4153 -260.916 23.0915 -261.905 22.7317C-263.164 22.2999 -264.242 21.8321 -265.23 21.2923C-265.41 21.2203 -265.59 21.1124 -265.769 21.0404C-266.848 20.4646 -267.745 19.8168 -268.373 19.1691C-269.091 18.4133 -270.619 17.8376 -271.336 17.1178C-271.516 16.9379 -271.965 16.7579 -271.694 16.542C-271.514 16.398 -271.874 16.434 -271.964 16.398C-273.133 15.9662 -273.671 15.3904 -273.578 14.7785C-272.678 14.6705 -271.957 14.5265 -271.596 14.0946C-271.325 13.7346 -269.795 13.7705 -269.165 14.0584C-268.896 14.2023 -268.986 14.3103 -269.257 14.3823C-269.527 14.4903 -269.887 14.5623 -270.158 14.7063C-270.338 14.8143 -270.789 14.9223 -270.519 15.1022C-270.25 15.2462 -270.07 15.4621 -269.44 15.4261C-268.9 15.39 -268.45 15.462 -268 15.4979C-268.54 15.426 -268.72 15.318 -268.539 15.1381C-268.358 14.9221 -267.909 15.03 -267.639 15.066C-267.279 15.102 -267.009 15.2459 -266.559 15.2099C-267.369 15.066 -268.359 15.0661 -268.537 14.5262C-268.626 14.3103 -268.986 14.0943 -269.435 13.8065C-268.355 13.8424 -267.545 13.9863 -266.646 14.2381C-266.825 14.0222 -267.185 13.9862 -267.455 13.9143C-267.815 13.8783 -268.174 13.7704 -268.084 13.6624C-267.452 13.1584 -268.353 13.4824 -268.623 13.4825C-268.983 13.4825 -269.163 13.3745 -269.343 13.2666C-270.062 12.9067 -269.7 12.5108 -269.789 12.1149C-269.878 11.9349 -269.248 11.8629 -268.887 11.7549C-268.347 11.6109 -268.076 11.4669 -268.706 11.251C-269.425 10.9631 -269.154 10.7112 -268.523 10.4952C-267.982 10.3152 -267.892 10.1352 -268.431 9.88332C-269.15 9.55946 -268.788 9.19952 -267.618 9.16343C-266.808 9.16337 -266.987 8.87545 -266.627 8.76745C-266.446 8.69545 -266.896 8.62351 -267.076 8.65951C-268.157 8.80357 -268.516 8.55166 -268.695 8.19176C-268.693 7.65189 -268.601 7.11201 -268.779 6.57216C-268.869 6.4282 -268.868 6.32023 -269.048 6.21227C-269.227 6.06832 -269.407 5.88838 -269.226 5.7444C-268.775 5.34846 -269.404 5.02459 -269.313 4.66467C-269.221 4.12479 -269.849 3.69295 -270.298 3.2251C-270.567 3.00917 -270.566 2.72124 -270.115 2.50526C-269.755 2.36127 -270.024 2.21732 -270.294 2.07338C-270.833 1.82148 -271.102 1.49758 -271.551 1.20969C-271.91 0.92179 -272.089 0.633875 -271.278 0.417862C-270.917 0.309859 -270.737 0.129889 -271.277 0.129932C-272.177 0.130005 -272.626 -0.049915 -273.076 -0.301817C-273.255 -0.409777 -273.615 -0.409747 -273.885 -0.481708C-274.065 -0.517685 -274.155 -0.58966 -274.244 -0.661635C-274.334 -0.769602 -274.334 -0.913567 -274.153 -1.02155C-274.063 -1.05755 -273.973 -1.09355 -273.883 -1.09356C-273.523 -1.09359 -273.074 -0.877677 -272.803 -1.12964C-271.993 -1.02173 -271.182 -1.12977 -270.282 -1.12984C-269.112 -1.12994 -268.483 -0.914039 -268.305 -0.374185C-267.944 -0.518179 -268.214 -0.626131 -268.304 -0.734097C-268.752 -1.12996 -268.752 -1.12996 -267.672 -1.09406C-265.962 -1.05821 -264.162 -1.02236 -262.452 -1.0225C-260.922 -1.02262 -259.301 -1.02275 -257.771 -1.02288C-257.141 -1.02293 -257.142 -0.878963 -256.962 -0.735013C-256.962 -0.699022 -257.143 -0.555042 -256.783 -0.591062C-256.693 -0.59107 -256.512 -0.627075 -256.422 -0.663074C-256.332 -0.807046 -256.602 -0.699051 -256.692 -0.771026C-256.962 -0.914969 -256.961 -1.05893 -256.511 -1.02298C-255.071 -0.987104 -253.54 -1.13119 -252.101 -0.807388C-252.011 -0.771404 -251.741 -0.771426 -251.742 -0.735434C-251.744 -0.159574 -250.033 -0.267686 -249.764 0.0922043C-250.124 -0.0517316 -250.753 -0.195646 -250.392 -0.555587C-250.121 -0.807547 -249.491 -0.951563 -249.041 -0.879617C-247.062 -0.555856 -245.08 -0.915928 -243.1 -0.916088C-242.47 -0.916139 -241.93 -0.808209 -241.481 -0.628289C-240.852 -0.304419 -240.672 -0.268442 -240.221 -0.592399C-239.86 -0.844367 -239.41 -0.844403 -238.87 -0.844447C-237.159 -0.844585 -235.359 -0.808739 -233.649 -0.772886C-233.199 -0.772922 -232.93 -0.66497 -232.66 -0.521027C-232.48 -0.413068 -232.391 -0.233119 -231.941 -0.197164C-231.671 -0.30516 -231.94 -0.37712 -232.12 -0.413097C-232.48 -0.629016 -232.209 -0.737011 -231.669 -0.701063C-230.139 -0.629204 -228.519 -0.629335 -226.989 -0.66545C-226.269 -0.701499 -225.819 -0.52158 -225.91 -0.233642C-225.46 -0.26967 -225.19 -0.377665 -224.919 -0.44967C-224.379 -0.557687 -223.839 -0.593722 -223.75 -0.269808C-223.661 0.0541059 -223.211 0.0540696 -222.67 -0.0899389C-222.22 -0.197949 -221.77 -0.233976 -221.23 -0.198029C-220.87 -0.162067 -220.6 -0.162089 -220.24 -0.2341C-217.628 -0.666206 -214.928 -0.594441 -212.227 -0.63065C-210.787 -0.630767 -209.437 -0.630876 -207.997 -0.595001C-206.917 -0.559097 -206.917 -0.415132 -207.279 -0.0911814C-204.937 -0.451283 -202.596 -0.595437 -200.076 -0.523657C-199.716 -0.523687 -199.266 -0.559714 -199.087 -0.343781C-198.997 -0.163832 -198.727 -0.271828 -198.457 -0.27185C-197.647 -0.271915 -196.746 -0.523926 -195.937 -0.236062C-195.757 -0.164094 -195.757 -0.236076 -195.757 -0.272068C-195.575 -0.596003 -195.036 -0.524064 -194.496 -0.488117C-193.416 -0.344239 -192.335 -0.560274 -191.255 -0.52437C-190.535 -0.488436 -190.085 -0.41649 -189.996 -0.128568C-189.907 0.195346 -189.458 0.267292 -188.827 0.0872852C-188.557 0.015281 -188.377 0.0152664 -188.197 0.0872344C-187.298 0.3391 -186.217 0.23104 -185.318 0.410923C-185.047 0.230945 -185.497 0.158999 -185.496 0.0510252C-185.496 -0.0929398 -185.316 -0.164937 -185.045 -0.236941C-184.775 -0.308945 -184.505 -0.272976 -184.326 -0.165017C-183.517 0.266813 -182.346 0.122753 -181.446 0.014707C-180.455 -0.0933466 -179.736 0.0145689 -179.196 0.230473C-178.747 0.410393 -178.208 0.662288 -177.848 0.842215C-177.848 0.734241 -178.118 0.698272 -178.298 0.626304C-178.927 0.374416 -178.926 0.230451 -178.115 0.0144382C-177.665 -0.0935719 -177.305 -0.201575 -176.944 -0.309577C-176.313 -0.525576 -175.683 -0.453644 -174.964 -0.345729C-174.694 -0.309759 -174.424 -0.237798 -174.425 -0.0938335C-174.425 0.0861227 -174.875 0.0501678 -175.145 0.0861808C-174.336 0.23008 -173.796 0.194046 -173.434 -0.129905C-173.254 -0.309875 -172.893 -0.489861 -172.353 -0.453913C-170.823 -0.346063 -169.293 -0.490151 -167.763 -0.382301C-168.575 0.265607 -168.665 0.265614 -170.645 0.121809C-170.285 0.265745 -170.196 0.409702 -169.836 0.445664C-169.296 0.481612 -169.387 0.697567 -169.027 0.76952C-168.577 0.66151 -168.576 0.481554 -168.575 0.301598C-168.574 0.0496591 -168.124 -0.166325 -167.584 -0.0583945C-166.685 0.15748 -166.504 -0.0584817 -166.233 -0.274451C-166.053 -0.382439 -165.872 -0.490427 -165.422 -0.418481C-164.163 -0.274618 -162.812 -0.310718 -161.552 -0.346811C-160.292 -0.346913 -159.212 -0.239026 -157.952 -0.203137C-157.232 -0.167204 -156.244 0.444567 -156.515 0.660537C-156.786 0.912497 -157.146 1.0205 -157.956 0.8766C-157.147 1.09248 -156.337 1.23638 -155.618 1.45227C-156.427 1.27238 -156.606 0.948474 -156.335 0.624531C-156.244 0.408576 -154.713 0.228496 -154.083 0.264437C-153.904 0.300413 -153.634 0.336383 -153.724 0.408373C-153.906 1.02024 -152.286 1.12808 -151.838 1.55994C-151.567 1.27199 -150.936 1.05599 -151.025 0.696085C-151.113 0.372171 -149.493 0.264066 -148.593 0.479941C-148.414 0.515918 -148.324 0.659875 -148.054 0.659854C-147.514 0.695801 -146.794 0.803717 -147.063 0.371844C-147.153 0.299868 -147.062 0.227879 -147.062 0.119905C-147.06 -0.455955 -147.06 -0.383972 -145.71 -0.420073C-144.54 -0.456158 -143.551 -0.204299 -142.38 -0.168403C-141.571 -0.132477 -142.201 0.119513 -142.112 0.299462C-141.572 0.227436 -141.391 0.0114736 -141.03 -0.13252C-140.129 -0.528497 -138.869 -0.528598 -138.33 -0.16873C-138.33 -0.132738 -138.33 -0.0967472 -138.42 -0.0607487C-138.692 0.299185 -138.152 0.443107 -137.522 0.55103C-137.342 0.515024 -137.342 0.479033 -137.342 0.443041C-137.61 -0.24077 -137.429 -0.312767 -135.359 -0.312934C-133.559 -0.31308 -131.759 -0.0972776 -129.959 -0.277379C-129.869 -0.277386 -129.779 -0.277394 -129.689 -0.277401C-129.15 0.190442 -127.709 -0.0256221 -126.9 0.226251C-126.72 0.262228 -126.63 0.334203 -126.541 0.406178C-126.361 0.514138 -126.181 0.658088 -126.362 0.766076C-126.723 0.946062 -126.092 0.838037 -126.092 0.910019C-126.003 1.19794 -125.284 1.30586 -125.195 1.59378C-126.186 1.8458 -125.827 2.24167 -126.008 2.6016C-126.28 3.06951 -125.201 3.39334 -125.562 3.75328C-125.561 3.50134 -124.751 3.46529 -124.3 3.2853C-126.01 3.0335 -126.279 2.7096 -125.287 2.16965C-124.926 1.98966 -125.285 1.80974 -125.195 1.59378C-125.283 1.05392 -125.641 0.514079 -125.369 -0.0618023C-125.278 -0.277757 -125.098 -0.277771 -124.468 -0.277822C-123.298 -0.277917 -122.128 -0.206029 -120.957 -0.314097C-117.537 -0.314373 -114.027 -0.314656 -110.606 -0.314933C-89.7238 -0.280627 -68.9316 -0.210323 -48.0494 -0.140026C-45.8891 -0.140201 -43.639 -0.104391 -41.5697 0.183372C-40.4001 0.327242 -39.1399 0.327141 -37.9695 0.255064C-32.2077 -0.0693226 -26.4471 -0.0337963 -20.6865 -0.0342613C-13.2157 0.00112687 -5.74494 0.0365149 1.63582 0.0719104C2.44579 0.107836 2.98447 0.503696 3.88546 0.251685C4.42552 0.251641 4.78506 0.395577 5.23473 0.503515C5.77392 0.75541 6.22497 0.467444 6.40524 0.395447C7.4865 0.0714382 7.66641 0.107415 8.29484 0.57525C8.47436 0.719201 8.65375 0.899142 9.1038 0.899106C10.9939 0.934944 12.0719 1.54671 13.6011 1.83451C14.2304 2.05041 13.5993 2.33839 14.0485 2.59029Z" fill="#FEBD00"/>
<path d="M-36.3652 30.5595C-35.915 30.5235 -35.3754 30.6674 -34.9247 30.4874C-34.8341 30.3074 -34.5637 30.1994 -34.1136 30.1994C-33.8436 30.1994 -33.6638 30.2713 -33.6642 30.3793C-33.5748 30.5593 -33.8452 30.6673 -34.2055 30.7393C-35.5566 30.9913 -35.6483 31.4952 -36.1 31.9631C-36.1907 32.1431 -36.4616 32.3951 -36.0121 32.539C-35.7423 32.6109 -34.9323 32.6469 -34.9322 32.6109C-34.5712 32.3589 -33.9408 32.2509 -33.5801 32.0709C-32.8585 31.6389 -32.8584 31.603 -32.2297 31.9988C-32.1398 32.0348 -31.9599 32.0708 -31.7799 32.0708C-31.599 31.8188 -31.0577 31.4588 -31.2374 31.3869C-32.1365 31.099 -31.596 30.955 -30.9655 30.847C-30.7854 30.811 -30.6951 30.739 -30.4248 30.667C-30.6945 30.559 -31.3252 30.739 -31.4144 30.5231C-31.5038 30.3432 -30.9639 30.3791 -30.6936 30.3071C-29.973 30.1631 -29.9722 29.9471 -29.9712 29.6592C-29.1621 29.9471 -29.4336 30.343 -29.7046 30.6309C-30.2464 31.1349 -29.6181 31.6387 -29.8898 32.1066C-29.8899 32.1426 -29.8 32.1786 -29.7102 32.2146C-28.9908 32.4304 -28.9911 32.5024 -29.8019 32.7184C-30.0722 32.7904 -30.3425 32.8624 -30.6128 32.9344C-30.8833 33.0784 -30.8843 33.3664 -30.6143 33.3663C-29.8941 33.3303 -29.175 33.6182 -28.5439 33.3302C-28.3636 33.2582 -28.0932 33.1502 -27.8235 33.2222C-27.4637 33.2941 -27.8241 33.4021 -27.8245 33.5101C-27.8248 33.6181 -27.7351 33.69 -27.6454 33.798C-27.1071 34.3018 -27.1984 34.6618 -28.3697 34.9858C-29.0906 35.2018 -29.001 35.3457 -28.4616 35.5256C-28.0114 35.4896 -28.0103 35.1657 -28.0104 35.2017C-27.3813 35.4896 -26.6604 35.2376 -26.0306 35.3095C-25.7607 35.3455 -24.1406 35.3813 -23.9603 35.3093C-23.3293 35.0573 -23.2405 35.3813 -22.9707 35.4532C-22.3413 35.6331 -23.0613 35.6332 -23.2417 35.7412C-23.4221 35.8492 -23.7824 35.9212 -23.7832 36.1371C-22.9725 35.9571 -21.9825 35.993 -21.8935 36.2809C-21.7144 36.5688 -22.9738 36.353 -23.3345 36.533C-22.9764 37.0728 -21.6262 37.0727 -20.4569 37.3246C-21.535 36.7488 -20.5442 36.5328 -19.6433 36.3167C-18.7425 36.1007 -18.4727 36.1727 -18.4742 36.6046C-18.4755 36.9645 -18.2962 37.1804 -19.3753 36.8926C-19.5552 36.8566 -19.7351 36.8206 -19.9154 36.8926C-20.0956 36.9646 -20.0057 37.0006 -19.916 37.0726C-19.4667 37.2885 -19.8272 37.4325 -20.0978 37.5765C-20.2783 37.7205 -20.5487 37.8284 -20.6394 38.0084C-20.7298 38.1164 -20.3703 38.2963 -20.9104 38.2964C-21.3604 38.2964 -21.7202 38.2244 -21.8996 38.0445C-22.707 37.2528 -23.2463 37.0369 -25.2254 36.7131C-25.0449 36.5691 -24.1447 36.569 -24.504 36.3531C-25.1328 35.9933 -26.0336 36.1733 -26.9338 36.2094C-26.9341 36.2813 -26.9342 36.3173 -26.9342 36.3173C-26.6648 36.4973 -25.6749 36.5692 -26.0359 36.8211C-26.4869 37.1091 -27.4775 37.2531 -28.2873 37.1452C-28.9171 37.0733 -29.5473 37.1093 -30.1774 37.1094C-30.6274 37.1094 -30.7179 37.2534 -30.7183 37.3614C-30.7187 37.4694 -30.629 37.5773 -30.2692 37.6493C-29.9093 37.6852 -29.639 37.6132 -29.5487 37.5053C-29.3674 37.1453 -29.0075 37.1813 -28.378 37.3612C-27.9284 37.4691 -27.4777 37.2891 -27.0275 37.2531C-26.6673 37.2171 -26.3973 37.2171 -26.1276 37.325C-25.7681 37.469 -26.1284 37.541 -26.3988 37.649C-26.5791 37.721 -26.6692 37.757 -26.4896 37.8649C-26.3098 37.9369 -26.1298 37.9369 -25.9496 37.9009C-25.5892 37.7929 -25.1383 37.5409 -24.7791 37.7928C-24.4199 38.0447 -25.1403 38.1167 -25.5008 38.2607C-25.6811 38.3327 -25.9514 38.4047 -26.1318 38.5127C-25.5916 38.4767 -25.0529 38.8726 -24.5115 38.4766C-24.3311 38.3686 -24.0613 38.4406 -23.8815 38.5125C-23.522 38.6565 -23.1623 38.7644 -22.7124 38.8004C-21.9025 38.8723 -22.7134 39.0883 -22.534 39.2683C-22.1736 39.1603 -21.454 39.3042 -21.5426 38.9083C-21.632 38.7283 -21.0918 38.6923 -20.7319 38.7282C-20.372 38.7642 -20.1022 38.8362 -20.3728 39.0161C-20.5531 39.0881 -20.6434 39.1601 -20.3735 39.1961C-20.1936 39.2321 -19.9236 39.2321 -19.8333 39.1601C-19.382 38.8001 -18.8427 39.016 -18.4831 39.16C-17.9438 39.3759 -17.404 39.4478 -16.7733 39.2678C-15.9624 39.0518 -16.9521 38.9079 -16.8614 38.7279C-16.8613 38.6919 -16.861 38.62 -16.8608 38.548C-16.3207 38.5479 -16.3218 38.8359 -15.7817 38.8358C-15.6012 38.6918 -16.2305 38.4759 -15.69 38.3679C-15.2397 38.2959 -15.0608 38.6198 -14.5206 38.5838C-14.4309 38.6557 -14.5213 38.7637 -14.3416 38.8717C-14.1611 38.7277 -14.5209 38.6558 -14.5206 38.5838C-14.6103 38.4758 -14.8799 38.3679 -14.6098 38.3318C-13.6191 38.1878 -14.519 38.1159 -14.6986 38.0079C-14.6081 37.864 -14.2482 37.8999 -13.9781 37.8639C-13.7079 37.8279 -13.4377 37.7919 -13.1677 37.7919C-13.259 38.1518 -14.0703 38.5118 -12.9011 38.7636C-12.5413 38.8356 -12.9919 38.9796 -12.9924 39.1235C-13.0827 39.2315 -13.1731 39.3395 -13.2635 39.4475C-12.7232 39.3754 -13.2626 39.1955 -12.9924 39.1235C-12.0922 39.1234 -11.2817 38.9794 -10.3824 39.2313C-9.66297 39.4112 -9.03113 38.9073 -8.13178 39.1231C-8.40131 38.9792 -8.76085 38.8352 -9.03038 38.6913C-9.21002 38.5833 -9.56981 38.5114 -9.47917 38.3314C-9.47904 38.2954 -9.20889 38.2594 -9.02886 38.2594C-8.57881 38.2594 -8.48929 38.4033 -8.39966 38.5113C-8.22014 38.6552 -8.04063 38.7992 -7.59083 38.8711C-7.32105 38.9431 -7.0509 38.9071 -6.78061 38.8351C-6.51033 38.7631 -6.6901 38.6911 -6.77973 38.5831C-7.04838 38.1873 -6.68795 38.0793 -5.78809 38.1512C-5.24815 38.1871 -4.70808 38.1871 -3.89811 38.223C-4.52655 37.7552 -5.06549 37.4313 -6.32514 37.2874C-7.13486 37.1795 -7.31361 36.8196 -7.94305 36.6397C-8.12295 36.6037 -7.85267 36.5317 -7.67253 36.4957C-7.31223 36.4237 -6.86241 36.4957 -6.41223 36.4596C-6.77139 36.2077 -7.67125 36.1358 -7.39983 35.7399C-6.681 36.0997 -5.96206 36.4236 -4.88067 36.0636C-4.43138 36.2795 -3.80029 35.9915 -3.44087 36.1715C-3.35149 36.3514 -3.71154 36.3514 -3.89168 36.3875C-4.25211 36.4955 -4.61241 36.5675 -4.07298 36.7474C-3.98309 36.7834 -3.89319 36.8193 -3.80331 36.8553C-3.7138 36.9993 -4.52429 37.1073 -3.98485 37.2872C-3.7152 37.3952 -3.35414 37.1072 -2.9946 37.2512C-2.45517 37.4311 -2.3644 37.2151 -2.09399 37.1071C-1.91372 37.0351 -1.73368 37.0351 -1.46378 37.0711C-0.834081 37.179 -0.833955 37.143 -0.112986 36.891C-0.202871 36.855 -0.382788 36.8191 -0.472925 36.8551C-0.923231 36.9271 -1.283 36.8551 -1.46252 36.7112C-1.55228 36.6392 -1.46216 36.6032 -1.3719 36.5312C-1.10149 36.4232 -0.92083 36.2432 -0.381522 36.4591C-0.111868 36.5671 -0.0213476 36.4231 0.158926 36.3511C0.699873 36.0992 0.341354 35.6673 1.24209 35.4873C1.60239 35.4152 1.06256 35.3433 0.972673 35.3073C0.703145 35.1634 0.342987 35.1994 0.252472 35.3434C0.071694 35.5593 -0.108843 35.7033 -0.828551 35.5954C-1.00845 35.5594 -1.18859 35.5954 -1.18922 35.7754C-1.19048 36.1353 -2.18035 36.0634 -2.63104 36.2434C-2.72117 36.2794 -2.99069 36.1354 -2.99032 36.0275C-2.98969 35.8475 -2.89903 35.6675 -2.35859 35.5595C-0.91741 35.2715 -0.736644 35.0555 0.164599 34.7315C0.884307 34.8394 0.614899 34.6595 0.525645 34.4436C0.348018 33.7597 0.348018 33.7597 -1.27281 33.9398C-1.36307 34.0118 -1.27305 34.0118 -1.18317 34.0478C-0.374962 34.5876 -0.105308 34.6956 0.164725 34.6955C-1.63499 34.5517 -2.17557 34.6957 -2.71513 34.5518C-3.07479 34.4439 -3.1653 34.5878 -3.43558 34.6598C-4.15642 34.8758 -4.8774 35.1278 -5.32543 34.552C-5.59446 34.2641 -6.31453 34.2642 -6.94436 34.1922C-8.29401 34.0484 -9.64368 33.9045 -9.371 33.1487C-9.37075 33.0767 -9.73055 33.0047 -9.91019 32.8968C-10.2697 32.7529 -10.359 32.5369 -10.3584 32.357C-10.3577 32.177 -9.54749 32.1409 -9.81664 31.889C-9.81652 31.853 -9.4566 31.889 -9.36684 31.961C-8.82779 32.2489 -8.1982 32.3928 -7.29796 32.3567C-6.84791 32.3567 -6.6684 32.5006 -6.93868 32.5726C-7.47925 32.7166 -7.30139 33.3285 -8.56028 32.9687C-8.47266 33.6525 -6.58192 33.5084 -6.13363 34.0122C-5.59307 33.8682 -5.32201 33.5803 -4.60155 33.4722C-4.4214 33.4362 -4.42117 33.3642 -4.51093 33.2923C-5.04961 32.8964 -4.1486 32.6444 -3.78755 32.3564C-3.60702 32.2124 -3.33751 32.3564 -3.06773 32.4283C-2.25839 32.6442 -1.44866 32.7521 -1.08685 32.2482C-0.815808 31.9603 -0.186237 32.1042 0.264069 32.0322C0.624364 31.9602 0.623482 32.2121 0.713114 32.3201C0.98239 32.536 0.620703 33.0039 1.97162 32.7879C2.06163 32.7878 2.24152 32.8238 2.24139 32.8598C2.3309 33.0038 2.33003 33.2557 2.87034 33.1837C3.59068 33.1116 4.4904 33.2195 4.94171 32.8596C3.77195 32.7517 3.68232 32.6437 4.49418 32.1398C3.95424 32.1039 3.86361 32.2838 3.68321 32.3918C3.50268 32.5358 3.23202 32.7158 2.78234 32.6078C2.1529 32.4279 3.0529 32.4638 3.05315 32.3919C3.05353 32.2839 2.96362 32.2479 2.69371 32.2119C2.51369 32.212 2.24379 32.176 2.24379 32.176C2.15541 31.7081 1.61598 31.5282 0.445587 31.6003C-0.814816 31.6723 -1.62352 31.2765 -2.52236 30.9167C-2.61351 31.2406 -2.07445 31.5285 -2.88517 31.7085C-2.97518 31.7085 -3.06521 31.7085 -3.06508 31.6725C-3.51312 31.0967 -3.8729 31.0248 -5.22432 31.3848C-6.03518 31.6008 -6.21431 31.3489 -6.39382 31.2049C-6.66297 30.953 -5.94341 31.0969 -5.76301 30.9889C-4.86177 30.6649 -3.78263 30.9528 -2.79201 30.8087C-2.16168 30.7367 -1.53112 30.5927 -1.8004 30.3767C-2.06967 30.1608 -2.6991 29.9809 -3.23866 29.837C-3.50844 29.765 -3.68922 29.981 -3.77948 30.053C-4.0504 30.3049 -4.14129 30.5569 -5.13053 30.305C-5.49032 30.2331 -6.12066 30.3051 -6.66072 30.3052C-7.02013 30.1252 -6.29978 30.0532 -6.38903 29.8372C-6.7492 29.8733 -7.01963 29.9813 -7.20016 30.1252C-7.38069 30.2692 -7.47132 30.4492 -8.0105 30.1973C-8.28003 30.0533 -8.46069 30.2333 -8.55095 30.3053C-8.82161 30.4853 -9.18189 30.5573 -9.63182 30.5213C-9.99174 30.4854 -10.2614 30.3774 -10.1709 30.2335C-10.0802 30.0535 -9.80957 29.8735 -9.6288 29.6576C-9.6288 29.6576 -9.35877 29.6575 -9.26876 29.6575C-8.55006 30.0534 -7.91899 29.7654 -7.1984 29.6214C-6.8381 29.5494 -6.47779 29.4773 -6.02773 29.4773C-4.67783 29.5492 -4.13649 29.1892 -3.68493 28.7573C-4.04447 28.6134 -5.12549 28.8654 -4.85408 28.4695C-4.49227 27.9656 -3.50365 28.3974 -2.78331 28.3253C-2.24312 28.2893 -2.06399 28.5412 -2.5148 28.7572C-2.60494 28.7932 -2.60507 28.8292 -2.60532 28.9012C-2.60595 29.0811 -3.23678 29.2971 -2.60734 29.477C-2.24767 29.585 -1.8875 29.549 -1.61696 29.405C-1.3463 29.225 -0.355681 29.0809 -1.25478 28.7931C-1.34466 28.7571 -1.43453 28.7211 -1.43441 28.6851C-1.16286 28.2532 -1.16286 28.2532 -2.3325 28.1093C-1.25161 27.8933 -0.172009 28.0372 0.00662588 28.4331C0.00637377 28.5051 0.00613812 28.577 0.27617 28.577C0.456192 28.577 0.636334 28.541 0.636586 28.469C0.726975 28.361 0.637222 28.2891 0.727611 28.1811C0.908641 27.8931 0.55062 27.3173 2.16943 27.7131C2.6191 27.821 2.79937 27.749 2.89038 27.4611C2.98077 27.3531 3.2512 27.2451 3.5211 27.2811C4.87025 27.5689 5.14205 27.065 5.77301 26.813C6.13368 26.633 5.68373 26.5971 5.41395 26.5251C5.14405 26.4891 4.78415 26.4532 4.87353 26.6331C4.96241 26.957 4.51272 26.8491 4.1528 26.8131C3.88289 26.7772 3.61312 26.7052 3.34309 26.7052C2.8029 26.7413 2.35296 26.7053 2.2637 26.4894C2.26471 26.2014 2.98392 26.4533 3.25446 26.3093C3.07544 26.0214 2.44487 26.1654 1.99494 26.1295C1.54501 26.0935 1.09497 26.0936 1.18573 25.8776C1.27663 25.6257 1.81593 25.8416 2.08597 25.8415C2.9857 25.9494 3.97632 25.8054 4.78541 26.0933C4.42675 25.6974 5.05821 25.3014 4.24924 24.9776C4.15936 24.9416 4.42964 24.8696 4.60979 24.8336C4.87994 24.7976 5.14998 24.7975 5.14948 24.9415C5.05821 25.3014 5.68854 25.2294 6.13872 25.1934C6.76892 25.1573 6.31948 24.9774 6.31999 24.8334C6.32049 24.6895 6.14112 24.5095 6.68106 24.5455C7.13099 24.5814 7.5804 24.7614 7.48964 24.9773C7.39887 25.1933 7.30771 25.5172 6.40748 25.5533C6.22746 25.5533 6.0472 25.6253 6.13683 25.7332C6.22646 25.8412 6.49663 25.8052 6.67677 25.7692C7.21747 25.5892 8.02767 25.5531 8.56849 25.3371C9.37997 24.9412 10.4596 25.085 11.5392 25.2289C11.5381 25.5528 10.7285 25.4089 10.3679 25.5529C10.8175 25.6969 11.2671 25.8408 11.086 26.1287C10.2752 26.3448 9.37483 26.4168 8.92502 26.3449C9.55523 26.3088 10.5441 26.6687 11.7152 26.3806C12.4353 26.3806 12.7949 26.5245 12.9737 26.8484C13.421 27.6402 12.4291 28.1441 11.0773 28.6121C10.9872 28.6481 10.6246 29.368 10.7147 29.368C11.0746 29.4039 11.4342 29.5119 11.7948 29.3679C11.8849 29.3319 11.9752 29.2599 12.0654 29.1879C12.4261 29.0079 12.6071 28.72 13.3267 28.8639C13.8664 28.9718 14.0456 29.2237 13.8645 29.5117C13.5932 29.8716 13.9529 29.9796 14.8531 29.9435C15.3033 29.9075 15.6637 29.7995 16.1134 29.9074C16.4722 30.2673 17.5518 30.4112 18.0909 30.6991C18.2706 30.771 18.2704 30.843 18.1801 30.915C17.28 30.9151 16.7389 31.203 16.0183 31.3471C15.9281 31.4191 15.928 31.4551 16.1079 31.491C16.4677 31.563 16.6482 31.419 16.8284 31.347C17.0087 31.275 17.1887 31.275 17.4588 31.275C18.1789 31.2749 17.7277 31.5989 18.0873 31.7068C18.1768 31.8508 17.6361 32.0308 18.0857 32.1747C18.1756 32.2107 18.1755 32.2467 18.2653 32.2827C18.2648 32.4266 18.5346 32.4986 18.8043 32.6065C18.8041 32.6425 18.8039 32.7145 18.8938 32.7505C18.8936 32.7865 18.8036 32.7865 18.8035 32.8225C18.7135 32.8225 18.6234 32.8585 18.6234 32.8585C18.2632 32.8945 17.7236 32.7506 17.6327 33.0025C17.632 33.2185 18.082 33.2184 18.4419 33.2544C18.7118 33.2904 18.8919 33.2904 19.1618 33.3263C19.2518 33.3263 19.2518 33.3263 19.3418 33.3263C19.5199 33.8662 19.9682 34.37 20.3265 34.8739C20.3262 34.9458 20.416 35.0178 20.4159 35.0538C20.6849 35.3417 19.2451 35.2339 19.6943 35.4858C19.9638 35.6297 20.594 35.5937 20.7732 35.8456C20.8627 35.9895 21.0422 36.1335 21.2217 36.2774C21.1316 36.3134 20.9514 36.3495 20.7714 36.3495C20.4115 36.3135 20.1416 36.2775 19.7816 36.2416C19.6916 36.2416 19.6018 36.2056 19.5119 36.1696C18.5221 36.0617 17.5328 35.8459 16.5411 36.2778C16.1806 36.4218 15.5505 36.4219 15.1008 36.3139C14.4714 36.134 14.021 36.242 13.7503 36.422C13.2991 36.746 12.9393 36.674 12.4902 36.4221C12.3096 36.5661 12.4895 36.6021 12.6693 36.674C13.3885 36.9259 13.0282 36.9979 12.3079 37.07C12.0377 37.106 11.6778 37.07 11.5873 37.214C11.5872 37.25 11.587 37.286 11.5869 37.322C12.3061 37.5739 13.1157 37.7178 14.0157 37.7537C14.4656 37.7896 14.8251 37.9336 15.3651 37.9695C15.635 38.0055 15.9049 38.0414 16.1748 38.0774C16.8944 38.2213 16.9836 38.4373 16.3529 38.6173C15.7221 38.8333 15.181 39.1212 14.2809 39.1213C14.0108 39.1573 13.7407 39.1574 13.4709 39.0854C12.4819 38.7616 12.3018 38.7976 11.8502 39.2295C11.8501 39.2655 11.7601 39.2655 11.67 39.3015C11.5798 39.3375 11.4897 39.3735 11.3997 39.3735C11.0393 39.4815 10.4998 39.3016 10.229 39.5175C10.4985 39.6975 11.2184 39.7334 11.0375 39.9854C10.8572 40.0574 10.6771 40.0934 10.407 40.0934C9.59682 40.1295 9.59618 40.3094 9.86533 40.5613C10.0436 41.0652 9.14299 41.2092 8.33214 41.4252C7.52141 41.6053 7.16035 41.8932 7.24897 42.2891C6.97831 42.4691 6.97744 42.721 6.97681 42.901C7.15532 43.3329 6.61448 43.5489 5.80375 43.7289C5.44358 43.7649 4.9034 43.8009 5.53285 43.9808C5.62273 44.0168 5.62262 44.0528 5.7125 44.0888C5.712 44.2328 5.71161 44.3407 5.53108 44.4847C5.44069 44.5927 5.53021 44.7367 5.25993 44.8087C4.89938 44.9527 5.07926 44.9886 5.43918 45.0246C6.69857 45.2404 6.69857 45.2404 6.33651 45.8163C5.88595 45.9603 5.70544 46.1043 6.15487 46.2842C6.69405 46.5361 6.60303 46.8241 6.60202 47.112C6.60164 47.22 6.511 47.3999 6.06119 47.328C5.61177 47.1481 5.07119 47.2921 4.89079 47.4001C4.53011 47.58 5.25007 47.616 5.33958 47.7599C5.60898 47.9399 5.42859 48.0479 5.06817 48.1559C4.70775 48.2639 4.70749 48.3358 4.97715 48.4438C5.2468 48.5518 4.97666 48.5878 4.79651 48.6238C4.25569 48.8398 3.62612 48.6958 2.99604 48.6959C3.08479 49.0558 4.34419 49.2716 3.89275 49.6676C2.99138 50.0276 1.82137 49.9917 0.741237 49.9918C-8.70977 49.9565 -18.0707 49.8853 -27.5217 49.8501C-32.2921 49.8145 -37.0622 49.6709 -41.7422 49.5273C-48.4023 49.3119 -54.9736 49.4564 -61.6343 49.4569C-70.0054 49.4576 -78.3764 49.4583 -86.8374 49.459C-87.0174 49.459 -87.1974 49.459 -87.2873 49.423C-86.9265 49.207 -87.2855 48.9191 -86.8347 48.7031C-86.6543 48.5952 -86.8339 48.4872 -87.104 48.4872C-87.9141 48.4873 -88.0931 48.1994 -88.5426 48.0554C-88.7224 47.9835 -89.0823 47.9475 -88.9018 47.8035C-88.8115 47.7315 -88.4514 47.6955 -88.2714 47.6955C-87.4613 47.6954 -86.5606 47.5514 -85.8417 47.8753C-86.0206 47.5514 -87.1902 47.4075 -86.5587 47.0115C-86.4685 46.9395 -86.1986 46.9755 -86.0184 46.9395C-86.1985 46.9395 -86.3786 46.9755 -86.5587 47.0115C-87.0987 46.9756 -87.1878 46.7237 -87.6375 46.6157C-86.7373 46.5797 -87.0057 46.1118 -86.2854 46.0757C-85.5652 46.0397 -85.1162 46.3276 -84.7568 46.5075C-84.3065 46.4355 -84.7559 46.2556 -84.3956 46.1836C-83.9467 46.5074 -83.0461 46.3634 -82.4165 46.5073C-82.3266 46.5433 -81.9666 46.5433 -81.9665 46.5073C-81.6053 46.1833 -80.7052 46.1833 -79.9846 46.0392C-80.2538 45.8233 -80.7047 46.0393 -80.9741 45.8594C-80.1636 45.7513 -79.8916 45.2114 -78.5421 45.3913C-78.4522 45.4273 -78.4522 45.4273 -78.5421 45.3913C-78.7209 45.0314 -78.179 44.5275 -79.8891 44.4916C-79.9798 44.6716 -79.3516 45.2114 -80.8805 44.8516C-81.0604 44.8156 -81.6007 44.8877 -81.5112 45.0316C-81.1531 45.5715 -81.962 45.2476 -82.2319 45.2116C-83.0417 45.1037 -83.9409 44.8519 -84.3929 45.4278C-84.5736 45.6077 -84.9334 45.5358 -85.2032 45.4638C-85.7426 45.2839 -86.2823 45.176 -86.8217 44.996C-87.3613 44.8521 -87.6303 44.5642 -88.1719 44.9962C-88.4426 45.1761 -88.6219 44.9962 -88.5314 44.8522C-88.5312 44.7802 -88.441 44.7442 -88.6208 44.6723C-89.0706 44.6003 -89.0716 44.8883 -89.5214 44.8163C-89.5208 44.6364 -89.0701 44.4564 -88.8003 44.5283C-87.9008 44.7082 -86.5497 44.4202 -86.0114 44.924C-85.9218 45.032 -85.3818 45.0679 -85.3813 44.924C-85.3807 44.744 -85.3799 44.5281 -84.8398 44.528C-84.4798 44.528 -84.1205 44.7439 -83.671 44.8878C-83.8501 44.6359 -83.85 44.5999 -83.2195 44.4919C-82.0485 44.2398 -80.8775 43.9878 -79.7063 43.6998C-79.6163 43.6998 -79.616 43.5918 -79.7057 43.5198C-79.9747 43.2319 -80.6951 43.304 -81.2348 43.196C-81.5944 43.0881 -81.5954 43.376 -81.8656 43.412C-82.7663 43.5921 -83.1275 43.916 -83.6686 44.204C-83.9392 44.384 -84.7496 44.456 -85.1989 44.2401C-85.5584 44.0962 -85.3775 43.8442 -85.2869 43.6643C-85.1964 43.5203 -84.7459 43.4123 -84.8353 43.2323C-85.2854 43.2324 -86.0972 43.7363 -86.0951 43.1244C-87.2657 43.2685 -87.3539 42.7286 -88.2533 42.5488C-87.5326 42.3687 -86.9915 42.0808 -86.0023 42.3326C-85.7325 42.4046 -85.1919 42.2606 -84.7416 42.1886C-85.1909 41.9727 -85.6404 41.7927 -86.4507 41.8648C-86.0899 41.6488 -85.7294 41.5048 -85.2799 41.6847C-84.7405 41.8646 -84.1111 42.0446 -83.9322 42.3685C-83.8425 42.4764 -84.2027 42.5124 -84.4727 42.5125C-84.7428 42.5125 -85.1028 42.5125 -85.5529 42.5126C-85.1041 42.8724 -84.8354 43.2683 -83.5739 42.8723C-82.9432 42.6923 -82.1328 42.6203 -81.3234 42.8001C-80.6938 42.9441 -80.2435 42.872 -80.6023 42.5122C-80.7817 42.3322 -80.5114 42.2602 -80.2412 42.2242C-79.8809 42.1522 -79.7913 42.2601 -79.7917 42.3681C-79.7918 42.4041 -79.6119 42.4401 -79.5219 42.4401C-77.8112 42.296 -77.3628 42.7638 -76.8245 43.2677C-76.7348 43.3756 -76.3754 43.5556 -76.1954 43.5555C-74.125 43.5194 -74.5779 44.3112 -73.8592 44.7071C-73.6794 44.779 -73.8603 45.031 -73.41 44.959C-73.1398 44.923 -72.3295 44.8509 -72.8686 44.563C-73.0482 44.4551 -73.0478 44.3471 -72.9574 44.2391C-72.7763 43.9152 -72.7763 43.9152 -73.496 43.8073C-72.1452 43.6272 -70.9759 43.879 -70.7978 44.4189C-70.4369 44.1669 -69.9866 44.0949 -69.4467 44.1669C-68.727 44.2748 -69.4479 44.4908 -69.2684 44.6347C-68.9986 44.7067 -68.8181 44.5627 -68.6379 44.5267C-68.2776 44.4547 -68.098 44.5626 -68.0084 44.6706C-67.829 44.8506 -68.2789 44.8146 -68.549 44.8506C-69.0892 44.8866 -69.6295 44.9587 -70.0787 44.7068C-70.2584 44.5988 -70.7084 44.5988 -70.9787 44.6709C-71.4291 44.7789 -71.0695 44.8868 -70.9798 44.9948C-70.6213 45.4266 -69.5417 45.5705 -68.6406 45.2825C-68.4604 45.2465 -68.2803 45.2105 -68.1 45.1385C-67.4693 44.9585 -66.9282 44.6705 -66.298 44.6345C-65.9378 44.5985 -65.3992 44.9943 -64.6792 45.0303C-64.4092 45.0302 -63.5993 45.1021 -64.2304 45.3901C-64.4108 45.4981 -63.9611 45.6061 -63.7815 45.714C-63.5118 45.822 -63.2419 45.8579 -63.0623 45.9659C-62.7926 46.0739 -62.7032 46.2538 -62.7938 46.3978C-62.7939 46.4338 -62.9741 46.4698 -63.0641 46.4698C-63.514 46.4338 -63.5133 46.2539 -63.693 46.1459C-64.2319 45.822 -64.7708 45.4981 -65.8508 45.4622C-66.1209 45.4623 -66.3907 45.3903 -66.2114 45.6062C-66.0324 45.8942 -66.1233 46.1461 -67.2029 46.0022C-67.6527 45.9303 -68.0136 46.1822 -68.5536 46.1463C-68.8236 46.1463 -68.644 46.2543 -68.6443 46.3622C-68.5548 46.5062 -68.2851 46.5782 -68.0149 46.5422C-66.574 46.3261 -66.0349 46.614 -65.8566 47.1178C-65.6778 47.4417 -64.5965 47.1177 -64.5076 47.4417C-64.4175 47.4057 -64.2372 47.3337 -64.2371 47.2977C-64.4162 47.0457 -64.3256 46.8658 -63.6054 46.8297C-62.7951 46.7937 -61.9848 46.7216 -61.3557 47.0095C-61.176 47.0815 -60.9063 47.1894 -60.9968 47.3334C-61.6268 47.2975 -62.2567 47.2615 -62.9766 47.1896C-62.8873 47.4055 -62.618 47.6215 -63.0689 47.8374C-63.4295 48.0174 -62.6207 48.3773 -62.1701 48.2333C-61.8096 48.0893 -60.6399 48.2331 -60.9982 47.7293C-61.1776 47.5494 -60.4583 47.7652 -60.0979 47.6572C-59.7374 47.5492 -59.3778 47.6572 -59.108 47.7291C-58.5684 47.8731 -58.2988 47.981 -57.9375 47.6211C-57.7567 47.4051 -57.126 47.2251 -56.9451 46.9732C-56.8546 46.8292 -56.4944 46.7932 -56.1344 46.7931C-55.0545 46.865 -54.6937 46.6491 -54.6023 46.2531C-54.6015 46.0372 -54.4209 45.8572 -54.9604 45.7133C-55.4101 45.6054 -55.6809 45.8213 -55.8613 45.9293C-56.2221 46.1453 -56.5819 46.0733 -56.9416 45.9654C-57.3013 45.8935 -57.7507 45.6775 -58.0214 45.8935C-58.2922 46.1095 -58.0227 46.2534 -57.3026 46.2534C-56.9426 46.2533 -56.853 46.3973 -56.8534 46.5053C-56.7638 46.6132 -57.0341 46.6852 -57.3042 46.7212C-57.6645 46.7933 -57.8442 46.6853 -57.9338 46.5773C-58.3822 46.1095 -58.6538 46.5414 -59.0142 46.6494C-59.1033 46.3975 -58.922 46.0375 -60.0028 46.2176C-60.1829 46.2536 -60.2726 46.1456 -60.1823 46.0736C-60.0015 45.8577 -60.3609 45.6777 -60.4502 45.4618C-60.5397 45.3178 -60.629 45.1019 -60.2686 44.9939C-59.9083 44.9219 -59.4581 44.8859 -59.0084 44.9938C-58.2888 45.1377 -57.479 45.2096 -56.4885 45.1016C-56.848 44.9576 -57.4776 44.8137 -57.1167 44.5618C-57.0264 44.4898 -57.0259 44.3458 -56.6661 44.4178C-55.5867 44.6336 -55.5857 44.3457 -55.5845 43.9858C-55.1354 44.2737 -54.7761 44.4896 -54.0552 44.2376C-53.875 44.2016 -53.6949 44.1656 -53.5151 44.2375C-53.3353 44.3095 -53.4256 44.3815 -53.6059 44.4535C-53.9663 44.5615 -54.0569 44.7415 -53.7874 44.8854C-53.5179 45.0294 -53.2469 44.7774 -52.7971 44.8493C-52.6174 44.9213 -54.2387 45.2454 -52.6184 45.2092C-52.7089 45.3532 -53.249 45.3533 -53.1596 45.5332C-52.7095 45.5332 -52.4399 45.6411 -52.2603 45.7491C-51.4518 46.2169 -49.831 46.0368 -48.9322 46.4326C-48.8424 46.4686 -48.5721 46.3966 -48.5717 46.2886C-48.4813 46.1807 -48.4809 46.0727 -48.1211 46.1446C-47.8514 46.2166 -48.0318 46.3246 -48.032 46.3966C-47.9425 46.5405 -48.8429 46.6126 -48.2133 46.7565C-47.7636 46.8644 -47.7628 46.6485 -47.4924 46.5405C-47.3122 46.4685 -46.7722 46.5044 -46.7726 46.6124C-46.5043 47.1163 -45.4241 47.0802 -44.6143 47.1521C-44.6144 47.1881 -44.6145 47.2241 -44.6145 47.2241C-46.4172 47.9441 -46.6873 47.9441 -48.5752 47.2964C-49.3843 47.0085 -50.2838 46.8287 -51.1843 46.9367C-52.2649 47.0808 -53.3457 47.2608 -54.5152 47.0809C-54.7851 47.045 -55.1455 47.153 -55.0561 47.3329C-54.9667 47.5129 -54.6966 47.4769 -54.4262 47.3689C-54.1558 47.2609 -53.886 47.3328 -53.7062 47.4048C-53.4367 47.5487 -53.7967 47.5488 -53.887 47.6208L-53.9771 47.6568C-54.1575 47.7647 -53.888 47.9087 -53.888 47.9087C-52.8061 47.4047 -53.081 48.8084 -51.9085 48.1245C-51.8184 48.0885 -51.8183 48.0525 -51.7282 48.0525C-51.2777 47.9085 -51.4563 47.5126 -50.8261 47.4765C-50.1959 47.4405 -51.0076 47.9084 -50.1078 47.9804C-49.8379 48.0163 -49.4789 48.3042 -50.3795 48.4483C-50.6496 48.4843 -51.5499 48.5203 -51.1908 48.8082C-51.0114 48.9882 -50.3816 49.0601 -49.8409 48.8801C-49.3003 48.7361 -48.8504 48.7721 -48.9416 49.096C-49.0322 49.276 -48.8523 49.3119 -48.4921 49.2759C-47.952 49.2399 -48.3115 49.0959 -48.3112 49.024C-48.4005 48.808 -48.9402 48.7001 -49.2997 48.5562C-49.0292 48.4122 -48.579 48.3761 -48.3087 48.3041C-47.9484 48.2321 -47.7685 48.2681 -47.7692 48.4481C-47.9506 48.844 -47.1401 48.7359 -46.6903 48.8079C-45.9706 48.9158 -46.2399 48.6999 -46.1493 48.5559C-45.9683 48.268 -45.068 48.1959 -44.6187 48.4118C-43.8098 48.7717 -42.5497 48.7716 -41.6507 49.0954C-41.4709 49.1674 -40.9309 49.1673 -41.0201 48.9514C-41.0197 48.8434 -40.6589 48.6274 -41.4693 48.6995C-41.9195 48.7355 -42.0991 48.6276 -42.0986 48.4836C-42.098 48.3036 -41.7377 48.2316 -41.3775 48.1956C-41.0173 48.1596 -40.7475 48.2315 -40.6582 48.4115C-40.5695 48.8074 -40.1205 49.0953 -39.221 49.2752C-38.8604 49.0952 -39.8499 48.9153 -39.1293 48.7713C-38.6788 48.6633 -38.4994 48.8432 -38.2298 48.9512C-38.0496 48.9152 -38.1395 48.8792 -38.2294 48.8432C-38.2293 48.8072 -38.2291 48.7712 -38.139 48.7352C-37.2394 48.8791 -36.5179 48.4831 -35.708 48.5191C-35.078 48.555 -34.8076 48.447 -34.6268 48.231C-34.5366 48.1591 -34.4461 48.0151 -34.7162 48.0511C-35.4366 48.1231 -35.7949 47.6553 -36.6058 47.8713C-36.6959 47.9073 -37.0565 48.0513 -36.5164 48.0512C-35.8862 48.0152 -36.0666 48.1232 -36.2471 48.2672C-36.5179 48.4831 -37.1475 48.3392 -37.4179 48.4472C-38.1388 48.6632 -37.9577 48.3753 -38.2274 48.2673C-38.4072 48.1954 -38.4966 48.0514 -38.8568 48.0874C-39.2176 48.3034 -38.5881 48.4473 -38.9489 48.6633C-39.3075 48.2674 -39.5762 47.8715 -39.9349 47.5117C-41.3735 47.0439 -41.3728 46.8639 -39.8401 46.144C-39.6599 46.072 -39.3896 46 -39.3892 45.892C-40.3788 45.7481 -41.008 45.4962 -40.6468 45.1723C-40.3757 44.8483 -40.0144 44.4884 -39.4735 44.2724C-38.9327 44.0564 -37.853 44.1643 -37.043 44.2002C-37.6727 44.0923 -38.7527 44.0564 -38.3014 43.6965C-38.1207 43.5165 -39.3785 42.8327 -37.3993 43.1205C-37.2182 42.8326 -38.1181 42.7607 -37.9373 42.5447C-37.8467 42.3647 -37.4861 42.2207 -37.3052 41.9688C-38.7454 41.9689 -38.834 41.573 -38.7425 41.1411C-38.7416 40.8892 -38.6507 40.6372 -38.65 40.4213C-38.5589 40.1333 -38.378 39.8814 -37.3879 39.8813C-37.0279 39.8813 -36.7576 39.8093 -36.6671 39.6653C-36.6666 39.5213 -36.9362 39.4134 -37.2061 39.3774C-38.1959 39.2695 -38.105 39.0176 -38.1038 38.6937C-38.1917 38.0818 -38.0097 37.5059 -37.6476 36.93C-37.1954 36.3182 -37.4634 35.7423 -37.5514 35.1665C-37.5507 34.9505 -37.7297 34.6626 -37.099 34.4826C-36.7385 34.3746 -37.0982 34.2666 -37.1877 34.1227C-37.4566 33.7988 -37.9956 33.4749 -36.7348 33.2949C-36.4646 33.2588 -36.4641 33.1149 -36.5539 33.0429C-36.913 32.791 -36.7321 32.539 -36.6412 32.2871C-36.5503 32.0351 -36.5495 31.7832 -36.6386 31.5313C-37.1773 31.1354 -37.176 30.7755 -36.3652 30.5595Z" fill="#FEBD00"/>
<path d="M10.8154 26.0928C10.5459 25.9488 10.7267 25.7329 10.0967 25.6969C9.82668 25.697 9.4665 25.733 9.55715 25.553C9.64753 25.445 9.91783 25.373 10.1879 25.373C10.6379 25.373 11.088 25.3729 11.3585 25.229C11.7189 25.121 12.0795 24.977 11.8102 24.761C11.6309 24.5451 11.0904 24.6891 10.7305 24.6531C10.1004 24.6532 9.47105 24.4373 8.75058 24.5453C8.39041 24.5814 8.30092 24.4374 8.48132 24.3294C8.66172 24.2214 8.8421 24.1134 9.0225 24.0054C7.94237 24.0055 7.13405 23.5017 7.49548 23.1058C7.58562 23.0698 7.76601 22.9618 7.8559 22.9978C8.21581 23.0337 8.57586 23.0337 8.75525 23.2137C8.84475 23.3576 9.20441 23.4656 9.56471 23.3935C9.92488 23.3575 10.1054 23.2135 10.1959 23.0696C10.2863 22.9616 10.2866 22.8896 9.92651 22.8896C8.48647 22.8538 8.21796 22.4219 7.94957 21.954C7.85994 21.8461 7.86019 21.7741 7.59016 21.7741C7.23012 21.7741 6.59977 21.8462 6.78067 21.5942C6.87144 21.3783 7.50153 21.3782 7.95171 21.3422C8.22187 21.3062 8.58064 21.666 8.67179 21.3421C8.76243 21.1622 9.21338 20.9102 8.40366 20.8023C8.13375 20.7663 7.95398 20.6943 7.95448 20.5504C8.045 20.4064 8.31515 20.3704 8.67532 20.3344C9.39565 20.2623 10.116 20.1903 10.8353 20.4062C10.3865 20.0463 10.298 19.6144 8.94814 19.5425C8.04816 19.5066 7.50947 19.1108 7.42084 18.7149C8.50122 18.6428 8.49947 19.1467 9.30931 19.2186C9.67011 19.0026 9.22057 18.8587 8.95104 18.7147C8.68176 18.4988 8.32247 18.2829 9.31284 18.2108C9.85303 18.1748 10.1238 17.9588 10.4844 17.8148C11.1152 17.5988 10.3961 17.311 10.1261 17.311C9.13596 17.3111 8.41726 16.9152 7.3365 17.0953C7.24636 17.1313 7.06659 17.0593 6.79668 17.0233C8.23711 16.9512 7.34029 16.0155 9.23013 16.1233C8.8711 15.8354 7.87985 16.1594 7.88123 15.7635C8.6907 15.9434 9.41231 15.5115 10.3115 15.7633C10.4014 15.7993 10.7618 15.6913 10.7621 15.6193C10.4038 15.1155 11.3031 15.3314 11.7532 15.3313C12.3831 15.3673 12.5641 15.1153 12.9245 15.0073C13.375 14.8633 12.7451 14.8274 12.5655 14.7194C12.4757 14.6474 12.1159 14.5755 12.3862 14.5035C12.5663 14.4675 12.9263 14.5034 13.3762 14.5394C12.3871 14.2515 13.1089 13.7476 12.2099 13.4238C12.03 13.3878 12.7509 13.1718 13.2008 13.2077C13.6507 13.2437 14.0107 13.2797 14.2813 13.0997C14.4619 12.9557 15.0022 12.8837 14.6428 12.7037C14.2833 12.5238 14.0127 12.7038 13.6525 12.7398C13.4724 12.7758 13.2922 12.8118 13.0226 12.7039C14.014 12.3439 13.9256 11.876 14.2873 11.4081C14.4673 11.4081 14.8272 11.444 15.2773 11.444C15.1864 11.6959 15.7262 11.7679 16.176 11.8398C16.6249 12.1637 15.5453 12.0198 15.5446 12.1998C15.8148 12.1638 16.1752 12.0558 16.1743 12.3077C15.8137 12.4877 15.4531 12.6317 15.4522 12.8836C15.5417 13.0276 15.6311 13.2075 15.3607 13.3155C14.8197 13.5675 15.3596 13.6395 15.8094 13.7114C16.0783 14.0353 15.3584 13.9634 14.9981 14.0354C15.7177 14.1793 15.8086 13.9273 16.0793 13.7474C16.3493 13.7473 16.4389 13.8553 16.5286 13.9633C16.8879 14.1792 16.0769 14.4312 16.6161 14.6831C16.6156 14.8271 16.5249 15.007 16.1646 15.079C15.2654 14.8272 14.6352 14.8632 14.1838 15.2592C14.0032 15.4031 13.7328 15.5111 13.4625 15.5831C12.6519 15.7272 13.0116 15.8351 13.4612 15.979C13.0105 16.159 12.1106 16.0871 11.8393 16.4471C11.6588 16.591 11.9283 16.735 12.018 16.8429C11.9274 16.9869 11.8368 17.1669 11.7463 17.3109C11.5656 17.4908 11.745 17.6708 11.9244 17.8507C12.1937 18.0666 12.1931 18.2466 11.6525 18.3906C10.8419 18.5346 10.9313 18.7146 11.3804 18.9665C11.9197 19.1824 12.5491 19.3983 13.0882 19.6502C13.3579 19.7581 13.4474 19.9021 13.2669 20.0461C13.0864 20.19 12.7266 20.1181 12.3666 20.0821C11.8267 20.0462 11.6464 20.1182 11.6457 20.3341C12.1852 20.478 12.4547 20.658 12.0937 20.9099C11.7332 21.0539 11.103 21.09 10.8323 21.27C10.0206 21.7379 10.0206 21.7379 11.1893 22.1337C11.3691 22.2057 11.3688 22.2777 11.2784 22.3857C11.188 22.4936 10.9176 22.6016 11.0072 22.7456C11.2767 22.8895 11.186 23.0695 11.3656 23.2134C11.4556 23.2134 11.4555 23.2494 11.5455 23.2494C11.9051 23.3574 11.9946 23.5013 11.904 23.6813C11.8136 23.7893 11.5434 23.8253 11.363 23.9333C11.3627 24.0412 11.6327 24.0412 11.7224 24.1132C11.9022 24.1852 11.9918 24.2931 12.2618 24.3291C13.5211 24.5449 13.5211 24.5449 13.0693 25.0489C12.7089 25.1569 12.8883 25.3368 12.6179 25.4448C11.8072 25.6248 12.5264 25.8767 12.5256 26.0927C13.1544 26.4525 13.5132 26.8124 13.3317 27.2443C13.1505 27.5682 14.4997 27.8561 13.6882 28.252C13.5078 28.36 13.2382 28.2521 12.968 28.2881C12.788 28.2881 12.8782 28.2161 12.878 28.2881C12.8778 28.3241 12.9678 28.3241 13.058 28.2881C13.328 28.2881 13.5078 28.36 13.5975 28.432C13.6867 28.6839 14.3168 28.6839 14.7666 28.7558C15.3958 29.0077 15.665 29.2236 14.9439 29.5116C15.0336 29.6196 15.0336 29.6196 16.0229 29.8355C15.303 29.7995 14.8519 30.0875 14.0421 30.0156C13.3222 29.9436 13.0527 29.7997 13.3237 29.5118C13.4143 29.3678 13.6845 29.2958 13.4153 29.0799C12.787 28.576 12.6956 28.9719 12.425 29.1159C11.523 29.6559 11.523 29.6559 9.72407 29.2961C10.5344 29.2241 10.6249 29.0801 10.2658 28.8282C10.0863 28.6842 9.81685 28.5043 10.6271 28.4682C11.0773 28.4322 11.7976 28.3602 11.6187 28.0363C11.5291 27.9283 11.7092 27.8923 11.8895 27.8203C13.061 27.4243 12.8839 26.5965 11.6246 26.3447C11.2647 26.3087 10.9949 26.2367 10.8154 26.0928Z" fill="#FEBD00"/>
<path d="M14.4791 8.16882C14.3001 7.88091 14.031 7.62899 13.0405 7.73704C12.8604 7.77305 12.5004 7.73709 12.5006 7.7011C12.1423 7.19725 11.061 7.52126 10.3413 7.41334C9.98153 7.34139 9.80112 7.44938 9.71073 7.55736C9.62034 7.66534 9.6201 7.73732 9.88988 7.80928C10.4297 7.88122 10.8792 8.02515 11.4192 8.0611C12.3191 8.09701 13.1286 8.27691 13.2171 8.70879C12.587 8.70884 12.3176 8.52891 11.5979 8.42099C12.317 8.70886 12.4962 8.96079 12.4953 9.21273C12.4949 9.3207 12.4046 9.39269 12.1346 9.39271C11.8646 9.39274 11.8648 9.32075 11.775 9.24878C11.7755 9.10481 11.6859 8.99685 11.6864 8.85288C11.6868 8.74491 11.597 8.67293 11.417 8.67295C11.147 8.67297 10.8767 8.74497 10.9663 8.85294C11.1448 9.28482 10.6953 9.14089 10.2458 8.99696C9.70632 8.81705 9.79771 8.42114 8.71733 8.49321C8.71733 8.49321 8.62781 8.34925 8.62807 8.27727C8.62832 8.20529 8.71846 8.16929 8.6287 8.09731C8.44905 7.98935 7.90749 8.42129 7.90887 8.02539C7.90938 7.88142 7.9999 7.73745 8.09042 7.59348C8.18131 7.34153 7.55122 7.34158 7.28169 7.19764C6.83264 6.90975 6.74138 7.26967 6.47134 7.26969C5.30133 7.23379 4.30996 7.59378 3.04981 7.59389C3.23071 7.34193 4.40098 7.30585 3.86217 6.94598C4.31235 6.90995 4.49212 6.98192 4.7619 7.05388C5.30159 7.16181 5.48225 6.98184 5.84255 6.90983C6.20297 6.80182 5.93344 6.65788 5.84381 6.54991C5.57453 6.33399 5.30523 6.11806 5.03596 5.90214C5.75667 5.72212 5.66529 6.11803 6.20536 6.11799C5.39702 5.61418 6.83768 5.4701 7.28812 5.36209C7.9187 5.21807 7.92022 4.78618 8.91022 4.82209C9.8102 4.85801 10.6203 4.85794 11.5209 4.7139C11.3415 4.53396 10.8012 4.60599 10.6217 4.46204C10.3521 4.31809 10.3529 4.10215 10.893 4.1021C11.7931 4.10203 12.6034 4.02998 13.4142 3.84996C13.7745 3.77795 13.7739 3.92191 13.7736 4.02989C13.7732 4.13786 13.593 4.17387 13.4129 4.20987C12.4227 4.24594 12.0616 4.5339 11.8804 4.85784C10.8901 4.9299 9.54016 4.85803 9.71791 5.50586C10.2576 5.61379 10.7071 5.75771 10.8863 6.00964C11.9644 6.58541 12.9522 7.23317 14.5711 7.62895C14.9306 7.77288 14.6598 7.98885 14.4791 8.16882Z" fill="#FEBD00"/>
<path d="M13.6549 37.8617C12.5746 37.9337 11.9459 37.5379 11.0458 37.538C11.0458 37.538 11.0461 37.43 11.0464 37.358C11.3165 37.322 11.5866 37.322 11.8566 37.3219C11.9467 37.2859 12.2164 37.3939 12.1269 37.2499C11.7672 37.142 11.4066 37.322 11.0468 37.25C11.0485 36.7462 12.1275 37.07 12.5781 36.926C12.3988 36.7101 11.7684 36.8181 11.4991 36.6022C11.8595 36.4941 11.9504 36.2422 12.4905 36.2422C13.1206 36.2421 12.3094 36.5301 12.8491 36.638C13.3902 36.3501 13.7518 35.9181 15.0106 36.2779C15.5502 36.4219 16.2706 36.3498 16.5415 36.0979C16.7222 35.8819 17.1724 35.8459 17.4421 35.9538C18.0715 36.1337 19.0628 35.8097 19.4213 36.2416C19.3312 36.2776 19.1511 36.2776 19.151 36.3136C19.6899 36.6375 19.2389 36.9254 18.8777 37.2494C18.517 37.4294 18.0673 37.3214 17.6173 37.3215C17.1679 37.1416 16.8986 36.9256 16.8095 36.6737C16.8096 36.6377 16.8099 36.5657 16.9 36.5297C16.81 36.5297 16.81 36.5297 16.7198 36.5657C16.4497 36.6018 16.2698 36.5658 15.9996 36.6018C15.7295 36.6378 15.4592 36.7098 15.1889 36.7818C14.9188 36.8178 14.4691 36.7099 14.5582 36.9618C14.6478 37.0698 14.3773 37.2138 13.8374 37.1778C13.5675 37.1419 13.9271 37.2498 13.8371 37.2498C13.1165 37.3938 13.7458 37.6097 13.6549 37.8617Z" fill="#FEBD00"/>
<path d="M13.1017 15.9791C12.7418 15.9431 12.2015 16.0151 12.1122 15.7992C12.023 15.5832 12.473 15.5832 12.8332 15.5472C13.2835 15.4752 13.5541 15.2952 13.8247 15.1512C14.6368 14.5753 14.9068 14.5753 15.895 15.115C14.904 15.3671 14.0029 15.6551 13.1017 15.9791Z" fill="#FEBD00"/>
<path d="M13.6574 37.1777C13.4777 37.1057 13.2978 37.0698 13.208 36.9978C13.5684 36.8898 14.1076 37.1417 14.3785 36.8897C14.6493 36.6738 13.9291 36.7098 13.8397 36.5299C14.3797 36.5658 14.8297 36.5658 15.2796 36.6017C15.4598 36.5657 15.5499 36.5297 15.7298 36.5657C16.0896 36.6376 16.7198 36.6016 16.809 36.8535C16.8982 37.0695 16.4483 37.0335 16.178 37.1055C15.7277 37.1775 15.3675 37.2136 14.9172 37.2856C14.3769 37.3576 13.9263 37.5016 13.6574 37.1777Z" fill="#FEBD00"/>
<path d="M18.5338 32.7146C18.713 32.9305 18.8024 33.1105 18.9817 33.3264L18.8917 33.3264C18.0819 33.2185 18.0827 33.0025 18.5338 32.7146Z" fill="#FEBD00"/>
<path d="M-2.23515 25.9859C-1.42405 25.6979 0.195785 25.8057 0.284662 26.1296C0.374168 26.2736 0.554064 26.3096 0.733959 26.3455C1.09375 26.4175 1.18337 26.5255 1.00285 26.6694C0.731931 26.9214 0.73169 26.9934 1.18111 27.1733C0.459893 27.4973 -0.709239 27.2094 -1.52009 27.4255C-1.87913 27.1376 -2.3288 27.0296 -3.22903 27.0657C-3.49906 27.0657 -3.76887 26.9937 -4.03928 27.1017C-4.30969 27.2097 -4.6696 27.1738 -4.93926 27.0658C-5.2988 26.9219 -4.8486 26.8859 -4.66833 26.8139C-4.4878 26.6699 -3.85759 26.6338 -4.12662 26.3459C-4.21625 26.238 -3.4958 26.1299 -3.0455 26.0579C-2.86636 26.3098 -3.40718 26.5258 -3.04802 26.7777C-2.23767 26.7057 -2.77635 26.3098 -2.23578 26.1658C-1.6052 26.0218 -1.15614 26.3097 -0.525682 26.2017C-0.794958 25.9857 -1.51519 26.0218 -2.23515 25.9859Z" fill="#FEBD00"/>
<path d="M0.619136 33.4358C0.888538 33.6158 1.42798 33.7957 1.24733 33.9757C0.796017 34.3356 1.06541 34.5155 1.96501 34.6594C2.41481 34.7314 2.50457 34.8034 2.32404 34.9473C2.05338 35.1273 1.87412 34.9114 1.60409 34.9114C-0.105861 34.8396 -0.553531 34.1558 -1.72254 33.8319C-1.90231 33.76 -1.81191 33.652 -1.63189 33.652C-0.821793 33.6519 -0.191339 33.5439 0.619136 33.4358Z" fill="#FEBD00"/>
<path d="M10.816 26.0929C11.2661 26.0928 11.5358 26.2008 11.5351 26.3807C11.0846 26.5247 10.9929 26.9926 9.91441 26.5248C9.555 26.3449 8.11383 26.6329 7.39538 26.1651C8.56552 26.165 9.73539 26.2369 10.816 26.0929Z" fill="#FEBD00"/>
<path d="M18.4434 32.7505C18.4426 32.9665 18.4418 33.1824 18.8914 33.3263C18.4408 33.4703 17.9914 33.2904 17.5414 33.2905C17.0913 33.2905 16.7318 33.1466 16.9128 32.8586C17.0937 32.6067 17.4537 32.6066 17.9934 32.7146C18.0833 32.7505 18.2633 32.7505 18.4434 32.7505Z" fill="#FEBD00"/>
<path d="M1.69891 33.5075C1.34012 33.1476 0.890699 32.9677 -0.0999236 33.1117C-0.370082 33.1477 -0.64064 33.2917 -0.910168 33.1478C-1.00005 33.1118 -1.08981 33.0398 -0.909538 32.9678C-0.549117 32.8598 -0.458344 32.6439 0.0815941 32.6798C0.981576 32.7157 1.79043 33.0756 1.69891 33.5075Z" fill="#FEBD00"/>
<path d="M-0.534424 28.7211C0.185158 28.865 -0.0856471 29.0809 0.093366 29.3689C-0.716101 29.189 -0.355033 28.901 -0.534424 28.7211Z" fill="#FEBD00"/>
<path d="M10.9571 37.2501C11.3172 37.2141 11.4978 37.0701 11.8578 37.0701C12.3079 37.0701 12.3076 37.1421 12.1271 37.286C12.0368 37.358 11.767 37.2861 11.5866 37.3941C11.3161 37.538 11.1366 37.3941 10.8665 37.3941C10.9569 37.2861 10.9571 37.2501 10.9571 37.2501Z" fill="#FEBD00"/>
<path d="M0.0882596 30.8084C-0.452565 31.0255 -0.812482 30.9893 -1.26228 30.917C-0.991616 30.7361 -0.541942 30.8446 0.0882596 30.8084Z" fill="#FEBD00"/>
<path d="M2.27286 49.5244C2.2726 49.5967 2.09259 49.5968 1.91257 49.5968C1.73254 49.5968 1.55253 49.5968 1.55291 49.4883C1.55316 49.4159 1.73318 49.4159 1.9132 49.4159C2.09322 49.4158 2.27324 49.4158 2.27286 49.5244Z" fill="#FEBD00"/>
<path d="M20.3212 36.2783C19.9611 36.2783 19.6006 36.423 19.3314 36.1698C19.6913 36.206 20.0515 36.1697 20.3212 36.2783Z" fill="#FEBD00"/>
<path d="M17.9005 33.5782C17.9905 33.5062 17.9906 33.4702 18.17 33.5062C18.2596 33.5421 18.3493 33.5781 18.3491 33.6141C18.349 33.6501 18.259 33.7221 18.0796 33.6861C17.9899 33.6861 17.9004 33.6142 17.9005 33.5782Z" fill="#FEBD00"/>
<path d="M0.351622 32.3567C0.261746 32.3929 0.171979 32.3929 0.0821027 32.4291C0.0822294 32.3929 -0.0073992 32.3567 -0.00727248 32.3205C-0.00714576 32.2843 0.0827418 32.2482 0.172492 32.2482C0.351991 32.2481 0.351876 32.2843 0.351622 32.3567Z" fill="#FEBD00"/>
<path d="M10.2198 16.4473C10.0394 16.5553 10.0387 16.7352 9.49878 16.6993C9.04885 16.6633 8.77946 16.4834 8.77997 16.3394C8.78047 16.1955 9.23065 16.1594 9.59056 16.1954C9.95048 16.2314 10.2203 16.3033 10.2198 16.4473Z" fill="#FEBD00"/>
<path d="M10.536 28.8286C10.9866 28.6838 11.2565 28.72 11.616 28.8647C11.2556 28.9732 10.9857 28.9371 10.536 28.8286Z" fill="#FEBD00"/>
<path d="M9.22259 18.4994C9.22297 18.3909 9.31312 18.3547 9.40301 18.3909C9.58303 18.3909 9.76292 18.427 9.85281 18.4632C10.0326 18.5355 9.85242 18.5717 9.6724 18.5718C9.4925 18.5356 9.31261 18.4994 9.22259 18.4994Z" fill="#FEBD00"/>
<path d="M12.6088 28.2522C12.6987 28.2881 12.7886 28.3241 12.7885 28.3601C12.6082 28.4321 12.4276 28.5761 12.158 28.4681C11.9783 28.3602 12.3385 28.3242 12.6088 28.2522Z" fill="#FEBD00"/>
<path d="M8.14723 16.7721C7.96786 16.736 7.87813 16.736 7.96813 16.6636C8.05801 16.6274 8.14775 16.6274 8.2375 16.6274C8.32725 16.6274 8.327 16.6998 8.41663 16.7359C8.32688 16.736 8.23711 16.736 8.14723 16.7721Z" fill="#FEBD00"/>
<path d="M10.6714 15.9436C10.4913 15.9798 10.4012 15.9799 10.2211 16.016C10.1311 16.0161 9.95119 15.9799 10.1313 15.9437C10.2215 15.9075 10.4015 15.9075 10.5816 15.8713C10.5816 15.8713 10.5815 15.9075 10.6714 15.9436Z" fill="#FEBD00"/>
<path d="M15.003 12.4163C14.913 12.4887 14.8231 12.5249 14.7335 12.4887C14.6439 12.4525 14.5542 12.4163 14.4645 12.4164C14.5543 12.3802 14.6442 12.344 14.6442 12.344C14.8237 12.344 14.9133 12.3801 15.003 12.4163Z" fill="#FEBD00"/>
<path d="M9.34841 8.16923C9.88873 8.0972 10.0685 8.16917 10.248 8.31312C9.88772 8.38513 9.61807 8.27718 9.34841 8.16923Z" fill="#FEBD00"/>
<path d="M11.6762 37.358C11.6768 37.178 12.0364 37.322 12.2166 37.25C12.3965 37.2859 12.7562 37.3939 12.5759 37.4659C12.1254 37.6099 11.9462 37.358 11.6762 37.358Z" fill="#FEBD00"/>
<path d="M16.8995 36.5298C16.8099 36.4938 16.7202 36.4578 16.6306 36.4218C16.7207 36.3138 16.5419 36.1339 16.9904 36.2058C17.2594 36.2778 16.8101 36.4218 16.8995 36.5298Z" fill="#FEBD00"/>
<path d="M15.9099 36.4218C15.8196 36.4938 15.7294 36.5658 15.6391 36.6378C15.4591 36.6378 15.3691 36.6378 15.1891 36.6378C15.1898 36.4219 15.5499 36.4218 15.9099 36.4218Z" fill="#FEBD00"/>
<path d="M16.4679 31.3471C16.1979 31.3471 16.1971 31.5631 15.8375 31.4551C15.8375 31.4551 15.9277 31.3831 15.928 31.3111C16.1082 31.2391 16.2883 31.2391 16.4679 31.3471Z" fill="#FEBD00"/>
</g>
</svg>
