<svg width="20" height="20" viewBox="0 0 20 20" fill="none" xmlns="http://www.w3.org/2000/svg">
<path fill-rule="evenodd" clip-rule="evenodd" d="M10 17.3333C14.0501 17.3333 17.3333 14.0501 17.3333 10C17.3333 5.94991 14.0501 2.66667 10 2.66667C5.94991 2.66667 2.66667 5.94991 2.66667 10C2.66667 14.0501 5.94991 17.3333 10 17.3333ZM10 20C15.5228 20 20 15.5228 20 10C20 4.47715 15.5228 0 10 0C4.47715 0 0 4.47715 0 10C0 15.5228 4.47715 20 10 20Z" fill="white"/>
<path fill-rule="evenodd" clip-rule="evenodd" d="M10 12C11.1046 12 12 11.1046 12 9.99999C12 8.89542 11.1046 7.99999 10 7.99999C8.89545 7.99999 8.00002 8.89542 8.00002 9.99999C8.00002 11.1046 8.89545 12 10 12ZM10 15.3333C12.9455 15.3333 15.3334 12.9455 15.3334 9.99999C15.3334 7.05447 12.9455 4.66666 10 4.66666C7.0545 4.66666 4.66669 7.05447 4.66669 9.99999C4.66669 12.9455 7.0545 15.3333 10 15.3333Z" fill="white"/>
<path fill-rule="evenodd" clip-rule="evenodd" d="M10.3485 0.630859L16.6048 3.94303L12.7836 7.00001H7.23239L2.63641 3.93602L10.3485 0.630859ZM4.03022 4.06399L7.43424 6.33334H12.5497L15.3952 4.05698L10.3182 1.36915L4.03022 4.06399Z" fill="white"/>
<path fill-rule="evenodd" clip-rule="evenodd" d="M9.65154 19.7025L3.39521 16.3903L7.21643 13.3333L12.7676 13.3333L17.3636 16.3973L9.65154 19.7025ZM15.9698 16.2694L12.5658 14L7.45028 14L4.60483 16.2764L9.68183 18.9642L15.9698 16.2694Z" fill="white"/>
<path fill-rule="evenodd" clip-rule="evenodd" d="M0.237976 10.6667L2.74105 7.57197L5.66669 9.20802L5.66669 11.8269L2.75612 13.78L0.237976 10.6667ZM2.89099 12.8867L5.00003 11.4714L5.00003 9.59903L2.90606 8.42806L1.09541 10.6667L2.89099 12.8867Z" fill="white"/>
<path fill-rule="evenodd" clip-rule="evenodd" d="M19.762 9.99997L17.2589 13.0947L14.3333 11.4586L14.3333 8.83977L17.2439 6.88663L19.762 9.99997ZM17.109 7.77999L15 9.19526L15 11.0676L17.0939 12.2386L18.9046 9.99997L17.109 7.77999Z" fill="white"/>
<path fill-rule="evenodd" clip-rule="evenodd" d="M10 0.237946L13.0947 2.74102L11.4587 5.66666L8.8398 5.66666L6.88666 2.75609L10 0.237946ZM7.78002 2.89096L9.19529 5L11.0677 5L12.2386 2.90603L10 1.09538L7.78002 2.89096Z" fill="white"/>
<path fill-rule="evenodd" clip-rule="evenodd" d="M10 19.7621L6.90528 17.259L8.54133 14.3333L11.1602 14.3333L13.1133 17.2439L10 19.7621ZM12.22 17.109L10.8047 15L8.93235 15L7.76138 17.094L10 18.9046L12.22 17.109Z" fill="white"/>
</svg>
