<svg width="35" height="6" viewBox="0 0 35 6" fill="none" xmlns="http://www.w3.org/2000/svg">
<mask id="mask0_448_1229" style="mask-type:alpha" maskUnits="userSpaceOnUse" x="0" y="0" width="35" height="6">
<rect width="35" height="6" fill="#D9D9D9"/>
</mask>
<g mask="url(#mask0_448_1229)">
<path d="M22.0056 0.442736C21.8495 0.4853 20.9131 0.536376 22.786 0.570427C23.0981 0.595965 22.9421 0.612991 21.8496 0.612991C19.9767 0.595965 18.416 0.642785 16.5431 0.630016C16.6991 0.664067 17.7917 0.664067 17.9478 0.689605C17.4795 0.698118 16.6992 0.70663 16.0749 0.70663C13.1095 0.698118 11.3927 0.753451 9.51978 0.800271C9.05154 0.81304 8.89545 0.821552 8.73938 0.838578C8.73938 0.868372 8.11511 0.85986 7.49081 0.851347C7.64688 0.868372 8.11514 0.881142 8.27121 0.898167C8.73944 0.936474 8.11511 0.970525 6.55438 0.970525C5.46188 0.970525 4.83759 0.983294 4.21329 1.00458C5.77402 1.00032 7.02264 0.974782 8.58337 0.966269C10.4563 0.9535 12.017 0.979038 12.173 1.03437C12.3291 1.07268 13.1095 1.10247 14.202 1.12375C14.9823 1.13652 15.1384 1.16206 15.9188 1.17909C16.6992 1.17909 16.8553 1.13652 17.9478 1.14929C18.7281 1.15781 18.7281 1.18334 18.8842 1.20463C18.8842 1.1876 18.8842 1.17483 18.7281 1.16206C18.5721 1.14929 17.7917 1.14078 18.416 1.12801C18.8842 1.11524 19.5085 1.13227 20.1328 1.13652C19.5085 1.11099 18.572 1.10247 17.4795 1.09822C16.8552 1.09396 16.387 1.09396 15.9188 1.08545C15.1384 1.07268 14.202 1.06417 14.3581 1.03011C14.6702 0.996063 15.4506 1.00032 16.5431 1.00032C17.7917 1.00032 19.0403 0.996063 19.9767 1.03011C20.1328 1.03863 20.757 1.03863 21.2253 1.03863C22.786 1.03437 23.2542 1.05565 23.2542 1.09396C23.4103 1.10247 23.4103 1.11099 23.5664 1.11524C24.6589 1.13227 25.4393 1.14929 25.2832 1.19186C25.2832 1.22165 25.9075 1.2557 27 1.27273C26.2196 1.29401 25.5953 1.31103 26.0636 1.34509C26.3757 1.36637 24.9711 1.37488 25.2832 1.39616C25.5953 1.43021 25.9075 1.46426 24.6589 1.4898C24.3468 1.49406 24.1907 1.49831 23.8785 1.49831C23.2542 1.49831 22.786 1.49406 22.4739 1.52385C22.1618 1.55365 22.3178 1.59621 21.0692 1.62175C22.1617 1.61749 23.2543 1.60898 23.4103 1.64303C23.4103 1.67708 22.6299 1.70688 21.2253 1.71113C19.6646 1.71113 19.3524 1.7239 20.1328 1.76221C21.0692 1.80903 20.601 1.86011 20.4449 1.90693C20.4449 1.93672 19.1964 1.958 17.9478 1.96226C17.4795 1.96226 16.8552 1.95375 16.6991 1.96651C15.9188 2.05164 13.2656 1.9878 12.017 2.01759C12.173 2.02185 12.6412 2.01333 13.1095 2.01759C13.8898 2.02185 14.0459 2.04313 13.4216 2.04739C11.7048 2.06015 11.5488 2.10697 10.7684 2.14528C12.3291 2.12826 13.7337 2.15805 14.9823 2.17082C16.5431 2.18359 16.6991 2.2219 15.7627 2.2602C15.4506 2.27297 15.1384 2.28574 14.5141 2.29425C13.1095 2.31128 12.9534 2.33256 13.7338 2.36236C14.202 2.37938 14.3581 2.40066 13.7338 2.41343C12.9534 2.43046 12.4852 2.40492 12.017 2.39215C11.7048 2.3879 11.5487 2.37513 11.0805 2.37513C11.5487 2.40066 12.173 2.4262 13.4216 2.43472C15.1384 2.44323 15.7628 2.48154 16.3871 2.51559C17.0114 2.54964 16.5431 2.56241 15.1384 2.55389C14.5141 2.54964 14.0459 2.54538 13.4216 2.54964C12.4852 2.55389 11.3926 2.56241 12.6412 2.59646C12.9534 2.60497 13.1095 2.622 13.1095 2.63476C13.1095 2.66882 12.9534 2.69861 11.2366 2.68584C10.9244 2.68158 10.6123 2.68584 10.1441 2.69435C11.0805 2.70712 11.7048 2.7284 11.8609 2.7582C12.173 2.78799 12.7973 2.8263 14.202 2.83056C15.4506 2.83481 15.7627 2.85184 15.2945 2.88163C14.8263 2.91143 14.0459 2.92845 12.7973 2.91143C12.3291 2.90292 12.017 2.88589 11.5488 2.88163C10.9245 2.92845 10.9244 2.93697 12.6412 2.9625C12.9534 2.96676 13.4216 2.97102 13.2656 2.97953C12.4852 3.05189 14.8263 3.02635 15.7627 3.03912C15.9188 3.04338 16.231 3.03912 16.3871 3.03912C17.1674 3.03912 18.1038 3.03912 18.416 3.06891C18.572 3.09871 18.1038 3.11573 17.1674 3.1285C14.9824 3.11999 12.9534 3.11999 11.3927 3.17107C11.0805 3.18384 10.4562 3.18384 9.83194 3.19235C9.20764 3.20086 8.27124 3.21789 7.80301 3.19235C7.33478 3.17107 8.27115 3.16255 8.73938 3.14978C9.67581 3.1285 9.67587 3.12425 9.20764 3.07317C8.73941 3.09445 9.36371 3.1285 8.11511 3.13702C7.17868 3.14127 6.24222 3.13276 5.61792 3.11148C5.93005 3.14127 6.08618 3.17107 6.08618 3.20512C6.08618 3.23917 5.61792 3.24768 4.83755 3.23491C3.58896 3.21789 2.18436 3.2264 0.779694 3.21363C1.71613 3.23066 2.96469 3.20937 3.43292 3.24342C3.74506 3.26471 3.12079 3.27322 2.34042 3.27748C3.58902 3.28173 4.83762 3.31153 5.93011 3.26471C6.24225 3.25194 7.02258 3.26045 7.49081 3.26896C7.95905 3.28173 8.11514 3.2945 7.80301 3.31153C7.64694 3.32004 7.33475 3.32855 7.17868 3.34132C6.55438 3.38814 4.99365 3.38388 3.58899 3.38388C3.58899 3.44773 1.87219 3.42645 0.779694 3.42219C-0.156738 3.41794 -0.468933 3.42645 -0.625 3.44773C-0.781067 3.46476 -0.781067 3.48178 -0.937134 3.49881C-1.0932 3.51158 -1.40533 3.52009 -1.87357 3.52009C-2.3418 3.52009 -2.81003 3.51583 -2.81003 3.50306C-2.81003 3.46476 -4.05859 3.46901 -4.52682 3.4605C-5.15112 3.45199 -5.15109 3.46476 -4.99503 3.45624C-4.99503 3.45624 -4.99503 3.45624 -4.83896 3.45624C-3.74646 3.46901 -3.27823 3.48604 -3.90253 3.52434C-4.21466 3.54563 -3.43433 3.57968 -4.37076 3.60522C-5.15112 3.6265 -5.77545 3.64352 -6.86795 3.63075C-7.96045 3.61799 -7.80435 3.59245 -7.49222 3.56691C-6.86792 3.50306 -6.86792 3.50306 -9.83331 3.50306C-9.36508 3.52434 -7.80438 3.52009 -8.27261 3.55414C-8.89691 3.59245 -9.83334 3.6265 -11.3941 3.63501C-12.9548 3.64352 -14.5155 3.64778 -15.9202 3.67757C-16.3884 3.69034 -17.0127 3.68183 -17.4809 3.67332C-18.1052 3.6648 -18.5734 3.66055 -18.8856 3.68183C-19.0416 3.6946 -19.3538 3.70737 -18.7295 3.72014C-18.2613 3.72865 -17.7931 3.72014 -17.4809 3.71163C-16.5445 3.68183 -14.6716 3.6946 -13.7352 3.65629C-13.5791 3.64778 -12.9548 3.65629 -12.7987 3.66906C-12.6426 3.68183 -13.2669 3.70737 -12.0183 3.70311C-11.0819 3.69886 -9.83334 3.72439 -9.20905 3.68609C-8.89691 3.66481 -8.58472 3.63501 -7.49222 3.64778C-6.39972 3.66055 -5.15109 3.68183 -4.83896 3.72014C-4.52682 3.74568 -5.15115 3.76696 -6.08759 3.77547C-7.18008 3.78398 -8.27258 3.80101 -9.52118 3.7925C-10.6137 3.78398 -11.5501 3.80101 -12.7987 3.82229C-10.7697 3.83506 -8.58475 3.76696 -7.33615 3.84357C-7.18008 3.8308 -7.18005 3.82229 -7.18005 3.81378C-7.18005 3.77547 -6.39969 3.77547 -5.61932 3.79675C-3.90253 3.83932 -2.02963 3.86485 0.311462 3.84783C0.623596 3.84357 0.93576 3.84783 1.09183 3.85634C1.40396 3.89891 2.96469 3.92444 3.43292 3.96701C3.74506 3.95424 3.90112 3.94147 4.36935 3.9287C4.68149 3.92019 5.14978 3.91593 5.46191 3.92019C5.93015 3.9287 5.93008 3.93721 5.77402 3.94998C5.30579 3.97126 5.30582 3.98829 6.24225 4.00106C6.86655 4.00957 6.55441 4.0266 6.08618 4.03937C5.77405 4.04788 5.46188 4.05213 4.99365 4.05639C2.49649 4.08193 -0.625 4.03937 -1.40536 3.97126C-1.56143 3.95424 -1.40533 3.93296 -2.34177 3.93296C-3.12213 3.93296 -3.43433 3.94147 -3.74646 3.95849C-4.37076 3.99254 -5.46326 3.99255 -6.71185 3.98829C-7.33615 3.98403 -7.96042 3.96275 -8.58472 3.97978C-9.20901 4.00106 -9.67725 4.02234 -9.52118 4.05213C-9.36511 4.08193 -11.238 4.14577 -12.1744 4.15429C-12.4866 4.15429 -12.7987 4.15854 -12.9548 4.15003C-13.5791 4.12024 -14.8277 4.11172 -15.7641 4.0947C-17.3248 4.06065 -17.3248 4.03937 -15.608 4.00957C-15.1398 4.00106 -14.8277 3.98829 -14.6716 3.97126C-15.452 3.95849 -16.3884 3.95424 -17.1687 3.94147C-17.4809 3.93721 -17.637 3.90742 -18.4174 3.9287C-19.0417 3.94147 -19.5099 3.95849 -19.0416 3.97978C-18.1052 4.01808 -17.637 4.05639 -17.1687 4.09895C-16.8566 4.12449 -15.7641 4.13301 -14.9837 4.14152C-13.2669 4.15854 -11.2379 4.1628 -10.1454 4.21813C-9.98938 4.2309 -9.36511 4.23516 -9.05298 4.22665C-7.49225 4.18834 -5.61932 4.20536 -3.90253 4.19685C-3.74646 4.19685 -3.59039 4.20111 -3.43433 4.20536C-2.65396 4.2607 -2.96606 4.29475 -4.83896 4.33305C-5.46326 4.34582 -6.55576 4.35434 -6.24362 4.38839C-5.46326 4.39264 -4.83896 4.37988 -4.83896 4.36711C-4.37073 4.32029 -2.3418 4.32029 -1.40536 4.28623C-0.937134 4.26921 -0.156769 4.28198 0.467529 4.29475C1.24789 4.31177 0.779694 4.32454 0.311462 4.33731C-0.312836 4.35434 -0.312866 4.37562 -0.625 4.39264C-1.09323 4.42669 -1.56143 4.465 -3.43433 4.44798C-3.59039 4.465 -3.2782 4.465 -3.12213 4.465C-2.6539 4.46926 -1.87357 4.46926 -1.87357 4.48628C-1.87357 4.50757 -2.49783 4.52033 -3.12213 4.52033C-4.68286 4.51608 -6.08755 4.54162 -7.64828 4.54162C-9.05295 4.54162 -9.83331 4.53736 -9.52118 4.49054C-9.36511 4.465 -10.6137 4.43095 -8.42868 4.40967C-9.52118 4.40541 -10.3015 4.40541 -10.4576 4.38413C-9.67725 4.34582 -8.11652 4.32454 -7.33615 4.29475C-8.74081 4.29475 -10.3015 4.31177 -12.0183 4.31603C-13.2669 4.32029 -13.7352 4.31177 -14.3595 4.28198C-15.1398 4.24793 -15.452 4.20111 -17.0127 4.17983C-17.1688 4.17983 -17.0127 4.18408 -17.0127 4.18834C-17.0127 4.21388 -15.7641 4.23942 -16.3884 4.2607C-17.1687 4.28198 -18.2613 4.24367 -19.0416 4.24793C-20.9145 4.2607 -22.9435 4.22665 -24.8164 4.2607C-26.5332 4.29049 -28.25 4.27347 -29.6546 4.24793C-29.8107 4.24367 -29.8107 4.22665 -30.279 4.24367C-30.9033 4.27772 -32.1519 4.26921 -33.2444 4.27347C-33.4004 4.27772 -33.2443 4.27772 -33.0883 4.27772C-31.2154 4.29049 -29.6546 4.32454 -27.6257 4.28198C-26.8453 4.26495 -24.9724 4.28198 -24.5042 4.32454C-24.3481 4.34157 -23.7238 4.35008 -22.9435 4.33731C-22.4753 4.3288 -21.851 4.32029 -21.3828 4.33305C-20.7585 4.35008 -20.9145 4.36711 -21.0706 4.38839C-21.0706 4.3969 -21.3828 4.40541 -21.6949 4.41393C-23.5678 4.46926 -23.2556 4.49054 -20.4463 4.50331C-19.822 4.50757 -19.3538 4.50331 -19.1978 4.49054C-19.0417 4.46926 -19.5099 4.46926 -19.9781 4.465C-21.3828 4.46075 -22.007 4.45649 -21.0706 4.40967C-20.4463 4.37987 -20.1341 4.34157 -19.0416 4.31603C-18.4173 4.30326 -18.2613 4.27772 -17.3249 4.28623C-16.2324 4.299 -16.8566 4.32029 -16.7006 4.34157C-15.9202 4.27772 -15.2959 4.26921 -13.7352 4.32029C-12.7987 4.35008 -11.238 4.34582 -10.4576 4.37987C-11.5501 4.42669 -12.7987 4.40967 -14.0473 4.38413C-13.8912 4.3969 -12.6427 4.40116 -12.9548 4.42244C-13.1109 4.44798 -14.2034 4.43095 -14.8277 4.44798C-14.2034 4.47777 -13.423 4.49905 -12.1744 4.51608C-10.7698 4.5331 -9.83334 4.5629 -9.05298 4.60121C-8.42868 4.631 -8.74078 4.65228 -10.1454 4.64803C-10.7697 4.64803 -11.238 4.64803 -11.8623 4.64377C-12.9548 4.63951 -13.579 4.64377 -13.2669 4.67782C-13.1108 4.69485 -13.267 4.71187 -13.8913 4.72038C-14.6716 4.73315 -15.452 4.72464 -16.0763 4.71187C-16.7006 4.6991 -17.0127 4.67782 -17.637 4.66505C-17.7931 4.66931 -17.7931 4.66931 -17.637 4.67356C-17.1688 4.6991 -15.2959 4.7289 -16.2324 4.75018C-17.1688 4.77572 -18.8856 4.78849 -20.2902 4.77146C-21.5388 4.75444 -22.9435 4.75869 -24.192 4.75444C-24.3481 4.75018 -24.5042 4.75018 -24.6603 4.74592C-24.9724 4.70336 -26.8453 4.66505 -25.7528 4.60972C-26.5332 4.63526 -26.5331 4.66505 -27.3135 4.68633C-27.4696 4.69059 -27.6257 4.69485 -27.7818 4.69485C-28.25 4.70336 -28.8743 4.66931 -29.0303 4.70336C-29.3425 4.75018 -30.1229 4.72038 -30.7472 4.71187C-30.435 4.7289 -29.8107 4.75018 -30.7472 4.77146C-31.5275 4.78849 -32.464 4.797 -33.2444 4.78423C-34.493 4.7672 -35.4294 4.75018 -36.9901 4.77146C-38.0826 4.78849 -38.2387 4.75018 -38.3947 4.72464C-39.1751 4.73741 -39.0191 4.76295 -39.6434 4.7672C-40.4237 4.77572 -41.2041 4.78849 -41.6723 4.75444C-42.2966 4.71187 -43.2331 4.68633 -44.9499 4.70336C-45.4181 4.70761 -45.7302 4.70761 -46.1984 4.70336C-46.6667 4.6991 -47.447 4.69485 -47.6031 4.68208C-47.7592 4.66505 -47.1348 4.65654 -46.8227 4.64377C-46.5106 4.63526 -46.0424 4.62674 -45.7302 4.60972C-46.6667 4.60546 -47.291 4.631 -48.0713 4.61397C-49.0078 4.59695 -48.0713 4.57567 -48.3835 4.54587C-50.1003 4.57141 -52.1292 4.5331 -53.69 4.58418C-54.0021 4.59695 -54.7825 4.59695 -55.2507 4.58418C-55.7189 4.57567 -55.875 4.55864 -55.875 4.54162C-55.7189 4.52459 -55.4067 4.50757 -54.6264 4.50331C-53.6899 4.49905 -52.5974 4.49905 -51.661 4.50331C-50.8806 4.50757 -50.1003 4.50757 -49.3199 4.50331C-48.0713 4.49054 -47.1349 4.48203 -48.5395 4.44372C-49.476 4.41818 -49.1638 4.40116 -47.9153 4.39264C-46.9788 4.38839 -45.8863 4.38413 -44.9499 4.3969C-44.3256 4.40541 -43.7013 4.42244 -44.0134 4.43521C-44.7938 4.47351 -43.7012 4.47777 -42.9209 4.49054C-41.2041 4.51608 -39.7994 4.55013 -39.3312 4.60546C-39.1751 4.61823 -39.1751 4.62674 -38.3947 4.63526C-37.9265 4.59269 -36.3658 4.5629 -36.834 4.50757C-36.9901 4.48203 -36.2097 4.47777 -35.4294 4.48203C-35.1172 4.48203 -34.4929 4.49054 -34.4929 4.47351C-34.4929 4.465 -34.4929 4.45223 -34.649 4.44798C-34.9611 4.43521 -35.4294 4.43946 -35.7415 4.44798C-36.834 4.465 -37.9265 4.48203 -37.4583 4.52459C-37.1462 4.55864 -37.4583 4.57141 -38.7069 4.55439C-39.4873 4.54162 -40.5798 4.54162 -41.2041 4.52459C-41.8284 4.50757 -42.7648 4.49054 -42.6087 4.465C-42.4527 4.43946 -41.3601 4.44372 -40.7358 4.43521C-40.7358 4.43095 -40.7358 4.42669 -40.8919 4.42669C-43.7012 4.41818 -43.7013 4.41818 -42.2966 4.34582C-42.6087 4.33306 -43.077 4.34157 -43.3891 4.34157C-44.7938 4.34582 -46.0424 4.35859 -47.447 4.34157C-48.2274 4.33306 -49.6321 4.32454 -50.5685 4.34582C-51.1928 4.35859 -51.661 4.35434 -51.9731 4.34157C-52.4414 4.3288 -52.5974 4.31177 -52.2853 4.29475C-52.1292 4.28623 -51.817 4.28198 -51.5049 4.27347C-49.632 4.22665 -49.476 4.20536 -50.2563 4.14152C-50.4124 4.12875 -50.4124 4.11172 -50.7245 4.0947C-51.9731 4.12875 -53.3778 4.10747 -54.6264 4.10321C-56.031 4.09895 -55.7189 4.0649 -55.2507 4.03937C-54.9386 4.02234 -54.3143 4.00957 -53.69 4.00106C-53.3778 3.9968 -52.7535 3.98829 -53.0656 3.97552C-55.0946 3.89039 -54.0021 3.80526 -53.3778 3.71588C-53.3778 3.71163 -53.2217 3.70311 -53.2217 3.68609C-53.5339 3.71588 -53.846 3.72865 -54.3142 3.73716C-54.7825 3.74568 -55.0946 3.75419 -54.3142 3.7627C-54.1582 3.7627 -54.0021 3.77121 -54.1582 3.77121C-56.0311 3.81803 -54.9385 3.88614 -56.1871 3.93721C-56.6553 3.95849 -57.4357 3.94998 -57.7478 3.93296C-58.3721 3.90742 -58.8404 3.91593 -59.3086 3.93721C-59.6207 3.95424 -60.4012 3.96275 -60.7133 3.97978C-61.6497 4.01808 -62.8983 4.02234 -64.1469 4.00106C-65.5515 3.97978 -64.7711 3.94998 -64.459 3.92019C-63.2104 3.88188 -61.1815 3.85634 -61.1815 3.7925C-61.1815 3.78824 -61.0254 3.78398 -60.7133 3.77973C-57.904 3.7627 -58.5282 3.69034 -57.9039 3.63927C-57.4357 3.60096 -56.9675 3.54988 -59.3086 3.53286C-60.089 3.52434 -60.2451 3.49455 -59.7768 3.47752C-58.8404 3.44347 -58.8404 3.40517 -58.8404 3.37537C-58.8404 3.40091 -59.4646 3.43071 -60.0889 3.4605C-60.8693 3.49029 -61.3375 3.52009 -60.8693 3.56265C-60.5572 3.59245 -60.7133 3.62224 -62.1179 3.63075C-63.5226 3.63927 -63.6786 3.60522 -63.9908 3.57968C-64.6151 3.5286 -63.5226 3.49029 -62.4301 3.44773C-63.2104 3.44347 -63.9908 3.44347 -63.9908 3.46476C-63.9908 3.50306 -64.6151 3.54137 -63.9908 3.57968C-63.3665 3.61799 -62.5862 3.65204 -63.5226 3.69886C-63.9908 3.72865 -62.4301 3.73291 -62.274 3.75845C-62.8983 3.77973 -63.8347 3.77547 -64.6151 3.76696C-65.3955 3.72439 -66.9562 3.71163 -68.3608 3.70737C-66.1758 3.78824 -66.1758 3.83506 -68.673 3.90316C-66.9562 3.92019 -66.9562 3.94572 -68.0487 3.97978C-68.8291 4.00531 -70.2338 4.03085 -68.9852 4.07342C-68.8291 4.08193 -68.9852 4.0947 -69.2973 4.09895C-70.858 4.12449 -70.3898 4.1628 -70.2337 4.20111C-70.0777 4.299 -69.1412 4.3969 -70.0777 4.49905C-70.2337 4.52034 -71.6384 4.5331 -71.0141 4.5629C-70.5458 4.58844 -70.5459 4.61823 -70.5459 4.64803C-70.5459 4.65654 -70.5459 4.64803 -70.5459 4.65228C-70.5459 4.67356 -70.0776 4.6991 -71.0141 4.70762C-71.9505 4.71613 -72.5748 4.70336 -73.0431 4.67782C-73.1991 4.69485 -71.6384 4.70761 -73.0431 4.72464C-73.1991 4.72464 -73.6674 4.72038 -73.0431 4.7289C-70.702 4.76295 -70.0777 4.80977 -71.4823 4.86936C-72.1066 4.89915 -71.7945 4.91618 -71.3262 4.93746C-70.0776 4.98853 -69.6095 5.04387 -70.702 5.0992C-71.1702 5.12048 -70.3898 5.12474 -70.0777 5.13325C-69.2973 5.15879 -68.8291 5.18858 -69.7655 5.22264C-70.3898 5.24392 -70.7019 5.26946 -71.0141 5.29499C-71.3262 5.32479 -72.1066 5.34607 -73.1991 5.35884C-74.6038 5.37161 -75.2281 5.4014 -74.7599 5.44397C-74.4478 5.47802 -74.2916 5.51632 -74.4477 5.55463C-74.6038 5.57591 -74.4477 5.60145 -73.8234 5.61848C-72.887 5.64827 -72.887 5.67807 -74.2916 5.69935C-75.8524 5.72489 -73.5113 5.72489 -73.9795 5.74191C-74.2917 5.76319 -74.2916 5.78448 -74.4477 5.81001C-73.1991 5.79724 -74.4477 5.76319 -73.6673 5.75042C-72.887 5.74191 -72.1066 5.7334 -71.3262 5.74191C-70.3898 5.77171 -69.9216 5.80576 -69.9216 5.84406C-69.6095 5.83555 -70.2337 5.81427 -69.6094 5.81001C-68.9851 5.80576 -68.673 5.81427 -68.3608 5.82704C-67.8926 5.84407 -67.4244 5.85258 -66.644 5.84832C-65.2394 5.83981 -66.644 5.82278 -66.3319 5.81001C-66.1758 5.8015 -66.1758 5.79299 -65.8637 5.78873C-64.7712 5.76745 -63.9908 5.78873 -63.0544 5.79724C-62.4301 5.80576 -61.6497 5.80576 -61.6497 5.83555C-61.8058 5.86109 -62.118 5.88237 -63.0544 5.88663C-64.7712 5.89088 -66.1758 5.92919 -67.8926 5.92068C-68.0487 5.92494 -68.2048 5.92494 -68.3608 5.92494C-68.673 5.92494 -68.9852 5.92068 -69.2973 5.93345C-69.9216 5.97601 -70.2338 5.98027 -71.6384 5.95047C-72.2627 5.9377 -72.4188 5.92068 -72.5748 5.8994C-72.7309 5.88663 -72.887 5.86109 -73.8234 5.86535C-73.9795 5.88237 -73.5113 5.88237 -73.3552 5.88663C-72.2627 5.8994 -72.4188 5.92494 -72.887 5.94622C-73.3552 5.97176 -74.2916 5.9675 -74.9159 5.95473C-76.3206 5.92068 -78.3495 5.92068 -79.5981 5.88237C-80.3784 5.86109 -80.8467 5.8696 -81.3149 5.89088C-82.4074 5.93771 -83.8121 5.94196 -85.2168 5.89514C-85.5289 5.88663 -85.5289 5.8696 -86.1532 5.87812C-86.7775 5.88663 -86.1532 5.8994 -85.9971 5.90791C-85.8411 5.91642 -85.5289 5.92494 -85.5289 5.93345C-85.3729 5.95047 -84.9046 5.9675 -85.685 5.98027C-86.4654 5.99304 -87.0896 5.98452 -87.4018 5.96324C-87.7139 5.93771 -88.1822 5.94196 -88.8065 5.94622C-89.7429 5.95047 -90.6793 5.94622 -91.1476 5.92068C-91.6158 5.89088 -90.5233 5.88237 -89.899 5.8696C-88.9625 5.84832 -89.1186 5.84832 -90.2111 5.79724C-90.6794 5.81001 -90.8354 5.82704 -91.1476 5.83981C-92.2401 5.88663 -92.7083 5.88663 -93.9569 5.84832C-94.5812 5.82704 -96.6101 5.82704 -95.8298 5.77171C-95.6737 5.76745 -96.298 5.76745 -96.6101 5.76745C-97.3905 5.76745 -97.8587 5.75894 -97.7026 5.73766C-97.5465 5.71637 -97.0784 5.7036 -96.4541 5.70786C-94.269 5.72063 -92.2401 5.69935 -90.2111 5.68658C-88.8065 5.67807 -87.5579 5.69084 -86.4654 5.71637C-85.8411 5.72914 -85.0607 5.74191 -84.4364 5.75468C-82.4074 5.78873 -82.2514 5.78873 -80.2224 5.73766C-81.471 5.72914 -82.5635 5.72063 -83.0317 5.68658C-83.3439 5.6653 -83.656 5.67381 -84.2803 5.68232C-85.5289 5.69935 -85.9971 5.69084 -85.841 5.65253C-85.841 5.64827 -85.685 5.64402 -85.685 5.64402C-86.9336 5.67381 -87.5579 5.62699 -88.4943 5.62699C-90.9915 5.63125 -92.2401 5.58017 -93.8008 5.54186C-93.9569 5.53761 -93.9569 5.53335 -94.1129 5.52909C-94.1129 5.50356 -93.9569 5.48227 -94.8933 5.46525C-95.8297 5.45248 -95.2054 5.42268 -95.2054 5.40566C-96.7662 5.38012 -98.1709 5.41417 -99.5755 5.41843C-100.512 5.42268 -100.044 5.44397 -99.7316 5.45674C-98.7952 5.48653 -99.5755 5.49504 -100.356 5.4993C-101.604 5.50781 -102.697 5.49504 -103.946 5.48653C-105.662 5.47376 -106.131 5.48653 -105.818 5.53335C-105.662 5.58443 -104.258 5.60571 -102.853 5.61848C-102.229 5.62273 -101.761 5.6355 -101.292 5.64402C-101.136 5.62699 -101.761 5.62699 -102.073 5.62273C-102.853 5.60996 -103.165 5.58868 -102.697 5.5674C-102.229 5.54186 -101.292 5.54612 -100.668 5.55889C-99.7316 5.57591 -99.1073 5.57166 -98.3269 5.55463C-97.0783 5.52909 -95.9858 5.54186 -95.8298 5.58443C-95.5176 5.64401 -96.454 5.68232 -98.483 5.69509C-99.4194 5.69935 -99.8877 5.70786 -100.2 5.7334C-100.512 5.76745 -101.448 5.78448 -102.073 5.81001C-102.697 5.83555 -103.321 5.81853 -104.102 5.81001C-105.194 5.79724 -106.131 5.78448 -106.911 5.82704C-107.223 5.84832 -108.16 5.85683 -109.096 5.86109C-110.345 5.8696 -111.437 5.84407 -111.437 5.81427C-111.437 5.80576 -111.281 5.79724 -111.281 5.79299C-110.813 5.72063 -110.813 5.72063 -108.16 5.72489C-110.345 5.68232 -111.281 5.68658 -112.53 5.74617C-112.998 5.77171 -114.715 5.76745 -115.651 5.73766C-115.963 5.72489 -116.275 5.71212 -116.431 5.69935C-116.744 5.66955 -117.524 5.65679 -118.616 5.66104C-119.241 5.6653 -119.709 5.6653 -120.333 5.65679C-121.27 5.63976 -121.27 5.60571 -120.177 5.59294C-119.397 5.58443 -118.616 5.57591 -117.68 5.57591C-117.056 5.57591 -116.744 5.5674 -116.588 5.55038C-116.275 5.50781 -115.183 5.49504 -113.934 5.52484C-112.842 5.55037 -111.593 5.57166 -110.969 5.60996C-111.593 5.5674 -113.466 5.55038 -113.622 5.49504C-113.622 5.47376 -115.339 5.48227 -115.963 5.46099C-117.056 5.42694 -117.524 5.46525 -118.148 5.47376C-118.929 5.48653 -119.553 5.4993 -120.177 5.51207C-122.05 5.55037 -124.547 5.52909 -125.172 5.46525C-125.328 5.44822 -125.484 5.4312 -124.859 5.41843C-124.235 5.40566 -123.611 5.40992 -122.83 5.41843C-122.206 5.42694 -122.05 5.44822 -121.27 5.43971C-121.114 5.43971 -120.801 5.43545 -120.958 5.43971C-121.894 5.4014 -123.611 5.40566 -124.859 5.38438C-125.64 5.37161 -126.264 5.34181 -127.357 5.3333C-127.201 5.36735 -127.513 5.40566 -127.357 5.43971C-127.357 5.46099 -128.137 5.47376 -128.917 5.47802C-129.698 5.48227 -129.854 5.46525 -130.01 5.44822C-130.322 5.42268 -130.946 5.4014 -131.102 5.38012C-131.414 5.34607 -132.039 5.32053 -133.443 5.31628C-134.38 5.31202 -134.848 5.29074 -135.16 5.26946C-135.941 5.21412 -137.189 5.17582 -139.686 5.17582C-139.999 5.17582 -140.155 5.1673 -140.623 5.16305C-140.779 5.18007 -140.467 5.20561 -141.403 5.21838C-142.184 5.22689 -142.808 5.22264 -143.432 5.21838C-144.681 5.20561 -145.773 5.22263 -146.866 5.2354C-148.426 5.25669 -149.519 5.24392 -150.143 5.20135C-150.455 5.18007 -150.455 5.1673 -149.519 5.16305C-147.178 5.15453 -148.27 5.12899 -149.207 5.10771C-149.519 5.0992 -149.831 5.08643 -150.299 5.08218C-149.675 5.09494 -148.427 5.11197 -148.583 5.13325C-148.895 5.16305 -150.299 5.16305 -151.392 5.15879C-152.172 5.15453 -153.265 5.15028 -153.421 5.17156C-153.577 5.19284 -152.953 5.22264 -151.86 5.22689C-150.924 5.23115 -150.299 5.2652 -149.051 5.25243C-148.27 5.24392 -148.427 5.27797 -148.739 5.29074C-149.207 5.31628 -149.831 5.35458 -148.895 5.36735C-147.646 5.38438 -147.022 5.34607 -146.554 5.32053C-145.305 5.25669 -142.808 5.2354 -140.935 5.2652C-139.686 5.28222 -139.686 5.31202 -140.623 5.3333C-142.652 5.37586 -145.461 5.39289 -147.178 5.45674C-148.583 5.44822 -149.831 5.44397 -150.768 5.48227C-150.924 5.48653 -151.392 5.48227 -151.548 5.47376C-152.797 5.42694 -154.826 5.43545 -156.386 5.41843C-155.762 5.42694 -155.45 5.43545 -154.669 5.4312C-153.109 5.42694 -152.172 5.4695 -150.924 5.48653C-149.987 5.4993 -149.519 5.51207 -148.739 5.48227C-147.802 5.45248 -146.554 5.46099 -145.461 5.47376C-144.837 5.48227 -144.369 5.48653 -144.056 5.46099C-143.9 5.44397 -143.276 5.43971 -142.652 5.43971C-142.34 5.43971 -141.871 5.44397 -141.715 5.4312C-141.559 5.39289 -140.779 5.38863 -139.686 5.40566C-138.594 5.42268 -137.97 5.44397 -138.438 5.48227C-138.594 5.49079 -138.594 5.4993 -138.594 5.50356C-138.75 5.50781 -138.75 5.51207 -138.906 5.51632C-139.686 5.52484 -140.779 5.52909 -141.247 5.55038C-141.403 5.55463 -141.871 5.55889 -141.559 5.5674C-139.842 5.61848 -142.184 5.60571 -142.652 5.62273C-144.525 5.69509 -147.334 5.63125 -149.519 5.65253C-149.831 5.65678 -150.299 5.64402 -150.612 5.6355C-151.236 5.61848 -151.86 5.60571 -152.797 5.62699C-153.577 5.64827 -153.733 5.66955 -152.797 5.69509C-152.641 5.69935 -152.64 5.7036 -152.484 5.70786C-152.484 5.7334 -152.172 5.75042 -151.548 5.76745C-151.236 5.77596 -150.768 5.78873 -151.08 5.8015C-151.392 5.81853 -152.016 5.81001 -152.328 5.80576C-153.421 5.78873 -154.669 5.79725 -155.918 5.80576C-155.606 5.82704 -154.982 5.83981 -154.513 5.85258C-152.484 5.89514 -152.328 5.92919 -153.889 5.99304C-157.791 6.00581 -161.693 5.99729 -165.438 5.99729C-176.208 5.99729 -186.821 5.99729 -197.59 5.99729C-197.902 5.99729 -198.214 5.99304 -198.682 5.99304C-201.179 6.00155 -203.52 5.98878 -206.174 5.98878C-205.549 5.95473 -204.769 5.93345 -203.833 5.91642C-203.052 5.8994 -202.896 5.88663 -203.833 5.8696C-205.705 5.8313 -205.549 5.81853 -203.833 5.77596C-203.052 5.75468 -202.74 5.72914 -202.74 5.7036C-202.74 5.65678 -201.648 5.63976 -200.399 5.62699C-200.087 5.62273 -199.619 5.62273 -199.15 5.61422C-198.37 5.60145 -197.277 5.58868 -198.838 5.56314C-199.15 5.55889 -199.306 5.54612 -199.619 5.53761C-199.775 5.52909 -200.087 5.52484 -200.555 5.53335C-200.867 5.53761 -200.711 5.54186 -200.711 5.55038C-200.555 5.61422 -202.896 5.66955 -205.081 5.64827C-205.862 5.63976 -206.018 5.65253 -206.33 5.6653C-206.486 5.67807 -206.954 5.7036 -207.422 5.69509C-209.763 5.66104 -211.948 5.72489 -214.133 5.69935C-215.226 5.68658 -216.474 5.68658 -217.723 5.7036C-218.035 5.70786 -218.347 5.70786 -218.66 5.7036C-218.972 5.69935 -218.816 5.6653 -219.44 5.69083C-219.908 5.7036 -219.44 5.71212 -218.972 5.72063C-218.503 5.72914 -217.099 5.74617 -216.474 5.74617C-215.226 5.74617 -215.226 5.77596 -214.758 5.79724C-214.446 5.78448 -213.977 5.76745 -213.353 5.77171C-212.261 5.78022 -211.324 5.78448 -210.7 5.74617C-210.7 5.74191 -205.549 5.76319 -205.549 5.76319C-204.769 5.78448 -205.081 5.81853 -206.486 5.8313C-207.89 5.84406 -208.827 5.85258 -209.451 5.8994C-210.076 5.93771 -212.104 5.94196 -213.821 5.94622C-213.977 5.94622 -214.133 5.94622 -214.289 5.94622C-215.382 5.9377 -216.475 5.94196 -217.567 5.95047C-219.44 5.96324 -218.035 5.90365 -219.44 5.89088C-220.532 5.88237 -221.469 5.85258 -222.874 5.86535C-224.122 5.87386 -224.746 5.84407 -225.371 5.81427C-227.088 5.88237 -229.273 5.8696 -231.458 5.83981C-232.862 5.82278 -233.955 5.83555 -234.423 5.87812C-234.891 5.91642 -236.452 5.94196 -237.857 5.92919C-238.793 5.92494 -238.481 5.90791 -238.325 5.89514C-237.388 5.82278 -237.857 5.8015 -240.51 5.78448C-240.042 5.79299 -239.105 5.78448 -238.949 5.80576C-238.793 5.82704 -239.417 5.83555 -239.886 5.84832C-241.758 5.89088 -244.256 5.89088 -245.816 5.85258C-246.285 5.83981 -246.753 5.82704 -246.597 5.80576C-246.441 5.78448 -245.66 5.79299 -245.192 5.78448C-244.412 5.77171 -243.475 5.78022 -243.007 5.75894C-244.256 5.77171 -245.816 5.76745 -246.753 5.79299C-247.845 5.82278 -248.782 5.84832 -250.342 5.82704C-250.811 5.82278 -250.967 5.82704 -251.279 5.83555C-251.903 5.85683 -252.684 5.8696 -253.464 5.85258C-254.244 5.83555 -255.493 5.81853 -255.181 5.78022C-255.181 5.77171 -255.025 5.76745 -255.337 5.75894C-256.117 5.77171 -255.805 5.81427 -257.054 5.81853C-258.926 5.8313 -260.799 5.84407 -262.672 5.84832C-263.921 5.84832 -264.233 5.81427 -264.389 5.78448C-264.545 5.75042 -265.013 5.7334 -266.418 5.74617C-267.354 5.75468 -268.135 5.74617 -268.603 5.72489C-268.915 5.71212 -269.227 5.7036 -269.539 5.69509C-270.788 5.66104 -272.037 5.62699 -269.696 5.58868C-269.539 5.58868 -269.539 5.58017 -269.696 5.57166C-270.632 5.61848 -272.505 5.61848 -274.066 5.63125C-274.846 5.63976 -275.158 5.61422 -275.314 5.59294C-275.47 5.5674 -275.626 5.54186 -276.407 5.52484C-277.343 5.50356 -277.967 5.48227 -277.187 5.45248C-276.407 5.41843 -275.158 5.4014 -273.597 5.40992C-273.129 5.41417 -272.817 5.42694 -272.349 5.42694C-274.066 5.38863 -276.563 5.39715 -277.499 5.44822C-278.124 5.47802 -278.28 5.50781 -279.684 5.46099C-280.621 5.4312 -281.401 5.46525 -281.869 5.49079C-280.621 5.44397 -280.309 5.44397 -279.216 5.48653C-279.06 5.49504 -278.904 5.4993 -278.592 5.50356C-277.343 5.51207 -276.875 5.53761 -277.187 5.5674C-277.499 5.60145 -278.592 5.5972 -279.528 5.60145C-279.06 5.60996 -278.592 5.60145 -278.124 5.5972C-277.499 5.59294 -276.875 5.58868 -276.407 5.60571C-275.938 5.62273 -276.251 5.63976 -276.719 5.65253C-277.343 5.67381 -277.655 5.69509 -278.904 5.7036C-279.528 5.70786 -279.996 5.73766 -281.089 5.74617C-282.494 5.75468 -282.962 5.74617 -282.806 5.71637C-282.65 5.67807 -283.274 5.67381 -284.366 5.67807C-284.679 5.67807 -285.147 5.67807 -285.459 5.68232C-288.268 5.69509 -288.268 5.69509 -289.985 5.63976C-290.453 5.69509 -292.482 5.65678 -293.419 5.68232C-292.17 5.7036 -292.014 5.72489 -293.887 5.73766C-291.702 5.75042 -290.453 5.78873 -289.205 5.82278C-288.268 5.84832 -288.58 5.87386 -289.673 5.88663C-290.922 5.90365 -292.326 5.8994 -293.575 5.88663C-294.823 5.87386 -293.575 5.83981 -293.887 5.81427C-294.511 5.83981 -295.292 5.85683 -295.135 5.89514C-295.135 5.92494 -296.072 5.92919 -297.008 5.92068C-298.413 5.90791 -299.506 5.88237 -300.442 5.85683C-301.691 5.82278 -299.818 5.81853 -299.506 5.79724C-300.13 5.77596 -300.598 5.78448 -300.91 5.79724C-301.847 5.82704 -302.783 5.83555 -303.095 5.78022C-303.72 5.8015 -303.251 5.81427 -302.939 5.82704C-302.627 5.84832 -302.159 5.86535 -302.939 5.88663C-303.563 5.90365 -304.344 5.90365 -305.124 5.89514C-306.061 5.88663 -306.841 5.87812 -307.777 5.87386C-308.714 5.8696 -309.494 5.86109 -310.275 5.88663C-310.743 5.90365 -311.367 5.89514 -311.835 5.87812C-312.304 5.86109 -312.772 5.85258 -313.396 5.87386C-312.928 5.89514 -311.055 5.90365 -311.991 5.9377C-312.772 5.97176 -313.864 5.9377 -314.957 5.92919C-316.205 5.91642 -317.298 5.90365 -318.234 5.88237C-318.703 5.87386 -319.639 5.87812 -319.327 5.85258C-319.015 5.8313 -318.547 5.81853 -317.766 5.81853C-317.142 5.81853 -316.674 5.81853 -316.049 5.82278C-314.489 5.82704 -314.176 5.81427 -314.801 5.77596C-314.957 5.76745 -315.269 5.75468 -315.113 5.74617C-314.801 5.7334 -314.176 5.7334 -313.864 5.74191C-313.396 5.75042 -313.396 5.74617 -313.24 5.7334C-312.772 5.69509 -311.523 5.68658 -310.431 5.69509C-308.714 5.7036 -306.997 5.71637 -306.373 5.77171C-306.841 5.71637 -309.026 5.7036 -310.119 5.66104C-310.743 5.63976 -311.835 5.65678 -312.616 5.66955C-313.864 5.68658 -315.113 5.69935 -316.674 5.68658C-316.986 5.68232 -317.61 5.67807 -317.766 5.69083C-318.078 5.7036 -317.454 5.70786 -317.142 5.71637C-316.674 5.72489 -315.893 5.7334 -316.205 5.75468C-316.518 5.77596 -317.298 5.77171 -317.922 5.77171C-318.547 5.77171 -319.015 5.76745 -319.483 5.78022C-320.263 5.8015 -321.044 5.79724 -321.98 5.77596C-321.668 5.8015 -321.2 5.81427 -320.732 5.82704C-320.575 5.8313 -320.419 5.83555 -320.419 5.83981C-319.951 5.91217 -320.732 5.93345 -323.541 5.92919C-325.414 5.92919 -327.131 5.94622 -329.003 5.92068C-329.94 5.90791 -330.876 5.89514 -331.501 5.8696C-332.593 5.8313 -333.53 5.8313 -334.466 5.8696C-335.246 5.8994 -336.027 5.91217 -337.275 5.89514C-337.9 5.88663 -338.524 5.89514 -339.148 5.8994C-340.865 5.91642 -341.489 5.90365 -341.489 5.85258C-341.489 5.82704 -341.489 5.82704 -343.674 5.83981C-341.801 5.87386 -341.801 5.88663 -343.986 5.91642C-345.703 5.94196 -347.42 5.92494 -349.137 5.92494C-349.605 5.92494 -349.917 5.91217 -349.761 5.8994C-349.449 5.85258 -350.542 5.82278 -351.478 5.78873C-351.79 5.78022 -352.102 5.77171 -352.102 5.75894C-351.946 5.70786 -352.258 5.65678 -352.102 5.60571C-352.414 5.6355 -353.195 5.6355 -354.131 5.63976C-355.224 5.64402 -356.004 5.65678 -355.848 5.69083C-355.692 5.72063 -356.628 5.73766 -356.785 5.77171C-355.848 5.75042 -355.536 5.72489 -354.912 5.70786C-354.443 5.69935 -354.131 5.68658 -353.507 5.69083C-353.039 5.69509 -352.727 5.70786 -352.727 5.72489C-352.727 5.76319 -352.571 5.79299 -351.322 5.81853C-350.542 5.83555 -350.542 5.87812 -351.166 5.90365C-351.634 5.93345 -352.727 5.92068 -353.507 5.92068C-357.253 5.92494 -361.155 5.92494 -364.9 5.91642C-366.929 5.91217 -367.241 5.90365 -366.149 5.85683C-365.525 5.8313 -365.837 5.81853 -366.461 5.79724C-367.866 5.73766 -369.426 5.69083 -372.392 5.69083C-373.016 5.69083 -373.172 5.66104 -373.953 5.65253C-374.577 5.66955 -375.201 5.68658 -375.357 5.70786C-375.669 5.72914 -375.513 5.75042 -374.733 5.76319C-373.953 5.78022 -373.328 5.76745 -372.704 5.75042C-372.392 5.74191 -372.236 5.7334 -371.924 5.72489C-371.612 5.71637 -371.299 5.71212 -370.831 5.71212C-369.895 5.72063 -368.646 5.80576 -369.114 5.82704C-370.675 5.89514 -372.704 5.92068 -375.513 5.90791C-375.982 5.90791 -376.45 5.90365 -376.606 5.89514C-376.918 5.87812 -376.918 5.88663 -377.23 5.89514C-377.854 5.91217 -378.635 5.91217 -379.415 5.90791C-384.41 5.8994 -389.404 5.90365 -394.398 5.90365C-396.271 5.90365 -398.456 5.92068 -400.173 5.87812C-400.329 5.87386 -400.329 5.88663 -400.485 5.89088C-401.265 5.91217 -402.67 5.91217 -403.138 5.89514C-404.387 5.83981 -406.104 5.86535 -407.821 5.86535C-407.196 5.88663 -406.884 5.90365 -408.289 5.91217C-409.693 5.92494 -411.098 5.91642 -412.503 5.91642C-413.283 5.91642 -413.283 5.8994 -413.439 5.88237C-413.751 5.85683 -414.22 5.83555 -414.844 5.81853C-415.468 5.8313 -415 5.84406 -414.844 5.85258C-414.532 5.87386 -414.22 5.89514 -415 5.91642C-415.312 5.92494 -415.936 5.92494 -416.405 5.92068C-417.497 5.91217 -417.029 5.88663 -417.029 5.86535C-417.029 5.86109 -417.029 5.85258 -417.185 5.84832C-417.185 5.82704 -417.653 5.81001 -417.965 5.79299C-417.497 5.75468 -418.277 5.7036 -416.405 5.67807C-415.312 5.68658 -415.78 5.71212 -415.468 5.72914C-415.156 5.71637 -415.312 5.69935 -415 5.69083C-413.283 5.64827 -413.127 5.5972 -413.907 5.54186C-414.376 5.50781 -412.659 5.50356 -412.503 5.4695C-414.532 5.47802 -414.844 5.43971 -415 5.4014C-415.156 5.37586 -415.624 5.37161 -416.405 5.36735C-418.902 5.34607 -417.185 5.30776 -416.873 5.27797C-416.561 5.2652 -415.624 5.26945 -415.624 5.24392C-416.248 5.24817 -416.092 5.26946 -416.717 5.27371C-417.341 5.27797 -417.809 5.26946 -418.434 5.26946C-419.682 5.26094 -419.682 5.24392 -418.746 5.22264C-418.121 5.20987 -417.809 5.20135 -417.653 5.18007C-417.497 5.13751 -416.248 5.12048 -414.844 5.14176C-414.063 5.15453 -413.751 5.14602 -412.971 5.13325C-415 5.11623 -416.092 5.07366 -417.185 5.03536C-417.809 5.01407 -418.277 4.99279 -416.717 4.98002C-415.312 4.97151 -414.22 4.94172 -412.815 4.92895C-413.907 4.92895 -415 4.92895 -415.624 4.95874C-415.936 4.97577 -416.561 4.98428 -417.341 4.97577C-418.121 4.963 -419.058 4.95023 -419.058 4.92469C-419.058 4.8949 -419.214 4.8651 -418.902 4.84807C-419.058 4.86936 -419.838 4.87787 -420.931 4.8651C-421.087 4.8651 -421.243 4.8651 -421.399 4.86084C-422.179 4.84807 -423.428 4.88213 -423.584 4.84382C-423.74 4.80977 -422.804 4.79274 -421.711 4.77997C-421.555 4.77997 -421.399 4.77146 -421.399 4.77146C-421.711 4.77997 -422.335 4.77997 -422.804 4.78849C-423.428 4.79274 -424.208 4.797 -424.52 4.77997C-424.833 4.76295 -424.052 4.75443 -423.74 4.74592C-423.272 4.73741 -422.96 4.7289 -423.116 4.71187C-423.272 4.6991 -423.74 4.69485 -424.208 4.69485C-425.145 4.69485 -425.769 4.69485 -426.237 4.66505C-426.549 4.64377 -427.486 4.66505 -428.11 4.65654C-428.266 4.65228 -428.422 4.65228 -428.578 4.64377C-429.983 4.55013 -429.359 4.47352 -426.549 4.41393C-425.769 4.4267 -426.081 4.45223 -425.145 4.46926C-425.925 4.45223 -425.925 4.4267 -426.549 4.41393C-426.705 4.40116 -426.705 4.38839 -426.549 4.37987C-424.989 4.33731 -425.613 4.28623 -425.613 4.23941C-425.613 4.22665 -425.613 4.21813 -425.925 4.20962C-426.861 4.18408 -427.018 4.15429 -426.705 4.12024C-426.393 4.08193 -427.33 4.04362 -427.798 4.01383C-428.734 3.95849 -428.578 3.89465 -429.671 3.83932C-428.734 3.80952 -428.266 3.76696 -427.018 3.74142C-428.11 3.69886 -428.578 3.64352 -429.203 3.59245C-429.671 3.5584 -428.89 3.54988 -427.798 3.56691C-427.174 3.57968 -426.393 3.58819 -425.457 3.57116C-427.174 3.57968 -429.983 3.52434 -430.451 3.48604C-430.919 3.44347 -430.295 3.40942 -428.578 3.37963C-427.174 3.35409 -427.174 3.3243 -428.734 3.26896C-428.89 3.2945 -428.89 3.32004 -429.983 3.32004C-431.075 3.32004 -432.48 3.3243 -433.417 3.29876C-433.729 3.29024 -433.885 3.26896 -434.353 3.26896C-436.226 3.26045 -437.474 3.25194 -435.602 3.1966C-435.446 3.19235 -435.602 3.17958 -435.914 3.17958C-437.318 3.17107 -437.318 3.11148 -439.035 3.10722C-439.347 3.10722 -439.659 3.09871 -439.503 3.0902C-438.879 3.02209 -441.688 2.97527 -441.22 2.90292C-442.469 2.94122 -443.405 2.95399 -444.654 2.91143C-445.902 2.86886 -446.059 2.87312 -444.186 2.84758C-443.717 2.84333 -443.561 2.83481 -443.561 2.82204C-443.717 2.80502 -444.342 2.79225 -444.81 2.79225C-448.087 2.81779 -448.556 2.73266 -449.336 2.6901C-450.116 2.64753 -451.053 2.62199 -452.458 2.60071C-452.77 2.59646 -453.394 2.5922 -453.238 2.58794C-452.614 2.53687 -454.486 2.51133 -454.799 2.47302C-454.486 2.51559 -453.394 2.55389 -453.394 2.60071C-453.082 2.62625 -452.77 2.64753 -451.521 2.64753C-450.741 2.64753 -450.272 2.6603 -450.429 2.67733C-450.741 2.71989 -449.492 2.77097 -451.677 2.79651C-451.833 2.79651 -451.677 2.80928 -451.521 2.82204C-450.429 2.79651 -450.116 2.73266 -448.087 2.77522C-446.839 2.80076 -446.683 2.85184 -447.931 2.89015C-444.966 2.86461 -444.81 2.94122 -443.249 2.96676C-441.22 3.00081 -441.532 3.05614 -442.313 3.11148C-442.937 3.12425 -443.717 3.13276 -444.498 3.13702C-444.654 3.13702 -444.654 3.13276 -444.81 3.13276C-445.122 3.1285 -444.966 3.11573 -445.278 3.11573C-445.278 3.12425 -445.278 3.1285 -445.434 3.13702C-445.59 3.14127 -445.746 3.14127 -446.059 3.14127C-446.995 3.13276 -447.307 3.11148 -447.619 3.0902C-448.556 3.03912 -449.336 2.98804 -451.053 2.95399C-452.614 2.90292 -454.643 2.86461 -456.359 2.82204C-458.544 2.77097 -460.417 2.71564 -462.134 2.65179C-462.446 2.64328 -462.758 2.63051 -463.071 2.622C-464.943 2.55389 -466.504 2.47728 -467.597 2.40066C-468.845 2.31128 -471.498 2.24318 -472.747 2.15805C-473.059 2.13677 -473.84 2.11549 -473.371 2.08995C-473.059 2.07292 -473.683 2.07718 -473.84 2.07292C-475.869 2.02185 -476.805 1.95375 -476.649 1.88139C-475.088 1.86862 -473.84 1.85159 -473.215 1.80052C-472.747 1.75795 -470.094 1.76221 -469.001 1.79626C-468.533 1.81329 -468.689 1.82605 -469.157 1.83457C-469.626 1.84734 -470.25 1.85585 -470.718 1.87287C-471.03 1.88564 -471.811 1.89841 -471.342 1.91969C-470.874 1.93672 -470.562 1.96226 -469.47 1.958C-468.533 1.95375 -467.753 1.96226 -466.972 1.96651C-467.909 1.958 -468.221 1.94523 -467.909 1.92395C-467.597 1.89841 -466.816 1.91118 -466.348 1.91544C-465.724 1.91969 -465.256 1.93672 -464.475 1.93246C-465.88 1.91544 -467.597 1.91544 -467.909 1.85159C-468.065 1.82605 -468.689 1.80052 -469.47 1.76647C-467.597 1.77072 -466.192 1.78775 -464.631 1.81754C-464.943 1.792 -465.568 1.78775 -466.036 1.77923C-466.66 1.77498 -467.285 1.76221 -467.128 1.74944C-466.036 1.68985 -467.597 1.72816 -468.065 1.72816C-468.689 1.72816 -469.001 1.71539 -469.313 1.70262C-470.562 1.66006 -469.938 1.61324 -470.094 1.56642C-470.25 1.54513 -469.157 1.53662 -468.533 1.52385C-467.597 1.50683 -467.128 1.4898 -468.221 1.46426C-469.47 1.43021 -469.001 1.40042 -467.909 1.37488C-466.972 1.3536 -466.816 1.33232 -467.753 1.30252C-469.001 1.26421 -468.377 1.22165 -466.348 1.21739C-464.943 1.21739 -465.256 1.18334 -464.631 1.17057C-464.319 1.16206 -465.099 1.15355 -465.412 1.15781C-467.284 1.17483 -467.909 1.14504 -468.221 1.10247C-468.221 1.03863 -468.065 0.974782 -468.377 0.910936C-468.533 0.893911 -468.533 0.881142 -468.845 0.868372C-469.157 0.851347 -469.47 0.830065 -469.157 0.81304C-468.377 0.76622 -469.47 0.727912 -469.313 0.685349C-469.157 0.621503 -470.25 0.570427 -471.03 0.515094C-471.498 0.489556 -471.498 0.455505 -470.718 0.429967C-470.094 0.412941 -470.562 0.395916 -471.03 0.37889C-471.967 0.349096 -472.435 0.310789 -473.215 0.276738C-473.84 0.242687 -474.152 0.208636 -472.747 0.183098C-472.123 0.170328 -471.811 0.149047 -472.747 0.149047C-474.308 0.149047 -475.088 0.127765 -475.869 0.0979702C-476.181 0.0852011 -476.805 0.0852011 -477.273 0.0766884C-477.585 0.072432 -477.741 0.0639193 -477.897 0.0554065C-478.054 0.0426374 -478.054 0.025612 -477.741 0.0128429C-477.585 0.00858651 -477.429 0.00433014 -477.273 0.00433014C-476.649 0.00433014 -475.869 0.0298683 -475.4 7.37756e-05C-473.996 0.0128429 -472.591 7.37756e-05 -471.03 7.37756e-05C-469.001 7.37756e-05 -467.909 0.025612 -467.597 0.0894575C-466.972 0.072432 -467.441 0.0596629 -467.597 0.0468938C-468.377 7.37682e-05 -468.377 7.37715e-05 -466.504 0.00433014C-463.539 0.0085865 -460.417 0.0128429 -457.452 0.0128429C-454.799 0.0128429 -451.989 0.0128429 -449.336 0.0128429C-448.244 0.0128429 -448.244 0.0298683 -447.931 0.0468938C-447.931 0.0511502 -448.244 0.0681756 -447.619 0.0639193C-447.463 0.0639193 -447.151 0.0596629 -446.995 0.0554065C-446.839 0.0383811 -447.307 0.0511502 -447.463 0.0426374C-447.931 0.025612 -447.931 0.00858651 -447.151 0.0128429C-444.654 0.0170992 -442.001 7.37719e-05 -439.503 0.0383811C-439.347 0.0426374 -438.879 0.0426374 -438.879 0.0468938C-438.879 0.114996 -435.914 0.102227 -435.446 0.14479C-436.07 0.127765 -437.162 0.110739 -436.538 0.0681756C-436.07 0.0383811 -434.977 0.0213556 -434.197 0.0298683C-430.763 0.0681756 -427.33 0.025612 -423.896 0.025612C-422.804 0.025612 -421.867 0.0383811 -421.087 0.0596629C-419.994 0.0979702 -419.682 0.102227 -418.902 0.0639193C-418.277 0.0341247 -417.497 0.0341247 -416.561 0.0341247C-413.595 0.0341247 -410.474 0.0383811 -407.508 0.0426374C-406.728 0.0426374 -406.26 0.0554065 -405.792 0.072432C-405.479 0.0852011 -405.323 0.106483 -404.543 0.110739C-404.075 0.0979702 -404.543 0.0894575 -404.855 0.0852011C-405.479 0.0596629 -405.011 0.0468938 -404.075 0.0511502C-401.422 0.0596629 -398.612 0.0596629 -395.959 0.0554065C-394.71 0.0511502 -393.93 0.072432 -394.086 0.106483C-393.306 0.102227 -392.837 0.0894575 -392.369 0.0809447C-391.433 0.0681756 -390.496 0.0639193 -390.34 0.102227C-390.184 0.140534 -389.404 0.140534 -388.467 0.123508C-387.687 0.110739 -386.907 0.106483 -385.97 0.110739C-385.346 0.114996 -384.878 0.114996 -384.253 0.106483C-379.727 0.0554065 -375.045 0.0639193 -370.363 0.0596629C-367.866 0.0596629 -365.525 0.0596629 -363.027 0.0639193C-361.155 0.0681756 -361.155 0.0852011 -361.779 0.123508C-357.721 0.0809447 -353.663 0.0639193 -349.293 0.072432C-348.669 0.072432 -347.888 0.0681756 -347.576 0.0937138C-347.42 0.114996 -346.952 0.102227 -346.484 0.102227C-345.079 0.102227 -343.518 0.072432 -342.114 0.106483C-341.801 0.114996 -341.801 0.106483 -341.801 0.102227C-341.489 0.0639193 -340.553 0.072432 -339.616 0.0766884C-337.744 0.0937138 -335.871 0.0681756 -333.998 0.072432C-332.749 0.0766884 -331.969 0.0852011 -331.813 0.119252C-331.657 0.157559 -330.876 0.166072 -329.784 0.14479C-329.316 0.136277 -329.003 0.136277 -328.691 0.14479C-327.131 0.174585 -325.258 0.161816 -323.697 0.183098C-323.229 0.161816 -324.009 0.153303 -324.009 0.140534C-324.009 0.123508 -323.697 0.114996 -323.229 0.106483C-322.761 0.0979702 -322.292 0.102227 -321.98 0.114996C-320.575 0.166072 -318.547 0.149047 -316.986 0.136277C-315.269 0.123508 -314.02 0.136277 -313.084 0.161816C-312.304 0.183098 -311.367 0.212892 -310.743 0.234174C-310.743 0.221405 -311.211 0.217148 -311.523 0.208636C-312.616 0.178841 -312.616 0.161816 -311.211 0.136277C-310.431 0.123508 -309.806 0.110739 -309.182 0.0979702C-308.09 0.072432 -306.997 0.0809447 -305.749 0.0937138C-305.28 0.0979702 -304.812 0.106483 -304.812 0.123508C-304.812 0.14479 -305.592 0.140534 -306.061 0.14479C-304.656 0.161816 -303.72 0.157559 -303.095 0.119252C-302.783 0.0979702 -302.159 0.0766884 -301.222 0.0809447C-298.569 0.0937138 -295.916 0.0766884 -293.263 0.0894575C-294.667 0.166072 -294.823 0.166072 -298.257 0.149047C-297.633 0.166072 -297.477 0.183097 -296.852 0.187354C-295.916 0.19161 -296.072 0.217148 -295.448 0.225661C-294.667 0.212892 -294.667 0.19161 -294.667 0.170328C-294.667 0.140534 -293.887 0.114996 -292.95 0.127765C-291.39 0.153303 -291.078 0.127765 -290.609 0.102227C-290.297 0.0894575 -289.985 0.0766884 -289.205 0.0852011C-287.02 0.102227 -284.679 0.0979702 -282.494 0.0937138C-280.309 0.0937138 -278.436 0.106483 -276.251 0.110739C-275.002 0.114996 -273.285 0.187354 -273.753 0.212892C-274.222 0.242687 -274.846 0.255456 -276.251 0.23843C-274.846 0.263968 -273.441 0.280994 -272.193 0.306532C-273.597 0.28525 -273.91 0.246943 -273.441 0.208636C-273.285 0.183098 -270.632 0.161816 -269.539 0.166072C-269.227 0.170328 -268.759 0.174585 -268.915 0.183098C-269.227 0.255456 -266.418 0.268225 -265.638 0.319301C-265.169 0.28525 -264.077 0.259712 -264.233 0.217148C-264.389 0.178841 -261.58 0.166072 -260.019 0.19161C-259.707 0.195867 -259.551 0.212892 -259.083 0.212892C-258.146 0.217148 -256.898 0.229918 -257.366 0.178841C-257.522 0.170328 -257.366 0.161816 -257.366 0.149047C-257.366 0.0809447 -257.366 0.0894575 -255.025 0.0852011C-252.996 0.0809447 -251.279 0.110739 -249.25 0.114996C-247.845 0.119252 -248.938 0.149047 -248.782 0.170328C-247.845 0.161816 -247.533 0.136277 -246.909 0.119252C-245.348 0.072432 -243.163 0.072432 -242.227 0.114996C-242.227 0.119252 -242.227 0.123508 -242.383 0.127765C-242.851 0.170328 -241.914 0.187354 -240.822 0.200123C-240.51 0.195867 -240.51 0.19161 -240.51 0.187354C-240.978 0.106483 -240.666 0.0979702 -237.076 0.0979702C-233.955 0.0979702 -230.833 0.123508 -227.712 0.102227C-227.556 0.102227 -227.4 0.102227 -227.244 0.102227C-226.307 0.157559 -223.81 0.132021 -222.405 0.161816C-222.093 0.166072 -221.937 0.174585 -221.781 0.183098C-221.469 0.195867 -221.157 0.212892 -221.469 0.225661C-222.093 0.246943 -221.001 0.234174 -221.001 0.242687C-220.845 0.276738 -219.596 0.289507 -219.44 0.323558C-221.157 0.353352 -220.532 0.400172 -220.845 0.442736C-221.313 0.498069 -219.44 0.536376 -220.064 0.57894C-220.064 0.549145 -218.66 0.544889 -217.879 0.523607C-220.845 0.493812 -221.313 0.455505 -219.596 0.391659C-218.972 0.370378 -219.596 0.349096 -219.44 0.323558C-219.596 0.259712 -220.22 0.195867 -219.752 0.127765C-219.596 0.102227 -219.284 0.102227 -218.191 0.102227C-216.162 0.102227 -214.133 0.110739 -212.104 0.0979702C-206.174 0.0979702 -200.087 0.0979702 -194.156 0.0979702C-157.947 0.102227 -121.894 0.110739 -85.685 0.119252C-81.9392 0.119252 -78.0374 0.123508 -74.4477 0.157559C-72.4187 0.174585 -70.2337 0.174585 -68.2048 0.166072C-58.2161 0.127765 -47.9887 0 -38 0C-24.5042 0 -12.0919 0.00851272 0.706177 0.0127691C2.11084 0.0170255 2.80862 0.195867 4.36935 0.166072C5.30579 0.166072 5.93008 0.183098 6.71045 0.195867C7.64688 0.225661 8.42725 0.19161 8.73938 0.183098C10.6123 0.14479 10.9245 0.149047 12.017 0.204379C12.3291 0.221405 12.6412 0.242687 13.4216 0.242687C16.6991 0.246943 18.572 0.319301 21.2253 0.353352C22.3178 0.37889 21.2253 0.412941 22.0056 0.442736Z" fill="white"/>
<path d="M-64.9583 3.75954C-64.1773 3.75539 -63.2402 3.77199 -62.4593 3.75124C-62.3031 3.7305 -61.8346 3.71805 -61.0536 3.71805C-60.5851 3.71805 -60.2727 3.72635 -60.2727 3.7388C-60.1165 3.75954 -60.5851 3.77199 -61.2098 3.78028C-63.5526 3.80932 -63.7087 3.86741 -64.4897 3.92134C-64.6459 3.94208 -65.1144 3.97113 -64.3335 3.98772C-63.865 3.99602 -62.4593 4.00017 -62.4593 3.99602C-61.8346 3.96698 -60.7413 3.95453 -60.1165 3.93379C-58.867 3.884 -58.867 3.87985 -57.7738 3.92549C-57.6176 3.92964 -57.3052 3.93379 -56.9928 3.93379C-56.6805 3.90475 -55.7433 3.86326 -56.0557 3.85496C-57.6176 3.82177 -56.6805 3.80518 -55.5872 3.79273C-55.2748 3.78858 -55.1186 3.78028 -54.6501 3.77199C-55.1186 3.75954 -56.2119 3.78028 -56.3681 3.75539C-56.5243 3.73465 -55.5872 3.7388 -55.1186 3.7305C-53.8691 3.7139 -53.8691 3.68901 -53.8691 3.65582C-52.4635 3.68901 -52.9321 3.73465 -53.4006 3.76784C-54.3377 3.82592 -53.2444 3.884 -53.7129 3.93794C-53.7129 3.94208 -53.5568 3.94623 -53.4006 3.95038C-52.1511 3.97527 -52.1511 3.98357 -53.5567 4.00846C-54.0253 4.01676 -54.4939 4.02506 -54.9624 4.03336C-55.431 4.04995 -55.431 4.08314 -54.9624 4.08314C-53.713 4.07899 -52.4635 4.11218 -51.3702 4.07899C-51.0578 4.0707 -50.5893 4.05825 -50.1207 4.06655C-49.496 4.07484 -50.1207 4.08729 -50.1207 4.09974C-50.1207 4.11218 -49.9645 4.12048 -49.8083 4.13293C-48.8712 4.19101 -49.0274 4.2325 -51.0578 4.26984C-52.3073 4.29473 -52.1511 4.31132 -51.214 4.33207C-50.4331 4.32792 -50.4331 4.29058 -50.4331 4.29473C-49.3398 4.32792 -48.0903 4.29888 -46.997 4.30717C-46.5285 4.31132 -43.7171 4.31547 -43.4047 4.30717C-42.3115 4.27813 -42.1553 4.31547 -41.6868 4.32377C-40.5935 4.34451 -41.8429 4.34451 -42.1553 4.35696C-42.4677 4.36941 -43.0924 4.3777 -43.0924 4.4026C-41.6867 4.38185 -39.9687 4.386 -39.8125 4.41919C-39.5002 4.45238 -41.6867 4.42749 -42.3115 4.44823C-41.6867 4.51046 -39.344 4.51046 -37.3136 4.5395C-39.1878 4.47312 -37.4698 4.44823 -35.9079 4.42334C-34.3461 4.39845 -33.8775 4.40674 -33.8775 4.45653C-33.8775 4.49802 -33.5652 4.52291 -35.4394 4.48972C-35.7517 4.48557 -36.0641 4.48142 -36.3764 4.48972C-36.6888 4.49802 -36.5326 4.50217 -36.3764 4.51046C-35.5955 4.53536 -36.2203 4.55195 -36.6888 4.56855C-37.0012 4.58514 -37.4698 4.59759 -37.6259 4.61833C-37.7821 4.63078 -37.1574 4.65152 -38.0945 4.65152C-38.8754 4.65152 -39.5002 4.64322 -39.8125 4.62248C-41.2182 4.53121 -42.1553 4.50631 -45.5914 4.46898C-45.279 4.45238 -43.7171 4.45238 -44.3419 4.42749C-45.4352 4.386 -46.997 4.40674 -48.5589 4.41089C-48.5589 4.41919 -48.5589 4.42334 -48.5589 4.42334C-48.0903 4.44408 -46.3723 4.45238 -46.997 4.48142C-47.7779 4.51461 -49.496 4.53121 -50.9016 4.51876C-51.9949 4.51046 -53.0882 4.51461 -54.1815 4.51461C-54.9624 4.51461 -55.1186 4.53121 -55.1186 4.54365C-55.1186 4.5561 -54.9624 4.56854 -54.3377 4.57684C-53.7129 4.58099 -53.2444 4.57269 -53.0882 4.56025C-52.7758 4.51876 -52.1511 4.52291 -51.0578 4.54365C-50.2769 4.5561 -49.496 4.53536 -48.7151 4.53121C-48.0903 4.52706 -47.6218 4.52706 -47.1532 4.5395C-46.5285 4.5561 -47.1532 4.5644 -47.6218 4.57684C-47.9341 4.58514 -48.0903 4.58929 -47.7779 4.60173C-47.4656 4.61003 -47.1532 4.61003 -46.8408 4.60588C-46.2161 4.59344 -45.4352 4.5644 -44.8104 4.59344C-44.1857 4.62248 -45.4352 4.63078 -46.0599 4.64737C-46.3723 4.65567 -46.8409 4.66397 -47.1532 4.67641C-46.2161 4.67226 -45.279 4.7179 -44.3419 4.67226C-44.0295 4.65982 -43.561 4.66812 -43.2486 4.67641C-42.6239 4.69301 -41.9991 4.70545 -41.2182 4.7096C-39.8125 4.7179 -41.2182 4.74279 -40.9058 4.76354C-40.2811 4.75109 -39.0316 4.76768 -39.1878 4.72205C-39.344 4.7013 -38.4069 4.69716 -37.7821 4.7013C-37.1574 4.70545 -36.6888 4.71375 -37.1574 4.73449C-37.4697 4.74279 -37.6259 4.75109 -37.1574 4.75524C-36.845 4.75939 -36.3765 4.75939 -36.2203 4.75109C-35.4394 4.7096 -34.5023 4.73449 -33.8775 4.75109C-32.9404 4.77598 -32.0033 4.78428 -30.91 4.76354C-29.5043 4.73864 -31.2224 4.72205 -31.0662 4.7013C-31.0662 4.69716 -31.0662 4.68886 -31.0662 4.68056C-30.1291 4.68056 -30.1291 4.71375 -29.192 4.71375C-28.8796 4.69716 -29.9729 4.67226 -29.0358 4.65982C-28.2549 4.65152 -27.9425 4.68886 -27.0054 4.68471C-26.8492 4.69301 -27.0054 4.70545 -26.693 4.7179C-26.3807 4.7013 -27.0054 4.69301 -27.0054 4.68471C-27.1615 4.67226 -27.6301 4.65982 -27.1616 4.65567C-25.4435 4.63907 -27.0054 4.63078 -27.3177 4.61833C-27.1616 4.60173 -26.5368 4.60588 -26.0683 4.60173C-25.5997 4.59759 -25.1311 4.59344 -24.6626 4.59344C-24.8188 4.63493 -26.2245 4.67641 -24.1941 4.70545C-23.5693 4.71375 -24.3503 4.73035 -24.3503 4.74694C-24.5064 4.75939 -24.6626 4.77183 -24.8188 4.78428C-23.8817 4.77598 -24.8188 4.75524 -24.3503 4.74694C-22.7884 4.74694 -21.3828 4.73035 -19.8209 4.75939C-18.5714 4.78013 -17.4781 4.72205 -15.9163 4.74694C-16.3849 4.73035 -17.0096 4.71375 -17.4781 4.69716C-17.7905 4.68471 -18.4153 4.67641 -18.2591 4.65567C-18.2591 4.65152 -17.7905 4.64737 -17.4781 4.64737C-16.6972 4.64737 -16.541 4.66397 -16.3848 4.67641C-16.0725 4.69301 -15.7601 4.7096 -14.9792 4.7179C-14.5106 4.7262 -14.0421 4.72205 -13.5735 4.71375C-13.105 4.70545 -13.4173 4.69716 -13.5735 4.68471C-14.0421 4.63907 -13.4173 4.62663 -11.8555 4.63493C-10.9184 4.63907 -9.98126 4.63907 -8.57561 4.64322C-9.6689 4.58929 -10.606 4.55195 -12.7926 4.53536C-14.1983 4.52291 -14.5106 4.48142 -15.6039 4.46068C-15.9163 4.45653 -15.4477 4.44823 -15.1354 4.44408C-14.5106 4.43579 -13.7297 4.44408 -12.9487 4.43993C-13.5735 4.41089 -15.1353 4.40259 -14.6668 4.35696C-13.4173 4.39845 -12.1679 4.43579 -10.2936 4.3943C-9.51271 4.41919 -8.41942 4.386 -7.79468 4.40674C-7.63849 4.42749 -8.26323 4.42749 -8.57561 4.43164C-9.20033 4.44408 -9.8251 4.45238 -8.88799 4.47312C-8.73181 4.47727 -8.57559 4.48142 -8.4194 4.48557C-8.26323 4.50217 -9.6689 4.51461 -8.7318 4.53536C-8.26324 4.5478 -7.63849 4.51461 -7.01375 4.53121C-6.07664 4.55195 -5.92046 4.52706 -5.4519 4.51461C-5.13954 4.50631 -4.82715 4.50631 -4.3586 4.51046C-3.2653 4.52291 -3.2653 4.51876 -2.01582 4.48972C-2.17201 4.48557 -2.48442 4.48142 -2.64061 4.48557C-3.42152 4.49387 -4.04623 4.48557 -4.3586 4.46898C-4.51479 4.46068 -4.35864 4.45653 -4.20245 4.44823C-3.7339 4.43579 -3.42152 4.41504 -2.48441 4.43993C-2.01585 4.45238 -1.85966 4.43579 -1.54729 4.42749C-0.610184 4.39845 -1.23491 4.34866 0.326935 4.32792C0.951675 4.31962 0.0145416 4.31132 -0.141647 4.30717C-0.610199 4.29058 -1.23491 4.29473 -1.3911 4.31132C-1.70346 4.33622 -2.01585 4.35281 -3.26534 4.34036C-3.5777 4.33622 -3.89006 4.34036 -3.89006 4.36111C-3.89006 4.4026 -5.60811 4.3943 -6.38902 4.41504C-6.54521 4.41919 -7.01375 4.4026 -7.01375 4.39015C-7.01375 4.36941 -6.85754 4.34866 -5.92044 4.33622C-3.42149 4.30303 -3.10915 4.27813 -1.54729 4.24079C-0.297821 4.25324 -0.766373 4.2325 -0.922562 4.2076C-1.23494 4.12878 -1.23494 4.12878 -4.04625 4.14952C-4.20244 4.15782 -4.04625 4.15782 -3.89006 4.16197C-2.48441 4.2242 -2.01585 4.23665 -1.54729 4.23665C-4.67099 4.22005 -5.60811 4.23665 -6.54523 4.22005C-7.16995 4.2076 -7.32613 4.2242 -7.79468 4.2325C-9.04416 4.25739 -10.2936 4.28643 -11.0746 4.22005C-11.5431 4.18686 -12.7926 4.18686 -13.8859 4.17856C-16.2286 4.16197 -18.5714 4.14537 -18.1029 4.05825C-18.1029 4.04995 -18.7276 4.04165 -19.04 4.02921C-19.6647 4.01261 -19.8209 3.98772 -19.8209 3.96698C-19.8209 3.94623 -18.4152 3.94208 -18.8838 3.91304C-18.8838 3.90889 -18.2591 3.91304 -18.1029 3.92134C-17.1658 3.95453 -16.0724 3.97113 -14.5106 3.96698C-13.7297 3.96698 -13.4173 3.98357 -13.8859 3.99187C-14.823 4.00846 -14.5106 4.07899 -16.6972 4.03751C-16.541 4.11633 -13.2611 4.09974 -12.4802 4.15782C-11.5431 4.14122 -11.0745 4.10803 -9.82506 4.09559C-9.5127 4.09144 -9.51273 4.08314 -9.66891 4.07484C-10.606 4.02921 -9.04414 4.00017 -8.4194 3.96698C-8.10704 3.95038 -7.6385 3.96698 -7.16995 3.97527C-5.76428 4.00017 -4.35861 4.01261 -3.73387 3.95453C-3.26532 3.92134 -2.17203 3.93794 -1.3911 3.92964C-0.766357 3.92134 -0.766357 3.95038 -0.610168 3.96283C-0.141617 3.98772 -0.766373 4.04165 1.5764 4.01676C1.73259 4.01676 2.04494 4.02091 2.04494 4.02506C2.20113 4.04165 2.20114 4.0707 3.13824 4.0624C4.38773 4.0541 5.94955 4.06655 6.73047 4.02506C4.70007 4.01261 4.54388 4.00017 5.94955 3.94208C5.01244 3.93794 4.85626 3.95868 4.5439 3.97113C4.23152 3.98772 3.76297 4.00846 2.98206 3.99602C1.88876 3.97527 3.45064 3.97942 3.45064 3.97113C3.45064 3.95868 3.29442 3.95453 2.82585 3.95038C2.51349 3.95038 2.04494 3.94623 2.04494 3.94623C1.88875 3.8923 0.951645 3.87156 -1.07875 3.87985C-3.26535 3.88815 -4.67099 3.84251 -6.23283 3.80103C-6.38902 3.83837 -5.4519 3.87156 -6.85756 3.8923C-7.01375 3.8923 -7.16995 3.8923 -7.16995 3.88815C-7.95087 3.82177 -8.57561 3.81347 -10.9184 3.85496C-12.324 3.87985 -12.6364 3.85081 -12.9487 3.83422C-13.4173 3.80518 -12.1679 3.82177 -11.8555 3.80932C-10.2936 3.77199 -8.4194 3.80518 -6.70137 3.78858C-5.60808 3.78028 -4.51482 3.76369 -4.98337 3.7388C-5.45193 3.7139 -6.54518 3.69316 -7.48228 3.67656C-7.95084 3.66827 -8.26323 3.69316 -8.4194 3.70146C-8.88795 3.7305 -9.04414 3.75954 -10.7622 3.7305C-11.3869 3.7222 -12.4802 3.7305 -13.4173 3.7305C-14.0421 3.70975 -12.7926 3.70146 -12.9487 3.67656C-13.5735 3.68071 -14.0421 3.69316 -14.3544 3.70975C-14.6668 3.72635 -14.823 3.74709 -15.7601 3.71805C-16.2287 3.70146 -16.541 3.7222 -16.6972 3.7305C-17.1658 3.75124 -17.7905 3.75954 -18.5714 3.75539C-19.1962 3.75124 -19.6647 3.7388 -19.5085 3.7222C-19.3523 3.70146 -18.8838 3.68071 -18.5714 3.65582C-18.5714 3.65582 -18.1029 3.65582 -17.9467 3.65582C-16.6972 3.70146 -15.6039 3.66827 -14.3544 3.65167C-13.7297 3.64337 -13.1049 3.63508 -12.324 3.63508C-9.98125 3.64337 -9.04413 3.60189 -8.26321 3.5521C-8.88795 3.53551 -10.7622 3.56455 -10.2936 3.51891C-9.6689 3.46083 -7.95084 3.51061 -6.70137 3.50232C-5.76425 3.49817 -5.4519 3.52721 -6.23283 3.5521C-6.38902 3.55625 -6.38902 3.5604 -6.38902 3.5687C-6.38902 3.58944 -7.48232 3.61433 -6.38902 3.63508C-5.76428 3.64752 -5.13954 3.64337 -4.67099 3.62678C-4.20244 3.60604 -2.48441 3.58944 -4.04625 3.55625C-4.20244 3.5521 -4.3586 3.54795 -4.3586 3.5438C-3.89005 3.49402 -3.89005 3.49402 -5.92044 3.47742C-4.04623 3.45253 -2.17206 3.46913 -1.85968 3.51476C-1.85968 3.52306 -1.85965 3.53136 -1.3911 3.53136C-1.07874 3.53136 -0.766373 3.52721 -0.766373 3.51891C-0.610184 3.50647 -0.766357 3.49817 -0.610168 3.48572C-0.297806 3.45253 -0.922531 3.38615 1.88879 3.43179C2.66971 3.44423 2.98206 3.43594 3.13824 3.40275C3.29443 3.3903 3.763 3.37785 4.23155 3.382C6.57433 3.41519 7.04288 3.35711 8.13617 3.32807C8.76091 3.30733 7.97995 3.30318 7.5114 3.29488C7.04285 3.29073 6.41814 3.28658 6.57433 3.30733C6.73051 3.34466 5.94955 3.33222 5.32481 3.32807C4.85626 3.32392 4.38773 3.31562 3.91917 3.31562C2.98206 3.31977 2.20113 3.31562 2.04494 3.29073C2.04494 3.25754 3.29442 3.28658 3.76297 3.26999C3.45061 3.2368 2.35732 3.25339 1.5764 3.24924C0.795471 3.2451 0.0145569 3.2451 0.170746 3.2202C0.326935 3.19116 1.26404 3.21605 1.73259 3.21605C3.29443 3.2285 5.01247 3.21191 6.41814 3.2451C5.7934 3.19946 6.88667 3.15382 5.48102 3.11648C5.32483 3.11234 5.79338 3.10404 6.10574 3.09989C6.5743 3.09574 7.04286 3.09574 7.04286 3.11234C6.88667 3.15382 7.97998 3.14553 8.76089 3.14138C9.85419 3.13723 9.07324 3.11648 9.07324 3.09989C9.07324 3.08329 8.76091 3.06255 9.69801 3.0667C10.4789 3.07085 11.2599 3.09159 11.1037 3.11648C10.9475 3.14138 10.7913 3.17872 9.22943 3.18286C8.91707 3.18286 8.60472 3.19116 8.76089 3.20361C8.91708 3.21605 9.38565 3.21191 9.69801 3.20776C10.6351 3.18701 12.0408 3.18286 12.9779 3.15797C14.3835 3.11234 16.2578 3.12893 18.132 3.14553C18.132 3.18286 16.7263 3.16627 16.1015 3.18286C16.8825 3.19946 17.6634 3.21605 17.3511 3.24924C15.9454 3.27414 14.3836 3.28243 13.6026 3.27414C14.6959 3.26999 16.4139 3.31147 18.4443 3.27828C19.6938 3.27828 20.3186 3.29488 20.6309 3.33222C21.4119 3.42349 19.6938 3.48157 17.3511 3.53551C17.1949 3.53966 16.5701 3.62263 16.7263 3.62263C17.3511 3.62678 17.9758 3.63923 18.6005 3.62263C18.7567 3.61848 18.9129 3.61018 19.0691 3.60189C19.6938 3.58114 20.0062 3.54795 21.2557 3.56455C22.1928 3.57699 22.5052 3.60604 22.1928 3.63923C21.7242 3.68071 22.3489 3.69316 23.9108 3.68901C24.6917 3.68486 25.3165 3.67242 26.0974 3.68486C26.7221 3.72635 28.5963 3.74294 29.5334 3.77613C29.8458 3.78443 29.8458 3.79273 29.6896 3.80103C28.1278 3.80103 27.1907 3.83422 25.9412 3.85081C25.785 3.85911 25.785 3.86326 26.0974 3.86741C26.7221 3.8757 27.0345 3.85911 27.3469 3.85081C27.6592 3.84251 27.9716 3.84251 28.4402 3.84251C29.6897 3.84251 28.9087 3.87985 29.5334 3.8923C29.6896 3.90889 28.7525 3.92964 29.5334 3.94623C29.6896 3.95038 29.6896 3.95453 29.8458 3.95868C29.8458 3.97527 30.3144 3.98357 30.7829 3.99602C30.7829 4.00017 30.7829 4.00846 30.9391 4.01261C30.9391 4.01676 30.7829 4.01676 30.7829 4.02091C30.6268 4.02091 30.4706 4.02506 30.4706 4.02506C29.8458 4.02921 28.9087 4.01261 28.7525 4.04165C28.7525 4.06655 29.5334 4.06655 30.1582 4.0707C30.6267 4.07484 30.9391 4.07484 31.4077 4.07899C31.5639 4.07899 31.5638 4.07899 31.72 4.07899C32.0324 4.14122 32.8133 4.19931 33.438 4.25739C33.438 4.26569 33.5942 4.27398 33.5942 4.27813C34.0628 4.31132 31.5639 4.29888 32.3448 4.32792C32.8133 4.34451 33.9066 4.34036 34.219 4.36941C34.3752 4.386 34.6875 4.4026 34.9999 4.41919C34.8437 4.42334 34.5313 4.42749 34.219 4.42749C33.5942 4.42334 33.1257 4.41919 32.5009 4.41504C32.3447 4.41504 32.1886 4.41089 32.0324 4.40674C30.3144 4.3943 28.5964 4.36941 26.8783 4.41919C26.2536 4.43579 25.1603 4.43579 24.3794 4.42334C23.2861 4.4026 22.5051 4.41504 22.0366 4.43579C21.2557 4.47312 20.6309 4.46483 19.85 4.43579C19.5376 4.45238 19.85 4.45653 20.1624 4.46483C21.4118 4.49387 20.7871 4.50217 19.5376 4.51046C19.0691 4.51461 18.4444 4.51046 18.2882 4.52706C18.2882 4.53121 18.2882 4.53535 18.2882 4.5395C19.5376 4.56854 20.9433 4.58514 22.5051 4.58929C23.2861 4.59344 23.9108 4.61003 24.8479 4.61418C25.3165 4.61833 25.785 4.62248 26.2536 4.62663C27.503 4.64322 27.6592 4.66811 26.5659 4.68886C25.4726 4.71375 24.5356 4.74694 22.9737 4.74694C22.5052 4.75109 22.0366 4.75109 21.568 4.74279C19.85 4.70545 19.5376 4.7096 18.7567 4.75939C18.7567 4.76354 18.6005 4.76354 18.4443 4.76768C18.2881 4.77183 18.132 4.77598 17.9758 4.77598C17.351 4.78843 16.414 4.76768 15.9454 4.79258C16.414 4.81332 17.6634 4.81747 17.3511 4.84651C17.0387 4.85481 16.7263 4.85896 16.2577 4.85896C14.8521 4.86311 14.8521 4.88385 15.3206 4.91289C15.633 4.97097 14.0712 4.98757 12.6655 5.01246C11.2599 5.0332 10.6351 5.06639 10.7913 5.11203C10.3227 5.13277 10.3228 5.16182 10.3228 5.18256C10.6351 5.23234 9.69798 5.25724 8.29231 5.27798C7.66759 5.28213 6.73048 5.28628 7.82378 5.30702C7.97997 5.31117 7.97998 5.31532 8.13617 5.31947C8.13617 5.33606 8.13615 5.34851 7.82378 5.3651C7.6676 5.37755 7.82381 5.39415 7.35526 5.40244C6.73051 5.41904 7.04285 5.42319 7.66759 5.42734C9.85417 5.45223 9.85417 5.45223 9.22943 5.51861C8.44852 5.5352 8.13617 5.5518 8.9171 5.57254C9.8542 5.60158 9.69801 5.63477 9.69801 5.66796C9.69801 5.68041 9.54182 5.70115 8.76089 5.69285C7.97998 5.67211 7.04285 5.68871 6.73047 5.70115C6.10573 5.7219 7.35521 5.72605 7.5114 5.74264C7.97995 5.76338 7.6676 5.77583 7.04286 5.78828C6.41812 5.80072 6.41811 5.80902 6.88667 5.82147C7.35522 5.83391 6.88669 5.83806 6.57433 5.84221C5.63722 5.8671 4.54393 5.85051 3.45064 5.85051C3.60681 5.89199 5.7934 5.91689 5.01248 5.96252C3.45064 6.00401 1.42023 5.99986 -0.453979 5.99986C-16.8534 5.99571 -33.0966 5.98742 -49.496 5.98327C-57.7738 5.97912 -66.0515 5.96252 -74.1731 5.94593C-85.7308 5.92104 -97.1323 5.93763 -108.69 5.93763C-123.215 5.93763 -137.74 5.93763 -152.422 5.93763C-152.734 5.93763 -153.046 5.93763 -153.203 5.93348C-152.578 5.90859 -153.203 5.8754 -152.422 5.85051C-152.109 5.83806 -152.422 5.82562 -152.89 5.82562C-154.296 5.82562 -154.608 5.79242 -155.389 5.77583C-155.702 5.76753 -156.326 5.76338 -156.014 5.74679C-155.858 5.73849 -155.233 5.73434 -154.921 5.73434C-153.515 5.73434 -151.953 5.71775 -150.704 5.75509C-151.016 5.71775 -153.046 5.70115 -151.953 5.65552C-151.797 5.64722 -151.328 5.65137 -151.016 5.64722C-151.328 5.64722 -151.641 5.65137 -151.953 5.65552C-152.89 5.65137 -153.046 5.62233 -153.827 5.60988C-152.265 5.60573 -152.734 5.5518 -151.485 5.54765C-150.235 5.5435 -149.454 5.57669 -148.829 5.59743C-148.048 5.58914 -148.829 5.56839 -148.205 5.5601C-147.424 5.59743 -145.862 5.58084 -144.769 5.59743C-144.612 5.60158 -143.988 5.60158 -143.988 5.59743C-143.363 5.5601 -141.801 5.5601 -140.552 5.5435C-141.02 5.51861 -141.801 5.5435 -142.27 5.52276C-140.864 5.51031 -140.395 5.44808 -138.053 5.46882C-137.896 5.47297 -137.896 5.47297 -138.053 5.46882C-138.365 5.42734 -137.428 5.36925 -140.395 5.3651C-140.552 5.38585 -139.458 5.44808 -142.113 5.40659C-142.426 5.40244 -143.363 5.41074 -143.207 5.42734C-142.582 5.48957 -143.988 5.45223 -144.456 5.44808C-145.862 5.43563 -147.424 5.40659 -148.205 5.47297C-148.517 5.49372 -149.142 5.48542 -149.61 5.47712C-150.547 5.45638 -151.485 5.44393 -152.422 5.42319C-153.359 5.40659 -153.827 5.3734 -154.764 5.42319C-155.233 5.44393 -155.545 5.42319 -155.389 5.40659C-155.389 5.39829 -155.233 5.39415 -155.545 5.38585C-156.326 5.37755 -156.326 5.41074 -157.107 5.40244C-157.107 5.3817 -156.326 5.36096 -155.858 5.36925C-154.296 5.39 -151.953 5.35681 -151.016 5.41489C-150.86 5.42734 -149.923 5.43148 -149.923 5.41489C-149.923 5.39415 -149.923 5.36925 -148.986 5.36925C-148.361 5.36925 -147.736 5.39415 -146.955 5.41074C-147.268 5.3817 -147.268 5.37755 -146.174 5.3651C-144.144 5.33606 -142.113 5.30702 -140.083 5.27383C-139.927 5.27383 -139.927 5.26139 -140.083 5.25309C-140.552 5.2199 -141.801 5.2282 -142.738 5.21575C-143.363 5.2033 -143.363 5.23649 -143.831 5.24064C-145.393 5.26139 -146.018 5.29872 -146.955 5.33191C-147.424 5.35266 -148.829 5.36096 -149.61 5.33606C-150.235 5.31947 -149.923 5.29043 -149.766 5.26968C-149.61 5.25309 -148.829 5.24064 -148.986 5.2199C-149.766 5.2199 -151.172 5.27798 -151.172 5.20745C-153.203 5.22405 -153.359 5.16182 -154.921 5.14107C-153.671 5.12033 -152.734 5.08714 -151.016 5.11618C-150.547 5.12448 -149.61 5.10788 -148.829 5.09958C-149.61 5.07469 -150.391 5.05395 -151.797 5.06225C-151.172 5.03735 -150.547 5.02076 -149.766 5.0415C-148.829 5.06225 -147.736 5.08299 -147.424 5.12033C-147.268 5.13277 -147.892 5.13692 -148.361 5.13692C-148.829 5.13692 -149.454 5.13692 -150.235 5.13692C-149.454 5.17841 -148.986 5.22405 -146.799 5.17841C-145.706 5.15767 -144.3 5.14937 -142.894 5.17011C-141.801 5.18671 -141.02 5.17841 -141.645 5.13692C-141.957 5.11618 -141.489 5.10788 -141.02 5.10373C-140.395 5.09544 -140.239 5.10788 -140.239 5.12033C-140.239 5.12448 -139.927 5.12863 -139.771 5.12863C-136.803 5.11203 -136.022 5.16596 -135.085 5.22405C-134.929 5.23649 -134.304 5.25724 -133.992 5.25724C-130.4 5.25309 -131.181 5.34436 -129.931 5.39C-129.619 5.39829 -129.931 5.42734 -129.15 5.41904C-128.682 5.41489 -127.276 5.40659 -128.213 5.3734C-128.525 5.36096 -128.525 5.34851 -128.369 5.33606C-128.057 5.29872 -128.057 5.29872 -129.306 5.28628C-126.964 5.26553 -124.933 5.29458 -124.621 5.35681C-123.996 5.32777 -123.215 5.31947 -122.278 5.32777C-121.029 5.34021 -122.278 5.3651 -121.966 5.3817C-121.497 5.39 -121.185 5.3734 -120.872 5.36925C-120.248 5.36096 -119.935 5.3734 -119.779 5.38585C-119.467 5.40659 -120.248 5.40244 -120.716 5.40659C-121.653 5.41074 -122.59 5.41904 -123.371 5.39C-123.684 5.37755 -124.465 5.37755 -124.933 5.38585C-125.714 5.39829 -125.089 5.41074 -124.933 5.42319C-124.308 5.47297 -122.434 5.48957 -120.872 5.45638C-120.56 5.45223 -120.248 5.44808 -119.935 5.43978C-118.842 5.41904 -117.905 5.38585 -116.812 5.3817C-116.187 5.37755 -115.25 5.42319 -114 5.42734C-113.532 5.42734 -112.126 5.43563 -113.219 5.46882C-113.532 5.48127 -112.751 5.49372 -112.438 5.50616C-111.97 5.51861 -111.501 5.52276 -111.189 5.5352C-110.72 5.54765 -110.564 5.56839 -110.72 5.58499C-110.72 5.58914 -111.033 5.59329 -111.189 5.59329C-111.97 5.58914 -111.97 5.56839 -112.282 5.55595C-113.219 5.51861 -114.156 5.48127 -116.031 5.47712C-116.499 5.47712 -116.968 5.46882 -116.655 5.49372C-116.343 5.52691 -116.499 5.55595 -118.373 5.53935C-119.154 5.53105 -119.779 5.5601 -120.716 5.55595C-121.185 5.55595 -120.872 5.56839 -120.872 5.58084C-120.716 5.59743 -120.248 5.60573 -119.779 5.60158C-117.28 5.57669 -116.343 5.60988 -116.031 5.66796C-115.718 5.7053 -113.844 5.66796 -113.688 5.7053C-113.532 5.70115 -113.219 5.69286 -113.219 5.68871C-113.532 5.65967 -113.375 5.63892 -112.126 5.63477C-110.72 5.63062 -109.315 5.62233 -108.221 5.65552C-107.909 5.66381 -107.44 5.67626 -107.597 5.69285C-108.69 5.68871 -109.783 5.68456 -111.033 5.67626C-110.877 5.70115 -110.408 5.72605 -111.189 5.75094C-111.814 5.77168 -110.408 5.81317 -109.627 5.79657C-109.002 5.77998 -106.972 5.79657 -107.597 5.73849C-107.909 5.71775 -106.66 5.74264 -106.035 5.73019C-105.41 5.71775 -104.785 5.73019 -104.317 5.73849C-103.38 5.75509 -102.911 5.76753 -102.286 5.72604C-101.974 5.70115 -100.881 5.68041 -100.568 5.65137C-100.412 5.63477 -99.7874 5.63062 -99.1627 5.63062C-97.2885 5.63892 -96.6637 5.61403 -96.5075 5.56839C-96.5075 5.5435 -96.1952 5.52276 -97.1323 5.50616C-97.9132 5.49372 -98.3818 5.51861 -98.6941 5.53105C-99.3189 5.55595 -99.9436 5.54765 -100.568 5.5352C-101.193 5.52691 -101.974 5.50201 -102.443 5.52691C-102.911 5.5518 -102.443 5.56839 -101.193 5.56839C-100.568 5.56839 -100.412 5.58499 -100.412 5.59743C-100.256 5.60988 -100.725 5.61818 -101.193 5.62233C-101.818 5.63062 -102.13 5.61818 -102.286 5.60573C-103.067 5.5518 -103.536 5.60158 -104.161 5.61403C-104.317 5.58499 -104.004 5.5435 -105.879 5.56424C-106.191 5.56839 -106.347 5.55595 -106.191 5.54765C-105.879 5.52276 -106.503 5.50201 -106.66 5.47712C-106.816 5.46053 -106.972 5.43563 -106.347 5.42319C-105.722 5.41489 -104.942 5.41074 -104.161 5.42319C-102.911 5.43978 -101.505 5.44808 -99.7874 5.43563C-100.412 5.41904 -101.505 5.40244 -100.881 5.3734C-100.725 5.3651 -100.725 5.34851 -100.1 5.35681C-98.2256 5.3817 -98.2256 5.34851 -98.2256 5.30702C-97.4446 5.34021 -96.8199 5.3651 -95.5704 5.33606C-95.2581 5.33191 -94.9457 5.32777 -94.6333 5.33606C-94.321 5.34436 -94.4772 5.35266 -94.7895 5.36096C-95.4143 5.3734 -95.5704 5.39415 -95.1019 5.41074C-94.6333 5.42734 -94.1647 5.39829 -93.3838 5.40659C-93.0715 5.41489 -95.8828 5.45223 -93.0715 5.44808C-93.2277 5.46467 -94.1648 5.46467 -94.0086 5.48542C-93.2277 5.48542 -92.7591 5.49786 -92.4468 5.51031C-91.0411 5.56424 -88.2298 5.5435 -86.6679 5.58914C-86.5117 5.59329 -86.0432 5.58499 -86.0432 5.57254C-85.887 5.5601 -85.887 5.54765 -85.2623 5.55595C-84.7937 5.56424 -85.1061 5.57669 -85.1061 5.58499C-84.9499 5.60158 -86.5117 5.60988 -85.4184 5.62648C-84.6375 5.63892 -84.6375 5.61403 -84.1689 5.60158C-83.8566 5.59329 -82.9195 5.59743 -82.9195 5.60988C-82.4509 5.66796 -80.5767 5.66381 -79.1711 5.67211C-79.1711 5.67626 -79.1711 5.68041 -79.1711 5.68041C-82.2948 5.76338 -82.7633 5.76338 -86.0432 5.68871C-87.4488 5.65552 -89.0107 5.63477 -90.5725 5.64722C-92.4467 5.66381 -94.321 5.68456 -96.3514 5.66381C-96.8199 5.65967 -97.4446 5.67211 -97.2884 5.69285C-97.1323 5.7136 -96.6637 5.70945 -96.1952 5.697C-95.7266 5.68456 -95.258 5.69286 -94.9457 5.70115C-94.4771 5.71775 -95.1019 5.71775 -95.2581 5.72604L-95.4143 5.73019C-95.7266 5.74264 -95.2581 5.75924 -95.2581 5.75924C-93.3838 5.70115 -93.8524 5.86295 -91.822 5.78413C-91.6658 5.77998 -91.6658 5.77583 -91.5096 5.77583C-90.7287 5.75923 -91.0411 5.7136 -89.9478 5.70945C-88.8545 5.7053 -90.2601 5.75923 -88.6983 5.76753C-88.2297 5.77168 -87.605 5.80487 -89.1669 5.82147C-89.6354 5.82561 -91.1973 5.82976 -90.5725 5.86295C-90.2602 5.8837 -89.1669 5.89199 -88.2298 5.87125C-87.2926 5.85466 -86.5117 5.85881 -86.6679 5.89614C-86.8241 5.91689 -86.5117 5.92104 -85.887 5.91689C-84.9499 5.91274 -85.5746 5.89614 -85.5746 5.88785C-85.7308 5.86295 -86.6679 5.85051 -87.2926 5.83391C-86.8241 5.81732 -86.0432 5.81317 -85.5746 5.80487C-84.9499 5.79657 -84.6375 5.80072 -84.6375 5.82147C-84.9499 5.8671 -83.5442 5.85466 -82.7633 5.86295C-81.5138 5.8754 -81.9824 5.85051 -81.8262 5.83391C-81.5138 5.80072 -79.952 5.79242 -79.1711 5.81732C-77.7654 5.8588 -75.5788 5.85881 -74.0169 5.89614C-73.7046 5.90444 -72.7675 5.90444 -72.9237 5.87955C-72.9237 5.8671 -72.2989 5.84221 -73.7046 5.85051C-74.4855 5.85466 -74.7979 5.84221 -74.7979 5.82562C-74.7979 5.80487 -74.1731 5.79657 -73.5484 5.79243C-72.9237 5.78828 -72.4551 5.79657 -72.2989 5.81732C-72.1427 5.86295 -71.3618 5.89614 -69.8 5.91689C-69.1752 5.89614 -70.8933 5.8754 -69.6438 5.8588C-68.8629 5.84636 -68.5505 5.8671 -68.0819 5.87955C-67.7696 5.8754 -67.9258 5.87125 -68.0819 5.8671C-68.0819 5.86295 -68.0819 5.85881 -67.9258 5.85466C-66.3639 5.87125 -65.1144 5.82561 -63.7087 5.82976C-62.6155 5.83391 -62.1469 5.82147 -61.8346 5.79657C-61.6784 5.78828 -61.5222 5.77168 -61.9908 5.77583C-63.2402 5.78413 -63.8649 5.73019 -65.2706 5.75509C-65.4268 5.75923 -66.0516 5.77583 -65.1144 5.77583C-64.0212 5.77168 -64.3335 5.78413 -64.6459 5.80072C-65.1144 5.82561 -66.2077 5.80902 -66.6763 5.82147C-67.9258 5.84636 -67.6134 5.81317 -68.0819 5.80072C-68.3943 5.79243 -68.5505 5.77583 -69.1752 5.77998C-69.7999 5.80487 -68.7067 5.82147 -69.3314 5.84636C-69.9561 5.80072 -70.4247 5.75509 -71.0494 5.7136C-73.5484 5.65966 -73.5484 5.63892 -70.8932 5.55595C-70.5809 5.54765 -70.1123 5.53935 -70.1123 5.52691C-71.8304 5.51031 -72.9236 5.48127 -72.2989 5.44393C-71.8304 5.40659 -71.2056 5.3651 -70.2685 5.34021C-69.3314 5.31532 -67.4572 5.32777 -66.0515 5.33191C-67.1448 5.31947 -69.0191 5.31532 -68.2381 5.27383C-67.9258 5.25309 -70.1124 5.17426 -66.6763 5.20745C-66.3639 5.17426 -67.9257 5.16596 -67.6134 5.14107C-67.4572 5.12033 -66.8325 5.10373 -66.5201 5.07469C-69.0191 5.07469 -69.1752 5.02906 -69.0191 4.97927C-69.0191 4.95023 -68.8629 4.92119 -68.8629 4.8963C-68.7067 4.86311 -68.3943 4.83406 -66.6763 4.83406C-66.0516 4.83406 -65.583 4.82577 -65.4268 4.80917C-65.4268 4.79258 -65.8954 4.78013 -66.3639 4.77598C-68.0819 4.76354 -67.9258 4.73449 -67.9258 4.69716C-68.0819 4.62663 -67.7696 4.56025 -67.1448 4.49387C-66.3639 4.42334 -66.8325 4.35696 -66.9886 4.29058C-66.9886 4.26569 -67.301 4.2325 -66.2077 4.21175C-65.583 4.19931 -66.2077 4.18686 -66.3639 4.17027C-66.8325 4.13293 -67.7696 4.09559 -65.583 4.07484C-65.1144 4.0707 -65.1144 4.0541 -65.2706 4.0458C-65.8953 4.01676 -65.583 3.98772 -65.4268 3.95868C-65.2706 3.92964 -65.2706 3.9006 -65.4268 3.87156C-66.3639 3.82592 -66.3639 3.78443 -64.9583 3.75954Z" fill="white"/>
<path d="M16.8819 3.24542C16.4133 3.22883 16.7257 3.20394 15.6324 3.19979C15.1638 3.19979 14.5391 3.20394 14.6953 3.18319C14.8515 3.17075 15.32 3.16245 15.7886 3.16245C16.5695 3.16245 17.3504 3.16245 17.819 3.14585C18.4437 3.13341 19.0685 3.11681 18.5999 3.09192C18.2875 3.06703 17.3505 3.08362 16.7257 3.07947C15.6324 3.07947 14.5391 3.05458 13.2896 3.06703C12.6649 3.07118 12.5087 3.05458 12.8211 3.04213C13.1335 3.02969 13.4458 3.01724 13.7582 3.0048C11.884 3.0048 10.4783 2.94671 11.1031 2.90108C11.2592 2.89693 11.5716 2.88448 11.7278 2.88863C12.3525 2.89278 12.9773 2.89278 13.2896 2.91352C13.4458 2.93012 14.0705 2.94256 14.6953 2.93427C15.32 2.93012 15.6324 2.91352 15.7886 2.89693C15.9448 2.88448 15.9448 2.87618 15.32 2.87618C12.8211 2.87204 12.3525 2.82225 11.884 2.76832C11.7278 2.75587 11.7278 2.74757 11.2593 2.74757C10.6345 2.74757 9.54118 2.75587 9.85355 2.72683C10.0097 2.70194 11.1031 2.70194 11.884 2.69779C12.3525 2.69364 12.9773 2.73513 13.1334 2.69779C13.2896 2.67704 14.0706 2.648 12.6649 2.63556C12.1963 2.63141 11.884 2.62311 11.884 2.60652C12.0402 2.58992 12.5087 2.58577 13.1334 2.58162C14.3829 2.57333 15.6324 2.56503 16.8819 2.58992C16.1009 2.54843 15.9448 2.49865 13.602 2.49035C12.0402 2.4862 11.103 2.44057 10.9469 2.39493C12.8211 2.38663 12.8211 2.44471 14.2267 2.45301C14.8515 2.42812 14.0706 2.41152 13.602 2.39493C13.1335 2.37004 12.5087 2.34514 14.2267 2.33685C15.1639 2.3327 15.6324 2.30781 16.2571 2.29121C17.3504 2.26632 16.101 2.23313 15.6324 2.23313C13.9144 2.23313 12.6649 2.18749 10.7907 2.20824C10.6345 2.21239 10.3221 2.20409 9.85355 2.19994C12.3525 2.19164 10.7907 2.08377 14.0706 2.09622C13.4458 2.06303 11.7278 2.10037 11.7278 2.05473C13.1334 2.07548 14.3829 2.02569 15.9448 2.05473C16.101 2.05888 16.7257 2.04644 16.7257 2.03814C16.101 1.98006 17.6628 2.00495 18.4437 2.00495C19.537 2.0091 19.8494 1.98006 20.4741 1.96761C21.2551 1.95101 20.1618 1.94687 19.8494 1.93442C19.6932 1.92612 19.0685 1.91782 19.537 1.90953C19.8494 1.90538 20.4741 1.90953 21.2551 1.91368C19.537 1.88049 20.7865 1.8224 19.2246 1.78506C18.9123 1.78092 20.1617 1.75602 20.9427 1.76017C21.7236 1.76432 22.3483 1.76847 22.8169 1.74773C23.1293 1.73113 24.0664 1.72283 23.4416 1.70209C22.8169 1.68135 22.3483 1.70209 21.7236 1.70624C21.4112 1.71039 21.0989 1.71454 20.6303 1.70209C22.3484 1.6606 22.1922 1.60667 22.8169 1.55273C23.1293 1.55273 23.754 1.55688 24.5349 1.55688C24.3788 1.58592 25.3159 1.59422 26.0968 1.60252C26.8777 1.63986 25.0035 1.62326 25.0035 1.64401C25.472 1.63986 26.0968 1.62741 26.0968 1.65645C25.4721 1.6772 24.8473 1.69379 24.8473 1.72283C25.0035 1.73943 25.1596 1.76017 24.6911 1.77262C23.754 1.80166 24.6911 1.80996 25.472 1.81825C25.9406 1.85559 24.6911 1.8473 24.0664 1.85559C25.3158 1.87219 25.472 1.84315 25.9406 1.8224C26.4091 1.8224 26.5653 1.83485 26.7215 1.8473C27.3463 1.87219 25.9406 1.90123 26.8777 1.93027C26.8777 1.94687 26.7215 1.96761 26.0968 1.97591C24.5349 1.94687 23.4416 1.95101 22.6607 1.99665C22.3483 2.01325 21.8798 2.02569 21.4113 2.03399C20.0056 2.05058 20.6303 2.06303 21.4113 2.07963C20.6303 2.10037 19.0685 2.09207 18.5999 2.13356C18.2875 2.15015 18.7561 2.16675 18.9123 2.1792C18.7561 2.19579 18.5999 2.21653 18.4437 2.23313C18.1313 2.25387 18.4437 2.27462 18.7561 2.29536C19.2246 2.32025 19.2247 2.341 18.2876 2.35759C16.8819 2.37419 17.0381 2.39493 17.819 2.42397C18.7561 2.44886 19.8494 2.47376 20.7865 2.5028C21.255 2.51524 21.4112 2.53184 21.0989 2.54843C20.7865 2.56503 20.1618 2.55673 19.537 2.55258C18.5999 2.54843 18.2876 2.55673 18.2876 2.58162C19.2247 2.59822 19.6932 2.61896 19.0685 2.648C18.4437 2.6646 17.3504 2.66875 16.8819 2.68949C15.4762 2.74342 15.4762 2.74342 17.5066 2.78906C17.819 2.79736 17.819 2.80566 17.6628 2.8181C17.5066 2.83055 17.0381 2.84299 17.1942 2.85959C17.6628 2.87618 17.5066 2.89693 17.819 2.91352C17.9752 2.91352 17.9752 2.91767 18.1314 2.91767C18.7561 2.93012 18.9123 2.94671 18.7561 2.96746C18.5999 2.9799 18.1313 2.98405 17.819 2.9965C17.819 3.00894 18.2875 3.00894 18.4437 3.01724C18.7561 3.02554 18.9123 3.03799 19.3808 3.04213C21.5674 3.06703 21.5674 3.06703 20.7865 3.12511C20.1617 3.13756 20.4741 3.1583 20.0056 3.17075C18.5999 3.19149 19.8494 3.22053 19.8494 3.24542C20.9427 3.28691 21.5674 3.3284 21.2551 3.37818C20.9427 3.41552 23.2854 3.44871 21.8798 3.49435C21.5674 3.50679 21.0989 3.49435 20.6303 3.4985C20.318 3.4985 20.4741 3.4902 20.4741 3.4985C20.4741 3.50265 20.6303 3.50265 20.7865 3.4985C21.255 3.4985 21.5674 3.50679 21.7236 3.51509C21.8798 3.54413 22.9731 3.54413 23.754 3.55243C24.8473 3.58147 25.3158 3.60636 24.0664 3.63955C24.2225 3.652 24.2226 3.652 25.9406 3.67689C24.6911 3.67274 23.9102 3.70593 22.5045 3.69764C21.255 3.68934 20.7865 3.67274 21.2551 3.63955C21.4112 3.62296 21.8798 3.61466 21.4113 3.58977C20.318 3.53169 20.1618 3.57732 19.6932 3.59392C18.1314 3.65615 18.1314 3.65615 15.0077 3.61466C16.4133 3.60636 16.5695 3.58977 15.9448 3.56073C15.6324 3.54413 15.1639 3.52339 16.5695 3.51924C17.3504 3.51509 18.5999 3.50679 18.2876 3.46946C18.1314 3.45701 18.4437 3.45286 18.7561 3.44456C20.7865 3.39893 20.4741 3.30351 18.2876 3.27446C17.6628 3.27032 17.1942 3.26202 16.8819 3.24542Z" fill="white"/>
<path d="M23.1294 1.17831C22.817 1.14512 22.3485 1.11607 20.6304 1.12852C20.3181 1.13267 19.6933 1.12852 19.6933 1.12437C19.0686 1.06629 17.1944 1.10363 15.9449 1.09118C15.3202 1.08288 15.0078 1.09533 14.8516 1.10778C14.6954 1.12022 14.6954 1.12852 15.164 1.13682C16.1011 1.14512 16.882 1.16171 17.8191 1.16586C19.3809 1.17001 20.7866 1.19075 20.9428 1.24054C19.8495 1.24054 19.381 1.21979 18.1315 1.20735C19.381 1.24054 19.6933 1.26958 19.6933 1.29862C19.6933 1.31107 19.5372 1.31936 19.0686 1.31936C18.6 1.31936 18.6 1.31107 18.4438 1.30277C18.4438 1.28617 18.2877 1.27373 18.2877 1.25713C18.2877 1.24469 18.1315 1.23639 17.8191 1.23639C17.3505 1.23639 16.882 1.24469 17.0382 1.25713C17.3505 1.30692 16.5696 1.29032 15.7887 1.27373C14.8516 1.25298 15.0078 1.20735 13.1336 1.21564C13.1336 1.21564 12.9774 1.19905 12.9774 1.19075C12.9774 1.18245 13.1335 1.17831 12.9774 1.17001C12.665 1.15756 11.7279 1.20735 11.7279 1.16171C11.7279 1.14512 11.8841 1.12852 12.0403 1.11193C12.1965 1.08288 11.1031 1.08288 10.6346 1.06629C9.85367 1.0331 9.6975 1.07459 9.22894 1.07459C7.19854 1.07044 5.48053 1.11193 3.29395 1.11193C3.60631 1.08288 5.6367 1.07874 4.6996 1.03725C5.48052 1.0331 5.79289 1.0414 6.26144 1.04969C7.19855 1.06214 7.51094 1.0414 8.13568 1.0331C8.76042 1.02065 8.29186 1.00406 8.13568 0.991612C7.66712 0.96672 7.19853 0.941827 6.72998 0.916935C7.97945 0.896191 7.8233 0.941827 8.76041 0.941827C7.35475 0.883745 9.85367 0.86715 10.6346 0.854703C11.7279 0.838108 11.7279 0.788323 13.4459 0.792472C15.0078 0.796621 16.4134 0.796621 17.9753 0.780026C17.6629 0.759282 16.7258 0.76758 16.4134 0.750985C15.9449 0.73439 15.9449 0.709497 16.882 0.709497C18.4438 0.709497 19.8495 0.7012 21.2552 0.680456C21.8799 0.672159 21.8799 0.688754 21.8799 0.7012C21.8799 0.713646 21.5675 0.717795 21.2552 0.721944C19.5371 0.726092 18.9124 0.759282 18.6 0.796621C16.882 0.804918 14.5392 0.796621 14.8516 0.871298C15.7887 0.883745 16.5696 0.90034 16.882 0.929381C18.7562 0.995761 20.4742 1.07044 23.2856 1.11607C23.9103 1.13267 23.4417 1.15756 23.1294 1.17831Z" fill="white"/>
<path d="M21.8799 4.60241C20.0057 4.61071 18.9124 4.56507 17.3506 4.56507C17.3506 4.56507 17.3506 4.55263 17.3506 4.54433C17.8191 4.54018 18.2877 4.54018 18.7562 4.54018C18.9124 4.53603 19.381 4.54848 19.2248 4.53188C18.6 4.51944 17.9753 4.54018 17.3506 4.53188C17.3506 4.4738 19.2248 4.51114 20.0057 4.49454C19.6933 4.46965 18.6001 4.4821 18.1315 4.45721C18.7562 4.44476 18.9124 4.41572 19.8495 4.41572C20.9428 4.41572 19.5372 4.44891 20.4743 4.46135C21.4114 4.42816 22.0361 4.37838 24.2227 4.41987C25.1598 4.43646 26.4093 4.42816 26.8779 4.39912C27.1902 4.37423 27.9711 4.37008 28.4397 4.38253C29.533 4.40327 31.251 4.36593 31.8757 4.41572C31.7196 4.41987 31.4072 4.41987 31.4072 4.42402C32.3443 4.46135 31.5634 4.49454 30.9386 4.53188C30.3139 4.55263 29.533 4.54018 28.752 4.54018C27.9711 4.51944 27.5026 4.49454 27.3464 4.4655C27.3464 4.46135 27.3464 4.45306 27.5026 4.44891C27.3464 4.44891 27.3464 4.44891 27.1902 4.45306C26.7216 4.45721 26.4093 4.45306 25.9407 4.45721C25.4722 4.46135 25.0036 4.46965 24.5351 4.47795C24.0665 4.4821 23.2856 4.46965 23.4418 4.49869C23.598 4.51114 23.1294 4.52773 22.1923 4.52359C21.7238 4.51944 22.3485 4.53188 22.1923 4.53188C20.9428 4.54848 22.0361 4.57337 21.8799 4.60241Z" fill="white"/>
<path d="M20.787 2.07933C20.1623 2.07518 19.2252 2.08348 19.069 2.05859C18.9129 2.03369 19.6938 2.03369 20.3185 2.02955C21.0994 2.02125 21.568 2.0005 22.0365 1.98391C23.4422 1.91753 23.9107 1.91753 25.6288 1.97976C23.9107 2.0088 22.3489 2.04199 20.787 2.07933Z" fill="white"/>
<path d="M21.8803 4.52219C21.5679 4.51389 21.2555 4.50974 21.0994 4.50144C21.7241 4.489 22.6612 4.51804 23.1297 4.489C23.5983 4.4641 22.3489 4.46825 22.1927 4.44751C23.1298 4.45166 23.9107 4.45166 24.6916 4.45581C25.004 4.45166 25.1601 4.44751 25.4725 4.45166C26.0973 4.45996 27.1906 4.45581 27.3467 4.48485C27.5029 4.50974 26.722 4.50559 26.2534 4.51389C25.4725 4.52219 24.8478 4.52634 24.0669 4.53463C23.1298 4.54293 22.3488 4.55953 21.8803 4.52219Z" fill="white"/>
<path d="M30.3139 4.00806C30.6262 4.03295 30.7824 4.05369 31.0948 4.07859H30.9386C29.5329 4.06614 29.533 4.04125 30.3139 4.00806Z" fill="white"/>
<path d="M-5.76425 3.23336C-4.35859 3.20017 -1.54724 3.21262 -1.39106 3.24996C-1.23487 3.26655 -0.922503 3.2707 -0.610133 3.27485C0.0146055 3.28315 0.170771 3.29559 -0.141599 3.31219C-0.610152 3.34123 -0.610133 3.34953 0.17079 3.37027C-1.07869 3.40761 -3.10909 3.37442 -4.51475 3.39931C-5.13949 3.36612 -5.9204 3.35368 -7.48225 3.35782C-7.9508 3.35782 -8.41939 3.34953 -8.88795 3.36197C-9.3565 3.37442 -9.98124 3.37027 -10.4498 3.35782C-11.0745 3.34123 -10.2936 3.33708 -9.98121 3.32878C-9.66884 3.31219 -8.57554 3.30804 -9.04409 3.27485C-9.20028 3.2624 -7.95083 3.24996 -7.16991 3.24166C-6.85754 3.2707 -7.79464 3.29559 -7.16991 3.32463C-5.76425 3.31634 -6.70136 3.2707 -5.76425 3.25411C-4.67096 3.23751 -3.89 3.2707 -2.79671 3.25825C-3.26526 3.23336 -4.51478 3.23751 -5.76425 3.23336Z" fill="white"/>
<path d="M-0.766729 4.09155C-0.298175 4.1123 0.638952 4.13304 0.326582 4.15378C-0.45434 4.19527 0.014194 4.21601 1.57604 4.23261C2.35696 4.24091 2.51314 4.2492 2.20077 4.2658C1.73221 4.28654 1.41987 4.26165 0.951311 4.26165C-2.0162 4.25335 -2.79714 4.17453 -4.82754 4.13719C-5.13991 4.12889 -4.98371 4.11645 -4.67134 4.11645C-3.26568 4.11645 -2.17239 4.104 -0.766729 4.09155Z" fill="white"/>
<path d="M16.8823 3.24487C17.6632 3.24487 18.1318 3.25732 18.1318 3.27806C17.3508 3.29466 17.1946 3.34859 15.3204 3.29466C14.6957 3.27391 12.1967 3.3071 10.9473 3.25317C12.9777 3.25317 15.008 3.26147 16.8823 3.24487Z" fill="white"/>
<path d="M30.1582 4.01278C30.1582 4.03767 30.1582 4.06257 30.9391 4.07916C30.1582 4.09576 29.3772 4.07501 28.5963 4.07501C27.8154 4.07501 27.1907 4.05842 27.503 4.02523C27.8154 3.99619 28.4401 3.99619 29.3772 4.00863C29.5334 4.01278 29.8458 4.01278 30.1582 4.01278Z" fill="white"/>
<path d="M1.10769 4.09954C0.48295 4.05806 -0.297974 4.03731 -2.016 4.05391C-2.48456 4.05806 -2.95315 4.07465 -3.4217 4.05806C-3.57789 4.05391 -3.73407 4.04561 -3.4217 4.03731C-2.79697 4.02487 -2.64077 3.99997 -1.70366 4.00412C-0.141818 4.00827 1.26387 4.04976 1.10769 4.09954Z" fill="white"/>
<path d="M17.1943 4.53124C17.819 4.52709 18.1314 4.5105 18.7561 4.5105C19.537 4.5105 19.537 4.5188 19.2247 4.53539C19.0685 4.54369 18.6 4.53539 18.2876 4.54784C17.819 4.56443 17.5066 4.54784 17.0381 4.54784C17.1943 4.53539 17.1943 4.53124 17.1943 4.53124Z" fill="white"/>
<path d="M2.20112 5.94531C2.20112 5.95361 1.88876 5.95361 1.57639 5.95361C1.26402 5.95361 0.95166 5.9536 0.95166 5.94116C0.95166 5.93286 1.26402 5.93286 1.57639 5.93286C1.88876 5.93286 2.20112 5.93286 2.20112 5.94531Z" fill="white"/>
<path d="M33.4373 4.41894C32.8125 4.41894 32.1878 4.43554 31.7192 4.40649C32.344 4.41064 32.9687 4.40649 33.4373 4.41894Z" fill="white"/>
<path d="M29.2214 4.10734C29.3772 4.09904 29.3771 4.09489 29.6886 4.09904C29.8443 4.10319 30.0001 4.10734 30.0001 4.11149C30.0001 4.11563 29.8443 4.12393 29.5329 4.11978C29.3771 4.11978 29.2214 4.11149 29.2214 4.10734Z" fill="white"/>
<path d="M15.7888 2.13259C15.4764 2.14503 15.4764 2.16578 14.5393 2.16163C13.7583 2.15748 13.2898 2.13674 13.2898 2.12014C13.2898 2.10355 14.0707 2.0994 14.6954 2.10355C15.3202 2.1077 15.7888 2.11599 15.7888 2.13259Z" fill="white"/>
<path d="M16.4131 3.56012C17.194 3.54353 17.6626 3.54768 18.2873 3.56427C17.6626 3.57672 17.194 3.57257 16.4131 3.56012Z" fill="white"/>
<path d="M14.0715 2.36971C14.0715 2.35727 14.2277 2.35312 14.3839 2.35727C14.6963 2.35727 15.0087 2.36142 15.1648 2.36557C15.4772 2.37386 15.1648 2.37801 14.8525 2.37801C14.5401 2.37386 14.2277 2.36971 14.0715 2.36971Z" fill="white"/>
<path d="M20.0061 3.4939C20.1623 3.49805 20.3185 3.50219 20.3185 3.50634C20.0061 3.51464 19.6937 3.53124 19.2252 3.51879C18.9128 3.50634 19.5376 3.50219 20.0061 3.4939Z" fill="white"/>
<path d="M12.1953 2.17016C11.8838 2.16601 11.7281 2.16601 11.8839 2.15771C12.0396 2.15356 12.1953 2.15356 12.351 2.15356C12.5068 2.15356 12.5068 2.16186 12.6625 2.16601C12.5068 2.16601 12.351 2.16601 12.1953 2.17016Z" fill="white"/>
<path d="M16.5703 2.07519C16.2579 2.07934 16.1017 2.07934 15.7894 2.08349C15.6332 2.08349 15.3208 2.07934 15.6332 2.07519C15.7893 2.07104 16.1017 2.07104 16.4141 2.06689C16.4141 2.06689 16.4141 2.07104 16.5703 2.07519Z" fill="white"/>
<path d="M24.0638 1.66797C23.9081 1.67626 23.7524 1.68041 23.5966 1.67626C23.4409 1.67211 23.2851 1.66797 23.1294 1.66797C23.2851 1.66382 23.4409 1.65967 23.4409 1.65967C23.7523 1.65967 23.9081 1.66382 24.0638 1.66797Z" fill="white"/>
<path d="M14.2271 1.17952C15.1642 1.17123 15.4765 1.17952 15.7889 1.19612C15.1642 1.20442 14.6956 1.19197 14.2271 1.17952Z" fill="white"/>
<path d="M18.4438 4.54345C18.4438 4.52271 19.0686 4.5393 19.381 4.53101C19.6933 4.53515 20.3181 4.5476 20.0057 4.5559C19.2248 4.57249 18.9124 4.54345 18.4438 4.54345Z" fill="white"/>
<path d="M27.5016 4.44867C27.3459 4.44452 27.1902 4.44037 27.0344 4.43622C27.1902 4.42378 26.8787 4.40303 27.6574 4.41133C28.1246 4.41963 27.3459 4.43622 27.5016 4.44867Z" fill="white"/>
<path d="M25.7846 4.43579C25.6284 4.44409 25.4723 4.45239 25.3161 4.46068C25.0037 4.46068 24.8475 4.46068 24.5352 4.46068C24.5352 4.43579 25.1599 4.43579 25.7846 4.43579Z" fill="white"/>
<path d="M26.7217 3.851C26.2532 3.851 26.2532 3.87589 25.6284 3.86344C25.6284 3.86344 25.7846 3.85514 25.7846 3.84685C26.097 3.83855 26.4094 3.83855 26.7217 3.851Z" fill="white"/>
</g>
</svg>
