<svg width="10" height="6" viewBox="0 0 10 6" fill="none" xmlns="http://www.w3.org/2000/svg">
<mask id="mask0_548_800" style="mask-type:alpha" maskUnits="userSpaceOnUse" x="0" y="0" width="10" height="6">
<rect width="10" height="6" fill="#D9D9D9"/>
</mask>
<g mask="url(#mask0_548_800)">
<path d="M6.43741 0.442719C6.38858 0.485283 6.0956 0.536359 6.68156 0.57041C6.77922 0.595949 6.73039 0.612974 6.38858 0.612974C5.80261 0.595949 5.31429 0.642769 4.72832 0.629999C4.77715 0.66405 5.11899 0.66405 5.16782 0.689588C5.02132 0.698101 4.77716 0.706614 4.58183 0.706614C3.65405 0.698101 3.1169 0.753434 2.53093 0.800254C2.38443 0.813023 2.3356 0.821536 2.28677 0.838561C2.28677 0.868356 2.09146 0.859843 1.89613 0.85133C1.94496 0.868356 2.09146 0.881125 2.14029 0.89815C2.28679 0.936458 2.09146 0.970509 1.60315 0.970509C1.26134 0.970509 1.06601 0.983278 0.870682 1.00456C1.35899 1.0003 1.74965 0.974765 2.23796 0.966252C2.82393 0.953483 3.31224 0.979021 3.36107 1.03435C3.4099 1.07266 3.65405 1.10246 3.99586 1.12374C4.24002 1.13651 4.28885 1.16205 4.533 1.17907C4.77716 1.17907 4.826 1.13651 5.16782 1.14928C5.41197 1.15779 5.41196 1.18333 5.46078 1.20461C5.46078 1.18758 5.4608 1.17481 5.41197 1.16205C5.36314 1.14928 5.11897 1.14076 5.3143 1.12799C5.4608 1.11523 5.65611 1.13225 5.85144 1.13651C5.65611 1.11097 5.36313 1.10246 5.02132 1.0982C4.82599 1.09394 4.6795 1.09394 4.533 1.08543C4.28885 1.07266 3.99586 1.06415 4.04469 1.0301C4.14235 0.996047 4.38651 1.0003 4.72832 1.0003C5.11896 1.0003 5.50963 0.996047 5.80261 1.0301C5.85144 1.03861 6.04675 1.03861 6.19325 1.03861C6.68156 1.03435 6.82806 1.05564 6.82806 1.09394C6.87689 1.10246 6.87689 1.11097 6.92572 1.11523C7.26753 1.13225 7.51169 1.14928 7.46286 1.19184C7.46286 1.22163 7.65819 1.25569 8 1.27271C7.75584 1.29399 7.56052 1.31102 7.70702 1.34507C7.80467 1.36635 7.3652 1.37486 7.46286 1.39615C7.56052 1.4302 7.65817 1.46425 7.26753 1.48979C7.16988 1.49404 7.12103 1.4983 7.02338 1.4983C6.82805 1.4983 6.68156 1.49404 6.58391 1.52384C6.48625 1.55363 6.53508 1.59619 6.14444 1.62173C6.48625 1.61748 6.82806 1.60896 6.87689 1.64301C6.87689 1.67707 6.63274 1.70686 6.19325 1.71112C5.70494 1.71112 5.60728 1.72389 5.85144 1.76219C6.14442 1.80901 5.99792 1.86009 5.9491 1.90691C5.9491 1.9367 5.55846 1.95799 5.16782 1.96224C5.02132 1.96224 4.82599 1.95373 4.77716 1.9665C4.533 2.05163 3.70287 1.98778 3.31223 2.01757C3.36105 2.02183 3.50755 2.01332 3.65405 2.01757C3.89821 2.02183 3.94704 2.04311 3.75171 2.04737C3.21457 2.06014 3.16574 2.10696 2.92159 2.14527C3.4099 2.12824 3.84938 2.15804 4.24002 2.1708C4.72833 2.18357 4.77716 2.22188 4.48418 2.26019C4.38652 2.27296 4.28886 2.28573 4.09354 2.29424C3.65405 2.31126 3.60522 2.33255 3.84938 2.36234C3.99588 2.37937 4.04471 2.40065 3.84938 2.41342C3.60522 2.43044 3.45872 2.4049 3.31223 2.39214C3.21457 2.38788 3.16574 2.37511 3.01924 2.37511C3.16574 2.40065 3.36107 2.42619 3.75171 2.4347C4.28885 2.44321 4.48418 2.48152 4.6795 2.51557C4.87483 2.54962 4.72833 2.56239 4.28885 2.55388C4.09352 2.54962 3.94704 2.54536 3.75171 2.54962C3.45872 2.55388 3.11691 2.56239 3.50755 2.59644C3.60521 2.60495 3.65405 2.62198 3.65405 2.63475C3.65405 2.6688 3.60522 2.69859 3.06808 2.68582C2.97043 2.68157 2.87277 2.68582 2.72627 2.69434C3.01926 2.70711 3.21457 2.72839 3.2634 2.75818C3.36105 2.78798 3.55638 2.82628 3.99586 2.83054C4.38651 2.8348 4.48418 2.85182 4.33768 2.88162C4.19118 2.91141 3.94702 2.92844 3.55638 2.91141C3.40988 2.9029 3.31224 2.88587 3.16574 2.88162C2.97041 2.92844 2.97041 2.93695 3.50755 2.96249C3.60521 2.96674 3.75171 2.971 3.70288 2.97951C3.45872 3.05187 4.19119 3.02633 4.48418 3.0391C4.533 3.04336 4.63068 3.0391 4.6795 3.0391C4.92366 3.0391 5.21664 3.0391 5.3143 3.0689C5.36313 3.09869 5.21664 3.11572 4.92366 3.12849C4.24002 3.11997 3.60522 3.11997 3.11691 3.17105C3.01926 3.18382 2.82393 3.18382 2.6286 3.19233C2.43327 3.20084 2.1403 3.21787 1.9938 3.19233C1.84731 3.17105 2.14027 3.16254 2.28677 3.14977C2.57976 3.12849 2.57979 3.12423 2.43329 3.07315C2.28679 3.09444 2.4821 3.12849 2.09146 3.137C1.79848 3.14126 1.50549 3.13274 1.31017 3.11146C1.40782 3.14126 1.45667 3.17105 1.45667 3.2051C1.45667 3.23915 1.31017 3.24766 1.06601 3.2349C0.675369 3.21787 0.235901 3.22638 -0.203583 3.21361C0.0894012 3.23064 0.480026 3.20936 0.626526 3.24341C0.724182 3.26469 0.528885 3.2732 0.284729 3.27746C0.675369 3.28172 1.06602 3.31151 1.40784 3.26469C1.50549 3.25192 1.74963 3.26043 1.89613 3.26895C2.04263 3.28172 2.09146 3.29448 1.9938 3.31151C1.94498 3.32002 1.84731 3.32854 1.79848 3.3413C1.60315 3.38812 1.11485 3.38387 0.675369 3.38387C0.675369 3.44771 0.138229 3.42643 -0.203583 3.42218C-0.496567 3.41792 -0.594238 3.42643 -0.643066 3.44771C-0.691895 3.46474 -0.691895 3.48176 -0.740723 3.49879C-0.789551 3.51156 -0.887222 3.52007 -1.03372 3.52007C-1.18022 3.52007 -1.32671 3.51582 -1.32671 3.50305C-1.32671 3.46474 -1.71735 3.469 -1.86385 3.46048C-2.05917 3.45197 -2.05916 3.46474 -2.01033 3.45623C-2.01033 3.45623 -2.01033 3.45623 -1.9615 3.45623C-1.61969 3.469 -1.47318 3.48602 -1.6685 3.52433C-1.76616 3.54561 -1.52203 3.57966 -1.81502 3.6052C-2.05917 3.62648 -2.2545 3.64351 -2.59631 3.63074C-2.93813 3.61797 -2.88928 3.59243 -2.79163 3.56689C-2.5963 3.50305 -2.59631 3.50305 -3.52409 3.50305C-3.37759 3.52433 -2.88928 3.52007 -3.03578 3.55412C-3.23111 3.59243 -3.52409 3.62648 -4.01241 3.63499C-4.50072 3.64351 -4.98901 3.64776 -5.4285 3.67756C-5.575 3.69033 -5.77031 3.68181 -5.91681 3.6733C-6.11214 3.66479 -6.25862 3.66053 -6.35628 3.68181C-6.40511 3.69458 -6.50278 3.70735 -6.30745 3.72012C-6.16095 3.72863 -6.01447 3.72012 -5.91681 3.71161C-5.62383 3.68181 -5.03784 3.69458 -4.74486 3.65628C-4.69603 3.64776 -4.5007 3.65628 -4.45187 3.66904C-4.40305 3.68181 -4.59836 3.70735 -4.20772 3.7031C-3.91473 3.69884 -3.52409 3.72438 -3.32877 3.68607C-3.23111 3.66479 -3.13344 3.63499 -2.79163 3.64776C-2.44981 3.66053 -2.05916 3.68181 -1.9615 3.72012C-1.86385 3.74566 -2.05917 3.76694 -2.35216 3.77545C-2.69397 3.78397 -3.03578 3.80099 -3.42642 3.79248C-3.76823 3.78397 -4.06123 3.80099 -4.45187 3.82227C-3.81708 3.83504 -3.13344 3.76694 -2.7428 3.84356C-2.69397 3.83079 -2.69395 3.82227 -2.69395 3.81376C-2.69395 3.77545 -2.44981 3.77545 -2.20566 3.79674C-1.66852 3.8393 -1.08255 3.86484 -0.350082 3.84781C-0.252426 3.84356 -0.154755 3.84781 -0.105927 3.85633C-0.00827026 3.89889 0.480026 3.92443 0.626526 3.96699C0.724182 3.95422 0.773026 3.94145 0.919525 3.92868C1.01718 3.92017 1.16368 3.91591 1.26134 3.92017C1.40784 3.92868 1.40782 3.9372 1.35899 3.94997C1.21249 3.97125 1.21251 3.98827 1.50549 4.00104C1.70082 4.00955 1.60316 4.02658 1.45667 4.03935C1.35901 4.04786 1.26134 4.05212 1.11484 4.05637C0.333542 4.08191 -0.643066 4.03935 -0.887222 3.97125C-0.93605 3.95422 -0.887222 3.93294 -1.18021 3.93294C-1.42436 3.93294 -1.52203 3.94145 -1.61969 3.95848C-1.81502 3.99253 -2.15683 3.99253 -2.54747 3.98827C-2.7428 3.98402 -2.93811 3.96273 -3.13344 3.97976C-3.32877 4.00104 -3.47525 4.02232 -3.42642 4.05212C-3.37759 4.08191 -3.96358 4.14576 -4.25656 4.15427C-4.35422 4.15427 -4.45189 4.15853 -4.50072 4.15001C-4.69604 4.12022 -5.08667 4.11171 -5.37965 4.09468C-5.86797 4.06063 -5.86797 4.03935 -5.33083 4.00955C-5.18433 4.00104 -5.08669 3.98827 -5.03786 3.97125C-5.28201 3.95848 -5.57498 3.95422 -5.81914 3.94145C-5.91679 3.9372 -5.96564 3.9074 -6.20979 3.92868C-6.40512 3.94145 -6.55161 3.95848 -6.40511 3.97976C-6.11212 4.01807 -5.96564 4.05638 -5.81914 4.09894C-5.72148 4.12448 -5.37967 4.13299 -5.13551 4.1415C-4.59837 4.15853 -3.96356 4.16278 -3.62175 4.21812C-3.57292 4.23089 -3.37759 4.23514 -3.27994 4.22663C-2.79163 4.18832 -2.20564 4.20535 -1.6685 4.19684C-1.61967 4.19684 -1.57085 4.20109 -1.52202 4.20535C-1.27786 4.26068 -1.37553 4.29473 -1.9615 4.33304C-2.15683 4.34581 -2.49863 4.35432 -2.40097 4.38837C-2.15681 4.39263 -1.9615 4.37986 -1.9615 4.36709C-1.815 4.32027 -1.18021 4.32027 -0.887222 4.28622C-0.740723 4.26919 -0.496582 4.28196 -0.301254 4.29473C-0.0570984 4.31176 -0.203583 4.32453 -0.350082 4.33729C-0.54541 4.35432 -0.54541 4.3756 -0.643066 4.39263C-0.789566 4.42668 -0.93605 4.46499 -1.52202 4.44796C-1.57085 4.46499 -1.47319 4.46499 -1.42436 4.46499C-1.27786 4.46924 -1.03372 4.46924 -1.03372 4.48627C-1.03372 4.50755 -1.22903 4.52032 -1.42436 4.52032C-1.91267 4.51606 -2.35216 4.5416 -2.84047 4.5416C-3.27995 4.5416 -3.52408 4.53734 -3.42642 4.49052C-3.37759 4.46499 -3.76826 4.43093 -3.08463 4.40965C-3.42644 4.4054 -3.67058 4.4054 -3.71941 4.38411C-3.47525 4.34581 -2.98695 4.32453 -2.7428 4.29473C-3.18228 4.29473 -3.67058 4.31176 -4.20772 4.31601C-4.59836 4.32027 -4.74486 4.31176 -4.94019 4.28196C-5.18434 4.24791 -5.282 4.20109 -5.77031 4.17981C-5.81914 4.17981 -5.77031 4.18407 -5.77031 4.18832C-5.77031 4.21386 -5.37965 4.2394 -5.57498 4.26068C-5.81914 4.28196 -6.16095 4.24365 -6.40511 4.24791C-6.99107 4.26068 -7.6259 4.22663 -8.21187 4.26068C-8.74901 4.29047 -9.28612 4.27345 -9.7256 4.24791C-9.77443 4.24365 -9.77444 4.22663 -9.92094 4.24365C-10.1163 4.27771 -10.5069 4.26919 -10.8487 4.27345C-10.8976 4.27771 -10.8487 4.27771 -10.7999 4.27771C-10.2139 4.29047 -9.7256 4.32453 -9.09081 4.28196C-8.84665 4.26494 -8.2607 4.28196 -8.1142 4.32453C-8.06537 4.34155 -7.87004 4.35006 -7.62589 4.33729C-7.47939 4.32878 -7.28407 4.32027 -7.13757 4.33304C-6.94225 4.35006 -6.99107 4.36709 -7.0399 4.38837C-7.0399 4.39688 -7.13759 4.4054 -7.23524 4.41391C-7.82121 4.46924 -7.72354 4.49052 -6.84459 4.50329C-6.64926 4.50755 -6.50278 4.50329 -6.45395 4.49052C-6.40512 4.46924 -6.55161 4.46924 -6.6981 4.46499C-7.13759 4.46073 -7.33289 4.45647 -7.0399 4.40965C-6.84457 4.37986 -6.74692 4.34155 -6.40511 4.31601C-6.20978 4.30324 -6.16095 4.27771 -5.86797 4.28622C-5.52615 4.29899 -5.72148 4.32027 -5.67265 4.34155C-5.4285 4.27771 -5.23317 4.26919 -4.74486 4.32027C-4.45187 4.35006 -3.96356 4.34581 -3.71941 4.37986C-4.06122 4.42668 -4.45187 4.40965 -4.84251 4.38411C-4.79369 4.39688 -4.40306 4.40114 -4.50072 4.42242C-4.54955 4.44796 -4.89134 4.43093 -5.08667 4.44796C-4.89134 4.47776 -4.6472 4.49904 -4.25656 4.51606C-3.81708 4.53309 -3.52409 4.56288 -3.27994 4.60119C-3.08461 4.63098 -3.18227 4.65227 -3.62175 4.64801C-3.81708 4.64801 -3.96356 4.64801 -4.15889 4.64375C-4.5007 4.6395 -4.69601 4.64375 -4.59836 4.6778C-4.54953 4.69483 -4.59837 4.71186 -4.7937 4.72037C-5.03786 4.73314 -5.282 4.72462 -5.47733 4.71186C-5.67265 4.69909 -5.77031 4.6778 -5.96564 4.66504C-6.01447 4.66929 -6.01447 4.66929 -5.96564 4.67355C-5.81914 4.69909 -5.23318 4.72888 -5.52617 4.75016C-5.81915 4.7757 -6.35628 4.78847 -6.79576 4.77144C-7.1864 4.75442 -7.62589 4.75868 -8.01653 4.75442C-8.06535 4.75016 -8.1142 4.75016 -8.16302 4.74591C-8.26068 4.70334 -8.84665 4.66503 -8.50484 4.6097C-8.74899 4.63524 -8.74899 4.66504 -8.99315 4.68632C-9.04198 4.69057 -9.09082 4.69483 -9.13965 4.69483C-9.28615 4.70334 -9.48146 4.66929 -9.53029 4.70334C-9.62794 4.75016 -9.8721 4.72037 -10.0674 4.71186C-9.96977 4.72888 -9.77444 4.75016 -10.0674 4.77144C-10.3116 4.78847 -10.6046 4.79698 -10.8487 4.78421C-11.2394 4.76719 -11.5323 4.75016 -12.0207 4.77144C-12.3625 4.78847 -12.4113 4.75016 -12.4601 4.72462C-12.7043 4.73739 -12.6555 4.76293 -12.8508 4.76719C-13.095 4.7757 -13.3391 4.78847 -13.4856 4.75442C-13.6809 4.71186 -13.9739 4.68632 -14.511 4.70334C-14.6575 4.7076 -14.7552 4.7076 -14.9017 4.70334C-15.0482 4.69909 -15.2923 4.69483 -15.3412 4.68206C-15.39 4.66503 -15.1947 4.65652 -15.097 4.64375C-14.9993 4.63524 -14.8529 4.62673 -14.7552 4.6097C-15.0482 4.60545 -15.2435 4.63098 -15.4877 4.61396C-15.7806 4.59693 -15.4877 4.57565 -15.5853 4.54586C-16.1225 4.57139 -16.7573 4.53309 -17.2456 4.58416C-17.3432 4.59693 -17.5874 4.59693 -17.7339 4.58416C-17.8804 4.57565 -17.9292 4.55863 -17.9292 4.5416C-17.8804 4.52458 -17.7827 4.50755 -17.5385 4.50329C-17.2456 4.49904 -16.9037 4.49904 -16.6108 4.50329C-16.3666 4.50755 -16.1225 4.50755 -15.8783 4.50329C-15.4877 4.49052 -15.1947 4.48201 -15.6342 4.4437C-15.9271 4.41817 -15.8295 4.40114 -15.4388 4.39263C-15.1458 4.38837 -14.804 4.38411 -14.511 4.39688C-14.3157 4.4054 -14.1204 4.42242 -14.218 4.43519C-14.4622 4.4735 -14.1204 4.47775 -13.8762 4.49052C-13.3391 4.51606 -12.8996 4.55011 -12.7531 4.60545C-12.7043 4.61822 -12.7043 4.62673 -12.4601 4.63524C-12.3136 4.59268 -11.8253 4.56288 -11.9718 4.50755C-12.0207 4.48201 -11.7765 4.47776 -11.5323 4.48201C-11.4347 4.48201 -11.2394 4.49052 -11.2394 4.4735C-11.2394 4.46499 -11.2394 4.45222 -11.2882 4.44796C-11.3859 4.43519 -11.5324 4.43945 -11.63 4.44796C-11.9718 4.46499 -12.3136 4.48201 -12.1671 4.52458C-12.0695 4.55863 -12.1672 4.57139 -12.5578 4.55437C-12.802 4.5416 -13.1438 4.5416 -13.3391 4.52458C-13.5344 4.50755 -13.8274 4.49052 -13.7786 4.46499C-13.7298 4.43945 -13.3879 4.4437 -13.1926 4.43519C-13.1926 4.43093 -13.1926 4.42668 -13.2414 4.42668C-14.1204 4.41817 -14.1204 4.41817 -13.6809 4.34581C-13.7786 4.33304 -13.9251 4.34155 -14.0227 4.34155C-14.4622 4.34581 -14.8529 4.35858 -15.2923 4.34155C-15.5365 4.33304 -15.976 4.32453 -16.269 4.34581C-16.4643 4.35858 -16.6108 4.35432 -16.7084 4.34155C-16.8549 4.32878 -16.9037 4.31176 -16.8061 4.29473C-16.7573 4.28622 -16.6596 4.28196 -16.5619 4.27345C-15.976 4.22663 -15.9271 4.20535 -16.1713 4.1415C-16.2201 4.12873 -16.2201 4.11171 -16.3178 4.09468C-16.7084 4.12873 -17.1479 4.10745 -17.5385 4.10319C-17.978 4.09894 -17.8804 4.06489 -17.7339 4.03935C-17.6362 4.02232 -17.4409 4.00955 -17.2456 4.00104C-17.1479 3.99679 -16.9526 3.98827 -17.0502 3.9755C-17.685 3.89038 -17.3432 3.80525 -17.1479 3.71586C-17.1479 3.71161 -17.0991 3.7031 -17.0991 3.68607C-17.1967 3.71586 -17.2944 3.72863 -17.4409 3.73715C-17.5874 3.74566 -17.6851 3.75417 -17.4409 3.76268C-17.3921 3.76268 -17.3432 3.7712 -17.3921 3.7712C-17.978 3.81802 -17.6362 3.88612 -18.0269 3.9372C-18.1734 3.95848 -18.4175 3.94997 -18.5152 3.93294C-18.7105 3.9074 -18.857 3.91591 -19.0035 3.9372C-19.1011 3.95422 -19.3453 3.96273 -19.443 3.97976C-19.7359 4.01807 -20.1266 4.02232 -20.5172 4.00104C-20.9567 3.97976 -20.7126 3.94997 -20.6149 3.92017C-20.2243 3.88186 -19.5894 3.85632 -19.5894 3.79248C-19.5894 3.78822 -19.5406 3.78397 -19.443 3.77971C-18.564 3.76268 -18.7593 3.69033 -18.564 3.63925C-18.4175 3.60094 -18.271 3.54987 -19.0035 3.53284C-19.2476 3.52433 -19.2965 3.49453 -19.15 3.47751C-18.857 3.44346 -18.857 3.40515 -18.857 3.37536C-18.857 3.40089 -19.0523 3.43069 -19.2476 3.46048C-19.4918 3.49028 -19.6383 3.52007 -19.4918 3.56264C-19.3941 3.59243 -19.443 3.62222 -19.8824 3.63074C-20.3219 3.63925 -20.3707 3.6052 -20.4684 3.57966C-20.6637 3.52858 -20.3219 3.49028 -19.9801 3.44771C-20.2242 3.44346 -20.4684 3.44346 -20.4684 3.46474C-20.4684 3.50305 -20.6637 3.54135 -20.4684 3.57966C-20.2731 3.61797 -20.0289 3.65202 -20.3219 3.69884C-20.4684 3.72863 -19.9801 3.73289 -19.9313 3.75843C-20.1266 3.77971 -20.4196 3.77545 -20.6637 3.76694C-20.9079 3.72438 -21.3962 3.71161 -21.8357 3.70735C-21.152 3.78822 -21.152 3.83504 -21.9333 3.90315C-21.3962 3.92017 -21.3962 3.94571 -21.738 3.97976C-21.9822 4.0053 -22.4216 4.03084 -22.031 4.0734C-21.9822 4.08191 -22.031 4.09468 -22.1287 4.09894C-22.617 4.12448 -22.4705 4.16278 -22.4216 4.20109C-22.3728 4.29899 -22.0798 4.39688 -22.3728 4.49904C-22.4216 4.52032 -22.8611 4.53309 -22.6658 4.56288C-22.5193 4.58842 -22.5193 4.61822 -22.5193 4.64801C-22.5193 4.65652 -22.5193 4.64801 -22.5193 4.65227C-22.5193 4.67355 -22.3728 4.69909 -22.6658 4.7076C-22.9588 4.71611 -23.1541 4.70334 -23.3006 4.6778C-23.3494 4.69483 -22.8611 4.7076 -23.3006 4.72462C-23.3494 4.72462 -23.4959 4.72037 -23.3006 4.72888C-22.5681 4.76293 -22.3728 4.80975 -22.8123 4.86934C-23.0076 4.89914 -22.91 4.91616 -22.7635 4.93744C-22.3728 4.98852 -22.2263 5.04385 -22.5681 5.09918C-22.7146 5.12047 -22.4705 5.12472 -22.3728 5.13324C-22.1287 5.15877 -21.9822 5.18857 -22.2752 5.22262C-22.4705 5.2439 -22.5681 5.26944 -22.6658 5.29498C-22.7635 5.32477 -23.0076 5.34605 -23.3494 5.35882C-23.7889 5.37159 -23.9842 5.40139 -23.8377 5.44395C-23.7401 5.478 -23.6913 5.51631 -23.7401 5.55462C-23.7889 5.5759 -23.7401 5.60144 -23.5448 5.61846C-23.2518 5.64826 -23.2518 5.67805 -23.6912 5.69933C-24.1796 5.72487 -23.4471 5.72487 -23.5936 5.7419C-23.6913 5.76318 -23.6913 5.78446 -23.7401 5.81C-23.3494 5.79723 -23.7401 5.76318 -23.4959 5.75041C-23.2518 5.7419 -23.0076 5.73338 -22.7635 5.7419C-22.4705 5.77169 -22.324 5.80574 -22.324 5.84405C-22.2263 5.83554 -22.4216 5.81425 -22.2263 5.81C-22.031 5.80574 -21.9333 5.81425 -21.8357 5.82702C-21.6892 5.84405 -21.5427 5.85256 -21.2985 5.8483C-20.8591 5.83979 -21.2985 5.82277 -21.2009 5.81C-21.152 5.80148 -21.152 5.79297 -21.0544 5.78872C-20.7126 5.76743 -20.4684 5.78872 -20.1754 5.79723C-19.9801 5.80574 -19.7359 5.80574 -19.7359 5.83554C-19.7848 5.86107 -19.8824 5.88236 -20.1754 5.88661C-20.7126 5.89087 -21.152 5.92918 -21.6892 5.92066C-21.738 5.92492 -21.7868 5.92492 -21.8357 5.92492C-21.9333 5.92492 -22.031 5.92066 -22.1287 5.93343C-22.324 5.976 -22.4217 5.98025 -22.8611 5.95046C-23.0564 5.93769 -23.1053 5.92066 -23.1541 5.89938C-23.2029 5.88661 -23.2518 5.86107 -23.5448 5.86533C-23.5936 5.88236 -23.4471 5.88236 -23.3983 5.88661C-23.0564 5.89938 -23.1053 5.92492 -23.2518 5.9462C-23.3983 5.97174 -23.6912 5.96748 -23.8866 5.95471C-24.326 5.92066 -24.9608 5.92066 -25.3515 5.88236C-25.5956 5.86107 -25.7421 5.86959 -25.8886 5.89087C-26.2304 5.93769 -26.6699 5.94194 -27.1094 5.89512C-27.2071 5.88661 -27.2071 5.86959 -27.4024 5.8781C-27.5977 5.88661 -27.4024 5.89938 -27.3536 5.90789C-27.3047 5.91641 -27.2071 5.92492 -27.2071 5.93343C-27.1582 5.95046 -27.0117 5.96748 -27.2559 5.98025C-27.5001 5.99302 -27.6954 5.98451 -27.793 5.96323C-27.8907 5.93769 -28.0372 5.94194 -28.2325 5.9462C-28.5255 5.95046 -28.8185 5.9462 -28.965 5.92066C-29.1115 5.89087 -28.7696 5.88236 -28.5743 5.86959C-28.2813 5.8483 -28.3302 5.8483 -28.672 5.79723C-28.8185 5.81 -28.8673 5.82702 -28.965 5.83979C-29.3068 5.88661 -29.4533 5.88661 -29.8439 5.8483C-30.0393 5.82702 -30.6741 5.82702 -30.4299 5.77169C-30.3811 5.76743 -30.5764 5.76743 -30.6741 5.76743C-30.9182 5.76743 -31.0647 5.75892 -31.0159 5.73764C-30.967 5.71636 -30.8205 5.70359 -30.6252 5.70784C-29.9416 5.72061 -29.3068 5.69933 -28.672 5.68656C-28.2325 5.67805 -27.8419 5.69082 -27.5001 5.71636C-27.3047 5.72913 -27.0606 5.7419 -26.8652 5.75466C-26.2304 5.78872 -26.1816 5.78872 -25.5468 5.73764C-25.9375 5.72913 -26.2793 5.72061 -26.4258 5.68656C-26.5234 5.66528 -26.6211 5.67379 -26.8164 5.68231C-27.2071 5.69933 -27.3535 5.69082 -27.3047 5.65251C-27.3047 5.64826 -27.2559 5.644 -27.2559 5.644C-27.6465 5.67379 -27.8419 5.62697 -28.1348 5.62697C-28.9161 5.63123 -29.3068 5.58015 -29.7951 5.54185C-29.8439 5.53759 -29.8439 5.53333 -29.8928 5.52908C-29.8928 5.50354 -29.8439 5.48226 -30.1369 5.46523C-30.4299 5.45246 -30.2346 5.42267 -30.2346 5.40564C-30.7229 5.38011 -31.1624 5.41416 -31.6018 5.41841C-31.8948 5.42267 -31.7483 5.44395 -31.6507 5.45672C-31.3577 5.48651 -31.6018 5.49503 -31.846 5.49928C-32.2366 5.50779 -32.5785 5.49503 -32.9691 5.48651C-33.5062 5.47374 -33.6527 5.48651 -33.5551 5.53333C-33.5063 5.58441 -33.0668 5.60569 -32.6273 5.61846C-32.432 5.62272 -32.2855 5.63549 -32.139 5.644C-32.0902 5.62697 -32.2855 5.62697 -32.3831 5.62272C-32.6273 5.60995 -32.725 5.58867 -32.5785 5.56738C-32.432 5.54185 -32.139 5.5461 -31.9437 5.55887C-31.6507 5.5759 -31.4553 5.57164 -31.2112 5.55462C-30.8205 5.52908 -30.4787 5.54185 -30.4299 5.58441C-30.3322 5.644 -30.6252 5.68231 -31.26 5.69508C-31.553 5.69933 -31.6995 5.70784 -31.7972 5.73338C-31.8948 5.76743 -32.1878 5.78446 -32.3831 5.81C-32.5785 5.83554 -32.7738 5.81851 -33.0179 5.81C-33.3598 5.79723 -33.6527 5.78446 -33.8969 5.82702C-33.9946 5.8483 -34.2876 5.85682 -34.5805 5.86107C-34.9712 5.86959 -35.313 5.84405 -35.313 5.81425C-35.313 5.80574 -35.2642 5.79723 -35.2642 5.79297C-35.1177 5.72061 -35.1177 5.72061 -34.2875 5.72487C-34.9712 5.68231 -35.2642 5.68656 -35.6548 5.74615C-35.8013 5.77169 -36.3384 5.76743 -36.6314 5.73764C-36.7291 5.72487 -36.8268 5.7121 -36.8756 5.69933C-36.9732 5.66954 -37.2174 5.65677 -37.5592 5.66102C-37.7545 5.66528 -37.901 5.66528 -38.0964 5.65677C-38.3893 5.63974 -38.3893 5.60569 -38.0475 5.59292C-37.8034 5.58441 -37.5592 5.5759 -37.2662 5.5759C-37.0709 5.5759 -36.9732 5.56738 -36.9244 5.55036C-36.8267 5.5078 -36.4849 5.49503 -36.0943 5.52482C-35.7525 5.55036 -35.3618 5.57164 -35.1665 5.60995C-35.3618 5.56738 -35.9478 5.55036 -35.9966 5.49503C-35.9966 5.47374 -36.5338 5.48226 -36.7291 5.46098C-37.0709 5.42692 -37.2174 5.46523 -37.4127 5.47374C-37.6569 5.48651 -37.8522 5.49928 -38.0475 5.51205C-38.6335 5.55036 -39.4148 5.52908 -39.6101 5.46523C-39.6589 5.44821 -39.7078 5.43118 -39.5124 5.41841C-39.3171 5.40564 -39.1218 5.4099 -38.8776 5.41841C-38.6823 5.42692 -38.6335 5.44821 -38.3893 5.43969C-38.3405 5.43969 -38.2428 5.43544 -38.2917 5.43969C-38.5847 5.40139 -39.1218 5.40564 -39.5124 5.38436C-39.7566 5.37159 -39.9519 5.3418 -40.2937 5.33328C-40.2449 5.36734 -40.3426 5.40564 -40.2937 5.43969C-40.2937 5.46098 -40.5379 5.47374 -40.7821 5.478C-41.0262 5.48226 -41.075 5.46523 -41.1239 5.44821C-41.2215 5.42267 -41.4168 5.40139 -41.4657 5.38011C-41.5633 5.34605 -41.7587 5.32052 -42.1981 5.31626C-42.4911 5.312 -42.6376 5.29072 -42.7353 5.26944C-42.9794 5.21411 -43.3701 5.1758 -44.1514 5.1758C-44.249 5.1758 -44.2979 5.16729 -44.4444 5.16303C-44.4932 5.18006 -44.3955 5.20559 -44.6885 5.21836C-44.9327 5.22688 -45.128 5.22262 -45.3233 5.21836C-45.714 5.20559 -46.0558 5.22262 -46.3976 5.23539C-46.8859 5.25667 -47.2277 5.2439 -47.423 5.20134C-47.5207 5.18006 -47.5207 5.16729 -47.2277 5.16303C-46.4953 5.15452 -46.8371 5.12898 -47.1301 5.1077C-47.2277 5.09918 -47.3254 5.08642 -47.4719 5.08216C-47.2766 5.09493 -46.8859 5.11195 -46.9347 5.13324C-47.0324 5.16303 -47.4719 5.16303 -47.8137 5.15877C-48.0579 5.15452 -48.3997 5.15026 -48.4485 5.17154C-48.4973 5.19282 -48.302 5.22262 -47.9602 5.22688C-47.6672 5.23113 -47.4719 5.26518 -47.0812 5.25241C-46.8371 5.2439 -46.8859 5.27795 -46.9836 5.29072C-47.1301 5.31626 -47.3254 5.35457 -47.0324 5.36734C-46.6418 5.38436 -46.4464 5.34605 -46.2999 5.32052C-45.9093 5.25667 -45.128 5.23539 -44.542 5.26518C-44.1514 5.28221 -44.1514 5.312 -44.4444 5.33328C-45.0792 5.37585 -45.9581 5.39287 -46.4953 5.45672C-46.9347 5.44821 -47.3254 5.44395 -47.6184 5.48226C-47.6672 5.48651 -47.8137 5.48226 -47.8625 5.47374C-48.2532 5.42692 -48.888 5.43544 -49.3763 5.41841C-49.181 5.42692 -49.0833 5.43544 -48.8391 5.43118C-48.3508 5.42693 -48.0579 5.46949 -47.6672 5.48651C-47.3742 5.49928 -47.2277 5.51205 -46.9836 5.48226C-46.6906 5.45246 -46.2999 5.46098 -45.9581 5.47374C-45.7628 5.48226 -45.6163 5.48651 -45.5187 5.46098C-45.4698 5.44395 -45.2745 5.43969 -45.0792 5.43969C-44.9815 5.43969 -44.835 5.44395 -44.7862 5.43118C-44.7374 5.39287 -44.4932 5.38862 -44.1514 5.40564C-43.8096 5.42267 -43.6142 5.44395 -43.7607 5.48226C-43.8096 5.49077 -43.8096 5.49928 -43.8096 5.50354C-43.8584 5.50779 -43.8584 5.51205 -43.9072 5.51631C-44.1514 5.52482 -44.4932 5.52908 -44.6397 5.55036C-44.6885 5.55462 -44.835 5.55887 -44.7374 5.56738C-44.2002 5.61846 -44.9327 5.60569 -45.0792 5.62272C-45.6651 5.69508 -46.5441 5.63123 -47.2277 5.65251C-47.3254 5.65677 -47.4719 5.644 -47.5695 5.63549C-47.7649 5.61846 -47.9602 5.60569 -48.2532 5.62697C-48.4973 5.64825 -48.5462 5.66954 -48.2532 5.69508C-48.2044 5.69933 -48.2043 5.70359 -48.1555 5.70784C-48.1555 5.73338 -48.0578 5.75041 -47.8625 5.76743C-47.7649 5.77595 -47.6184 5.78872 -47.716 5.80148C-47.8137 5.81851 -48.009 5.81 -48.1067 5.80574C-48.4485 5.78872 -48.8392 5.79723 -49.2298 5.80574C-49.1321 5.82702 -48.9368 5.83979 -48.7903 5.85256C-48.1555 5.89512 -48.1067 5.92918 -48.595 5.99302C-49.8158 6.00579 -51.0365 5.99728 -52.2085 5.99728C-55.5778 5.99728 -58.8983 5.99728 -62.2676 5.99728C-62.3653 5.99728 -62.463 5.99302 -62.6095 5.99302C-63.3908 6.00153 -64.1232 5.98876 -64.9533 5.98876C-64.758 5.95471 -64.5139 5.93343 -64.2209 5.91641C-63.9767 5.89938 -63.9279 5.88661 -64.2209 5.86959C-64.8068 5.83128 -64.758 5.81851 -64.2209 5.77595C-63.9767 5.75466 -63.8791 5.72913 -63.8791 5.70359C-63.8791 5.65677 -63.5373 5.63974 -63.1466 5.62697C-63.0489 5.62272 -62.9024 5.62272 -62.756 5.6142C-62.5118 5.60144 -62.17 5.58867 -62.6583 5.56313C-62.756 5.55887 -62.8048 5.5461 -62.9025 5.53759C-62.9513 5.52908 -63.0489 5.52482 -63.1954 5.53333C-63.2931 5.53759 -63.2443 5.54185 -63.2443 5.55036C-63.1954 5.6142 -63.9279 5.66954 -64.6115 5.64825C-64.8557 5.63974 -64.9045 5.65251 -65.0022 5.66528C-65.051 5.67805 -65.1975 5.70359 -65.344 5.69508C-66.0765 5.66102 -66.7601 5.72487 -67.4437 5.69933C-67.7855 5.68656 -68.1762 5.68656 -68.5668 5.70359C-68.6645 5.70784 -68.7621 5.70784 -68.8598 5.70359C-68.9575 5.69933 -68.9086 5.66528 -69.104 5.69082C-69.2505 5.70359 -69.104 5.7121 -68.9575 5.72061C-68.811 5.72913 -68.3715 5.74615 -68.1762 5.74615C-67.7855 5.74615 -67.7855 5.77595 -67.639 5.79723C-67.5414 5.78446 -67.3949 5.76743 -67.1996 5.77169C-66.8577 5.7802 -66.5648 5.78446 -66.3694 5.74615C-66.3694 5.7419 -64.758 5.76318 -64.758 5.76318C-64.5139 5.78446 -64.6115 5.81851 -65.051 5.83128C-65.4905 5.84405 -65.7835 5.85256 -65.9788 5.89938C-66.1741 5.93769 -66.8089 5.94194 -67.3461 5.9462C-67.3949 5.9462 -67.4437 5.9462 -67.4926 5.9462C-67.8344 5.93769 -68.1762 5.94194 -68.518 5.95046C-69.104 5.96323 -68.6645 5.90364 -69.104 5.89087C-69.4458 5.88236 -69.7388 5.85256 -70.1783 5.86533C-70.5689 5.87384 -70.7642 5.84405 -70.9595 5.81425C-71.4967 5.88236 -72.1803 5.86959 -72.864 5.83979C-73.3034 5.82277 -73.6452 5.83554 -73.7917 5.8781C-73.9382 5.91641 -74.4265 5.94194 -74.866 5.92918C-75.159 5.92492 -75.0613 5.90789 -75.0125 5.89512C-74.7195 5.82277 -74.866 5.80148 -75.6961 5.78446C-75.5496 5.79297 -75.2567 5.78446 -75.2078 5.80574C-75.159 5.82702 -75.3543 5.83554 -75.5008 5.8483C-76.0868 5.89087 -76.8681 5.89087 -77.3564 5.85256C-77.5029 5.83979 -77.6494 5.82702 -77.6005 5.80574C-77.5517 5.78446 -77.3076 5.79297 -77.1611 5.78446C-76.9169 5.77169 -76.6239 5.7802 -76.4774 5.75892C-76.8681 5.77169 -77.3564 5.76743 -77.6494 5.79297C-77.9912 5.82277 -78.2842 5.8483 -78.7725 5.82702C-78.919 5.82277 -78.9678 5.82702 -79.0655 5.83554C-79.2608 5.85682 -79.505 5.86959 -79.7491 5.85256C-79.9933 5.83554 -80.3839 5.81851 -80.2862 5.7802C-80.2862 5.77169 -80.2374 5.76743 -80.3351 5.75892C-80.5792 5.77169 -80.4816 5.81425 -80.8722 5.81851C-81.4582 5.83128 -82.0442 5.84405 -82.6301 5.8483C-83.0208 5.8483 -83.1184 5.81425 -83.1673 5.78446C-83.2161 5.75041 -83.3626 5.73338 -83.8021 5.74615C-84.095 5.75466 -84.3392 5.74615 -84.4857 5.72487C-84.5834 5.7121 -84.681 5.70359 -84.7787 5.69508C-85.1693 5.66102 -85.56 5.62697 -84.8275 5.58867C-84.7787 5.58867 -84.7787 5.58015 -84.8275 5.57164C-85.1205 5.61846 -85.7065 5.61846 -86.1948 5.63123C-86.4389 5.63974 -86.5366 5.6142 -86.5854 5.59292C-86.6343 5.56738 -86.6831 5.54185 -86.9272 5.52482C-87.2202 5.50354 -87.4156 5.48226 -87.1714 5.45246C-86.9272 5.41841 -86.5366 5.40139 -86.0483 5.4099C-85.9018 5.41416 -85.8041 5.42692 -85.6576 5.42692C-86.1948 5.38862 -86.9761 5.39713 -87.2691 5.44821C-87.4644 5.478 -87.5132 5.5078 -87.9527 5.46098C-88.2457 5.43118 -88.4898 5.46523 -88.6363 5.49077C-88.2457 5.44395 -88.148 5.44395 -87.8062 5.48651C-87.7574 5.49503 -87.7085 5.49928 -87.6109 5.50354C-87.2202 5.51205 -87.0737 5.53759 -87.1714 5.56738C-87.2691 5.60144 -87.6109 5.59718 -87.9039 5.60144C-87.7574 5.60995 -87.6109 5.60144 -87.4644 5.59718C-87.2691 5.59292 -87.0737 5.58867 -86.9272 5.60569C-86.7808 5.62272 -86.8784 5.63974 -87.0249 5.65251C-87.2202 5.67379 -87.3179 5.69508 -87.7085 5.70359C-87.9039 5.70784 -88.0504 5.73764 -88.3922 5.74615C-88.8316 5.75466 -88.9781 5.74615 -88.9293 5.71636C-88.8805 5.67805 -89.0758 5.67379 -89.4176 5.67805C-89.5153 5.67805 -89.6618 5.67805 -89.7594 5.68231C-90.6384 5.69508 -90.6384 5.69508 -91.1755 5.63974C-91.322 5.69508 -91.9568 5.65677 -92.2498 5.68231C-91.8592 5.70359 -91.8103 5.72487 -92.3963 5.73764C-91.7127 5.75041 -91.322 5.78872 -90.9314 5.82277C-90.6384 5.8483 -90.7361 5.87384 -91.0779 5.88661C-91.4685 5.90364 -91.908 5.89938 -92.2986 5.88661C-92.6893 5.87384 -92.2986 5.83979 -92.3963 5.81425C-92.5916 5.83979 -92.8358 5.85682 -92.787 5.89512C-92.787 5.92492 -93.0799 5.92918 -93.3729 5.92066C-93.8124 5.90789 -94.1542 5.88236 -94.4472 5.85682C-94.8378 5.82277 -94.2519 5.81851 -94.1542 5.79723C-94.3495 5.77595 -94.496 5.78446 -94.5937 5.79723C-94.8867 5.82702 -95.1797 5.83554 -95.2773 5.7802C-95.4727 5.80148 -95.3262 5.81425 -95.2285 5.82702C-95.1308 5.8483 -94.9843 5.86533 -95.2285 5.88661C-95.4238 5.90364 -95.668 5.90364 -95.9121 5.89512C-96.2051 5.88661 -96.4493 5.8781 -96.7423 5.87384C-97.0352 5.86959 -97.2794 5.86107 -97.5236 5.88661C-97.67 5.90364 -97.8654 5.89512 -98.0119 5.8781C-98.1584 5.86107 -98.3048 5.85256 -98.5002 5.87384C-98.3537 5.89512 -97.7677 5.90364 -98.0607 5.93769C-98.3049 5.97174 -98.6467 5.93769 -98.9885 5.92918C-99.3791 5.91641 -99.7209 5.90364 -100.014 5.88236C-100.16 5.87384 -100.453 5.8781 -100.356 5.85256C-100.258 5.83128 -100.112 5.81851 -99.8674 5.81851C-99.6721 5.81851 -99.5256 5.81851 -99.3303 5.82277C-98.842 5.82702 -98.7443 5.81425 -98.9396 5.77595C-98.9885 5.76743 -99.0861 5.75466 -99.0373 5.74615C-98.9397 5.73338 -98.7443 5.73338 -98.6467 5.7419C-98.5002 5.75041 -98.5002 5.74615 -98.4513 5.73338C-98.3048 5.69508 -97.9142 5.68656 -97.5724 5.69508C-97.0352 5.70359 -96.4981 5.71636 -96.3028 5.77169C-96.4493 5.71636 -97.1329 5.70359 -97.4747 5.66102C-97.67 5.63974 -98.0119 5.65677 -98.256 5.66954C-98.6467 5.68656 -99.0373 5.69933 -99.5256 5.68656C-99.6233 5.68231 -99.8186 5.67805 -99.8674 5.69082C-99.9651 5.70359 -99.7698 5.70784 -99.6721 5.71636C-99.5256 5.72487 -99.2815 5.73338 -99.3791 5.75466C-99.4768 5.77595 -99.7209 5.77169 -99.9163 5.77169C-100.112 5.77169 -100.258 5.76743 -100.405 5.7802C-100.649 5.80148 -100.893 5.79723 -101.186 5.77595C-101.088 5.80148 -100.942 5.81425 -100.795 5.82702C-100.746 5.83128 -100.698 5.83554 -100.698 5.83979C-100.551 5.91215 -100.795 5.93343 -101.674 5.92918C-102.26 5.92918 -102.797 5.9462 -103.383 5.92066C-103.676 5.90789 -103.969 5.89512 -104.165 5.86959C-104.506 5.83128 -104.799 5.83128 -105.092 5.86959C-105.336 5.89938 -105.581 5.91215 -105.971 5.89512C-106.167 5.88661 -106.362 5.89512 -106.557 5.89938C-107.094 5.91641 -107.29 5.90364 -107.29 5.85256C-107.29 5.82702 -107.29 5.82702 -107.973 5.83979C-107.387 5.87384 -107.387 5.88661 -108.071 5.91641C-108.608 5.94194 -109.145 5.92492 -109.682 5.92492C-109.829 5.92492 -109.927 5.91215 -109.878 5.89938C-109.78 5.85256 -110.122 5.82277 -110.415 5.78872C-110.513 5.7802 -110.61 5.77169 -110.61 5.75892C-110.561 5.70784 -110.659 5.65677 -110.61 5.60569C-110.708 5.63549 -110.952 5.63549 -111.245 5.63974C-111.587 5.644 -111.831 5.65677 -111.782 5.69082C-111.733 5.72061 -112.026 5.73764 -112.075 5.77169C-111.782 5.75041 -111.685 5.72487 -111.489 5.70784C-111.343 5.69933 -111.245 5.68656 -111.05 5.69082C-110.903 5.69508 -110.806 5.70784 -110.806 5.72487C-110.806 5.76318 -110.757 5.79297 -110.366 5.81851C-110.122 5.83554 -110.122 5.8781 -110.317 5.90364C-110.464 5.93343 -110.806 5.92066 -111.05 5.92066C-112.222 5.92492 -113.442 5.92492 -114.614 5.91641C-115.249 5.91215 -115.347 5.90364 -115.005 5.85682C-114.81 5.83128 -114.907 5.81851 -115.103 5.79723C-115.542 5.73764 -116.03 5.69082 -116.958 5.69082C-117.154 5.69082 -117.202 5.66102 -117.447 5.65251C-117.642 5.66954 -117.837 5.68656 -117.886 5.70784C-117.984 5.72913 -117.935 5.75041 -117.691 5.76318C-117.447 5.7802 -117.251 5.76743 -117.056 5.75041C-116.958 5.7419 -116.909 5.73338 -116.812 5.72487C-116.714 5.71636 -116.616 5.7121 -116.47 5.7121C-116.177 5.72061 -115.786 5.80574 -115.933 5.82702C-116.421 5.89512 -117.056 5.92066 -117.935 5.90789C-118.081 5.90789 -118.228 5.90364 -118.277 5.89512C-118.374 5.8781 -118.374 5.88661 -118.472 5.89512C-118.667 5.91215 -118.911 5.91215 -119.156 5.90789C-120.718 5.89938 -122.281 5.90364 -123.843 5.90364C-124.429 5.90364 -125.113 5.92066 -125.65 5.8781C-125.699 5.87384 -125.699 5.88661 -125.748 5.89087C-125.992 5.91215 -126.431 5.91215 -126.578 5.89512C-126.969 5.83979 -127.506 5.86533 -128.043 5.86533C-127.848 5.88661 -127.75 5.90364 -128.189 5.91215C-128.629 5.92492 -129.068 5.91641 -129.508 5.91641C-129.752 5.91641 -129.752 5.89938 -129.801 5.88236C-129.898 5.85682 -130.045 5.83554 -130.24 5.81851C-130.436 5.83128 -130.289 5.84405 -130.24 5.85256C-130.143 5.87384 -130.045 5.89512 -130.289 5.91641C-130.387 5.92492 -130.582 5.92492 -130.729 5.92066C-131.07 5.91215 -130.924 5.88661 -130.924 5.86533C-130.924 5.86107 -130.924 5.85256 -130.973 5.8483C-130.973 5.82702 -131.119 5.81 -131.217 5.79297C-131.07 5.75466 -131.315 5.70359 -130.729 5.67805C-130.387 5.68656 -130.533 5.7121 -130.436 5.72913C-130.338 5.71636 -130.387 5.69933 -130.289 5.69082C-129.752 5.64826 -129.703 5.59718 -129.947 5.54185C-130.094 5.50779 -129.557 5.50354 -129.508 5.46949C-130.143 5.478 -130.24 5.43969 -130.289 5.40139C-130.338 5.37585 -130.484 5.37159 -130.729 5.36734C-131.51 5.34605 -130.973 5.30775 -130.875 5.27795C-130.777 5.26518 -130.484 5.26944 -130.484 5.2439C-130.68 5.24816 -130.631 5.26944 -130.826 5.2737C-131.022 5.27795 -131.168 5.26944 -131.363 5.26944C-131.754 5.26093 -131.754 5.2439 -131.461 5.22262C-131.266 5.20985 -131.168 5.20134 -131.119 5.18006C-131.07 5.13749 -130.68 5.12047 -130.24 5.14175C-129.996 5.15452 -129.898 5.146 -129.654 5.13324C-130.289 5.11621 -130.631 5.07365 -130.973 5.03534C-131.168 5.01406 -131.315 4.99278 -130.826 4.98001C-130.387 4.97149 -130.045 4.9417 -129.605 4.92893C-129.947 4.92893 -130.289 4.92893 -130.484 4.95872C-130.582 4.97575 -130.777 4.98426 -131.022 4.97575C-131.266 4.96298 -131.559 4.95021 -131.559 4.92467C-131.559 4.89488 -131.608 4.86508 -131.51 4.84806C-131.559 4.86934 -131.803 4.87785 -132.145 4.86508C-132.193 4.86508 -132.242 4.86508 -132.291 4.86083C-132.535 4.84806 -132.926 4.88211 -132.975 4.8438C-133.024 4.80975 -132.731 4.79273 -132.389 4.77996C-132.34 4.77996 -132.291 4.77144 -132.291 4.77144C-132.389 4.77996 -132.584 4.77996 -132.731 4.78847C-132.926 4.79273 -133.17 4.79698 -133.268 4.77996C-133.365 4.76293 -133.121 4.75442 -133.024 4.74591C-132.877 4.73739 -132.779 4.72888 -132.828 4.71186C-132.877 4.69909 -133.024 4.69483 -133.17 4.69483C-133.463 4.69483 -133.658 4.69483 -133.805 4.66504C-133.903 4.64375 -134.196 4.66503 -134.391 4.65652C-134.44 4.65227 -134.489 4.65227 -134.537 4.64375C-134.977 4.55011 -134.782 4.4735 -133.903 4.41391C-133.658 4.42668 -133.756 4.45222 -133.463 4.46924C-133.707 4.45222 -133.707 4.42668 -133.903 4.41391C-133.951 4.40114 -133.951 4.38837 -133.903 4.37986C-133.414 4.3373 -133.61 4.28622 -133.61 4.2394C-133.61 4.22663 -133.61 4.21812 -133.707 4.2096C-134 4.18407 -134.049 4.15427 -133.951 4.12022C-133.854 4.08191 -134.147 4.04361 -134.293 4.01381C-134.586 3.95848 -134.537 3.89463 -134.879 3.8393C-134.586 3.80951 -134.44 3.76694 -134.049 3.7414C-134.391 3.69884 -134.537 3.64351 -134.733 3.59243C-134.879 3.55838 -134.635 3.54987 -134.293 3.56689C-134.098 3.57966 -133.854 3.58817 -133.561 3.57115C-134.098 3.57966 -134.977 3.52433 -135.123 3.48602C-135.27 3.44346 -135.075 3.40941 -134.537 3.37961C-134.098 3.35407 -134.098 3.32428 -134.586 3.26895C-134.635 3.29448 -134.635 3.32002 -134.977 3.32002C-135.319 3.32002 -135.758 3.32428 -136.051 3.29874C-136.149 3.29023 -136.198 3.26895 -136.344 3.26895C-136.93 3.26043 -137.321 3.25192 -136.735 3.19659C-136.686 3.19233 -136.735 3.17956 -136.832 3.17956C-137.272 3.17105 -137.272 3.11146 -137.809 3.1072C-137.907 3.1072 -138.004 3.09869 -137.956 3.09018C-137.76 3.02208 -138.639 2.97526 -138.493 2.9029C-138.883 2.94121 -139.176 2.95398 -139.567 2.91141C-139.958 2.86885 -140.006 2.8731 -139.42 2.84757C-139.274 2.84331 -139.225 2.8348 -139.225 2.82203C-139.274 2.805 -139.469 2.79223 -139.616 2.79223C-140.641 2.81777 -140.788 2.73264 -141.032 2.69008C-141.276 2.64752 -141.569 2.62198 -142.008 2.6007C-142.106 2.59644 -142.301 2.59218 -142.253 2.58793C-142.057 2.53685 -142.643 2.51131 -142.741 2.47301C-142.643 2.51557 -142.301 2.55388 -142.301 2.6007C-142.204 2.62624 -142.106 2.64752 -141.716 2.64752C-141.471 2.64752 -141.325 2.66029 -141.374 2.67731C-141.471 2.71988 -141.081 2.77095 -141.764 2.79649C-141.813 2.79649 -141.764 2.80926 -141.716 2.82203C-141.374 2.79649 -141.276 2.73264 -140.641 2.77521C-140.251 2.80075 -140.202 2.85182 -140.592 2.89013C-139.665 2.86459 -139.616 2.94121 -139.127 2.96674C-138.493 3.0008 -138.59 3.05613 -138.834 3.11146C-139.03 3.12423 -139.274 3.13274 -139.518 3.137C-139.567 3.137 -139.567 3.13274 -139.616 3.13274C-139.713 3.12849 -139.665 3.11572 -139.762 3.11572C-139.762 3.12423 -139.762 3.12849 -139.811 3.137C-139.86 3.14126 -139.909 3.14126 -140.006 3.14126C-140.299 3.13274 -140.397 3.11146 -140.495 3.09018C-140.788 3.0391 -141.032 2.98803 -141.569 2.95398C-142.057 2.9029 -142.692 2.86459 -143.229 2.82203C-143.913 2.77095 -144.499 2.71562 -145.036 2.65177C-145.134 2.64326 -145.231 2.63049 -145.329 2.62198C-145.915 2.55388 -146.403 2.47726 -146.745 2.40065C-147.136 2.31126 -147.966 2.24316 -148.357 2.15803C-148.454 2.13675 -148.698 2.11547 -148.552 2.08993C-148.454 2.07291 -148.649 2.07716 -148.698 2.07291C-149.333 2.02183 -149.626 1.95373 -149.577 1.88137C-149.089 1.8686 -148.698 1.85158 -148.503 1.8005C-148.357 1.75794 -147.526 1.76219 -147.185 1.79624C-147.038 1.81327 -147.087 1.82604 -147.233 1.83455C-147.38 1.84732 -147.575 1.85583 -147.722 1.87286C-147.819 1.88563 -148.064 1.8984 -147.917 1.91968C-147.771 1.9367 -147.673 1.96224 -147.331 1.95799C-147.038 1.95373 -146.794 1.96224 -146.55 1.9665C-146.843 1.95799 -146.94 1.94522 -146.843 1.92393C-146.745 1.8984 -146.501 1.91117 -146.354 1.91542C-146.159 1.91968 -146.013 1.9367 -145.768 1.93245C-146.208 1.91542 -146.745 1.91542 -146.843 1.85158C-146.892 1.82604 -147.087 1.8005 -147.331 1.76645C-146.745 1.77071 -146.306 1.78773 -145.817 1.81753C-145.915 1.79199 -146.11 1.78773 -146.257 1.77922C-146.452 1.77496 -146.647 1.76219 -146.599 1.74942C-146.257 1.68983 -146.745 1.72814 -146.892 1.72814C-147.087 1.72814 -147.185 1.71537 -147.282 1.7026C-147.673 1.66004 -147.478 1.61322 -147.526 1.5664C-147.575 1.54512 -147.233 1.53661 -147.038 1.52384C-146.745 1.50681 -146.599 1.48979 -146.94 1.46425C-147.331 1.4302 -147.185 1.4004 -146.843 1.37486C-146.55 1.35358 -146.501 1.3323 -146.794 1.30251C-147.185 1.2642 -146.989 1.22163 -146.354 1.21738C-145.915 1.21738 -146.013 1.18333 -145.817 1.17056C-145.72 1.16205 -145.964 1.15353 -146.061 1.15779C-146.647 1.17481 -146.843 1.14502 -146.94 1.10246C-146.94 1.03861 -146.892 0.974765 -146.989 0.91092C-147.038 0.893894 -147.038 0.881125 -147.136 0.868356C-147.233 0.85133 -147.331 0.830049 -147.233 0.813023C-146.989 0.766203 -147.331 0.727896 -147.282 0.685332C-147.233 0.621487 -147.575 0.57041 -147.819 0.515078C-147.966 0.489539 -147.966 0.455488 -147.722 0.42995C-147.526 0.412925 -147.673 0.395899 -147.819 0.378874C-148.112 0.349079 -148.259 0.310772 -148.503 0.276721C-148.698 0.24267 -148.796 0.208619 -148.357 0.183081C-148.161 0.170312 -148.064 0.14903 -148.357 0.14903C-148.845 0.14903 -149.089 0.127748 -149.333 0.0979536C-149.431 0.0851845 -149.626 0.0851845 -149.773 0.0766717C-149.87 0.0724154 -149.919 0.0639027 -149.968 0.0553899C-150.017 0.0426208 -150.017 0.0255954 -149.919 0.0128263C-149.87 0.00856989 -149.821 0.00431352 -149.773 0.00431352C-149.577 0.00431352 -149.333 0.0298517 -149.187 5.7159e-05C-148.747 0.0128263 -148.308 5.7159e-05 -147.819 5.7159e-05C-147.185 5.7159e-05 -146.843 0.0255954 -146.745 0.0894409C-146.55 0.0724154 -146.696 0.0596463 -146.745 0.0468772C-146.989 5.71534e-05 -146.989 5.71557e-05 -146.403 0.00431352C-145.475 0.00856989 -144.499 0.0128263 -143.571 0.0128263C-142.741 0.0128263 -141.862 0.0128263 -141.032 0.0128263C-140.69 0.0128263 -140.69 0.0298517 -140.592 0.0468772C-140.592 0.0511336 -140.69 0.068159 -140.495 0.0639026C-140.446 0.0639026 -140.348 0.0596463 -140.299 0.0553899C-140.251 0.0383645 -140.397 0.0511336 -140.446 0.0426208C-140.592 0.0255954 -140.592 0.00856989 -140.348 0.0128263C-139.567 0.0170826 -138.737 5.71534e-05 -137.956 0.0383644C-137.907 0.0426208 -137.76 0.0426208 -137.76 0.0468772C-137.76 0.114979 -136.832 0.10221 -136.686 0.144774C-136.881 0.127748 -137.223 0.110723 -137.028 0.068159C-136.881 0.0383645 -136.539 0.021339 -136.295 0.0298517C-135.221 0.068159 -134.147 0.0255954 -133.072 0.0255954C-132.731 0.0255954 -132.438 0.0383644 -132.193 0.0596463C-131.852 0.0979536 -131.754 0.10221 -131.51 0.0639026C-131.315 0.0341081 -131.07 0.0341081 -130.777 0.0341081C-129.85 0.0341081 -128.873 0.0383645 -127.945 0.0426208C-127.701 0.0426208 -127.555 0.0553899 -127.408 0.0724154C-127.31 0.0851845 -127.262 0.106466 -127.017 0.110723C-126.871 0.0979536 -127.017 0.0894408 -127.115 0.0851845C-127.31 0.0596463 -127.164 0.0468772 -126.871 0.0511336C-126.041 0.0596463 -125.162 0.0596463 -124.332 0.0553899C-123.941 0.0511336 -123.697 0.0724154 -123.746 0.106466C-123.502 0.10221 -123.355 0.0894408 -123.209 0.0809281C-122.916 0.068159 -122.623 0.0639027 -122.574 0.10221C-122.525 0.140517 -122.281 0.140517 -121.988 0.123492C-121.744 0.110723 -121.5 0.106466 -121.207 0.110723C-121.011 0.114979 -120.865 0.114979 -120.669 0.106466C-119.253 0.0553899 -117.788 0.0639026 -116.323 0.0596463C-115.542 0.0596463 -114.81 0.0596463 -114.028 0.0639026C-113.442 0.068159 -113.442 0.0851845 -113.638 0.123492C-112.368 0.0809281 -111.099 0.0639027 -109.731 0.0724154C-109.536 0.0724154 -109.292 0.068159 -109.194 0.0936972C-109.145 0.114979 -108.999 0.10221 -108.852 0.10221C-108.413 0.10221 -107.925 0.0724154 -107.485 0.106466C-107.387 0.114979 -107.387 0.106466 -107.387 0.10221C-107.29 0.0639027 -106.997 0.0724154 -106.704 0.0766717C-106.118 0.0936972 -105.532 0.068159 -104.946 0.0724154C-104.555 0.0766718 -104.311 0.0851845 -104.262 0.119235C-104.213 0.157543 -103.969 0.166055 -103.627 0.144774C-103.481 0.136261 -103.383 0.136261 -103.286 0.144774C-102.797 0.174568 -102.211 0.161799 -101.723 0.183081C-101.577 0.161799 -101.821 0.153286 -101.821 0.140517C-101.821 0.123492 -101.723 0.114979 -101.577 0.106466C-101.43 0.0979536 -101.284 0.10221 -101.186 0.114979C-100.746 0.166055 -100.112 0.14903 -99.6233 0.136261C-99.0861 0.123492 -98.6955 0.136261 -98.4025 0.161799C-98.1583 0.183081 -97.8654 0.212875 -97.67 0.234157C-97.67 0.221388 -97.8165 0.217132 -97.9142 0.208619C-98.256 0.178825 -98.256 0.161799 -97.8165 0.136261C-97.5724 0.123492 -97.3771 0.110723 -97.1817 0.0979536C-96.8399 0.0724154 -96.4981 0.0809281 -96.1075 0.0936972C-95.961 0.0979536 -95.8145 0.106466 -95.8145 0.123492C-95.8145 0.144774 -96.0586 0.140517 -96.2051 0.144774C-95.7656 0.161799 -95.4727 0.157543 -95.2773 0.119235C-95.1797 0.0979536 -94.9843 0.0766717 -94.6914 0.0809281C-93.8612 0.0936972 -93.0311 0.0766718 -92.201 0.0894409C-92.6405 0.166055 -92.6893 0.166055 -93.7636 0.14903C-93.5682 0.166055 -93.5194 0.183081 -93.3241 0.187337C-93.0311 0.191594 -93.0799 0.217132 -92.8846 0.225645C-92.6405 0.212875 -92.6405 0.191594 -92.6405 0.170312C-92.6405 0.140517 -92.3963 0.114979 -92.1033 0.127748C-91.615 0.153286 -91.5173 0.127748 -91.3709 0.10221C-91.2732 0.0894409 -91.1755 0.0766717 -90.9314 0.0851845C-90.2478 0.10221 -89.5153 0.0979536 -88.8316 0.0936972C-88.148 0.0936972 -87.562 0.106466 -86.8784 0.110723C-86.4878 0.114979 -85.9506 0.187337 -86.0971 0.212875C-86.2436 0.24267 -86.4389 0.255439 -86.8784 0.238414C-86.4389 0.263952 -85.9995 0.280977 -85.6088 0.306516C-86.0483 0.285234 -86.146 0.246926 -85.9995 0.208619C-85.9506 0.183081 -85.1205 0.161799 -84.7787 0.166055C-84.681 0.170312 -84.5345 0.174568 -84.5834 0.183081C-84.681 0.255439 -83.8021 0.268208 -83.5579 0.319285C-83.4114 0.285234 -83.0696 0.259696 -83.1184 0.217132C-83.1673 0.178825 -82.2883 0.166055 -81.8 0.191594C-81.7023 0.19585 -81.6535 0.212875 -81.507 0.212875C-81.214 0.217132 -80.8234 0.229901 -80.9699 0.178825C-81.0187 0.170312 -80.9699 0.161799 -80.9699 0.14903C-80.9699 0.0809281 -80.9699 0.0894408 -80.2374 0.0851845C-79.6026 0.0809281 -79.0655 0.110723 -78.4307 0.114979C-77.9912 0.119235 -78.333 0.14903 -78.2842 0.170312C-77.9912 0.161799 -77.8935 0.136261 -77.6982 0.119235C-77.2099 0.0724154 -76.5263 0.0724154 -76.2333 0.114979C-76.2333 0.119235 -76.2333 0.123492 -76.2821 0.127748C-76.4286 0.170312 -76.1356 0.187337 -75.7938 0.200106C-75.6961 0.19585 -75.6961 0.191594 -75.6961 0.187337C-75.8426 0.106466 -75.745 0.0979536 -74.6219 0.0979536C-73.6452 0.0979536 -72.6686 0.123492 -71.692 0.10221C-71.6432 0.10221 -71.5943 0.10221 -71.5455 0.10221C-71.2525 0.157543 -70.4712 0.132005 -70.0317 0.161799C-69.9341 0.166055 -69.8853 0.174568 -69.8364 0.183081C-69.7388 0.19585 -69.6411 0.212875 -69.7388 0.225645C-69.9341 0.246926 -69.5923 0.234157 -69.5923 0.24267C-69.5434 0.276721 -69.1528 0.28949 -69.104 0.323541C-69.6411 0.353336 -69.4458 0.400156 -69.5434 0.442719C-69.6899 0.498052 -69.104 0.536359 -69.2993 0.578923C-69.2993 0.549128 -68.8598 0.544872 -68.6157 0.52359C-69.5434 0.493796 -69.6899 0.455488 -69.1528 0.391643C-68.9575 0.370361 -69.1528 0.349079 -69.104 0.323541C-69.1528 0.259696 -69.3481 0.19585 -69.2016 0.127748C-69.1528 0.10221 -69.0551 0.10221 -68.7133 0.10221C-68.0785 0.10221 -67.4437 0.110723 -66.8089 0.0979536C-64.9533 0.0979536 -63.0489 0.0979536 -61.1934 0.0979536C-49.8646 0.10221 -38.5847 0.110723 -27.2559 0.119235C-26.084 0.119235 -24.8632 0.123492 -23.7401 0.157543C-23.1053 0.174568 -22.4217 0.174568 -21.7868 0.166055C-18.6617 0.127748 -15.5365 0.132005 -12.4113 0.132005C-8.35834 0.136261 -4.11006 -0.00419921 -0.105927 5.7159e-05C0.333557 0.00431352 1.01718 0.0298517 1.50549 5.7159e-05C1.79848 5.7159e-05 1.84731 -0.0127082 2.09146 6.08875e-05C2.38445 0.0298555 2.43327 0.00857362 2.53093 6.08875e-05C3.1169 -0.0382464 2.97041 0.14903 3.31223 0.204363C3.40988 0.221388 3.50755 0.24267 3.75171 0.24267C4.77716 0.246926 5.36313 0.319285 6.19325 0.353336C6.53506 0.378874 6.19325 0.412925 6.43741 0.442719Z" fill="white"/>
<path d="M-21.2195 3.70902C-20.9756 3.70478 -20.6829 3.72175 -20.439 3.70053C-20.3902 3.67932 -20.2439 3.6666 -20 3.6666C-19.8537 3.6666 -19.7561 3.67508 -19.7561 3.68781C-19.7073 3.70902 -19.8537 3.72175 -20.0488 3.73023C-20.7805 3.75993 -20.8293 3.81932 -21.0732 3.87447C-21.1219 3.89568 -21.2683 3.92538 -21.0244 3.94235C-20.8781 3.95083 -20.439 3.95508 -20.439 3.95083C-20.2439 3.92114 -19.9024 3.90841 -19.7073 3.8872C-19.3171 3.83629 -19.3171 3.83205 -18.9756 3.87871C-18.9268 3.88296 -18.8293 3.8872 -18.7317 3.8872C-18.6341 3.8575 -18.3415 3.81508 -18.439 3.80659C-18.9268 3.77265 -18.6341 3.75569 -18.2927 3.74296C-18.1951 3.73872 -18.1463 3.73023 -18 3.72175C-18.1463 3.70902 -18.4878 3.73023 -18.5366 3.70478C-18.5854 3.68357 -18.2927 3.68781 -18.1463 3.67932C-17.7561 3.66235 -17.7561 3.6369 -17.7561 3.60296C-17.3171 3.6369 -17.4634 3.68357 -17.6098 3.7175C-17.9024 3.7769 -17.561 3.83629 -17.7073 3.89144C-17.7073 3.89568 -17.6585 3.89992 -17.6098 3.90417C-17.2195 3.92962 -17.2195 3.93811 -17.6585 3.96356C-17.8049 3.97204 -17.9512 3.98053 -18.0976 3.98901C-18.2439 4.00598 -18.2439 4.03992 -18.0976 4.03992C-17.7073 4.03568 -17.3171 4.06962 -16.9756 4.03568C-16.878 4.02719 -16.7317 4.01447 -16.5854 4.02295C-16.3902 4.03144 -16.5854 4.04416 -16.5854 4.05689C-16.5854 4.06962 -16.5366 4.0781 -16.4878 4.09083C-16.1951 4.15022 -16.2439 4.19265 -16.8781 4.23083C-17.2683 4.25628 -17.2195 4.27325 -16.9268 4.29446C-16.6829 4.29022 -16.6829 4.25204 -16.6829 4.25628C-16.3415 4.29022 -15.9512 4.26052 -15.6098 4.26901C-15.4634 4.27325 -14.5854 4.27749 -14.4878 4.26901C-14.1463 4.23931 -14.0976 4.27749 -13.9512 4.28598C-13.6098 4.30719 -14 4.30719 -14.0976 4.31992C-14.1951 4.33264 -14.3902 4.34113 -14.3902 4.36658C-13.9512 4.34537 -13.4146 4.34961 -13.3658 4.38355C-13.2683 4.41749 -13.9512 4.39204 -14.1463 4.41325C-13.9512 4.47688 -13.2195 4.47688 -12.5854 4.50658C-13.1707 4.4387 -12.6341 4.41325 -12.1463 4.38779C-11.6585 4.36234 -11.5122 4.37082 -11.5122 4.42173C-11.5122 4.46416 -11.4146 4.48961 -12 4.45567C-12.0976 4.45143 -12.1951 4.44719 -12.2927 4.45567C-12.3902 4.46416 -12.3415 4.4684 -12.2927 4.47688C-12.0488 4.50234 -12.2439 4.51931 -12.3902 4.53628C-12.4878 4.55324 -12.6341 4.56597 -12.6829 4.58718C-12.7317 4.59991 -12.5366 4.62112 -12.8293 4.62112C-13.0732 4.62112 -13.2683 4.61264 -13.3658 4.59143C-13.8049 4.49809 -14.0976 4.47264 -15.1707 4.43446C-15.0732 4.41749 -14.5854 4.41749 -14.7805 4.39204C-15.1219 4.34961 -15.6098 4.37082 -16.0976 4.37507C-16.0976 4.38355 -16.0976 4.38779 -16.0976 4.38779C-15.9512 4.40901 -15.4146 4.41749 -15.6098 4.44719C-15.8537 4.48112 -16.3902 4.49809 -16.8293 4.48537C-17.1707 4.47688 -17.5122 4.48112 -17.8537 4.48112C-18.0976 4.48112 -18.1463 4.49809 -18.1463 4.51082C-18.1463 4.52355 -18.0976 4.53628 -17.9024 4.54476C-17.7073 4.549 -17.561 4.54052 -17.5122 4.52779C-17.4146 4.48537 -17.2195 4.48961 -16.8781 4.51082C-16.6341 4.52355 -16.3902 4.50234 -16.1463 4.49809C-15.9512 4.49385 -15.8049 4.49385 -15.6585 4.50658C-15.4634 4.52355 -15.6585 4.53203 -15.8049 4.54476C-15.9024 4.55324 -15.9512 4.55749 -15.8537 4.57021C-15.7561 4.5787 -15.6585 4.5787 -15.561 4.57446C-15.3658 4.56173 -15.122 4.53203 -14.9268 4.56173C-14.7317 4.59143 -15.1219 4.59991 -15.3171 4.61688C-15.4146 4.62536 -15.561 4.63385 -15.6585 4.64658C-15.3659 4.64233 -15.0732 4.689 -14.7805 4.64233C-14.6829 4.62961 -14.5366 4.63809 -14.439 4.64658C-14.2439 4.66355 -14.0488 4.67627 -13.8049 4.68051C-13.3658 4.689 -13.8049 4.71445 -13.7073 4.73567C-13.5122 4.72294 -13.122 4.73991 -13.1707 4.69324C-13.2195 4.67203 -12.9268 4.66779 -12.7317 4.67203C-12.5366 4.67627 -12.3902 4.68476 -12.5366 4.70597C-12.6341 4.71445 -12.6829 4.72294 -12.5366 4.72718C-12.439 4.73142 -12.2927 4.73142 -12.2439 4.72294C-12 4.68051 -11.7073 4.70597 -11.5122 4.72294C-11.2195 4.74839 -10.9268 4.75688 -10.5854 4.73567C-10.1463 4.71021 -10.6829 4.69324 -10.6341 4.67203C-10.6341 4.66779 -10.6341 4.6593 -10.6341 4.65082C-10.3415 4.65082 -10.3415 4.68476 -10.0488 4.68476C-9.95122 4.66779 -10.2927 4.64233 -10 4.62961C-9.7561 4.62112 -9.65853 4.6593 -9.36584 4.65506C-9.31706 4.66355 -9.36585 4.67627 -9.26829 4.689C-9.17073 4.67203 -9.36584 4.66355 -9.36584 4.65506C-9.41462 4.64233 -9.56097 4.62961 -9.41463 4.62536C-8.87804 4.6084 -9.36585 4.59991 -9.46341 4.58718C-9.41463 4.57021 -9.21951 4.57446 -9.07317 4.57021C-8.92683 4.56597 -8.78048 4.56173 -8.63414 4.56173C-8.68292 4.60415 -9.12195 4.64658 -8.4878 4.67627C-8.29268 4.68476 -8.53658 4.70173 -8.53658 4.7187C-8.58537 4.73142 -8.63414 4.74415 -8.68292 4.75688C-8.39024 4.74839 -8.68293 4.72718 -8.53658 4.7187C-8.04878 4.7187 -7.60976 4.70173 -7.12195 4.73142C-6.73171 4.75263 -6.39025 4.69324 -5.90244 4.7187C-6.04878 4.70173 -6.2439 4.68476 -6.39025 4.66779C-6.48781 4.65506 -6.68293 4.64658 -6.63415 4.62536C-6.63415 4.62112 -6.48781 4.61688 -6.39025 4.61688C-6.14634 4.61688 -6.09756 4.63385 -6.04877 4.64658C-5.95121 4.66355 -5.85366 4.68052 -5.60976 4.689C-5.46341 4.69748 -5.31707 4.69324 -5.17073 4.68476C-5.02439 4.67627 -5.12195 4.66779 -5.17073 4.65506C-5.31707 4.6084 -5.12195 4.59567 -4.63414 4.60415C-4.34146 4.6084 -4.04877 4.6084 -3.60975 4.61264C-3.95121 4.55749 -4.2439 4.51931 -4.92683 4.50234C-5.36586 4.48961 -5.46341 4.44719 -5.80487 4.42597C-5.90244 4.42173 -5.7561 4.41325 -5.65854 4.40901C-5.46342 4.40052 -5.2195 4.40901 -4.9756 4.40476C-5.17072 4.37507 -5.65853 4.36658 -5.51219 4.31992C-5.12194 4.36234 -4.7317 4.40052 -4.14634 4.3581C-3.90244 4.38355 -3.56097 4.34961 -3.36585 4.37082C-3.31707 4.39204 -3.51219 4.39204 -3.60975 4.39628C-3.80487 4.40901 -4 4.41749 -3.70732 4.4387C-3.65854 4.44294 -3.60975 4.44719 -3.56097 4.45143C-3.51219 4.4684 -3.95122 4.48112 -3.65854 4.50234C-3.5122 4.51506 -3.31707 4.48113 -3.12195 4.49809C-2.82927 4.51931 -2.78048 4.49385 -2.63414 4.48112C-2.53658 4.47264 -2.43901 4.47264 -2.29267 4.47688C-1.95121 4.48961 -1.95121 4.48537 -1.56097 4.45567C-1.60975 4.45143 -1.70732 4.44719 -1.7561 4.45143C-2 4.45991 -2.19511 4.45143 -2.29267 4.43446C-2.34145 4.42597 -2.29269 4.42173 -2.2439 4.41325C-2.09756 4.40052 -2 4.37931 -1.70732 4.40476C-1.56097 4.41749 -1.51219 4.40052 -1.41463 4.39204C-1.12195 4.36234 -1.31706 4.31143 -0.829258 4.29022C-0.634136 4.28174 -0.926826 4.27325 -0.975609 4.26901C-1.12195 4.25204 -1.31707 4.25628 -1.36584 4.27325C-1.46341 4.2987 -1.56097 4.31567 -1.95122 4.30295C-2.04878 4.2987 -2.14634 4.30295 -2.14634 4.32416C-2.14634 4.36658 -2.68293 4.3581 -2.92683 4.37931C-2.97561 4.38355 -3.12195 4.36658 -3.12195 4.35385C-3.12195 4.33264 -3.07316 4.31143 -2.78048 4.2987C-1.99999 4.26477 -1.90244 4.23931 -1.41463 4.20113C-1.02439 4.21386 -1.17073 4.19265 -1.21951 4.16719C-1.31707 4.08659 -1.31707 4.08659 -2.19512 4.1078C-2.2439 4.11628 -2.19512 4.11628 -2.14634 4.12053C-1.70731 4.18416 -1.56097 4.19689 -1.41463 4.19689C-2.39024 4.17992 -2.68293 4.19689 -2.97561 4.17992C-3.17073 4.16719 -3.21951 4.18416 -3.36585 4.19265C-3.75609 4.2181 -4.14634 4.2478 -4.39024 4.17992C-4.53658 4.14598 -4.92682 4.14598 -5.26828 4.1375C-5.99999 4.12053 -6.7317 4.10356 -6.58537 4.01447C-6.58537 4.00598 -6.78049 3.9975 -6.87805 3.98477C-7.07317 3.9678 -7.12195 3.94235 -7.12195 3.92114C-7.12195 3.89992 -6.68293 3.89568 -6.82927 3.86599C-6.82927 3.86174 -6.63414 3.86599 -6.58537 3.87447C-6.29268 3.90841 -5.95121 3.92538 -5.46341 3.92114C-5.2195 3.92114 -5.12194 3.93811 -5.26828 3.94659C-5.56097 3.96356 -5.46342 4.03568 -6.14634 3.99326C-6.09756 4.07386 -5.07317 4.05689 -4.82927 4.11628C-4.53658 4.09931 -4.39023 4.06538 -3.99999 4.05265C-3.90243 4.04841 -3.90244 4.03992 -3.95122 4.03144C-4.2439 3.98477 -3.75609 3.95508 -3.56097 3.92114C-3.46341 3.90417 -3.31707 3.92114 -3.17073 3.92962C-2.7317 3.95508 -2.29268 3.9678 -2.09755 3.90841C-1.95121 3.87447 -1.60975 3.89144 -1.36584 3.88296C-1.17072 3.87447 -1.17072 3.90417 -1.12194 3.91689C-0.975601 3.94235 -1.17073 3.9975 -0.439022 3.97204C-0.39024 3.97204 -0.292686 3.97629 -0.292686 3.98053C-0.243904 3.9975 -0.243896 4.02719 0.0487862 4.01871C0.43903 4.01023 0.926826 4.02295 1.17073 3.98053C0.536583 3.9678 0.487804 3.95507 0.926826 3.89568C0.634144 3.89144 0.585365 3.91265 0.487804 3.92538C0.390244 3.94235 0.243904 3.96356 0 3.95083C-0.341461 3.92962 0.146351 3.93386 0.146351 3.92538C0.146351 3.91265 0.0975609 3.90841 -0.0487823 3.90417C-0.146343 3.90417 -0.292686 3.89992 -0.292686 3.89992C-0.341465 3.84477 -0.634148 3.82356 -1.2683 3.83205C-1.95122 3.84053 -2.39024 3.79387 -2.87804 3.75144C-2.92683 3.78962 -2.63414 3.82356 -3.07316 3.84477C-3.12194 3.84477 -3.17073 3.84477 -3.17073 3.84053C-3.41463 3.77265 -3.60975 3.76417 -4.34146 3.80659C-4.78048 3.83205 -4.87804 3.80235 -4.9756 3.78538C-5.12194 3.75569 -4.7317 3.77265 -4.63414 3.75993C-4.14634 3.72175 -3.56097 3.75569 -3.02438 3.73872C-2.68292 3.73023 -2.34146 3.71326 -2.48781 3.68781C-2.63415 3.66235 -2.9756 3.64114 -3.26828 3.62417C-3.41462 3.61569 -3.51219 3.64114 -3.56097 3.64963C-3.70731 3.67932 -3.75609 3.70902 -4.29268 3.67932C-4.4878 3.67084 -4.82927 3.67932 -5.12195 3.67932C-5.31707 3.65811 -4.92682 3.64963 -4.9756 3.62417C-5.17072 3.62842 -5.31707 3.64114 -5.41463 3.65811C-5.5122 3.67508 -5.56097 3.69629 -5.85366 3.6666C-6 3.64963 -6.09756 3.67084 -6.14634 3.67932C-6.29269 3.70053 -6.4878 3.70902 -6.7317 3.70478C-6.92682 3.70053 -7.07317 3.68781 -7.02439 3.67084C-6.97561 3.64963 -6.82926 3.62842 -6.7317 3.60296C-6.7317 3.60296 -6.58536 3.60296 -6.53658 3.60296C-6.14634 3.64963 -5.80488 3.61569 -5.41463 3.59872C-5.21951 3.59023 -5.02438 3.58175 -4.78048 3.58175C-4.04877 3.59023 -3.75609 3.54781 -3.51218 3.4969C-3.70731 3.47993 -4.29268 3.50963 -4.14634 3.46296C-3.95122 3.40357 -3.41462 3.45448 -3.02438 3.44599C-2.7317 3.44175 -2.63414 3.47145 -2.87804 3.4969C-2.92683 3.50114 -2.92683 3.50539 -2.92683 3.51387C-2.92683 3.53508 -3.26829 3.56054 -2.92683 3.58175C-2.7317 3.59448 -2.53658 3.59023 -2.39024 3.57326C-2.2439 3.55205 -1.70732 3.53508 -2.19512 3.50114C-2.2439 3.4969 -2.29267 3.49266 -2.29267 3.48842C-2.14633 3.43751 -2.14633 3.43751 -2.78048 3.42054C-2.19511 3.39509 -1.60976 3.41206 -1.5122 3.45872C-1.5122 3.46721 -1.51219 3.47569 -1.36584 3.47569C-1.26828 3.47569 -1.17073 3.47145 -1.17073 3.46296C-1.12195 3.45024 -1.17072 3.44175 -1.12194 3.42902C-1.02438 3.39509 -1.2195 3.32721 -0.341454 3.37387C-0.0975494 3.3866 3.8147e-06 3.37812 0.0487862 3.34418C0.0975647 3.33145 0.243912 3.31872 0.390255 3.32297C1.12196 3.35691 1.2683 3.29751 1.60977 3.26782C1.80489 3.2466 1.56097 3.24236 1.41463 3.23388C1.26829 3.22964 1.07318 3.22539 1.12196 3.2466C1.17074 3.28479 0.92683 3.27206 0.731709 3.26782C0.585365 3.26357 0.43903 3.25509 0.292686 3.25509C3.8147e-06 3.25933 -0.243904 3.25509 -0.292686 3.22964C-0.292686 3.1957 0.0975609 3.22539 0.243904 3.20842C0.146343 3.17448 -0.195118 3.19145 -0.439022 3.18721C-0.682922 3.18297 -0.926823 3.18297 -0.87804 3.15752C-0.829262 3.12782 -0.536579 3.15327 -0.390236 3.15327C0.0975685 3.166 0.634155 3.14903 1.07318 3.18297C0.878056 3.1363 1.21952 3.08964 0.780491 3.05146C0.731712 3.04721 0.878052 3.03873 0.975613 3.03449C1.12195 3.03025 1.2683 3.03025 1.2683 3.04721C1.21952 3.08964 1.56098 3.08115 1.80489 3.07691C2.14635 3.07267 1.90244 3.05146 1.90244 3.03449C1.90244 3.01752 1.80489 2.99631 2.09757 3.00055C2.34147 3.00479 2.58537 3.026 2.53659 3.05146C2.48781 3.07691 2.43903 3.11509 1.95122 3.11933C1.85366 3.11933 1.7561 3.12782 1.80489 3.14055C1.85366 3.15327 2.00001 3.14903 2.09757 3.14479C2.39025 3.12358 2.82927 3.11933 3.12195 3.09388C3.56097 3.04721 4.14635 3.06418 4.73172 3.08115C4.73172 3.11933 4.29268 3.10237 4.09756 3.11933C4.34146 3.1363 4.58537 3.15327 4.48781 3.18721C4.04879 3.21267 3.56099 3.22115 3.31709 3.21267C3.65855 3.20842 4.19512 3.25085 4.82927 3.21691C5.21951 3.21691 5.41465 3.23388 5.51221 3.27206C5.75611 3.36539 5.21952 3.42478 4.48781 3.47993C4.43903 3.48418 4.24391 3.56902 4.29269 3.56902C4.48782 3.57326 4.68293 3.58599 4.87805 3.56902C4.92683 3.56478 4.97562 3.5563 5.0244 3.54781C5.21952 3.5266 5.31708 3.49266 5.70732 3.50963C6.00001 3.52236 6.09757 3.55205 6.00001 3.58599C5.85367 3.62842 6.04878 3.64114 6.53658 3.6369C6.78049 3.63266 6.97562 3.61993 7.21952 3.63266C7.41465 3.67508 8 3.69205 8.29268 3.72599C8.39024 3.73447 8.39025 3.74296 8.34147 3.75144C7.85366 3.75144 7.56098 3.78538 7.17074 3.80235C7.12196 3.81084 7.12196 3.81508 7.21952 3.81932C7.41465 3.8278 7.5122 3.81084 7.60976 3.80235C7.70732 3.79387 7.80489 3.79387 7.95123 3.79387C8.34147 3.79387 8.09756 3.83205 8.29268 3.84477C8.34146 3.86174 8.04878 3.88296 8.29268 3.89992C8.34146 3.90417 8.34147 3.90841 8.39025 3.91265C8.39025 3.92962 8.53659 3.93811 8.68294 3.95083C8.68294 3.95508 8.68293 3.96356 8.7317 3.9678C8.7317 3.97204 8.68294 3.97204 8.68294 3.97629C8.63416 3.97629 8.58537 3.98053 8.58537 3.98053C8.39025 3.98477 8.09756 3.9678 8.04878 3.9975C8.04878 4.02295 8.29268 4.02295 8.4878 4.02719C8.63414 4.03144 8.73172 4.03144 8.87806 4.03568C8.92684 4.03568 8.92683 4.03568 8.97561 4.03568C9.07317 4.09931 9.31707 4.15871 9.5122 4.2181C9.5122 4.22658 9.56098 4.23507 9.56098 4.23931C9.70732 4.27325 8.92684 4.26052 9.17074 4.29022C9.31709 4.30719 9.65854 4.30295 9.7561 4.33264C9.80488 4.34961 9.90244 4.36658 10 4.38355C9.95122 4.38779 9.85366 4.39204 9.7561 4.39204C9.56098 4.38779 9.41463 4.38355 9.21951 4.37931C9.17073 4.37931 9.12196 4.37507 9.07317 4.37082C8.53659 4.3581 8.00001 4.33264 7.46342 4.38355C7.2683 4.40052 6.92684 4.40052 6.68293 4.38779C6.34147 4.36658 6.09757 4.37931 5.95123 4.40052C5.70732 4.4387 5.51221 4.43022 5.2683 4.40052C5.17074 4.41749 5.2683 4.42173 5.36586 4.43022C5.7561 4.45991 5.56098 4.4684 5.17073 4.47688C5.02439 4.48113 4.82928 4.47688 4.7805 4.49385C4.7805 4.49809 4.7805 4.50234 4.7805 4.50658C5.17074 4.53628 5.60976 4.55324 6.09756 4.55749C6.34146 4.56173 6.53659 4.5787 6.82927 4.58294C6.97561 4.58718 7.12195 4.59143 7.26829 4.59567C7.65854 4.61264 7.70732 4.63809 7.36586 4.6593C7.02439 4.68476 6.73172 4.7187 6.24391 4.7187C6.09757 4.72294 5.95122 4.72294 5.80488 4.71445C5.26829 4.67627 5.17073 4.68052 4.92683 4.73142C4.92683 4.73567 4.87805 4.73567 4.82927 4.73991C4.78049 4.74415 4.73171 4.74839 4.68293 4.74839C4.48781 4.76112 4.19513 4.73991 4.04879 4.76536C4.19513 4.78657 4.58537 4.79082 4.48781 4.82051C4.39025 4.829 4.29268 4.83324 4.14634 4.83324C3.70732 4.83748 3.70731 4.85869 3.85366 4.88839C3.95122 4.94778 3.46342 4.96475 3.0244 4.99021C2.58537 5.01142 2.39024 5.04536 2.43903 5.09202C2.29268 5.11323 2.29269 5.14293 2.29269 5.16414C2.39025 5.21505 2.09756 5.2405 1.65854 5.26172C1.46341 5.26596 1.17073 5.2702 1.5122 5.29141C1.56098 5.29565 1.56099 5.2999 1.60977 5.30414C1.60977 5.32111 1.60976 5.33384 1.5122 5.3508C1.46342 5.36353 1.51221 5.3805 1.36586 5.38899C1.17074 5.40595 1.2683 5.4102 1.46342 5.41444C2.14634 5.43989 2.14634 5.43989 1.95122 5.50777C1.70732 5.52474 1.60977 5.54171 1.85367 5.56292C2.14635 5.59262 2.09757 5.62656 2.09757 5.6605C2.09757 5.67322 2.04879 5.69443 1.80489 5.68595C1.56098 5.66474 1.26829 5.68171 1.17073 5.69443C0.975609 5.71565 1.36585 5.71989 1.41463 5.73686C1.56097 5.75807 1.46342 5.7708 1.2683 5.78352C1.07317 5.79625 1.07317 5.80473 1.21951 5.81746C1.36586 5.83019 1.21952 5.83443 1.12196 5.83867C0.829277 5.86413 0.487816 5.84716 0.146351 5.84716C0.195133 5.88958 0.878059 5.91504 0.634155 5.9617C0.146351 6.00412 -0.487793 5.99988 -1.07316 5.99988C-6.19511 5.99564 -11.2683 5.98715 -16.3902 5.98291C-18.9756 5.97867 -21.561 5.9617 -24.0976 5.94473C-27.7073 5.91928 -31.2683 5.93625 -34.878 5.93625C-39.4146 5.93625 -43.9512 5.93625 -48.5366 5.93625C-48.6341 5.93625 -48.7317 5.93625 -48.7805 5.932C-48.5854 5.90655 -48.7805 5.87261 -48.5366 5.84716C-48.439 5.83443 -48.5366 5.8217 -48.6829 5.8217C-49.1219 5.8217 -49.2195 5.78777 -49.4634 5.7708C-49.561 5.76231 -49.7561 5.75807 -49.6585 5.7411C-49.6098 5.73261 -49.4146 5.72837 -49.3171 5.72837C-48.8781 5.72837 -48.3902 5.7114 -48 5.74958C-48.0976 5.7114 -48.7317 5.69443 -48.3902 5.64777C-48.3415 5.63928 -48.1951 5.64353 -48.0976 5.63928C-48.1951 5.63928 -48.2927 5.64353 -48.3902 5.64777C-48.6829 5.64353 -48.7317 5.61383 -48.9756 5.6011C-48.4878 5.59686 -48.6341 5.54171 -48.2439 5.53747C-47.8537 5.53322 -47.6097 5.56716 -47.4146 5.58838C-47.1707 5.57989 -47.4146 5.55868 -47.2195 5.55019C-46.9756 5.58838 -46.4878 5.57141 -46.1463 5.58838C-46.0976 5.59262 -45.9024 5.59262 -45.9024 5.58838C-45.7073 5.55019 -45.2195 5.55019 -44.8293 5.53323C-44.9756 5.50777 -45.2195 5.53323 -45.3659 5.51201C-44.9268 5.49929 -44.7805 5.43565 -44.0488 5.45686C-44 5.46111 -44 5.46111 -44.0488 5.45686C-44.1463 5.41444 -43.8537 5.35505 -44.7805 5.3508C-44.8293 5.37202 -44.4878 5.43565 -45.3171 5.39323C-45.4146 5.38899 -45.7073 5.39747 -45.6585 5.41444C-45.4634 5.47807 -45.9024 5.43989 -46.0488 5.43565C-46.4878 5.42292 -46.9756 5.39323 -47.2195 5.46111C-47.3171 5.48232 -47.5122 5.47383 -47.6585 5.46535C-47.9512 5.44414 -48.2439 5.43141 -48.5366 5.4102C-48.8293 5.39323 -48.9756 5.35929 -49.2683 5.4102C-49.4146 5.43141 -49.5122 5.4102 -49.4634 5.39323C-49.4634 5.38474 -49.4146 5.3805 -49.5122 5.37202C-49.7561 5.36353 -49.7561 5.39747 -50 5.38899C-50 5.36777 -49.7561 5.34656 -49.6097 5.35505C-49.1219 5.37626 -48.3902 5.34232 -48.0976 5.40171C-48.0488 5.41444 -47.7561 5.41868 -47.7561 5.40171C-47.7561 5.3805 -47.7561 5.35505 -47.4634 5.35505C-47.2683 5.35505 -47.0732 5.3805 -46.8293 5.39747C-46.9268 5.36777 -46.9268 5.36353 -46.5854 5.3508C-45.9512 5.32111 -45.3171 5.29141 -44.6829 5.25747C-44.6341 5.25747 -44.6341 5.24475 -44.6829 5.23626C-44.8293 5.20232 -45.2195 5.21081 -45.5122 5.19808C-45.7073 5.18535 -45.7073 5.21929 -45.8537 5.22353C-46.3415 5.24475 -46.5366 5.28293 -46.8293 5.31687C-46.9756 5.33808 -47.4146 5.34656 -47.6585 5.32111C-47.8536 5.30414 -47.7561 5.27444 -47.7073 5.25323C-47.6585 5.23626 -47.4146 5.22353 -47.4634 5.20232C-47.7073 5.20232 -48.1463 5.26172 -48.1463 5.1896C-48.7805 5.20656 -48.8293 5.14293 -49.3171 5.12172C-48.9268 5.10051 -48.6341 5.06657 -48.0976 5.09626C-47.9512 5.10475 -47.6585 5.08778 -47.4146 5.07929C-47.6585 5.05384 -47.9024 5.03263 -48.3415 5.04111C-48.1463 5.01566 -47.9512 4.99869 -47.7073 5.0199C-47.4146 5.04111 -47.0732 5.06233 -46.9756 5.10051C-46.9268 5.11323 -47.1219 5.11748 -47.2683 5.11748C-47.4146 5.11748 -47.6098 5.11748 -47.8537 5.11748C-47.6098 5.1599 -47.4634 5.20656 -46.7805 5.1599C-46.439 5.13869 -46 5.1302 -45.561 5.15141C-45.2195 5.16838 -44.9756 5.1599 -45.1707 5.11748C-45.2683 5.09626 -45.1219 5.08778 -44.9756 5.08354C-44.7805 5.07505 -44.7317 5.08778 -44.7317 5.10051C-44.7317 5.10475 -44.6341 5.10899 -44.5854 5.10899C-43.6585 5.09202 -43.4146 5.14717 -43.1219 5.20656C-43.0732 5.21929 -42.878 5.2405 -42.7805 5.2405C-41.6585 5.23626 -41.9024 5.32959 -41.5122 5.37626C-41.4146 5.38474 -41.5122 5.41444 -41.2683 5.40595C-41.122 5.40171 -40.6829 5.39323 -40.9756 5.35929C-41.0732 5.34656 -41.0732 5.33384 -41.0244 5.32111C-40.9268 5.28293 -40.9268 5.28293 -41.3171 5.2702C-40.5854 5.24899 -39.9512 5.27868 -39.8536 5.34232C-39.6585 5.31262 -39.4146 5.30414 -39.1219 5.31262C-38.7317 5.32535 -39.122 5.3508 -39.0244 5.36777C-38.878 5.37626 -38.7805 5.35929 -38.6829 5.35505C-38.4878 5.34656 -38.3902 5.35929 -38.3415 5.37202C-38.2439 5.39323 -38.4878 5.38899 -38.6341 5.39323C-38.9268 5.39747 -39.2195 5.40596 -39.4634 5.37626C-39.561 5.36353 -39.8049 5.36353 -39.9512 5.37202C-40.1951 5.38474 -40 5.39747 -39.9512 5.4102C-39.7561 5.4611 -39.1707 5.47807 -38.6829 5.44414C-38.5854 5.43989 -38.4878 5.43565 -38.3902 5.42717C-38.0488 5.40595 -37.7561 5.37202 -37.4146 5.36777C-37.2195 5.36353 -36.9268 5.4102 -36.5366 5.41444C-36.3902 5.41444 -35.9512 5.42292 -36.2927 5.45686C-36.3902 5.46959 -36.1463 5.48232 -36.0488 5.49504C-35.9024 5.50777 -35.7561 5.51201 -35.6585 5.52474C-35.5122 5.53747 -35.4634 5.55868 -35.5122 5.57565C-35.5122 5.57989 -35.6098 5.58413 -35.6585 5.58413C-35.9024 5.57989 -35.9024 5.55868 -36 5.54595C-36.2927 5.50777 -36.5854 5.46959 -37.1707 5.46535C-37.3171 5.46535 -37.4634 5.45686 -37.3659 5.48232C-37.2683 5.51626 -37.3171 5.54595 -37.9024 5.52898C-38.1463 5.5205 -38.3415 5.55019 -38.6341 5.54595C-38.7805 5.54595 -38.6829 5.55868 -38.6829 5.57141C-38.6341 5.58838 -38.4878 5.59686 -38.3415 5.59262C-37.561 5.56716 -37.2683 5.6011 -37.1707 5.6605C-37.0732 5.69868 -36.4878 5.6605 -36.439 5.69868C-36.3902 5.69443 -36.2927 5.68595 -36.2927 5.68171C-36.3902 5.65201 -36.3415 5.6308 -35.9512 5.62656C-35.5122 5.62231 -35.0732 5.61383 -34.7317 5.64777C-34.6341 5.65625 -34.4878 5.66898 -34.5366 5.68595C-34.878 5.68171 -35.2195 5.67746 -35.6098 5.66898C-35.561 5.69443 -35.4146 5.71989 -35.6585 5.74534C-35.8537 5.76655 -35.4146 5.80898 -35.1707 5.79201C-34.9756 5.77504 -34.3415 5.79201 -34.5366 5.73261C-34.6341 5.7114 -34.2439 5.73686 -34.0488 5.72413C-33.8537 5.7114 -33.6585 5.72413 -33.5122 5.73261C-33.2195 5.74958 -33.0732 5.76231 -32.878 5.71989C-32.7805 5.69443 -32.439 5.67322 -32.3415 5.64353C-32.2927 5.62656 -32.0976 5.62231 -31.9024 5.62231C-31.3171 5.6308 -31.1219 5.60534 -31.0732 5.55868C-31.0732 5.53322 -30.9756 5.51201 -31.2683 5.49504C-31.5122 5.48232 -31.6585 5.50777 -31.7561 5.5205C-31.9512 5.54595 -32.1463 5.53747 -32.3415 5.52474C-32.5366 5.51626 -32.7805 5.4908 -32.9268 5.51626C-33.0732 5.54171 -32.9268 5.55868 -32.5366 5.55868C-32.3415 5.55868 -32.2927 5.57565 -32.2927 5.58838C-32.2439 5.6011 -32.3902 5.60959 -32.5366 5.61383C-32.7317 5.62231 -32.8293 5.60959 -32.878 5.59686C-33.1219 5.54171 -33.2683 5.59262 -33.4634 5.60534C-33.5122 5.57565 -33.4146 5.53323 -34 5.55444C-34.0976 5.55868 -34.1463 5.54595 -34.0976 5.53747C-34 5.51201 -34.1951 5.4908 -34.2439 5.46535C-34.2927 5.44838 -34.3415 5.42292 -34.1463 5.4102C-33.9512 5.40171 -33.7073 5.39747 -33.4634 5.4102C-33.0732 5.42717 -32.6341 5.43565 -32.0976 5.42292C-32.2927 5.40595 -32.6341 5.38899 -32.439 5.35929C-32.3902 5.3508 -32.3902 5.33384 -32.1951 5.34232C-31.6098 5.36777 -31.6097 5.33384 -31.6097 5.29141C-31.3658 5.32535 -31.1707 5.3508 -30.7805 5.32111C-30.6829 5.31687 -30.5854 5.31262 -30.4878 5.32111C-30.3902 5.32959 -30.439 5.33808 -30.5366 5.34656C-30.7317 5.35929 -30.7805 5.3805 -30.6341 5.39747C-30.4878 5.41444 -30.3415 5.38474 -30.0976 5.39323C-30 5.40171 -30.878 5.43989 -30 5.43565C-30.0488 5.45262 -30.3415 5.45262 -30.2927 5.47383C-30.0488 5.47383 -29.9024 5.48656 -29.8049 5.49929C-29.3659 5.55444 -28.4878 5.53322 -28 5.57989C-27.9512 5.58413 -27.8049 5.57565 -27.8049 5.56292C-27.7561 5.55019 -27.7561 5.53747 -27.561 5.54595C-27.4146 5.55444 -27.5122 5.56716 -27.5122 5.57565C-27.4634 5.59262 -27.9512 5.6011 -27.6098 5.61807C-27.3659 5.6308 -27.3658 5.60534 -27.2195 5.59262C-27.1219 5.58413 -26.8293 5.58838 -26.8293 5.6011C-26.6829 5.66049 -26.0976 5.65625 -25.6585 5.66474C-25.6585 5.66898 -25.6585 5.67322 -25.6585 5.67322C-26.6341 5.75807 -26.7805 5.75807 -27.8049 5.68171C-28.2439 5.64777 -28.7317 5.62656 -29.2195 5.63928C-29.8049 5.65625 -30.3902 5.67746 -31.0244 5.65625C-31.1707 5.65201 -31.3658 5.66474 -31.3171 5.68595C-31.2683 5.70716 -31.122 5.70292 -30.9756 5.69019C-30.8293 5.67746 -30.6829 5.68595 -30.5854 5.69443C-30.439 5.7114 -30.6341 5.7114 -30.6829 5.71989L-30.7317 5.72413C-30.8293 5.73686 -30.6829 5.75383 -30.6829 5.75383C-30.0976 5.69443 -30.2439 5.85989 -29.6097 5.77928C-29.561 5.77504 -29.561 5.7708 -29.5122 5.7708C-29.2683 5.75383 -29.3659 5.70716 -29.0244 5.70292C-28.6829 5.69868 -29.1219 5.75383 -28.6341 5.76231C-28.4878 5.76655 -28.2927 5.80049 -28.7805 5.81746C-28.9268 5.8217 -29.4146 5.82595 -29.2195 5.85988C-29.1219 5.8811 -28.7805 5.88958 -28.4878 5.86837C-28.1951 5.8514 -27.9512 5.85564 -28 5.89382C-28.0488 5.91504 -27.9512 5.91928 -27.7561 5.91504C-27.4634 5.91079 -27.6585 5.89382 -27.6585 5.88534C-27.7073 5.85989 -28 5.84716 -28.1951 5.83019C-28.0488 5.81322 -27.8049 5.80898 -27.6585 5.80049C-27.4634 5.79201 -27.3659 5.79625 -27.3659 5.81746C-27.4634 5.86413 -27.0244 5.8514 -26.7805 5.85988C-26.3902 5.87261 -26.5366 5.84716 -26.4878 5.83019C-26.3902 5.79625 -25.9024 5.78777 -25.6585 5.81322C-25.2195 5.85564 -24.5366 5.85564 -24.0488 5.89382C-23.9512 5.90231 -23.6585 5.90231 -23.7073 5.87685C-23.7073 5.86413 -23.5122 5.83867 -23.9512 5.84716C-24.1951 5.8514 -24.2927 5.83867 -24.2927 5.8217C-24.2927 5.80049 -24.0976 5.79201 -23.9024 5.78777C-23.7073 5.78352 -23.561 5.79201 -23.5122 5.81322C-23.4634 5.85988 -23.2195 5.89382 -22.7317 5.91504C-22.5366 5.89382 -23.0732 5.87261 -22.6829 5.85564C-22.439 5.84292 -22.3415 5.86413 -22.1951 5.87685C-22.0976 5.87261 -22.1463 5.86837 -22.1951 5.86413C-22.1951 5.85989 -22.1951 5.85564 -22.1463 5.8514C-21.6585 5.86837 -21.2683 5.8217 -20.8293 5.82595C-20.4878 5.83019 -20.3415 5.81746 -20.2439 5.79201C-20.1951 5.78352 -20.1463 5.76655 -20.2927 5.7708C-20.6829 5.77928 -20.878 5.72413 -21.3171 5.74958C-21.3658 5.75383 -21.561 5.7708 -21.2683 5.7708C-20.9268 5.76655 -21.0244 5.77928 -21.1219 5.79625C-21.2683 5.8217 -21.6098 5.80473 -21.7561 5.81746C-22.1463 5.84292 -22.0488 5.80898 -22.1951 5.79625C-22.2927 5.78777 -22.3415 5.7708 -22.5366 5.77504C-22.7317 5.80049 -22.3902 5.81746 -22.5854 5.84292C-22.7805 5.79625 -22.9268 5.74958 -23.1219 5.70716C-23.9024 5.65201 -23.9024 5.6308 -23.0732 5.54595C-22.9756 5.53747 -22.8293 5.52898 -22.8293 5.51626C-23.3658 5.49929 -23.7073 5.46959 -23.5122 5.43141C-23.3658 5.39323 -23.1707 5.3508 -22.878 5.32535C-22.5854 5.2999 -22 5.31262 -21.561 5.31687C-21.9024 5.30414 -22.4878 5.2999 -22.2439 5.25747C-22.1463 5.23626 -22.8293 5.15566 -21.7561 5.1896C-21.6585 5.15566 -22.1463 5.14717 -22.0488 5.12172C-22 5.10051 -21.8049 5.08354 -21.7073 5.05384C-22.4878 5.05384 -22.5366 5.00717 -22.4878 4.95627C-22.4878 4.92657 -22.439 4.89687 -22.439 4.87142C-22.3902 4.83748 -22.2927 4.80778 -21.7561 4.80778C-21.561 4.80778 -21.4146 4.7993 -21.3658 4.78233C-21.3658 4.76536 -21.5122 4.75263 -21.6585 4.74839C-22.1951 4.73567 -22.1463 4.70597 -22.1463 4.66779C-22.1951 4.59567 -22.0976 4.52779 -21.9024 4.45991C-21.6585 4.38779 -21.8049 4.31992 -21.8537 4.25204C-21.8537 4.22658 -21.9512 4.19265 -21.6097 4.17143C-21.4146 4.15871 -21.6098 4.14598 -21.6585 4.12901C-21.8049 4.09083 -22.0976 4.05265 -21.4146 4.03144C-21.2683 4.02719 -21.2683 4.01023 -21.3171 4.00174C-21.5122 3.97204 -21.4146 3.94235 -21.3658 3.91265C-21.3171 3.88296 -21.3171 3.85326 -21.3658 3.82356C-21.6585 3.7769 -21.6585 3.73447 -21.2195 3.70902Z" fill="white"/>
<path d="M4.07244 3.36603C3.93535 3.34283 4.02675 3.30804 3.70687 3.30224C3.56978 3.30224 3.38699 3.30804 3.43269 3.27904C3.47838 3.26165 3.61548 3.25005 3.75257 3.25005C3.98105 3.25005 4.20953 3.25005 4.34662 3.22685C4.52941 3.20945 4.7122 3.18626 4.57511 3.15146C4.48371 3.11667 4.20954 3.13986 4.02675 3.13407C3.70688 3.13407 3.38699 3.09927 3.02142 3.11667C2.83863 3.12247 2.79294 3.09927 2.88433 3.08187C2.97573 3.06448 3.06711 3.04708 3.1585 3.02968C2.61014 3.02968 2.19888 2.94849 2.38167 2.8847C2.42736 2.87891 2.51875 2.86151 2.56445 2.86731C2.74724 2.87311 2.93002 2.87311 3.02142 2.9021C3.06712 2.9253 3.2499 2.9427 3.43269 2.9311C3.61547 2.9253 3.70687 2.9021 3.75257 2.87891C3.79827 2.86151 3.79826 2.84991 3.61547 2.84991C2.88432 2.84411 2.74724 2.77452 2.61015 2.69913C2.56445 2.68174 2.56446 2.67014 2.42737 2.67014C2.24458 2.67014 1.92469 2.68174 2.01608 2.64114C2.06178 2.60635 2.38167 2.60635 2.61015 2.60055C2.74724 2.59475 2.93002 2.65274 2.97572 2.60055C3.02142 2.57155 3.24991 2.53096 2.83863 2.51356C2.70154 2.50776 2.61015 2.49617 2.61015 2.47297C2.65585 2.44977 2.79293 2.44397 2.97572 2.43817C3.34129 2.42658 3.70687 2.41498 4.07244 2.44977C3.84396 2.39178 3.79827 2.32219 3.11282 2.31059C2.65585 2.3048 2.38166 2.24101 2.33597 2.17722C2.88433 2.16562 2.88433 2.2468 3.2956 2.2584C3.47839 2.22361 3.24991 2.20041 3.11282 2.17722C2.97573 2.14242 2.79294 2.10763 3.2956 2.09603C3.56978 2.09023 3.70687 2.05543 3.88966 2.03224C4.20953 1.99744 3.84396 1.95105 3.70687 1.95105C3.20421 1.95105 2.83863 1.88726 2.29027 1.91626C2.24457 1.92206 2.15317 1.91046 2.01608 1.90466C2.74723 1.89306 2.29027 1.74228 3.2499 1.75968C3.06712 1.71329 2.56445 1.76548 2.56445 1.70169C2.97572 1.73069 3.3413 1.6611 3.79827 1.70169C3.84397 1.70749 4.02675 1.69009 4.02675 1.67849C3.84397 1.59731 4.30092 1.6321 4.52941 1.6321C4.84929 1.6379 4.94069 1.59731 5.12348 1.57991C5.35196 1.55671 5.03208 1.55091 4.94069 1.53352C4.89499 1.52192 4.7122 1.51032 4.84929 1.49872C4.94069 1.49292 5.12348 1.49872 5.35196 1.50452C4.84929 1.45813 5.21486 1.37694 4.75789 1.32475C4.6665 1.31895 5.03208 1.28416 5.26056 1.28995C5.48904 1.29575 5.67184 1.30155 5.80893 1.27256C5.90032 1.24936 6.1745 1.23776 5.99171 1.20877C5.80893 1.17977 5.67183 1.20877 5.48904 1.21457C5.39765 1.22037 5.30627 1.22616 5.16918 1.20877C5.67184 1.15078 5.62614 1.07539 5.80893 1C5.90032 1 6.08311 1.0058 6.3116 1.0058C6.2659 1.04639 6.54008 1.05799 6.76856 1.06959C6.99705 1.12178 6.44868 1.09858 6.44868 1.12758C6.58577 1.12178 6.76856 1.10438 6.76856 1.14498C6.58578 1.17397 6.40298 1.19717 6.40298 1.23776C6.44868 1.26096 6.49437 1.28995 6.35728 1.30735C6.0831 1.34795 6.35728 1.35954 6.58577 1.37114C6.72286 1.42333 6.35728 1.41174 6.1745 1.42333C6.54007 1.44653 6.58577 1.40594 6.72286 1.37694C6.85996 1.37694 6.90565 1.39434 6.95135 1.41174C7.13414 1.44653 6.72287 1.48712 6.99705 1.52772C6.99705 1.55091 6.95135 1.57991 6.76856 1.59151C6.3116 1.55091 5.99171 1.55671 5.76323 1.6205C5.67183 1.6437 5.53475 1.6611 5.39766 1.67269C4.98639 1.69589 5.16918 1.71329 5.39766 1.73648C5.16918 1.76548 4.7122 1.75388 4.57511 1.81187C4.48371 1.83507 4.62081 1.85827 4.66651 1.87566C4.62081 1.89886 4.57511 1.92785 4.52941 1.95105C4.43801 1.98005 4.52941 2.00904 4.62081 2.03804C4.7579 2.07283 4.7579 2.10183 4.48372 2.12502C4.07245 2.14822 4.11814 2.17722 4.34662 2.21781C4.6208 2.2526 4.94068 2.2874 5.21486 2.32799C5.35195 2.34539 5.39765 2.36859 5.30626 2.39178C5.21487 2.41498 5.03208 2.40338 4.84929 2.39758C4.57511 2.39178 4.48372 2.40338 4.48372 2.43817C4.7579 2.46137 4.89499 2.49037 4.71221 2.53096C4.52942 2.55416 4.20953 2.55996 4.07244 2.58895C3.66117 2.66434 3.66118 2.66434 4.25524 2.72813C4.34663 2.73973 4.34662 2.75133 4.30092 2.76872C4.25523 2.78612 4.11814 2.80352 4.16384 2.82671C4.30093 2.84991 4.25523 2.87891 4.34662 2.9021C4.39232 2.9021 4.39233 2.9079 4.43802 2.9079C4.62081 2.9253 4.6665 2.94849 4.62081 2.97749C4.57511 2.99489 4.43802 3.00069 4.34662 3.01808C4.34662 3.03548 4.48371 3.03548 4.52941 3.04708C4.6208 3.05868 4.6665 3.07607 4.80359 3.08187C5.44335 3.11667 5.44335 3.11667 5.21486 3.19786C5.03207 3.21525 5.12347 3.24425 4.98638 3.26165C4.57511 3.29064 4.94069 3.33123 4.94069 3.36603C5.26057 3.42402 5.44335 3.48201 5.35196 3.5516C5.26057 3.60379 5.94602 3.65018 5.53474 3.71397C5.44335 3.73137 5.30627 3.71397 5.16918 3.71977C5.07778 3.71977 5.12348 3.70818 5.12348 3.71977C5.12348 3.72557 5.16916 3.72557 5.21486 3.71977C5.35195 3.71977 5.44335 3.73137 5.48904 3.74297C5.53474 3.78356 5.85463 3.78356 6.08311 3.79516C6.40299 3.83576 6.54007 3.87055 6.1745 3.91694C6.22019 3.93434 6.2202 3.93434 6.72286 3.96914C6.35729 3.96334 6.1288 4.00973 5.71753 3.99813C5.35195 3.98653 5.21487 3.96334 5.35196 3.91694C5.39766 3.89375 5.53475 3.88215 5.39766 3.84735C5.07778 3.76617 5.03208 3.82996 4.89499 3.85315C4.43802 3.94014 4.43802 3.94014 3.52409 3.88215C3.93536 3.87055 3.98106 3.84735 3.79827 3.80676C3.70688 3.78356 3.56978 3.75457 3.98105 3.74877C4.20954 3.74297 4.57512 3.73137 4.48372 3.67918C4.43803 3.66178 4.52941 3.65598 4.62081 3.64439C5.21487 3.5806 5.12348 3.44722 4.48372 3.40662C4.30094 3.40082 4.16383 3.38923 4.07244 3.36603Z" fill="white"/>
<path d="M5.55914 4.99557C4.91398 5.03201 4.53764 4.83158 4 4.83158C4 4.83158 4 4.77692 4 4.74047C4.16129 4.72225 4.32258 4.72225 4.48387 4.72225C4.53763 4.70403 4.69892 4.7587 4.64515 4.68581C4.4301 4.63115 4.21505 4.72225 4 4.68581C4 4.43072 4.64515 4.59471 4.91397 4.52182C4.80644 4.41249 4.43011 4.46716 4.26882 4.35783C4.48387 4.30317 4.53764 4.17562 4.86022 4.17562C5.23656 4.17562 4.75269 4.32139 5.07527 4.37605C5.39785 4.23028 5.6129 4.01163 6.36559 4.19384C6.68817 4.26672 7.11829 4.23028 7.27958 4.10273C7.3871 3.99341 7.65592 3.97519 7.81721 4.02985C8.19356 4.12096 8.78495 3.95696 9 4.17562C8.94624 4.19384 8.83872 4.19384 8.83872 4.21206C9.1613 4.37605 8.89247 4.52182 8.67742 4.68581C8.46236 4.77692 8.19355 4.72225 7.92473 4.72225C7.65591 4.63115 7.49462 4.52182 7.44086 4.39427C7.44086 4.37605 7.44086 4.33961 7.49463 4.32139C7.44086 4.32139 7.44086 4.32139 7.38709 4.33961C7.2258 4.35783 7.11828 4.33961 6.95699 4.35783C6.7957 4.37605 6.63442 4.41249 6.47312 4.44894C6.31183 4.46716 6.04301 4.41249 6.09677 4.54004C6.15054 4.59471 5.98925 4.66759 5.66667 4.64937C5.50538 4.63115 5.72044 4.68581 5.66667 4.68581C5.23656 4.7587 5.6129 4.86802 5.55914 4.99557Z" fill="white"/>
<path d="M6.24919 4.76163C6.14951 4.67701 6.04984 4.6347 6 4.55007C6.19935 4.42313 6.49837 4.71932 6.64789 4.42313C6.7974 4.16925 6.39871 4.21157 6.34887 4C6.6479 4.04231 6.89708 4.04231 7.14627 4.08462C7.24594 4.04231 7.29578 4 7.39546 4.04231C7.59481 4.12694 7.94368 4.08463 7.99352 4.38082C8.04336 4.6347 7.79416 4.59238 7.64465 4.67701C7.39546 4.76164 7.19611 4.80395 6.94692 4.88858C6.64789 4.9732 6.3987 5.14245 6.24919 4.76163Z" fill="white"/>
<path d="M8.53753 4.00806C8.63501 4.03295 8.68376 4.05369 8.78125 4.07859H8.7325C8.2938 4.06614 8.2938 4.04125 8.53753 4.00806Z" fill="white"/>
<path d="M8.48897 4.01278C8.48897 4.03767 8.48897 4.06257 8.73269 4.07916C8.48897 4.09576 8.24525 4.07501 8.00153 4.07501C7.75781 4.07501 7.56284 4.05842 7.66033 4.02523C7.75782 3.99619 7.95278 3.99619 8.24525 4.00863C8.29399 4.01278 8.39148 4.01278 8.48897 4.01278Z" fill="white"/>
<path d="M4.06558 4.46392C4.32788 4.37113 4.45904 4 4.72134 4C5.04922 4 5.04921 4.18557 4.91806 4.5567C4.85248 4.74227 4.65577 4.5567 4.52462 4.83505C4.32789 5.20619 4.19673 4.83505 4 4.83505C4.06558 4.5567 4.06558 4.46392 4.06558 4.46392Z" fill="white"/>
<path d="M9.51232 4.41894C9.31735 4.41894 9.12237 4.43554 8.97614 4.40649C9.17111 4.41064 9.36609 4.40649 9.51232 4.41894Z" fill="white"/>
<path d="M8.19658 4.10734C8.24518 4.09904 8.24518 4.09489 8.34238 4.09904C8.39098 4.10319 8.43959 4.10734 8.43959 4.11149C8.43959 4.11563 8.39098 4.12393 8.29378 4.11978C8.24517 4.11978 8.19658 4.11149 8.19658 4.10734Z" fill="white"/>
<path d="M7.65979 4.44867C7.61119 4.44452 7.56258 4.44037 7.51398 4.43622C7.56258 4.42378 7.46539 4.40303 7.7084 4.41133C7.85421 4.41963 7.61119 4.43622 7.65979 4.44867Z" fill="white"/>
</g>
</svg>
