<svg width="46" height="6" viewBox="0 0 46 6" fill="none" xmlns="http://www.w3.org/2000/svg">
<mask id="mask0_448_1630" style="mask-type:alpha" maskUnits="userSpaceOnUse" x="0" y="0" width="46" height="6">
<rect width="46" height="6" fill="#D9D9D9"/>
</mask>
<g mask="url(#mask0_448_1630)">
<path d="M11.8471 0.568938C11.2225 0.564668 11.6909 0.526241 10.5978 0.53478C10.1294 0.53905 9.50477 0.54332 9.34862 0.526241C9.34862 0.517702 9.97323 0.509162 10.2855 0.500623C10.4417 0.496353 10.5978 0.492083 10.9102 0.487814C11.0663 0.483544 11.5348 0.492083 11.5348 0.479274C11.3786 0.475004 11.2225 0.470735 11.0663 0.466465C10.754 0.453656 10.4417 0.445117 10.754 0.428038C14.0332 0.39388 14.0332 0.39388 12.4717 0.312756C12.4717 0.308486 12.4717 0.304216 12.4717 0.304216C14.6578 0.278598 13.2525 0.231631 13.2525 0.193204C13.4086 0.141968 14.814 0.150507 16.0632 0.146237C17.0001 0.141968 17.4686 0.10354 18.5617 0.124889C19.967 0.133428 21.3724 0.124889 22.3093 0.0950009C23.2463 0.0693827 24.027 0.0437645 25.2763 0.0779221C26.3693 0.0992706 26.6816 0.0907312 26.6816 0.0565736C27.1501 0.0437645 27.6185 0.0565736 27.9309 0.0608433C28.5555 0.0608433 28.8678 0.0779221 29.3362 0.0779221C29.4924 0.0693827 29.0239 0.0736524 29.0239 0.0693827C28.7116 0.0565736 28.7116 0.0437645 29.1801 0.035225C31.8347 -0.0202811 34.8016 0.00533713 37.6124 0.00960683C60.8792 0.0266856 83.8337 0.0523039 106.944 0.0565736C119.905 0.0608433 132.866 0.0608433 145.827 0.0608433C146.451 0.0608433 147.232 0.065113 147.857 0.065113C150.667 0.0608433 153.634 0.0608433 156.445 0.0779221C157.226 0.0821918 157.85 0.0736524 158.475 0.0693827C163.94 0.0565736 169.406 0.0736524 174.871 0.0693827C181.117 0.0608433 187.52 0.0736524 193.766 0.0608433C194.078 0.0608433 194.39 0.0608433 194.546 0.0608433C201.261 0.0736524 207.976 0.0608433 214.69 0.0693827C222.029 0.0736524 229.369 0.065113 236.708 0.0693827C238.269 0.0693827 239.675 0.0864615 241.236 0.0864615C241.861 0.0864615 242.485 0.0992706 242.798 0.116349C243.422 0.150507 244.359 0.171856 245.609 0.193204C247.014 0.214553 245.921 0.231631 244.984 0.244441C246.389 0.24871 247.014 0.227362 247.482 0.197474C247.795 0.176125 248.419 0.163316 248.888 0.146237C250.449 0.0950009 251.074 0.0992706 252.011 0.159046C252.323 0.171856 252.479 0.188934 252.948 0.197474C254.353 0.235901 254.665 0.291407 255.446 0.338374C256.227 0.385341 257.164 0.428038 257.476 0.483544C257.632 0.513432 258.101 0.54332 259.662 0.551859C260.599 0.560399 261.068 0.590286 261.224 0.615905C261.38 0.650062 260.131 0.632983 259.506 0.650062C260.131 0.662871 261.068 0.650062 261.536 0.667141C262.161 0.68849 261.38 0.705568 261.068 0.726917C260.443 0.782423 261.536 0.82512 262.317 0.867817C263.722 0.944672 264.503 1.02153 263.878 1.10692C263.878 1.11546 264.035 1.124 264.035 1.13681C264.347 1.16243 263.566 1.19231 264.503 1.2222C265.128 1.24355 264.191 1.28198 263.098 1.29479C262.005 1.3076 261.692 1.28198 261.224 1.26063C261.068 1.24782 260.755 1.23074 260.443 1.21793C259.35 1.17524 259.35 1.13254 260.755 1.09411C261.068 1.08557 261.224 1.07703 261.536 1.05568C259.975 1.09411 258.725 1.12827 258.725 1.18378C258.725 1.20085 258.413 1.21366 258.101 1.22647C256.695 1.26063 258.101 1.29052 258.101 1.32468C258.257 1.32468 258.257 1.32041 258.413 1.32041C259.818 1.33748 259.194 1.35883 258.569 1.37591C258.257 1.38872 257.632 1.39299 257.164 1.40153C255.446 1.45277 255.446 1.45277 253.572 1.4058C253.416 1.39726 253.416 1.38872 253.416 1.38018C254.978 1.35456 255.29 1.31614 254.197 1.26917C253.728 1.24782 253.572 1.22647 253.416 1.20085C252.635 1.20939 251.855 1.25636 251.386 1.21793C251.855 1.23928 253.26 1.26063 252.792 1.3076C252.479 1.32041 252.167 1.32895 251.698 1.33321C251.074 1.33748 250.605 1.32468 250.137 1.32041C248.888 1.3076 248.107 1.29052 249.044 1.25209C248.107 1.27771 248.419 1.29906 248.732 1.32468C249.044 1.34602 249.2 1.36737 248.263 1.38018C247.326 1.38872 246.702 1.37591 246.545 1.34602C246.389 1.31187 245.296 1.3076 244.359 1.30333C244.203 1.30333 244.359 1.31614 244.203 1.32041C244.515 1.33321 242.642 1.35029 244.359 1.35456C245.14 1.36737 244.515 1.39299 244.984 1.41007C245.296 1.41434 245.608 1.42288 245.765 1.43142C245.921 1.44423 245.921 1.45277 245.609 1.46131C244.047 1.46985 242.954 1.43142 241.549 1.42715C241.08 1.42715 241.08 1.41007 241.236 1.39726C241.392 1.38018 241.549 1.35883 240.455 1.3631C239.675 1.36737 239.206 1.38018 239.206 1.40153C239.362 1.43569 239.987 1.46131 241.08 1.46985C242.642 1.48265 242.329 1.49546 241.549 1.52535C240.612 1.55951 239.519 1.57232 238.113 1.58086C238.894 1.60648 239.206 1.63209 240.455 1.63636C241.236 1.64063 241.392 1.62782 241.705 1.61502C242.329 1.59794 241.705 1.59794 241.392 1.5894C240.455 1.55951 240.768 1.52962 242.329 1.51681C243.422 1.50827 244.672 1.504 245.452 1.47838C246.233 1.47838 246.858 1.48265 247.482 1.49119C247.482 1.5467 246.702 1.59794 245.765 1.6449C245.452 1.66198 245.452 1.67479 245.921 1.68333C248.575 1.72603 248.419 1.81569 249.981 1.87974C249.981 1.88401 250.137 1.88828 250.137 1.89255C250.137 1.91389 251.386 1.93951 250.605 1.95659C249.512 1.97794 248.419 2.00356 246.858 1.99929C246.389 1.99929 245.921 1.99502 245.609 1.98221C244.203 1.93097 242.329 1.92243 239.831 1.94805C240.612 1.95659 241.549 1.96513 241.236 1.99502C241.08 2.0121 240.768 2.02918 241.549 2.04199C242.329 2.05052 243.266 2.04626 243.735 2.03345C245.296 1.97367 246.858 1.99929 248.575 2.03345C248.888 2.04199 249.2 2.03772 249.512 2.03345C249.981 2.02491 250.449 2.00783 250.918 2.02491C251.386 2.04199 250.918 2.05906 250.605 2.07187C250.449 2.08041 250.137 2.08468 249.825 2.09322C249.512 2.09749 249.2 2.10603 248.888 2.1103C247.326 2.11884 248.575 2.16154 247.795 2.18289C247.638 2.21704 248.575 2.19569 249.044 2.20423C250.449 2.19996 251.698 2.17862 252.948 2.17435C253.572 2.18716 253.572 2.20423 253.572 2.22131C253.572 2.24266 253.104 2.25974 252.479 2.27255C251.855 2.28109 251.074 2.28109 250.762 2.30671C249.668 2.3366 247.951 2.31098 246.545 2.3366C247.17 2.3494 247.795 2.34513 248.419 2.3494C249.044 2.35367 249.668 2.35794 249.981 2.37502C250.293 2.39637 249.825 2.40918 249.356 2.41772C248.732 2.4348 248.263 2.44761 247.482 2.45615C246.389 2.46469 246.702 2.48177 247.014 2.49884C247.014 2.50738 247.326 2.49884 247.17 2.49884C247.014 2.49884 247.014 2.49884 247.014 2.49457C247.17 2.46469 247.795 2.44761 248.732 2.44761C249.825 2.44761 249.668 2.4775 249.825 2.49457C249.981 2.51592 249.981 2.53727 250.137 2.55862C250.293 2.5757 250.137 2.59705 250.918 2.60132C251.386 2.60132 251.855 2.58851 252.011 2.5757C252.323 2.55862 252.323 2.54154 251.698 2.52873C250.918 2.51165 249.981 2.49884 249.512 2.46896C249.044 2.43053 249.2 2.41345 250.605 2.41345C251.542 2.41345 252.323 2.42199 253.26 2.39637C253.885 2.37929 255.29 2.40918 255.915 2.43907C256.539 2.46896 256.695 2.51165 258.725 2.48176C259.506 2.46896 260.443 2.4903 260.443 2.52446C260.443 2.58851 260.287 2.58851 258.101 2.5757C257.164 2.57143 256.071 2.57143 254.978 2.55435C255.915 2.58424 256.695 2.60132 257.945 2.60132C259.506 2.60559 260.443 2.64401 261.536 2.66963C262.005 2.68244 261.692 2.69525 261.224 2.69952C260.755 2.70806 260.131 2.69952 259.506 2.71233C260.443 2.74649 261.536 2.76357 262.941 2.74222C263.722 2.72941 264.503 2.72941 265.44 2.72941C265.596 2.72941 265.908 2.72941 266.065 2.73368C267.782 2.74649 266.065 2.80626 267.626 2.82334C269.031 2.84042 269.5 2.86604 269.031 2.90874C268.875 2.92154 268.875 2.93862 269.188 2.95143C269.656 2.94716 269.656 2.93862 269.812 2.93008C270.281 2.9002 271.061 2.89166 272.155 2.89593C273.248 2.90447 273.872 2.92154 273.872 2.95143C273.872 2.98986 273.716 3.03256 275.746 3.03256C277.464 3.10514 280.587 3.12649 282.305 3.19907C282.773 3.22469 283.085 3.25031 283.398 3.27593C283.866 3.31009 282.305 3.31436 281.992 3.33998C282.461 3.34851 282.617 3.34424 282.773 3.33998C284.022 3.31009 285.115 3.31863 285.428 3.36132C285.584 3.38267 285.115 3.40402 286.521 3.39975C287.145 3.39975 287.301 3.43391 288.082 3.44672C289.331 3.4638 290.893 3.47661 290.893 3.52784C291.049 3.54492 291.83 3.55346 292.298 3.562C292.611 3.56627 292.767 3.57481 292.767 3.57908C292.923 3.59189 292.767 3.60043 293.079 3.61324C292.923 3.59616 292.767 3.57054 293.548 3.57054C294.953 3.56627 294.797 3.60897 295.734 3.62178C296.046 3.63032 296.046 3.61751 295.89 3.62178C294.797 3.58762 293.86 3.54492 292.454 3.51503C291.986 3.50222 291.674 3.48941 291.83 3.46807C292.767 3.44245 293.704 3.42964 294.641 3.47234C294.797 3.48088 294.641 3.49795 295.109 3.49795C298.076 3.48941 298.701 3.54919 299.481 3.6047C299.638 3.61751 299.638 3.63458 299.95 3.64739C300.887 3.71144 301.668 3.77549 300.887 3.84807C300.262 3.89077 300.574 3.942 299.638 3.9847C299.169 4.00605 298.701 4.0274 297.92 4.04875C298.544 4.06582 299.013 4.07863 299.638 4.09571C300.262 4.07436 300.574 4.05729 299.794 4.03167C299.325 4.01459 299.325 3.98897 299.794 3.97189C300.418 3.95054 301.199 3.96335 301.824 3.97189C303.073 4.01032 303.229 4.05729 303.541 4.10425C304.166 4.18111 304.634 4.25796 304.947 4.33482C305.415 4.44583 305.103 4.56111 304.01 4.67212C303.541 4.71909 303.541 4.76179 304.947 4.80021C305.415 4.81302 306.196 4.82583 305.728 4.84718C305.103 4.87707 303.854 4.86853 303.229 4.85572C302.136 4.83864 301.199 4.84718 300.262 4.85572C298.388 4.86426 298.388 4.81729 297.764 4.79167C297.295 4.72763 297.295 4.66358 296.983 4.59954C296.983 4.56111 298.076 4.52268 297.295 4.47999C296.983 4.47145 296.983 4.4501 296.358 4.45864C295.89 4.46718 296.202 4.47999 296.514 4.48426C296.827 4.49279 296.983 4.49707 296.827 4.50987C295.109 4.53976 296.046 4.59527 295.421 4.6337C295.109 4.65931 295.109 4.6892 294.641 4.71909C293.704 4.7874 294.172 4.85145 295.89 4.90696C296.358 4.91977 296.358 4.93257 296.358 4.94965C296.202 5.01797 296.827 5.08201 298.857 5.13325C299.325 5.14179 299.638 5.15887 299.794 5.17168C300.106 5.20157 299.638 5.2101 298.544 5.20584C299.95 5.21437 300.887 5.23572 301.199 5.28269C301.668 5.34674 302.292 5.41078 302.292 5.47483C302.292 5.50471 303.229 5.51752 304.01 5.53033C304.791 5.54314 306.196 5.55168 305.103 5.59438C304.947 5.60292 305.103 5.60719 305.259 5.61573C307.289 5.71393 306.821 5.82067 306.977 5.92741C307.133 5.96157 306.508 5.99146 304.947 6C303.385 5.98292 303.229 5.94022 302.917 5.90607C302.448 5.86337 303.073 5.8164 302.917 5.76517C302.136 5.79932 302.292 5.83348 302.292 5.86764C302.136 5.91034 299.794 5.9573 298.232 5.94876C297.608 5.94449 297.451 5.93169 297.295 5.91888C296.983 5.89753 296.671 5.88045 296.202 5.86337C295.734 5.84629 295.265 5.84202 294.953 5.86337C294.484 5.89326 294.016 5.91461 292.767 5.91888C291.361 5.92315 291.205 5.88472 290.737 5.86337C290.424 5.84629 289.8 5.85056 289.331 5.84629C287.614 5.83348 287.458 5.81213 288.707 5.77798C289.8 5.74382 291.049 5.73955 292.454 5.75236C293.079 5.75663 293.704 5.76517 294.016 5.74382C294.328 5.72247 293.704 5.71393 293.235 5.70966C291.518 5.68404 292.142 5.65415 292.923 5.62427C292.142 5.63708 291.518 5.64988 290.893 5.65842C289.956 5.6755 288.863 5.68831 288.082 5.64988C287.301 5.61146 288.551 5.59865 289.488 5.58584C289.956 5.5773 290.581 5.5773 290.737 5.56022C290.424 5.54314 289.8 5.54741 289.488 5.55595C288.394 5.5773 286.989 5.58584 285.74 5.58584C284.178 5.59011 283.398 5.61573 282.617 5.64561C282.461 5.65415 282.148 5.66269 282.461 5.67123C282.773 5.67977 283.241 5.6755 283.554 5.66696C284.022 5.65415 284.178 5.62 285.271 5.63281C286.677 5.64562 288.238 5.65415 289.019 5.69685C289.488 5.72674 289.956 5.75663 288.394 5.78225C286.833 5.80786 286.521 5.83775 287.926 5.87618C288.395 5.88899 288.551 5.90607 287.926 5.92315C286.989 5.94449 285.896 5.95303 284.803 5.94022C284.022 5.93168 284.022 5.91034 284.335 5.88899C284.803 5.86337 285.428 5.83775 284.178 5.81213C284.022 5.80786 283.866 5.80359 283.866 5.79932C283.866 5.75663 283.085 5.74809 281.836 5.76517C280.275 5.79078 279.025 5.80359 278.557 5.73528C278.401 5.7182 277.776 5.72247 277.62 5.73101C276.839 5.76517 275.746 5.75663 274.497 5.75663C273.404 5.75663 271.998 5.76517 271.998 5.81213C271.998 5.83775 271.374 5.84629 270.437 5.85056C269.344 5.85483 268.251 5.85056 267.001 5.84202C266.221 5.83775 265.752 5.82067 265.752 5.79505C265.908 5.77371 265.908 5.75236 265.752 5.73101C265.284 5.68831 266.065 5.67123 267.47 5.67123C268.719 5.67123 269.968 5.66269 271.218 5.66269C271.374 5.64135 270.749 5.64135 270.437 5.64135C268.095 5.63281 266.221 5.58157 263.566 5.58584C262.785 5.58584 261.848 5.57303 261.692 5.55168C261.068 5.48764 259.038 5.46629 257.476 5.43213C257.32 5.42786 257.32 5.42359 257.32 5.41505C257.164 5.3937 258.413 5.37662 257.632 5.35954C256.852 5.34247 256.227 5.35954 255.446 5.36808C254.822 5.37662 254.197 5.37235 253.572 5.37662C252.792 5.38089 252.323 5.39797 252.167 5.42359C253.104 5.41932 252.792 5.37235 254.041 5.38516C255.134 5.39797 255.446 5.42786 255.134 5.45775C254.978 5.47056 254.822 5.48337 255.29 5.48764C255.758 5.49617 256.227 5.48764 256.695 5.4791C258.101 5.44921 259.038 5.44067 259.194 5.50471C259.194 5.52179 259.662 5.5346 260.443 5.53887C262.005 5.54314 261.692 5.5773 261.38 5.60292C261.068 5.63708 260.131 5.64135 259.038 5.63281C257.945 5.62 256.695 5.60292 256.227 5.65842C256.852 5.63281 257.632 5.61573 258.569 5.63281C259.662 5.65415 261.068 5.66269 261.848 5.69258C262.161 5.70112 262.161 5.70966 262.629 5.70112C264.191 5.68831 264.347 5.71393 264.035 5.74382C263.878 5.75663 263.566 5.76517 263.566 5.78225C263.41 5.82067 262.629 5.82067 261.848 5.80359C260.599 5.77798 259.194 5.77798 257.788 5.78225C256.227 5.78652 254.822 5.7609 253.416 5.74382C252.167 5.73101 251.074 5.72247 250.449 5.76517C250.137 5.78651 249.356 5.79078 248.419 5.79078C248.107 5.79078 247.795 5.79505 247.951 5.80359C248.107 5.8164 248.419 5.8164 248.732 5.81213C249.825 5.78652 251.23 5.78651 252.479 5.78651C253.26 5.78651 253.572 5.79932 253.728 5.8164C254.197 5.86337 252.011 5.92315 250.449 5.91034C249.825 5.90607 249.512 5.91034 249.356 5.92315C249.044 5.94449 248.575 5.96584 247.639 5.94876C246.702 5.93595 245.765 5.92315 245.765 5.88472C245.765 5.8591 246.389 5.82494 244.828 5.82067C243.11 5.8164 243.422 5.8591 243.266 5.88899C243.11 5.93596 240.455 5.96157 239.05 5.93168C238.582 5.91888 238.582 5.90607 238.738 5.88899C238.894 5.88045 239.206 5.87191 239.675 5.86337C240.455 5.84629 241.236 5.82921 240.924 5.80359C240.768 5.78652 238.113 5.77371 237.332 5.78651C236.083 5.80786 234.678 5.82067 233.429 5.84202C232.179 5.86337 230.93 5.87618 229.369 5.8591C230.149 5.87191 230.462 5.88472 229.993 5.90607C229.056 5.94449 225.309 5.98292 223.591 5.97011C222.966 5.96584 222.654 5.9573 222.654 5.94022C222.498 5.88472 221.092 5.86764 219.375 5.89753C219.062 5.9018 218.594 5.91034 218.438 5.90607C216.876 5.85483 216.564 5.91034 215.939 5.92741C215.002 5.9573 213.753 5.94449 212.66 5.95303C212.036 5.9573 211.879 5.93169 212.192 5.91888C212.972 5.88899 213.909 5.8591 213.753 5.8164C213.753 5.80359 214.222 5.79932 214.69 5.79932C217.813 5.80786 217.813 5.80786 219.687 5.74809C217.345 5.78225 215.159 5.82494 212.504 5.7609C212.816 5.80359 211.723 5.82494 210.786 5.84202C208.6 5.88045 207.039 5.94449 204.228 5.9573C202.666 5.96584 200.48 5.92742 200.324 5.88472C200.168 5.86764 200.48 5.84202 199.543 5.84202C198.606 5.83775 197.669 5.84629 197.201 5.86764C196.576 5.89753 195.952 5.92742 194.703 5.94022C193.609 5.95303 192.673 5.95303 191.736 5.92315C190.486 5.88045 190.174 5.88472 189.237 5.92741C188.769 5.95303 188.3 5.96584 187.363 5.93595C187.207 5.92741 186.895 5.91034 186.426 5.91888C184.553 5.94876 184.084 5.9018 183.46 5.87191C182.835 5.84202 182.21 5.83348 181.43 5.8591C180.18 5.89326 179.4 5.8591 178.463 5.84629C178.15 5.84202 178.15 5.83348 178.15 5.82494C178.306 5.79932 181.43 5.74809 182.21 5.7609C182.991 5.77371 183.928 5.76517 184.553 5.76944C183.303 5.76944 181.742 5.75236 180.805 5.70966C180.493 5.69685 180.18 5.68831 179.712 5.70539C178.306 5.74809 176.901 5.74382 175.652 5.69685C175.496 5.68831 175.027 5.68831 174.715 5.69685C174.403 5.70539 174.09 5.71393 174.559 5.72674C176.12 5.7609 175.496 5.79932 174.559 5.83348C173.466 5.87191 172.06 5.87191 170.655 5.83775C170.186 5.8591 170.811 5.87618 170.811 5.89326C170.967 5.94022 170.186 5.96584 168.469 5.97011C167.688 5.97011 166.751 5.97865 165.97 5.97438C163.16 5.97438 162.847 5.96584 162.535 5.88899C162.379 5.85056 163.472 5.82921 164.877 5.84629C165.502 5.85483 165.814 5.87618 166.751 5.87191C167.22 5.84629 166.127 5.82921 166.283 5.80786C165.033 5.83775 161.442 5.82921 160.505 5.79932C160.037 5.78652 160.193 5.76944 160.505 5.75663C160.973 5.73955 161.442 5.72247 160.973 5.69685C159.724 5.74382 158.163 5.7182 156.601 5.7182C156.601 5.73528 157.226 5.73528 157.694 5.73955C158.319 5.74382 158.943 5.74382 159.256 5.75663C159.88 5.79505 160.349 5.82494 162.223 5.83348C163.16 5.83775 162.379 5.86764 161.754 5.87618C159.88 5.89753 158.319 5.88045 156.757 5.85056C155.196 5.82067 153.79 5.77798 151.917 5.75663C151.917 5.79078 154.727 5.77798 153.634 5.82921C153.634 5.83348 154.103 5.83348 154.415 5.83775C155.196 5.84202 156.601 5.82921 156.757 5.86337C157.07 5.90607 155.352 5.89326 154.727 5.90607C153.478 5.93168 152.229 5.95303 150.667 5.96584C150.043 5.97011 149.574 5.97438 148.95 5.97438C148.013 5.97438 147.232 5.97438 147.544 5.93595C147.7 5.92315 147.7 5.91034 147.388 5.89753C146.763 5.87618 145.983 5.87191 145.202 5.86764C144.577 5.86337 144.421 5.88045 144.265 5.89326C143.797 5.91888 144.577 5.93168 145.202 5.94449C145.358 5.94876 145.67 5.9573 145.514 5.97011C143.328 5.97011 141.142 5.97011 138.956 5.97011C138.019 5.97011 137.707 5.9573 137.863 5.93168C138.331 5.88472 138.019 5.83775 138.175 5.79078C137.394 5.79505 137.238 5.80786 136.926 5.82067C135.677 5.89326 133.334 5.89753 131.304 5.83348C130.68 5.81213 130.367 5.78225 129.118 5.76517C129.118 5.80786 128.494 5.83775 127.088 5.85483C126.307 5.86337 125.995 5.87618 125.995 5.9018C125.995 5.91888 125.527 5.92315 125.058 5.92315C124.434 5.92315 123.965 5.91034 124.121 5.89326C124.121 5.87618 124.277 5.86337 124.434 5.84629C124.434 5.82494 124.277 5.81213 123.497 5.80786C122.56 5.80359 122.091 5.82067 122.091 5.84202C122.247 5.87618 121.779 5.90607 121.154 5.93595C120.53 5.97011 117.719 5.98719 116.626 5.96584C116.314 5.9573 116.157 5.94449 116.314 5.93595C116.782 5.91034 117.407 5.90607 118.5 5.92315C117.407 5.89326 117.251 5.86764 118.5 5.84629C119.281 5.83348 119.749 5.8164 119.437 5.79078C118.968 5.76517 118.344 5.7609 117.407 5.76517C116.157 5.76517 115.064 5.77371 113.815 5.76517C113.191 5.7609 112.878 5.76517 112.566 5.77798C111.473 5.81213 110.067 5.82921 108.35 5.83348C106.788 5.83775 106.476 5.85056 107.569 5.88899C108.037 5.90607 108.662 5.91888 108.194 5.94022C107.569 5.96157 106.788 5.96584 105.851 5.95303C104.914 5.94022 104.134 5.94022 103.041 5.94876C100.542 5.97011 99.4491 5.95303 97.4191 5.8591C98.1998 5.92741 95.7014 5.93168 94.7645 5.94022C92.4222 5.96584 90.0799 5.92742 87.8937 5.89753C87.4252 5.88899 87.5814 5.87191 87.8937 5.86337C88.5183 5.84629 89.2991 5.83348 90.236 5.84629C91.6414 5.86764 92.4222 5.85056 93.3591 5.82494C94.1398 5.79932 95.0768 5.79505 96.1698 5.78225C97.7314 5.7609 99.6052 5.7609 100.854 5.72247C101.323 5.70539 101.948 5.70112 102.728 5.70539C103.353 5.70966 104.29 5.70966 104.446 5.73101C104.602 5.75236 103.665 5.75236 103.197 5.76517C103.041 5.76944 102.884 5.77371 102.728 5.77798C100.542 5.82067 100.542 5.82067 102.728 5.87191C103.197 5.86764 103.197 5.8591 103.041 5.85056C102.884 5.82494 102.26 5.79505 103.041 5.77798C104.134 5.75236 105.539 5.74382 106.944 5.73955C107.257 5.73955 107.725 5.73955 107.881 5.75236C108.037 5.79078 108.974 5.77371 109.911 5.77371C108.194 5.75236 107.101 5.7182 107.257 5.66696C106.944 5.6755 106.944 5.70966 106.164 5.70112C104.602 5.68404 105.227 5.64135 105.383 5.61146C104.29 5.60292 103.821 5.62 103.353 5.63708C101.167 5.73101 99.6052 5.74382 95.8575 5.70112C95.5452 5.69685 95.3891 5.69685 95.0768 5.69685C92.5783 5.70966 92.5783 5.70966 90.236 5.68404C90.7045 5.7182 91.1729 5.75236 89.6114 5.76944C88.3622 5.78652 86.176 5.76944 85.2391 5.73528C84.7706 5.7182 84.6145 5.70112 84.146 5.68404C83.6776 5.66269 83.2091 5.64988 82.116 5.66269C84.4583 5.68404 83.6776 5.7609 85.5514 5.78651C85.7076 5.78651 85.7076 5.79505 85.7076 5.79505C85.3953 5.83348 84.3022 5.83775 83.2091 5.84629C82.2722 5.85056 81.1791 5.83775 81.3353 5.8164C81.6476 5.77798 80.8668 5.76944 79.9299 5.7609C78.6807 5.74809 78.3684 5.73528 79.6176 5.71393C80.086 5.70539 80.5545 5.69685 80.2422 5.6755C79.9299 5.65842 79.3053 5.65415 78.6807 5.65842C77.5876 5.66696 76.6507 5.67123 75.5576 5.67977C74.4645 5.68831 73.5276 5.68404 72.903 5.65842C72.5907 5.64561 71.8099 5.64135 72.1222 5.62C72.4345 5.59865 73.0592 5.59011 73.8399 5.59438C75.2453 5.60292 75.5576 5.57303 76.0261 5.55168C76.4945 5.52606 75.5576 5.52179 75.0891 5.50898C74.6207 5.49618 74.4645 5.48337 74.7768 5.46629C75.0891 5.44921 75.7138 5.44067 76.3384 5.44494C78.3684 5.45348 79.1491 5.42359 79.1491 5.36381C76.3384 5.41078 73.0592 5.37235 70.5607 5.42359C70.0922 5.41932 70.4045 5.4364 70.4045 5.42786C71.3415 5.42359 71.8099 5.44494 72.5907 5.45348C72.7468 5.45775 72.903 5.45775 73.0591 5.46202C73.8399 5.4791 74.4645 5.50044 75.2453 5.51752C75.7138 5.52606 76.3384 5.5346 75.8699 5.55168C75.5576 5.56876 75.0891 5.58157 74.3084 5.57303C73.3715 5.56022 72.4345 5.56876 71.6538 5.57303C70.4045 5.5773 68.9992 5.58157 70.2484 5.63281C70.4045 5.64135 70.4045 5.64988 70.0922 5.65842C69.6238 5.66696 69.1553 5.66696 68.6869 5.65842C67.7499 5.63707 66.6569 5.62 65.5638 5.60719C64.783 5.59865 64.783 5.5773 64.783 5.55595C64.9392 5.52179 64.6269 5.49617 63.2215 5.49617C62.1284 5.49617 61.0353 5.50471 61.3477 5.55168C61.5038 5.5773 60.723 5.60292 61.1915 5.62854C61.3477 5.63708 61.1915 5.64562 60.723 5.64988C60.2546 5.65415 59.7861 5.64988 59.3177 5.64135C58.5369 5.62 57.9123 5.59865 56.8192 5.59011C55.7261 5.56876 56.8192 5.55168 56.9754 5.53033C57.2877 5.51752 57.6 5.50898 58.0684 5.50044C59.3177 5.48337 59.4738 5.45348 59.0054 5.42359C58.8492 5.40651 58.2246 5.38943 58.8492 5.37662C59.4738 5.35954 60.2546 5.37662 60.723 5.38089C61.8161 5.3937 62.9092 5.38943 64.0023 5.38516C66.0323 5.38089 67.2815 5.35528 67.7499 5.29977C68.3746 5.23572 69.9361 5.19303 72.2784 5.17595C72.4345 5.17595 72.5907 5.16741 72.4345 5.15887C71.8099 5.15887 71.3415 5.17168 70.873 5.18022C70.5607 5.18449 70.0922 5.19303 69.9361 5.18449C68.5307 5.12044 66.0323 5.16314 64.3146 5.13752C65.0953 5.16314 66.5007 5.17168 67.4376 5.1973C68.3746 5.22291 68.2184 5.26561 67.1253 5.26561C65.0953 5.26988 64.0023 5.32539 61.9723 5.32539C61.5038 5.32539 61.1915 5.32966 60.723 5.32966C59.3177 5.32966 58.6931 5.31258 60.0984 5.26561C57.9123 5.31685 59.63 5.42359 55.7261 5.41078C56.3507 5.44067 56.8192 5.43213 57.2877 5.43213C57.7561 5.43213 58.5369 5.41932 58.8492 5.44067C59.1615 5.46202 58.5369 5.4791 57.9123 5.48764C57.2877 5.49617 56.6631 5.50045 56.8192 5.52606C56.5069 5.56876 55.8823 5.59865 54.0084 5.58157C53.2277 5.57303 52.9154 5.56022 53.2277 5.53887C53.3838 5.52179 53.54 5.50471 53.2277 5.48764C53.0715 5.48337 52.9154 5.48764 52.9154 5.49191C52.2908 5.51325 51.9785 5.55168 50.5731 5.54741C48.8554 5.54314 49.0115 5.49618 48.3869 5.46629C48.2308 5.46202 48.0746 5.46202 47.9185 5.45775C47.45 5.44494 46.8254 5.43213 46.6692 5.41078C46.9816 5.37235 47.7623 5.37235 48.6992 5.38943C49.6362 5.40651 50.5731 5.41932 51.3539 5.38516C51.6662 5.37235 52.2908 5.36808 52.7592 5.36381C53.6961 5.35528 54.4769 5.35101 54.0084 5.31258C53.8523 5.30404 54.0084 5.29123 54.3208 5.28696C55.8823 5.26561 55.4138 5.24853 54.4769 5.22291C53.3838 5.18876 55.1015 5.18022 55.8823 5.15887C54.9454 5.17168 54.1646 5.17168 53.8523 5.18876C53.2277 5.24853 51.9785 5.24853 50.1046 5.23572C48.8554 5.22718 47.45 5.23572 46.3569 5.26134C46.2008 5.26561 46.0446 5.26561 45.8885 5.26561C44.9516 5.26561 44.6393 5.28269 44.327 5.30404C42.7654 5.32112 41.6723 5.30831 40.7354 5.26988C41.0477 5.1973 39.6424 5.13752 38.0808 5.08201C37.6124 5.07774 37.7685 5.05213 36.8316 5.0564C34.9578 5.0692 32.9278 5.04786 31.0539 5.07347C29.8047 5.08628 29.1801 5.06067 28.3993 5.03505C27.7747 5.0137 27.1501 4.99662 27.9309 4.971C28.3993 4.95392 28.2432 4.93257 28.5555 4.91123C28.7116 4.89415 29.4924 4.87707 29.9609 4.89842C30.5855 4.93257 31.3662 4.92404 32.3031 4.91977C33.2401 4.9155 34.177 4.92404 34.8016 4.95819C34.9578 4.92404 34.3331 4.9155 33.8647 4.90696C31.6785 4.86426 31.8347 4.84718 34.0208 4.80875C35.7385 4.7746 37.7685 4.74898 37.9247 4.67639C37.9247 4.65504 38.0808 4.63797 37.4562 4.62089C36.9877 4.60808 36.8316 4.591 36.6754 4.57392C36.5193 4.55257 36.0508 4.53122 35.2701 4.52695C33.3962 4.51414 33.8647 4.49279 34.6454 4.46291C34.9578 4.4501 35.4262 4.44156 35.2701 4.41167C34.6454 4.45437 34.177 4.49706 32.6155 4.5056C32.3031 4.5056 32.7716 4.5056 32.7716 4.50987C34.8016 4.5483 35.5824 4.60808 36.5193 4.66358C37.3001 4.70201 36.8316 4.71482 35.4262 4.71482C35.1139 4.71482 34.6454 4.71055 34.4893 4.71909C33.2401 4.76179 31.6785 4.74898 30.117 4.75752C28.087 4.76606 27.3062 4.74898 26.3693 4.71055C26.2132 4.70201 25.9009 4.69774 25.4324 4.69347C24.8078 4.71055 24.4955 4.74471 23.2463 4.72763C22.3093 4.71482 21.8409 4.65931 22.4655 4.6337C22.7778 4.62089 23.2463 4.60808 23.5586 4.591C23.7147 4.57819 24.4955 4.56965 23.5586 4.55257C22.7778 4.53549 23.2463 4.50987 24.8078 4.47999C23.5586 4.48853 21.2163 4.46718 19.967 4.44156C19.6547 4.43302 18.874 4.43729 18.7178 4.42448C18.2494 4.40313 18.4055 4.38605 19.1863 4.37751C19.8109 4.36897 20.7478 4.37751 20.7478 4.35616C20.7478 4.32201 21.6847 4.28785 20.904 4.25369C20.1232 4.21953 20.1232 4.18965 21.2163 4.15976C21.997 4.13841 20.904 4.12987 20.5917 4.12133C19.0301 4.08717 18.7178 4.04875 19.3424 3.99751C19.6547 3.98043 19.967 3.96335 20.7478 3.97189C22.4655 3.99324 23.8709 3.97616 25.4324 3.95481C26.057 3.94627 26.8378 3.942 27.4624 3.95054C28.087 3.95481 28.7116 3.96762 28.2432 3.9847C26.9939 4.0274 29.0239 4.04448 29.1801 4.07436C29.1801 4.0829 29.8047 4.0829 30.117 4.07863C30.5855 4.07009 30.2732 4.06155 30.117 4.05302C29.9608 4.04448 29.6485 4.03167 29.8047 4.0274C31.3662 3.99324 31.3662 3.942 31.5224 3.89077C31.6785 3.85661 32.9278 3.86088 33.8647 3.87369C34.4893 3.88223 35.2701 3.91212 36.0508 3.8865C36.6754 3.86942 35.8947 3.84807 35.7385 3.82672C35.4262 3.79683 34.8016 3.79256 33.8647 3.79683C32.7716 3.8011 31.6785 3.8011 31.0539 3.77121C30.8978 3.76695 30.8978 3.76268 30.8978 3.75414C31.3662 3.72425 32.147 3.72852 32.9278 3.73279C31.2101 3.71571 30.117 3.68582 29.3362 3.63885C28.7116 3.6047 28.087 3.55346 25.9009 3.56627C25.7447 3.56627 25.5886 3.56627 25.5886 3.562C23.7147 3.48941 23.4024 3.56627 22.4655 3.58335C22.3093 3.58762 22.3093 3.59189 22.1532 3.59616C21.8409 3.61751 21.6847 3.63458 22.4655 3.65166C23.2463 3.66447 23.0901 3.69009 22.7778 3.70717C22.4655 3.72852 21.6847 3.71998 21.0601 3.71571C20.1232 3.71144 19.1863 3.71144 18.5617 3.73706C18.0932 3.75414 17.3124 3.75414 17.0001 3.73706C15.9071 3.67301 12.784 3.67301 11.5348 3.61324C11.2225 3.60043 10.4417 3.60897 9.97323 3.60897C8.09939 3.60897 7.47478 3.59189 7.63093 3.54065C7.63093 3.5193 7.16247 3.51503 6.69401 3.50649C6.0694 3.49368 5.75709 3.47661 6.22555 3.45526C6.69401 3.43391 7.47478 3.4211 8.4117 3.42537C9.19247 3.42537 9.66093 3.43818 9.81708 3.45953C9.81708 3.47234 9.66093 3.49368 10.4417 3.49795C11.2225 3.50222 11.5348 3.48515 12.0032 3.47234C13.4086 3.4211 13.2525 3.36132 11.2225 3.3229C10.1294 3.30155 9.34862 3.27593 8.4117 3.25031C7.63093 3.23323 7.00632 3.19907 8.4117 3.17346C9.19247 3.15638 8.88016 3.12222 9.81708 3.10514C8.72401 3.10514 7.63093 3.10941 7.63093 3.07098C7.63093 3.03683 8.72401 3.03256 9.81708 3.02829C13.7209 3.02402 16.0632 3.06671 16.6878 3.16065C18.0932 3.11795 18.0932 3.10941 16.6878 3.03256C15.9071 2.98986 15.1263 2.95143 13.0963 2.9557C12.4717 2.9557 11.6909 2.96851 11.3786 2.94716C10.9102 2.92581 11.3786 2.90874 12.0032 2.89166C12.3155 2.89166 12.0032 2.87885 12.0032 2.88739C12.0032 2.89166 12.0032 2.89166 11.8471 2.89166C10.4417 2.88739 9.81708 2.87031 10.2855 2.83188C10.9102 2.78491 10.1294 2.75076 9.03631 2.7166C7.94324 2.67817 7.94324 2.64828 9.50477 2.62694C9.97323 2.6184 12.4717 2.63547 12.9401 2.64401C13.4086 2.65255 14.0332 2.65682 14.6578 2.66109C15.5948 2.6739 15.5948 2.64828 15.7509 2.6312C16.0632 2.60986 16.6878 2.61413 17.1563 2.62267C18.5617 2.66109 20.4355 2.65255 22.1532 2.65255C23.4024 2.65255 23.7147 2.65682 24.1832 2.68671C24.9639 2.75503 25.7447 2.76357 28.2432 2.74649C29.4924 2.73795 30.117 2.75503 31.2101 2.78064C30.4293 2.71233 28.3993 2.66963 29.1801 2.58851C27.3062 2.66109 25.2763 2.66963 22.7778 2.62694C22.4655 2.62267 22.1532 2.62694 21.6847 2.62694C19.967 2.6312 18.7178 2.6184 18.0932 2.5757C17.937 2.57143 17.937 2.56716 17.7809 2.56289C17.1563 2.50738 16.2194 2.53727 15.2824 2.55862C13.4086 2.59705 9.97323 2.5757 8.88016 2.52019C8.72401 2.48603 8.25555 2.45188 9.81708 2.43053C10.754 2.41772 10.1294 2.3921 9.66093 2.38356C8.4117 2.35367 8.88016 2.33233 9.66093 2.30244C9.66093 2.29817 9.81708 2.29817 9.81708 2.2939C10.1294 2.22558 11.8471 2.21277 14.0332 2.21704C14.1894 2.2085 14.6578 2.2085 14.5017 2.19569C14.1894 2.16581 15.1263 2.16154 15.9071 2.153C16.0632 2.153 16.2194 2.153 16.2194 2.153C16.3755 2.14873 16.5317 2.153 16.844 2.153C16.6878 2.14019 16.3755 2.12738 15.9071 2.11884C15.4386 2.11457 15.2824 2.10603 15.4386 2.09749C15.7509 2.08895 15.9071 2.08041 16.3755 2.07614C16.6878 2.07614 17.0001 2.07614 17.1563 2.08041C17.3124 2.08041 17.4686 2.09322 17.6247 2.08041C17.3124 2.07187 16.844 2.07187 16.5317 2.0676C15.9071 2.05906 16.2194 2.04626 16.5317 2.03345C17.0001 2.02064 17.6247 2.01637 18.2494 2.00783C18.5617 2.00356 18.874 1.99929 19.0301 1.99502C19.3424 1.98648 19.1863 1.97367 19.1863 1.96086C19.0301 1.93097 18.874 1.90536 20.1232 1.89255C22.1532 1.86266 22.6216 1.83277 21.997 1.76445C22.1532 1.75165 22.4655 1.74311 22.7778 1.7303C24.027 1.71749 22.3093 1.6876 23.2463 1.67052C22.4655 1.6449 23.5586 1.61928 23.2463 1.5894C23.2463 1.56805 22.934 1.55097 22.1532 1.53816C20.904 1.51254 19.8109 1.48692 18.0932 1.49546C17.7809 1.49546 17.1563 1.49973 17.1563 1.48265C17.1563 1.46985 17.6247 1.46558 18.0932 1.46558C19.967 1.46985 20.1232 1.4058 21.5286 1.39299C21.8409 1.38872 21.6847 1.37591 21.3724 1.37164C19.3424 1.35456 20.5917 1.28625 19.3424 1.26917C17.0001 1.23074 16.0632 1.20085 16.3755 1.12827C16.5317 1.09838 16.3755 1.07276 15.4386 1.05568C13.8771 1.03007 14.0332 0.995908 14.3455 0.957481C14.814 0.906245 14.6578 0.863548 12.3155 0.859278C11.3786 0.855008 11.5348 0.837929 11.6909 0.82085C12.4717 0.765344 12.1594 0.731187 9.66093 0.709838C7.78709 0.692759 8.88016 0.654332 9.66093 0.624444C11.5348 0.594556 12.0032 0.594556 12.4717 0.590286C12.784 0.590286 13.2525 0.594556 13.5648 0.590286C13.5648 0.581747 13.2525 0.590286 13.2525 0.586017C13.0963 0.586017 12.9401 0.586017 12.784 0.586017C12.3155 0.581747 12.1594 0.573208 11.8471 0.568938Z" fill="white"/>
<path d="M58.062 5.62343C58.062 5.64374 57.7493 5.65898 57.124 5.66406C56.0297 5.67421 55.717 5.68945 56.4987 5.71992C56.8113 5.73007 57.4367 5.76054 56.4987 5.76054C55.8733 5.76054 54.779 5.7707 54.1536 5.74023C53.6846 5.70976 53.372 5.70468 52.7466 5.72499C51.965 5.75038 51.3396 5.76562 50.2453 5.76562C49.9326 5.76562 49.4636 5.7707 49.4636 5.78085C49.4636 5.79609 49.7763 5.80117 50.0889 5.80117C51.1833 5.80117 51.965 5.85703 53.0593 5.8164C53.372 5.81132 53.6846 5.8164 53.841 5.82148C54.31 5.86718 55.5606 5.85703 56.8113 5.85195C56.3423 5.88242 55.717 5.90273 54.779 5.90273C53.9973 5.90273 53.2156 5.91289 52.903 5.93828C52.5903 5.95351 52.434 5.96367 51.8086 5.95351C51.3396 5.94335 50.8706 5.9332 51.1833 5.91796C51.496 5.90273 51.965 5.88242 51.027 5.87734C50.558 5.87226 49.6199 5.86718 49.3073 5.89257C48.9946 5.91289 49.3073 5.94335 48.2129 5.94843C47.9003 5.94843 48.6819 5.9789 48.8383 5.99414C48.2129 6.00429 47.7439 5.99921 47.1186 5.99414C44.5 6 44.3831 5.96875 43.7578 5.91796C43.1325 5.87734 42.4286 5.82148 41.9596 5.79609C41.1779 5.75546 43.6792 5.76562 43.0539 5.73515C42.5849 5.6996 42.7412 5.62343 40.2399 5.66913C39.9272 5.67421 39.4582 5.66913 38.9892 5.66406C38.8329 5.64374 39.7709 5.63359 39.4582 5.61327H39.3019C39.7709 5.58281 38.6766 5.59804 38.5202 5.58788C37.8949 5.55234 38.0512 5.50663 38.6766 5.47616C39.1456 5.44569 39.4582 5.41523 39.6146 5.38476C39.4582 5.36444 38.5202 5.35429 38.8329 5.3289C38.8329 5.31874 38.6765 5.31366 38.3639 5.30858C37.7385 5.30858 37.4259 5.27812 36.6442 5.29335C36.1752 5.29843 35.7062 5.28827 35.3935 5.29843C35.0809 5.30351 34.9245 5.3289 34.4555 5.31874C33.6739 5.29843 32.4232 5.27304 32.4232 5.2578C32.7358 5.19686 31.3288 5.22733 30.8598 5.2121C30.7035 5.20702 30.7035 5.19686 30.8598 5.19179C31.0162 5.17655 32.1105 5.17655 31.4852 5.14608C31.3288 5.13593 30.8598 5.12069 31.4852 5.11561C32.2668 5.10546 32.7358 5.0953 32.1105 5.07499C31.6415 5.05975 31.1725 5.03944 30.3908 5.0496C29.6092 5.05975 29.1402 5.05975 28.5148 5.04452C28.6712 5.03944 28.8275 5.03436 28.6712 5.02929C28.6712 5.02929 28.5148 5.02929 28.6712 5.03436C28.6712 5.03944 28.6712 5.04452 28.5148 5.04452C27.7332 5.04452 26.7951 5.03436 27.2642 5.00897C27.8895 4.96835 27.4205 4.92772 27.4205 4.8871C28.6712 4.85663 28.8275 4.83124 27.4205 4.80077C26.6388 4.78046 26.7951 4.75506 27.2642 4.7246C27.4205 4.70936 28.0458 4.69413 27.4205 4.68397C26.7951 4.67381 25.8571 4.66366 25.2318 4.67381C24.4501 4.68397 24.9191 4.70428 25.0755 4.71952C25.2318 4.72967 25.2318 4.73983 24.7628 4.74999C23.6685 4.71952 22.4178 4.72967 21.1671 4.72967C20.5418 4.72967 20.0728 4.73983 19.7601 4.71444C19.9164 4.69413 21.4798 4.71444 21.0108 4.67381C21.0108 4.65858 21.1671 4.64842 21.6361 4.64335C21.9488 4.64335 22.2615 4.64335 22.2615 4.63827C22.2615 4.62811 21.9488 4.63319 21.6361 4.63319C20.8544 4.63827 20.6981 4.6535 21.0108 4.67889C20.5418 4.71444 19.9164 4.69413 19.2911 4.68905C18.6658 4.67381 18.1968 4.65858 17.5714 4.64842C16.1644 4.62811 17.5714 4.59764 17.2588 4.57225C16.9461 4.55194 17.8841 4.56717 18.3531 4.56717C18.6658 4.56209 19.4474 4.56209 19.2911 4.55194C18.5094 4.51639 20.0728 4.46053 18.0404 4.43006C17.4151 4.42498 15.8518 4.39452 16.4771 4.34373C16.6334 4.3285 15.8518 4.33866 15.5391 4.33358C15.2264 4.3285 15.0701 4.32342 15.0701 4.31326C15.0701 4.30819 15.0701 4.29803 15.0701 4.29295C15.5391 4.25741 16.4771 4.22694 17.2588 4.21678C19.2911 4.19647 18.8221 4.166 17.8841 4.13045L17.7278 4.12537C18.9784 4.08475 16.9461 4.0949 16.9461 4.07459C16.4771 4.06443 16.6334 4.03904 16.1644 4.03397C15.3827 4.02889 15.2264 3.98826 13.9757 4.0035C13.1941 4.01365 13.1941 3.98318 13.5067 3.96795C14.1321 3.9324 13.8194 3.91717 12.7251 3.91209C11.3181 3.90193 11.4744 3.86639 11.3181 3.83084C11.3181 3.81053 11.6307 3.80037 11.9434 3.78006C11.0054 3.78514 10.0674 3.80037 9.28572 3.7699C8.19138 3.7242 8.50404 3.66326 7.72237 3.61756C7.09704 3.58201 8.66038 3.54138 10.2237 3.55662C10.6927 3.52615 10.8491 3.52107 11.6307 3.50076C11.0054 3.50076 10.2237 3.50584 9.59838 3.4906C9.28571 3.47537 8.97305 3.46521 8.66038 3.44998C8.34771 3.42966 7.72237 3.41443 7.09704 3.3992C6.4717 3.38904 6.15903 3.34334 5.22102 3.38904C4.90836 3.40427 4.12668 3.3992 3.50135 3.38904C3.03234 3.38396 2.87601 3.3738 2.71968 3.36365C2.40701 3.29255 1.15633 3.22654 1 3.15037C1.62534 3.11482 1.15633 3.07419 1.469 3.03865C2.09434 3.0031 2.71968 2.97263 3.65768 2.95232C4.12668 2.94216 4.59569 2.93201 4.12668 2.91169C3.81402 2.90661 3.50135 2.90154 3.18868 2.89138C2.71968 2.87107 2.71968 2.85583 3.03235 2.83552C3.97035 2.81521 5.22102 2.81521 5.69003 2.77458C6.31536 2.73396 6.31536 2.69841 5.22102 2.67302C4.28302 2.65271 4.43935 2.64255 5.22102 2.62732C6.31536 2.607 6.9407 2.5613 7.72237 2.53083C8.34771 2.50544 8.03504 2.48513 7.4097 2.46481C6.78437 2.4445 6.15903 2.42927 6.62803 2.3988C6.31536 2.37341 6.31536 2.35309 7.25337 2.34802C7.87871 2.34294 8.19138 2.33278 8.50404 2.31755C8.66038 2.31247 8.66038 2.31247 8.81671 2.30739C9.12938 2.29723 9.91105 2.29723 9.59838 2.27184C9.44205 2.26169 9.12938 2.25661 8.97305 2.25661C8.34771 2.26677 8.97305 2.28708 8.66038 2.29723C8.03504 2.31755 7.56604 2.36325 6.31536 2.32263C5.69003 2.28708 4.43935 2.30739 3.65768 2.282C3.03235 2.26169 2.56334 2.25153 2.56334 2.22614C2.87601 2.20075 3.34501 2.19059 4.12668 2.19059C4.59569 2.19567 4.59569 2.22106 5.22102 2.21091C6.62803 2.19059 7.56604 2.15505 8.03504 2.10934C8.66038 2.09919 10.0674 2.09411 8.66038 2.05856C8.34771 2.05348 8.34771 2.03825 8.81671 2.03317C9.44205 2.03317 9.91105 2.02809 10.3801 2.01286C11.6307 2.03825 13.1941 2.04333 14.4447 2.06872C15.2264 2.08395 16.1644 2.05348 16.7898 2.03317C17.4151 2.01286 17.8841 1.99255 18.8221 2.0027C19.6038 2.01286 19.9164 2.03825 19.6038 2.06872C19.2911 2.0738 19.2911 2.06364 19.4474 2.06872C19.4474 2.06872 19.4474 2.06872 19.6038 2.06872C19.9164 2.06364 19.7601 2.05856 19.7601 2.06364C19.7601 2.06364 19.7601 2.06364 19.6038 2.06364C20.6981 2.1195 22.1051 2.13981 23.9811 2.11442C24.4501 2.10934 24.6065 2.10426 25.0755 2.1195C26.3261 2.1652 27.8895 2.16012 29.2965 2.11442C29.9218 2.09411 30.7035 2.06872 32.1105 2.08903C30.5472 2.1195 30.3908 2.15505 31.6415 2.20075C32.4232 2.23122 31.9542 2.28708 33.6739 2.29723C33.9865 2.29723 33.6739 2.32263 33.3612 2.32263C32.7358 2.3277 31.7978 2.35817 31.4852 2.31755C31.0162 2.26169 30.0782 2.29723 29.4528 2.29723C28.8275 2.29723 28.6712 2.34294 28.0458 2.32263C26.7951 2.27692 25.3881 2.26169 25.0755 2.21091C24.9191 2.17536 25.0755 2.1652 23.5121 2.17028C21.7925 2.17536 19.1348 2.19567 17.8841 2.09919C17.5714 2.18552 17.5714 2.15505 15.3827 2.16012C13.0377 2.16012 13.6631 2.12458 13.5067 2.08903C13.5067 2.07887 13.3504 2.06364 12.8814 2.06872C11.9434 2.08395 12.7251 2.09411 12.7251 2.10426C12.7251 2.12458 12.2561 2.14489 11.6307 2.13473C10.6927 2.1195 10.3801 2.12458 10.2237 2.15505C10.2237 2.17536 9.75472 2.19059 10.8491 2.21091C11.7871 2.22614 12.5687 2.28708 12.4124 2.33278C12.0997 2.41911 11.9434 2.41911 14.6011 2.41911C14.7574 2.4445 14.1321 2.43435 13.8194 2.43942C13.0377 2.44958 12.7251 2.47497 12.8814 2.49528C13.1941 2.52067 13.8194 2.50036 14.2884 2.4902C16.1644 2.46481 16.7898 2.53083 17.8841 2.55622C19.1348 2.58161 18.3531 2.65778 19.9164 2.69333C20.0728 2.69841 18.1968 2.78474 17.7278 2.78474C17.2588 2.78474 16.6334 2.77966 16.9461 2.76443C17.8841 2.72888 16.3208 2.70349 16.9461 2.6781C16.3208 2.66286 14.2884 2.75427 15.2264 2.65271C15.3827 2.63747 15.0701 2.62732 14.7574 2.62732C13.1941 2.62224 11.6307 2.61716 10.2237 2.61716C9.44205 2.61716 8.97305 2.63239 9.28572 2.65778C9.44205 2.67302 9.75472 2.68317 10.3801 2.67302C10.8491 2.66794 11.1617 2.63747 11.7871 2.65778C12.2561 2.6781 11.7871 2.70349 11.3181 2.71872C11.0054 2.73396 9.91105 2.72888 11.0054 2.75427C11.4744 2.76443 10.6927 2.77458 10.2237 2.77458C9.75472 2.77966 8.97305 2.77966 9.28572 2.79997C9.59838 2.82029 9.44205 2.86599 10.5364 2.86091C11.4744 2.85583 12.0997 2.84568 11.4744 2.89138C11.3181 2.90154 12.8814 2.94216 13.6631 2.95232C15.0701 2.96755 14.9137 2.99294 14.6011 3.02849C14.1321 3.07419 14.6011 3.13005 12.8814 3.16052C12.4124 3.17576 11.9434 3.18591 11.3181 3.17576C10.6927 3.17068 10.6927 3.14529 10.6927 3.13005C10.6927 3.10974 11.1617 3.08435 9.91105 3.07927C8.97305 3.07927 8.34771 3.08943 8.03504 3.11482C7.56604 3.14529 8.66038 3.15037 9.12938 3.16052C9.91105 3.17576 10.5364 3.18083 9.59838 3.22146C8.97305 3.24685 10.3801 3.27732 11.0054 3.27224C12.8814 3.25193 13.8194 3.27732 14.9137 3.32302C15.5391 3.34841 16.6334 3.36365 17.5714 3.37888C18.1968 3.38904 19.7601 3.36873 18.8221 3.42459C18.6658 3.43474 19.4474 3.44998 19.6038 3.43982C20.5418 3.35857 22.2615 3.3992 23.9811 3.40935C23.9811 3.37888 24.6065 3.34841 22.8868 3.33826C22.2615 3.33318 22.5741 3.28748 23.6685 3.26716C23.9811 3.27224 23.9811 3.27224 23.9811 3.27224C23.8248 3.27224 23.8248 3.26716 23.6685 3.26716C23.3558 3.26209 23.6685 3.25193 23.5121 3.26209C23.5121 3.26716 23.8248 3.27224 23.6685 3.26716C23.5121 3.19607 25.3881 3.18083 26.9515 3.15037C26.7951 3.20115 26.9515 3.22654 28.8275 3.2113C30.0782 3.20115 30.5472 3.26716 31.0162 3.29763C31.9542 3.35349 32.7358 3.3992 34.6119 3.41443C35.0809 3.41951 36.0189 3.42966 35.5499 3.45506C35.2372 3.47537 34.6119 3.45506 34.1429 3.4449C33.3612 3.42966 32.8922 3.43982 32.4232 3.46013C31.3288 3.47537 31.3288 3.4449 31.0162 3.42459C30.7035 3.40427 31.0162 3.3738 30.7035 3.35349C30.2345 3.33318 29.6092 3.32302 28.6712 3.33318C27.5768 3.34334 27.4205 3.31287 26.9515 3.29255C26.0135 3.32302 26.3261 3.34841 27.4205 3.36873C27.8895 3.35857 28.2022 3.33318 28.8275 3.3281C29.4528 3.3281 30.0782 3.3281 30.3908 3.34334C31.0162 3.36873 30.2345 3.3992 30.5472 3.42966C30.7035 3.4449 30.3908 3.46013 29.7655 3.45506C28.0458 3.44998 26.4825 3.48552 24.7628 3.46013C24.4501 3.45506 23.8248 3.44998 23.8248 3.45506C23.1995 3.53123 20.2291 3.55662 19.9164 3.64295C21.4798 3.60232 22.4178 3.61248 23.0431 3.66326C23.1995 3.67342 23.3558 3.67849 23.6685 3.67342C24.1375 3.66834 24.1375 3.65818 24.2938 3.64803C24.4501 3.63279 24.1375 3.61756 24.4501 3.60232C24.7628 3.57693 25.2318 3.54138 26.1698 3.55154C28.5148 3.57693 29.7655 3.52107 31.3288 3.48045C31.6415 3.47029 32.1105 3.46013 32.5795 3.44998C33.5175 3.47537 34.4555 3.4906 35.7062 3.47537C36.3315 3.47029 37.4259 3.46013 37.4259 3.4906C37.5822 3.53123 38.9892 3.56677 38.3639 3.61248C37.7385 3.6531 36.8005 3.63787 35.8625 3.61756C35.0809 3.60232 34.4555 3.56677 33.5175 3.59217C32.8922 3.61248 32.8922 3.63787 33.6739 3.66834C34.1429 3.68865 33.5175 3.71912 32.4232 3.73435C31.9542 3.73943 30.8598 3.75467 31.9542 3.78006C32.4232 3.79021 33.0485 3.79529 32.7358 3.82068C32.4232 3.841 31.7978 3.84607 31.3288 3.84607C30.7035 3.85115 29.7655 3.841 29.7655 3.82068C29.6092 3.78514 29.2965 3.76482 28.2022 3.74959C28.0458 3.74451 27.7332 3.71912 28.5148 3.71404C28.9838 3.71404 29.4528 3.71404 29.4528 3.69373C29.2965 3.67342 28.6712 3.67849 28.2022 3.67342C27.2642 3.66834 26.7951 3.68865 26.0135 3.69881C24.4501 3.7242 23.0431 3.7242 21.6361 3.69881C20.5418 3.79529 20.5418 3.79529 23.6685 3.92732C22.1051 3.95272 21.1671 3.98318 22.8868 4.03904C23.1995 4.0492 23.5121 4.07459 23.0431 4.0949C22.5741 4.11522 22.5741 4.13045 22.8868 4.15584C23.3558 4.19139 22.1051 4.20155 21.3235 4.20155C20.6981 4.20155 20.3854 4.19647 20.2291 4.22186C20.2291 4.24217 20.6981 4.23709 21.0108 4.24217C21.9488 4.24725 22.2615 4.26756 22.4178 4.29803C22.4178 4.31834 23.0431 4.36912 23.8248 4.3285C24.9191 4.27772 26.0135 4.28787 27.5768 4.29803C27.5768 4.31834 27.1078 4.33358 26.4825 4.33358C25.3881 4.3285 25.0755 4.35897 24.9191 4.37928C24.7628 4.40975 26.0135 4.38944 26.3261 4.41483C24.9191 4.42498 25.3881 4.48592 23.9811 4.51131C23.3558 4.52147 24.1375 4.56209 24.4501 4.58749C24.6065 4.60272 25.0755 4.6078 25.5445 4.60272C26.6388 4.58749 25.5445 4.55702 26.0135 4.5367C26.1698 4.5367 26.3261 4.5367 26.4825 4.54178C27.7332 4.56717 28.3585 4.63319 29.4528 4.64335C30.5472 4.64842 31.9542 4.62303 33.3612 4.64335C33.9865 4.6535 34.2992 4.63827 34.6119 4.62303C35.3935 4.58241 36.3315 4.55702 37.8949 4.60272C37.1132 4.54178 36.9569 4.47577 35.3935 4.43514C34.6119 4.40975 34.4555 4.35389 32.7358 4.3742C32.7358 4.3742 32.5795 4.36405 32.5795 4.35897C32.5795 4.34881 32.8922 4.33866 33.0485 4.34373C35.0809 4.35389 36.0189 4.3285 35.5499 4.25741C35.5499 4.24725 35.7062 4.22694 36.0189 4.23201C36.4879 4.23201 37.1132 4.24217 37.5822 4.25233C38.0512 4.26248 37.7385 4.27264 37.4259 4.27772C36.8005 4.30311 36.1752 4.3285 35.3935 4.35897C37.4259 4.36405 38.6766 4.39452 38.5202 4.46053C38.5202 4.46561 38.6766 4.47577 38.6766 4.48084C41.6469 4.51639 39.6146 4.59764 39.3019 4.63827C38.9892 4.67889 36.9569 4.71444 35.3935 4.74491C34.9245 4.75506 34.1429 4.74999 33.9865 4.78046C33.9865 4.80585 34.4555 4.82616 35.2372 4.83124C37.1132 4.84647 36.9569 4.8871 36.6442 4.93788C35.3935 4.92772 35.2372 4.86171 33.5175 4.88202C33.2049 4.8871 32.7358 4.87694 32.4232 4.89218C31.4852 4.92772 31.1725 4.90741 31.0162 4.87186C31.0162 4.85663 31.1725 4.83632 30.3908 4.83632C29.7655 4.84139 30.0782 4.86171 30.0782 4.87694C30.0782 4.8871 30.2345 4.90741 30.0782 4.90741C27.8895 4.95311 30.0782 4.9785 30.5472 5.01405C30.8598 5.03944 31.6415 5.03944 32.1105 5.02929C34.1429 4.98358 36.3315 5.02421 38.5202 5.00897C39.1456 5.00389 38.9892 5.03436 39.4582 5.03944C39.7709 5.05468 40.5526 5.06991 40.3962 5.08514C39.7709 5.16132 41.3342 5.20702 42.2722 5.26288C43.2102 5.30351 44.1482 5.32382 45.7116 5.29335C46.0243 5.27304 46.4933 5.26288 46.9623 5.25272C47.1186 5.25272 47.2749 5.25272 47.4313 5.25272C49.7763 5.23749 51.8086 5.25272 53.6846 5.30858C54.1536 5.32382 54.6226 5.33398 54.31 5.35429C53.9973 5.3746 53.372 5.36444 53.0593 5.35937C52.1213 5.34413 51.1833 5.35429 50.0889 5.33905C50.8706 5.35937 52.434 5.36952 51.965 5.41523C51.6523 5.44569 50.7143 5.44062 50.0889 5.42538C49.1509 5.40507 48.5256 5.41523 48.3693 5.45077C47.9003 5.49648 46.8059 5.5371 46.3369 5.5828C45.8679 5.63359 46.4933 5.6539 48.2129 5.6539C48.2129 5.61327 47.7439 5.57773 48.0566 5.5371C48.2129 5.51679 48.0566 5.47109 49.6199 5.48632C50.558 5.52695 50.8706 5.57773 51.3396 5.62851C51.6523 5.67929 52.2776 5.66406 53.0593 5.64882C53.841 5.62851 54.779 5.62851 55.5606 5.61835C57.4367 5.6539 57.593 5.59804 58.2183 5.56757C58.6873 5.56249 58.8437 5.56757 59 5.5828C58.8437 5.58788 57.593 5.59804 58.062 5.62343Z" fill="white"/>
<path d="M24.311 4.67681C24.4672 4.66022 23.8424 4.65192 23.6863 4.63947C23.5301 4.62288 23.6863 4.61043 24.1548 4.59799C24.6234 4.58139 24.9357 4.59384 25.4043 4.59799C25.7167 4.60214 26.1852 4.61043 26.4976 4.60628C29.1527 4.58554 27.9032 4.63118 27.5909 4.65192C27.2785 4.67266 26.4976 4.68926 27.4347 4.71C27.7471 4.7266 27.4347 4.7349 26.9661 4.74319C26.3414 4.74734 25.7167 4.75149 24.9357 4.75564C24.6234 4.7266 24.4672 4.70171 24.311 4.67681Z" fill="white"/>
<path d="M4.00742 2.58182C3.2265 2.57767 2.75795 2.59842 2.13321 2.60257C1.97702 2.59842 1.66465 2.59427 1.50847 2.59012C0.883731 2.57353 -0.365746 2.56523 0.102808 2.53619C0.727546 2.51129 1.66465 2.53204 2.28939 2.54034C3.07032 2.54863 3.69505 2.54448 4.00742 2.53204C4.63216 2.503 5.72545 2.49055 6.66256 2.46981C7.44348 2.46566 8.22441 2.46151 7.91204 2.4947C6.81875 2.52374 5.88164 2.55693 4.78835 2.58597C4.63216 2.59012 4.31979 2.58597 4.00742 2.58182Z" fill="white"/>
<path d="M17.4389 4.16187C17.9075 4.17846 19.4693 4.16601 19.3131 4.20335C19.1569 4.23239 18.0637 4.23654 17.2827 4.24069C16.9704 4.24069 16.5018 4.24484 16.658 4.24899C16.658 4.28633 15.4085 4.28218 14.6276 4.29877C14.3152 4.29877 14.159 4.29462 13.8467 4.29462C13.5343 4.28218 14.0029 4.27803 14.3152 4.27388C14.94 4.21995 15.5647 4.17846 17.4389 4.16187Z" fill="white"/>
<path d="M26.8108 4.74317C26.967 4.73072 27.1232 4.72242 27.2793 4.70998C27.9041 4.70998 28.8412 4.70583 28.685 4.73072C28.5288 4.75146 28.5288 4.78465 27.1232 4.78465C27.5917 4.77221 27.7479 4.75561 26.8108 4.74317Z" fill="white"/>
<path d="M9.31738 3.63081C10.2545 3.64325 11.6602 3.60592 12.7534 3.6474C11.3478 3.6474 10.5669 3.65985 9.94212 3.68474C10.0983 3.66815 10.0983 3.6474 9.31738 3.63081Z" fill="white"/>
<path d="M39.1494 5.38647C39.3056 5.39892 40.2427 5.39477 40.0865 5.40722C39.9303 5.42796 38.837 5.41137 38.5246 5.42796C38.2123 5.42796 37.8999 5.42381 37.8999 5.42381C37.8999 5.40722 38.3685 5.39477 39.1494 5.38647Z" fill="white"/>
<path d="M27.9041 0.0554084C27.9041 0.0512597 27.9041 0.0471109 27.9041 0.0429622C28.3726 0.0388134 28.8412 0.0305159 29.1535 0.0263672C28.9973 0.0388134 28.8412 0.0512597 29.4659 0.0595572C29.6221 0.0595572 29.6221 0.0637059 29.6221 0.0637059C29.6221 0.0720034 29.6221 0.0720034 29.6221 0.0720034C28.685 0.101045 28.5288 0.0595572 27.9041 0.0554084Z" fill="white"/>
<path d="M20.5632 4.6145C21.188 4.65184 20.0947 4.64769 19.3138 4.64769C19.0014 4.64354 18.8452 4.63525 18.8452 4.62695C19.3138 4.61035 20.2509 4.63525 20.5632 4.6145Z" fill="white"/>
<path d="M36.4937 5.11623C36.9622 5.09549 36.9622 5.09549 38.2117 5.13282C37.8993 5.13282 37.4308 5.13282 37.1184 5.13282C36.6498 5.13282 36.4937 5.12453 36.4937 5.11623Z" fill="white"/>
<path d="M12.7542 0.585436C12.1294 0.585436 11.6609 0.581287 11.0361 0.581287C11.1923 0.568841 12.1294 0.568841 11.9732 0.552246C12.2856 0.556395 12.598 0.560544 12.9103 0.564692C13.0665 0.568841 13.0665 0.577139 12.7542 0.585436Z" fill="white"/>
<path d="M30.559 5.03345C30.559 5.0376 30.559 5.04589 30.559 5.05004C30.2467 5.05834 29.7781 5.06249 29.3096 5.07493C29.3096 5.05004 30.0905 5.04589 30.559 5.03345Z" fill="white"/>
<path d="M14.6283 4.33617C14.3159 4.33617 14.0035 4.33202 13.6912 4.32373C13.8473 4.31128 14.1597 4.31128 14.4721 4.31128C14.6283 4.31543 14.7845 4.32373 14.9406 4.32787C14.9406 4.33202 14.7845 4.33617 14.6283 4.33617Z" fill="white"/>
<path d="M34.7758 3.22028C36.4938 3.20368 37.2748 3.21613 37.2748 3.25761C37.2748 3.26176 37.2748 3.26591 37.2748 3.27421C39.3052 3.26591 39.4613 3.34474 41.4917 3.32814C40.0861 3.38208 38.6804 3.41112 36.0253 3.39452C37.2748 3.36963 38.9928 3.34889 36.9624 3.30325C37.2748 3.34474 36.1815 3.35718 35.2444 3.37378C34.4634 3.39037 33.8387 3.41112 34.3073 3.44016V3.44431C34.932 3.47335 33.6825 3.48994 33.3701 3.51484C33.3701 3.51899 32.9016 3.51899 32.7454 3.51484C32.1207 3.49409 31.9645 3.45675 32.2769 3.44846C33.6825 3.39867 30.8712 3.37793 31.4959 3.33644C31.4959 3.33229 31.0274 3.33229 30.8712 3.33229C29.6217 3.34474 28.5284 3.33229 27.5913 3.31155C27.1228 3.2991 26.498 3.28666 25.8733 3.30325C25.4047 3.3157 24.4676 3.31985 24.9362 3.34474C25.4047 3.37378 24.4676 3.37378 23.8429 3.36548C23.3743 3.36133 22.9058 3.34889 22.281 3.35304C21.6563 3.36133 20.563 3.34059 20.2506 3.36963C19.9383 3.39452 20.7192 3.40697 21.3439 3.41942C21.6563 3.42771 22.4372 3.44016 21.6563 3.44846C20.4068 3.46505 20.2506 3.53973 18.5326 3.50654C17.2831 3.48579 16.6584 3.48994 15.5651 3.49409C15.4089 3.49409 15.0965 3.48994 14.7842 3.48165C16.346 3.48579 17.2831 3.44846 18.6888 3.44016C19.1573 3.43601 19.6259 3.42771 19.4697 3.41112C19.3135 3.39867 19.0012 3.37793 18.3764 3.37793C16.346 3.38623 16.5022 3.36548 17.1269 3.32814C17.2831 3.3157 16.9708 3.28666 16.6584 3.27421C16.0337 3.24102 16.0337 3.20368 15.7213 3.17049C16.9708 3.14975 17.9079 3.20783 19.3135 3.17879C19.3135 3.17879 20.0945 3.21198 19.6259 3.23272C19.0012 3.26176 19.6259 3.2908 20.2506 3.2908C21.0316 3.28666 22.7496 3.3074 22.9058 3.25347C22.9058 3.23687 23.3743 3.22028 23.6867 3.19538C21.9687 3.20368 20.7192 3.19953 19.9383 3.1539C19.1573 3.11241 20.4068 3.09581 21.1877 3.08752C21.8125 3.07922 23.062 3.08337 23.3743 3.11241C23.5305 3.129 23.6867 3.14145 24.4676 3.1373C26.3418 3.12485 27.7475 3.16634 29.4655 3.16634C30.0903 3.16634 30.0903 3.18294 29.9341 3.19538C29.7779 3.20783 29.4655 3.22028 30.0903 3.22857C30.5588 3.23272 30.8712 3.22442 31.1836 3.21613C32.5892 3.18709 32.5892 3.18709 33.214 3.22857C33.5263 3.24932 34.4634 3.24102 35.0882 3.24932C35.4005 3.25347 35.7129 3.24517 35.7129 3.24102C36.0253 3.22442 35.0882 3.23687 34.7758 3.22028Z" fill="white"/>
<path d="M48.9884 5.27C46.958 5.30734 47.8951 5.35298 48.3636 5.39447C48.8322 5.42766 48.3636 5.42766 47.4265 5.42351C45.0837 5.41106 44.1466 5.36957 45.5523 5.31149C46.177 5.2866 46.3332 5.24511 47.7389 5.23267C48.3636 5.24511 48.8322 5.25756 48.9884 5.27Z" fill="white"/>
<path d="M43.9907 4.90015C44.6154 4.93749 45.7087 4.96238 46.9582 4.98312C47.7391 4.97068 46.6458 4.94993 47.2705 4.93748C48.2076 4.94163 48.52 4.96653 49.3009 4.97482C49.9257 4.98312 49.6133 4.99972 49.3009 5.00801C48.8324 5.02876 48.6762 5.00801 48.52 4.99972C48.0515 4.98727 47.7391 4.99972 47.4267 5.00387C46.9582 5.01216 46.4896 5.01631 45.8649 5.01216C42.7412 4.99972 42.4288 4.98312 43.9907 4.90015Z" fill="white"/>
<path d="M42.1167 5.08269C41.0234 5.0412 38.5245 5.01631 39.9302 4.94578C40.0863 4.93749 39.6178 4.91674 39.3054 4.90015C40.2425 4.90015 40.3987 4.91674 40.5549 4.93748C40.7111 4.96238 41.0234 4.98312 41.8044 4.99972C43.0538 5.02461 41.9606 5.0578 42.1167 5.08269Z" fill="white"/>
<path d="M19.7821 1.9883C19.6259 2.00075 20.0945 2.02149 19.3136 2.02564C18.6888 2.02979 18.6888 2.00904 18.3765 1.9966C18.6888 1.9883 19.1574 1.98 19.7821 1.9883Z" fill="white"/>
<path d="M19.7828 1.98852C19.3142 1.99267 18.8457 1.99682 18.3771 2.00097C18.0647 2.00097 17.9086 2.00097 17.5962 1.99682C17.7524 1.98852 17.9086 1.98437 18.0647 1.97607C18.5333 1.98022 19.3142 1.96778 19.7828 1.98852Z" fill="white"/>
<path d="M29.6218 0.0720348C29.6218 0.0678861 29.6218 0.0637373 29.6218 0.0637373C29.9342 0.0595886 30.2466 0.0471424 30.7151 0.0595886C31.0275 0.0637373 31.0275 0.0720348 30.7151 0.0803323C30.2466 0.0886298 29.9342 0.0720348 29.6218 0.0720348Z" fill="white"/>
<path d="M46.8016 5.07886C46.4892 5.09545 46.0207 5.10375 45.5521 5.11205C44.9274 5.07471 46.1768 5.08301 46.8016 5.07886Z" fill="white"/>
<path d="M11.1921 0.477775C11.3483 0.469477 11.9731 0.469477 12.1292 0.457031C12.4416 0.457031 12.9102 0.457031 12.754 0.469477C12.4416 0.490221 11.6607 0.481924 11.1921 0.477775Z" fill="white"/>
<path d="M13.2225 0.560281C13.6911 0.560281 13.6911 0.535388 14.3158 0.543686C14.6282 0.556132 14.1596 0.564429 14.0035 0.572727C13.5349 0.581024 13.0663 0.581024 13.2225 0.560281Z" fill="white"/>
<path d="M13.2227 0.561035C13.3789 0.565184 13.6913 0.569333 14.0036 0.573481C13.8474 0.594225 13.3789 0.594225 12.7542 0.585928C12.7542 0.57763 12.7542 0.569333 12.7542 0.565184C12.9103 0.561035 13.0665 0.561035 13.2227 0.561035Z" fill="white"/>
<path d="M30.2465 3.53931C31.1836 3.54346 31.0274 3.56005 31.0274 3.57665C31.1836 3.59739 31.0274 3.62643 32.1207 3.63473C31.496 3.68451 29.6218 3.70526 28.0599 3.73015C27.5914 3.73845 27.1228 3.73845 26.6543 3.7343C25.4048 3.72185 24.6239 3.7343 24.9362 3.77164C25.0924 3.78823 24.6239 3.79653 24.6239 3.80898C24.6239 3.82557 24.3115 3.83802 23.6868 3.83802C23.062 3.84216 22.7496 3.82972 22.4373 3.81312C22.1249 3.79238 21.9687 3.7343 20.7192 3.80483C20.5631 3.81727 19.7821 3.80483 19.3136 3.80483C19.0012 3.80483 18.6888 3.79238 19.0012 3.78408C19.626 3.75919 18.5327 3.69696 21.344 3.70941C21.8125 3.70941 22.7496 3.66377 23.062 3.63473C23.3744 3.60569 23.5306 3.60984 24.3115 3.62228C26.1857 3.65132 28.0599 3.60154 30.4027 3.63058C29.4656 3.59324 30.0903 3.56835 30.2465 3.53931Z" fill="white"/>
<path d="M18.2199 4.05873C17.9075 4.05873 17.5951 4.05873 17.2828 4.06288C16.8142 4.06702 16.0333 4.07532 15.7209 4.05873C15.4086 4.04213 15.8771 4.02139 16.1895 4.00894C16.658 3.99235 17.1266 3.9882 17.7513 4.00064C18.0637 4.00479 18.3761 4.00894 18.6884 4.01309C19.3132 4.02139 20.4065 4.01309 20.0941 4.04213C20.0941 4.06702 19.3132 4.07532 18.2199 4.05873Z" fill="white"/>
<path d="M36.1821 5.02097C35.7136 5.07076 34.7764 5.06661 33.3708 5.04586C31.9651 5.02512 31.8089 5.01682 33.0584 4.95874C33.6832 4.96704 33.9955 4.97948 33.9955 4.99608C34.7764 5.00853 35.8697 4.99193 36.1821 5.02097Z" fill="white"/>
<path d="M26.1859 3.46021C26.9668 3.48095 27.5916 3.50169 28.2163 3.52658C28.841 3.55148 27.9039 3.57637 27.4354 3.58467C26.6544 3.60126 26.6544 3.57637 26.4983 3.55978C26.3421 3.54733 26.0297 3.54318 25.5612 3.53903C24.4679 3.53073 24.3117 3.52244 25.5612 3.50999C26.9668 3.50169 25.2488 3.4768 26.1859 3.46021Z" fill="white"/>
<path d="M30.5589 3.81344C30.2465 3.79684 29.4656 3.78025 29.4656 3.75536C29.4656 3.73461 29.6218 3.71802 30.5589 3.71802C31.496 3.71802 32.2769 3.73046 32.2769 3.75536C32.2769 3.7844 31.6522 3.80514 30.5589 3.81344Z" fill="white"/>
<path d="M19.4695 4.54322C19.4695 4.52663 19.4695 4.50588 19.4695 4.48929C19.4695 4.47269 18.6886 4.45195 19.9381 4.44365C20.8752 4.4395 21.8123 4.46025 22.1247 4.47684C22.7494 4.50588 21.4999 4.49344 21.1876 4.50173C20.5628 4.51418 20.2505 4.53492 19.4695 4.54322Z" fill="white"/>
<path d="M40.3983 5.34817C39.305 5.35647 38.9927 5.34402 38.9927 5.31913C38.9927 5.30253 39.4612 5.28179 40.3983 5.28594C41.1793 5.29009 41.804 5.30668 41.9602 5.32742C41.9602 5.35647 41.0231 5.34817 40.3983 5.34817Z" fill="white"/>
<path d="M36.1813 5.02047C35.5565 5.00387 34.6194 5.01632 34.1509 4.99558C34.7756 4.99558 34.9318 4.98728 34.7756 4.97068C34.6194 4.94164 35.5565 4.92505 36.1813 4.92505C37.1184 4.9292 36.6498 4.95824 36.4936 4.97483C36.4936 4.99558 36.3375 5.00802 36.1813 5.02047Z" fill="white"/>
<path d="M45.0849 5.48608C45.8658 5.49438 46.1782 5.50268 46.022 5.51927C45.8658 5.53587 45.7096 5.55661 44.7725 5.55661C43.9916 5.55661 43.6792 5.53587 43.6792 5.51927C43.8354 5.50268 44.6163 5.49438 45.0849 5.48608Z" fill="white"/>
<path d="M8.38002 2.67673C8.22384 2.67258 8.06765 2.66843 8.06765 2.66843C8.22384 2.64769 7.44292 2.63109 7.91147 2.6062C8.69239 2.6228 10.2542 2.61865 10.2542 2.65184C10.4104 2.66843 9.16095 2.67258 8.38002 2.67673Z" fill="white"/>
<path d="M44.7719 5.20658C44.4595 5.22318 44.3033 5.24807 43.3662 5.24807C42.7415 5.24807 42.2729 5.23148 42.2729 5.21488C42.2729 5.18999 43.3662 5.18584 43.991 5.17754C44.4595 5.17339 44.7719 5.19414 44.7719 5.20658Z" fill="white"/>
<path d="M18.6892 4.36587C18.8454 4.36172 19.0016 4.35343 19.0016 4.35343C19.9387 4.35757 20.7196 4.33268 21.6567 4.34928C21.8129 4.35343 21.9691 4.36587 21.6567 4.37002C20.7196 4.37417 19.6263 4.37417 18.6892 4.36587Z" fill="white"/>
<path d="M19.4708 4.54415C19.3146 4.5649 19.0022 4.58149 18.0651 4.56905C17.7527 4.5649 17.128 4.5566 17.4404 4.54415C18.0651 4.51926 18.846 4.53586 19.4708 4.54415Z" fill="white"/>
<path d="M8.06787 3.28679C9.31735 3.28679 9.62972 3.24945 10.5668 3.27019C10.8792 3.27434 10.8792 3.28264 10.5668 3.29093C9.94209 3.31168 9.31735 3.29923 8.06787 3.28679Z" fill="white"/>
<path d="M21.1879 4.569C21.8126 4.55656 22.4374 4.56071 22.9059 4.5773C23.2183 4.5856 23.0621 4.5939 22.7497 4.60219C21.9688 4.62294 21.6564 4.59805 21.1879 4.5939C20.8755 4.5856 20.8755 4.5773 21.1879 4.569Z" fill="white"/>
<path d="M10.255 2.781C10.0988 2.79345 9.94266 2.80589 9.4741 2.80589C9.16173 2.80589 8.84937 2.80589 8.84937 2.79345C8.84937 2.781 9.00555 2.76855 9.63029 2.7644C9.94266 2.76855 10.0988 2.77685 10.255 2.781Z" fill="white"/>
<path d="M19.4699 2.47354C19.1575 2.48599 18.8452 2.49429 18.5328 2.49014C18.0642 2.48599 17.7519 2.47769 17.9081 2.46525C18.0642 2.45695 18.2204 2.4528 18.5328 2.45695C18.8452 2.4611 19.1575 2.46525 19.4699 2.47354Z" fill="white"/>
<path d="M28.2163 4.91258C28.2163 4.90014 27.2792 4.89599 27.5916 4.87524C28.2163 4.87524 28.8411 4.87939 28.8411 4.90014C28.9972 4.91258 28.5287 4.91258 28.2163 4.91258Z" fill="white"/>
<path d="M21.1875 4.56909C21.1875 4.57739 21.1875 4.58569 21.1875 4.59398C21.0314 4.60228 20.8752 4.60643 20.719 4.61473C20.4066 4.61473 19.9381 4.61473 20.0943 4.60228C20.0943 4.58154 20.4066 4.56909 21.1875 4.56909Z" fill="white"/>
<path d="M35.8692 3.69702C35.713 3.70532 35.5568 3.71776 35.0882 3.71776C34.9321 3.71776 34.7759 3.71361 34.7759 3.70946C34.7759 3.69702 35.0882 3.69287 35.5568 3.68872C35.713 3.68872 35.8692 3.69287 35.8692 3.69702Z" fill="white"/>
<path d="M31.6508 4.60571C32.1157 4.60571 32.1157 4.61401 32.1157 4.62231C32.1157 4.62646 32.1157 4.63475 31.9607 4.63475C31.6508 4.6389 31.4958 4.63061 31.4958 4.62231C31.3409 4.61816 31.3409 4.60986 31.6508 4.60571Z" fill="white"/>
<path d="M28.5281 3.52698C29.309 3.51039 29.9337 3.50624 30.2461 3.53943C29.6214 3.54358 28.9966 3.53528 28.5281 3.52698Z" fill="white"/>
<path d="M11.9706 3.36141C11.8149 3.36556 11.6591 3.36971 11.5034 3.37386C11.192 3.37386 11.0362 3.36971 11.192 3.36141C11.3477 3.35727 11.5034 3.35312 11.8149 3.34897C11.9706 3.34482 12.1263 3.34897 11.9706 3.36141Z" fill="white"/>
<path d="M24.6241 3.46875C23.9994 3.48949 23.687 3.48949 23.2184 3.48119C23.0623 3.47705 23.0623 3.4729 23.0623 3.4646C23.5308 3.46875 23.9994 3.46875 24.6241 3.46875Z" fill="white"/>
<path d="M40.0857 5.06274C40.3972 5.06689 40.7086 5.07104 40.5529 5.07934C40.5529 5.08349 40.2414 5.08764 40.0857 5.08764C39.7742 5.08764 39.6185 5.07934 39.7742 5.07104C39.7742 5.06689 39.93 5.06689 40.0857 5.06274Z" fill="white"/>
<path d="M27.7465 2.61059C27.5908 2.60644 27.4351 2.60644 27.4351 2.60229C27.4351 2.59399 27.5908 2.58984 27.9023 2.58569C28.058 2.58569 28.2137 2.58984 28.3695 2.59399C28.3695 2.60644 28.058 2.61059 27.7465 2.61059Z" fill="white"/>
<path d="M19.3113 4.32837C19.1555 4.33251 18.9998 4.33666 18.8441 4.33666C18.6883 4.33666 18.3769 4.33251 18.3769 4.33251C18.2211 4.32422 18.5326 4.32007 18.8441 4.32007C18.8441 4.32007 18.9998 4.32422 19.3113 4.32837Z" fill="white"/>
<path d="M27.2767 3.77222C27.4324 3.77637 27.4324 3.78051 27.4324 3.78466C27.4324 3.79296 27.121 3.79711 26.8095 3.79296C26.6538 3.79296 26.6538 3.78466 26.498 3.78051C26.8095 3.78051 26.9652 3.77637 27.2767 3.77222Z" fill="white"/>
<path d="M11.9701 2.80932C11.8143 2.81347 11.5029 2.81762 11.3471 2.82177C11.0357 2.82177 11.0357 2.81762 11.1914 2.81347C11.3471 2.80932 11.6586 2.80517 11.8143 2.80103C11.9701 2.80103 11.9701 2.80517 11.9701 2.80932Z" fill="white"/>
<path d="M24.6245 3.18335C25.874 3.20824 25.5616 3.24143 26.1864 3.26218C26.3425 3.26632 26.0302 3.27877 25.7178 3.28292C25.4054 3.28292 25.2493 3.27462 25.2493 3.27047C24.9369 3.24143 24.7807 3.22069 24.6245 3.18335Z" fill="white"/>
<path d="M29.4653 3.30809C29.6215 3.29149 29.3091 3.2666 30.4024 3.26245C30.5586 3.26245 30.871 3.2666 30.871 3.27075C30.871 3.29564 30.0901 3.29979 29.4653 3.30809Z" fill="white"/>
<path d="M33.5263 3.38671C33.214 3.38256 32.9016 3.37841 32.9016 3.37011C32.9016 3.35767 33.3702 3.35767 33.6825 3.35767C33.9949 3.36181 34.3073 3.36596 34.3073 3.37841C33.9949 3.38671 33.6825 3.38671 33.5263 3.38671Z" fill="white"/>
<path d="M31.0278 3.28296C31.6526 3.28296 32.4335 3.28296 32.5897 3.3037C32.5897 3.30785 32.4335 3.312 32.2773 3.312C31.3402 3.31615 31.0278 3.29955 31.0278 3.28296Z" fill="white"/>
<path d="M27.278 3.25414C27.1223 3.25 27.1223 3.24585 26.9666 3.2417C27.1223 3.2417 27.278 3.23755 27.4338 3.23755C27.5895 3.23755 27.7452 3.2417 27.7452 3.24585C27.9009 3.25414 27.5895 3.25414 27.278 3.25414Z" fill="white"/>
</g>
</svg>
