<svg width="14" height="6" viewBox="0 0 14 6" fill="none" xmlns="http://www.w3.org/2000/svg">
<mask id="mask0_548_801" style="mask-type:alpha" maskUnits="userSpaceOnUse" x="0" y="0" width="14" height="6">
<rect width="14" height="6" fill="#D9D9D9"/>
</mask>
<g mask="url(#mask0_548_801)">
<path d="M3.826 0.568938C3.63093 0.564668 3.77723 0.526241 3.43587 0.53478C3.28958 0.53905 3.09451 0.54332 3.04575 0.526241C3.04575 0.517702 3.24081 0.509162 3.33834 0.500623C3.38711 0.496353 3.43587 0.492083 3.5334 0.487814C3.58217 0.483544 3.72847 0.492083 3.72847 0.479274C3.6797 0.475004 3.63093 0.470735 3.58217 0.466465C3.48464 0.453656 3.38711 0.445117 3.48464 0.428038C4.50871 0.39388 4.50871 0.39388 4.02106 0.312756C4.02106 0.308486 4.02106 0.304216 4.02106 0.304216C4.70377 0.278598 4.26489 0.231631 4.26489 0.193204C4.31365 0.141968 4.75254 0.150507 5.14266 0.146237C5.43526 0.141968 5.58155 0.10354 5.92291 0.124889C6.3618 0.133428 6.80069 0.124889 7.09328 0.0950009C7.38588 0.0693827 7.6297 0.0437645 8.01983 0.0779221C8.36119 0.0992706 8.45872 0.0907312 8.45872 0.0565736C8.60501 0.0437645 8.75131 0.0565736 8.84884 0.0608433C9.0439 0.0608433 9.14143 0.0779221 9.28773 0.0779221C9.33649 0.0693827 9.1902 0.0736524 9.1902 0.0693827C9.09267 0.0565736 9.09267 0.0437645 9.23896 0.035225C10.068 -0.0202811 10.9945 0.00533713 11.8723 0.00960683C19.1384 0.0266856 26.3069 0.0523039 33.5242 0.0565736C37.5717 0.0608433 41.6192 0.0608433 45.6668 0.0608433C45.8618 0.0608433 46.1057 0.065113 46.3007 0.065113C47.1785 0.0608433 48.105 0.0608433 48.9828 0.0779221C49.2266 0.0821918 49.4217 0.0736524 49.6168 0.0693827C51.3236 0.0565736 53.0304 0.0736524 54.7371 0.0693827C56.6878 0.0608433 58.6871 0.0736524 60.6378 0.0608433C60.7353 0.0608433 60.8328 0.0608433 60.8816 0.0608433C62.9785 0.0736524 65.0754 0.0608433 67.1723 0.0693827C69.4643 0.0736524 71.7563 0.065113 74.0483 0.0693827C74.5359 0.0693827 74.9748 0.0864615 75.4625 0.0864615C75.6575 0.0864615 75.8526 0.0992706 75.9501 0.116349C76.1452 0.150507 76.4378 0.171856 76.8279 0.193204C77.2668 0.214553 76.9254 0.231631 76.6328 0.244441C77.0717 0.24871 77.2668 0.227362 77.4131 0.197474C77.5106 0.176125 77.7057 0.163316 77.852 0.146237C78.3396 0.0950009 78.5347 0.0992706 78.8273 0.159046C78.9248 0.171856 78.9736 0.188934 79.1199 0.197474C79.5588 0.235901 79.6563 0.291407 79.9001 0.338374C80.144 0.385341 80.4365 0.428038 80.5341 0.483544C80.5828 0.513432 80.7291 0.54332 81.2168 0.551859C81.5094 0.560399 81.6557 0.590286 81.7044 0.615905C81.7532 0.650062 81.3631 0.632983 81.168 0.650062C81.3631 0.662871 81.6557 0.650062 81.802 0.667141C81.997 0.68849 81.7532 0.705568 81.6557 0.726917C81.4606 0.782423 81.802 0.82512 82.0458 0.867817C82.4847 0.944672 82.7285 1.02153 82.5335 1.10692C82.5335 1.11546 82.5822 1.124 82.5822 1.13681C82.6798 1.16243 82.4359 1.19231 82.7285 1.2222C82.9236 1.24355 82.631 1.28198 82.2896 1.29479C81.9483 1.3076 81.8507 1.28198 81.7044 1.26063C81.6557 1.24782 81.5582 1.23074 81.4606 1.21793C81.1193 1.17524 81.1193 1.13254 81.5582 1.09411C81.6557 1.08557 81.7044 1.07703 81.802 1.05568C81.3143 1.09411 80.9242 1.12827 80.9242 1.18378C80.9242 1.20085 80.8267 1.21366 80.7291 1.22647C80.2903 1.26063 80.7291 1.29052 80.7291 1.32468C80.7779 1.32468 80.7779 1.32041 80.8267 1.32041C81.2656 1.33748 81.0705 1.35883 80.8754 1.37591C80.7779 1.38872 80.5828 1.39299 80.4365 1.40153C79.9001 1.45277 79.9001 1.45277 79.3149 1.4058C79.2662 1.39726 79.2662 1.38872 79.2662 1.38018C79.7538 1.35456 79.8514 1.31614 79.51 1.26917C79.3637 1.24782 79.3149 1.22647 79.2662 1.20085C79.0223 1.20939 78.7785 1.25636 78.6322 1.21793C78.7785 1.23928 79.2174 1.26063 79.0711 1.3076C78.9736 1.32041 78.8761 1.32895 78.7298 1.33321C78.5347 1.33748 78.3884 1.32468 78.2421 1.32041C77.852 1.3076 77.6082 1.29052 77.9007 1.25209C77.6082 1.27771 77.7057 1.29906 77.8032 1.32468C77.9007 1.34602 77.9495 1.36737 77.6569 1.38018C77.3643 1.38872 77.1693 1.37591 77.1205 1.34602C77.0717 1.31187 76.7304 1.3076 76.4378 1.30333C76.389 1.30333 76.4378 1.31614 76.389 1.32041C76.4865 1.33321 75.9014 1.35029 76.4378 1.35456C76.6816 1.36737 76.4865 1.39299 76.6328 1.41007C76.7304 1.41434 76.8279 1.42288 76.8767 1.43142C76.9254 1.44423 76.9254 1.45277 76.8279 1.46131C76.3402 1.46985 75.9989 1.43142 75.56 1.42715C75.4137 1.42715 75.4137 1.41007 75.4625 1.39726C75.5112 1.38018 75.56 1.35883 75.2186 1.3631C74.9748 1.36737 74.8285 1.38018 74.8285 1.40153C74.8773 1.43569 75.0723 1.46131 75.4137 1.46985C75.9014 1.48265 75.8038 1.49546 75.56 1.52535C75.2674 1.55951 74.9261 1.57232 74.4872 1.58086C74.731 1.60648 74.8285 1.63209 75.2186 1.63636C75.4625 1.64063 75.5112 1.62782 75.6088 1.61502C75.8038 1.59794 75.6088 1.59794 75.5112 1.5894C75.2186 1.55951 75.3162 1.52962 75.8038 1.51681C76.1452 1.50827 76.5353 1.504 76.7791 1.47838C77.023 1.47838 77.218 1.48265 77.4131 1.49119C77.4131 1.5467 77.1693 1.59794 76.8767 1.6449C76.7791 1.66198 76.7791 1.67479 76.9254 1.68333C77.7544 1.72603 77.7057 1.81569 78.1933 1.87974C78.1933 1.88401 78.2421 1.88828 78.2421 1.89255C78.2421 1.91389 78.6322 1.93951 78.3884 1.95659C78.047 1.97794 77.7057 2.00356 77.218 1.99929C77.0717 1.99929 76.9254 1.99502 76.8279 1.98221C76.389 1.93097 75.8038 1.92243 75.0236 1.94805C75.2674 1.95659 75.56 1.96513 75.4625 1.99502C75.4137 2.0121 75.3162 2.02918 75.56 2.04199C75.8038 2.05052 76.0964 2.04626 76.2427 2.03345C76.7304 1.97367 77.218 1.99929 77.7544 2.03345C77.852 2.04199 77.9495 2.03772 78.047 2.03345C78.1933 2.02491 78.3396 2.00783 78.4859 2.02491C78.6322 2.04199 78.4859 2.05906 78.3884 2.07187C78.3396 2.08041 78.2421 2.08468 78.1446 2.09322C78.047 2.09749 77.9495 2.10603 77.852 2.1103C77.3643 2.11884 77.7544 2.16154 77.5106 2.18289C77.4618 2.21704 77.7544 2.19569 77.9007 2.20423C78.3396 2.19996 78.7298 2.17862 79.1199 2.17435C79.3149 2.18716 79.3149 2.20423 79.3149 2.22131C79.3149 2.24266 79.1686 2.25974 78.9736 2.27255C78.7785 2.28109 78.5347 2.28109 78.4372 2.30671C78.0958 2.3366 77.5594 2.31098 77.1205 2.3366C77.3156 2.3494 77.5106 2.34513 77.7057 2.3494C77.9007 2.35367 78.0958 2.35794 78.1933 2.37502C78.2909 2.39637 78.1446 2.40918 77.9983 2.41772C77.8032 2.4348 77.6569 2.44761 77.4131 2.45615C77.0717 2.46469 77.1693 2.48177 77.2668 2.49884C77.2668 2.50738 77.3643 2.49884 77.3156 2.49884C77.2668 2.49884 77.2668 2.49884 77.2668 2.49457C77.3156 2.46469 77.5106 2.44761 77.8032 2.44761C78.1446 2.44761 78.0958 2.4775 78.1446 2.49457C78.1933 2.51592 78.1933 2.53727 78.2421 2.55862C78.2909 2.5757 78.2421 2.59705 78.4859 2.60132C78.6322 2.60132 78.7785 2.58851 78.8273 2.5757C78.9248 2.55862 78.9248 2.54154 78.7298 2.52873C78.4859 2.51165 78.1933 2.49884 78.047 2.46896C77.9007 2.43053 77.9495 2.41345 78.3884 2.41345C78.681 2.41345 78.9248 2.42199 79.2174 2.39637C79.4125 2.37929 79.8514 2.40918 80.0464 2.43907C80.2415 2.46896 80.2903 2.51165 80.9242 2.48176C81.168 2.46896 81.4606 2.4903 81.4606 2.52446C81.4606 2.58851 81.4119 2.58851 80.7291 2.5757C80.4365 2.57143 80.0952 2.57143 79.7538 2.55435C80.0464 2.58424 80.2903 2.60132 80.6804 2.60132C81.168 2.60559 81.4606 2.64401 81.802 2.66963C81.9483 2.68244 81.8507 2.69525 81.7044 2.69952C81.5582 2.70806 81.3631 2.69952 81.168 2.71233C81.4606 2.74649 81.802 2.76357 82.2409 2.74222C82.4847 2.72941 82.7285 2.72941 83.0211 2.72941C83.0699 2.72941 83.1674 2.72941 83.2162 2.73368C83.7526 2.74649 83.2162 2.80626 83.7038 2.82334C84.1427 2.84042 84.289 2.86604 84.1427 2.90874C84.094 2.92154 84.0939 2.93862 84.1915 2.95143C84.3378 2.94716 84.3378 2.93862 84.3865 2.93008C84.5328 2.9002 84.7767 2.89166 85.118 2.89593C85.4594 2.90447 85.6545 2.92154 85.6545 2.95143C85.6545 2.98986 85.6057 3.03256 86.2396 3.03256C86.7761 3.10514 87.7514 3.12649 88.2878 3.19908C88.4341 3.22469 88.5316 3.25031 88.6291 3.27593C88.7754 3.31009 88.2878 3.31436 88.1903 3.33998C88.3366 3.34851 88.3853 3.34424 88.4341 3.33998C88.8242 3.31009 89.1656 3.31863 89.2631 3.36132C89.3119 3.38267 89.1656 3.40402 89.6045 3.39975C89.7995 3.39975 89.8483 3.43391 90.0921 3.44672C90.4822 3.4638 90.9699 3.47661 90.9699 3.52784C91.0187 3.54492 91.2625 3.55346 91.4088 3.562C91.5063 3.56627 91.5551 3.57481 91.5551 3.57908C91.6038 3.59189 91.5551 3.60043 91.6526 3.61324C91.6038 3.59616 91.5551 3.57054 91.7989 3.57054C92.2378 3.56627 92.189 3.60897 92.4816 3.62178C92.5791 3.63032 92.5791 3.61751 92.5304 3.62178C92.189 3.58762 91.8964 3.54492 91.4575 3.51503C91.3112 3.50222 91.2137 3.48941 91.2625 3.46807C91.5551 3.44245 91.8477 3.42964 92.1403 3.47234C92.189 3.48088 92.1403 3.49795 92.2866 3.49795C93.2131 3.48941 93.4082 3.54919 93.652 3.6047C93.7008 3.61751 93.7008 3.63458 93.7983 3.64739C94.0909 3.71144 94.3347 3.77549 94.0909 3.84807C93.8958 3.89077 93.9933 3.942 93.7008 3.9847C93.5545 4.00605 93.4082 4.0274 93.1643 4.04875C93.3594 4.06582 93.5057 4.07863 93.7008 4.09571C93.8958 4.07436 93.9933 4.05729 93.7495 4.03167C93.6032 4.01459 93.6032 3.98897 93.7495 3.97189C93.9446 3.95054 94.1884 3.96335 94.3835 3.97189C94.7736 4.01032 94.8224 4.05729 94.9199 4.10425C95.115 4.18111 95.2612 4.25796 95.3588 4.33482C95.5051 4.44583 95.4075 4.56111 95.0662 4.67212C94.9199 4.71909 94.9199 4.76179 95.3588 4.80021C95.5051 4.81302 95.7489 4.82583 95.6026 4.84718C95.4075 4.87707 95.0174 4.86853 94.8224 4.85572C94.481 4.83864 94.1884 4.84718 93.8958 4.85572C93.3106 4.86426 93.3106 4.81729 93.1156 4.79167C92.9693 4.72763 92.9693 4.66358 92.8717 4.59954C92.8717 4.56111 93.2131 4.52268 92.9693 4.47999C92.8717 4.47145 92.8717 4.4501 92.6767 4.45864C92.5304 4.46718 92.6279 4.47999 92.7254 4.48426C92.823 4.49279 92.8717 4.49706 92.823 4.50987C92.2866 4.53976 92.5791 4.59527 92.3841 4.63369C92.2866 4.65931 92.2866 4.6892 92.1403 4.71909C91.8477 4.7874 91.994 4.85145 92.5304 4.90696C92.6767 4.91977 92.6767 4.93257 92.6767 4.94965C92.6279 5.01797 92.823 5.08201 93.4569 5.13325C93.6032 5.14179 93.7008 5.15887 93.7495 5.17168C93.847 5.20157 93.7008 5.21011 93.3594 5.20584C93.7983 5.21437 94.0909 5.23572 94.1884 5.28269C94.3347 5.34674 94.5298 5.41078 94.5298 5.47483C94.5298 5.50471 94.8224 5.51752 95.0662 5.53033C95.31 5.54314 95.7489 5.55168 95.4075 5.59438C95.3588 5.60292 95.4075 5.60719 95.4563 5.61573C96.0903 5.71393 95.944 5.82067 95.9927 5.92742C96.0415 5.96157 95.8464 5.99146 95.3588 6C94.8711 5.98292 94.8224 5.94022 94.7248 5.90607C94.5785 5.86337 94.7736 5.8164 94.7248 5.76517C94.481 5.79932 94.5298 5.83348 94.5298 5.86764C94.481 5.91034 93.7495 5.9573 93.2619 5.94876C93.0668 5.94449 93.018 5.93169 92.9693 5.91888C92.8717 5.89753 92.7742 5.88045 92.6279 5.86337C92.4816 5.84629 92.3353 5.84202 92.2378 5.86337C92.0915 5.89326 91.9452 5.91461 91.5551 5.91888C91.1162 5.92315 91.0674 5.88472 90.9211 5.86337C90.8236 5.84629 90.6285 5.85056 90.4822 5.84629C89.9458 5.83348 89.897 5.81213 90.2872 5.77798C90.6285 5.74382 91.0187 5.73955 91.4575 5.75236C91.6526 5.75663 91.8477 5.76517 91.9452 5.74382C92.0427 5.72247 91.8477 5.71393 91.7014 5.70966C91.1649 5.68404 91.36 5.65415 91.6038 5.62427C91.36 5.63708 91.1649 5.64988 90.9699 5.65842C90.6773 5.6755 90.3359 5.68831 90.0921 5.64988C89.8483 5.61146 90.2384 5.59865 90.531 5.58584C90.6773 5.5773 90.8724 5.5773 90.9211 5.56022C90.8236 5.54314 90.6285 5.54741 90.531 5.55595C90.1896 5.5773 89.7508 5.58584 89.3606 5.58584C88.873 5.59011 88.6291 5.61573 88.3853 5.64561C88.3366 5.65415 88.239 5.66269 88.3366 5.67123C88.4341 5.67977 88.5804 5.6755 88.6779 5.66696C88.8242 5.65415 88.873 5.62 89.2143 5.63281C89.6532 5.64562 90.1409 5.65415 90.3847 5.69685C90.531 5.72674 90.6773 5.75663 90.1896 5.78225C89.702 5.80786 89.6045 5.83775 90.0433 5.87618C90.1896 5.88899 90.2384 5.90607 90.0433 5.92315C89.7508 5.94449 89.4094 5.95303 89.068 5.94022C88.8242 5.93168 88.8242 5.91034 88.9217 5.88899C89.068 5.86337 89.2631 5.83775 88.873 5.81213C88.8242 5.80786 88.7754 5.80359 88.7754 5.79932C88.7754 5.75663 88.5316 5.74809 88.1415 5.76517C87.6538 5.79078 87.2637 5.80359 87.1174 5.73528C87.0686 5.7182 86.8736 5.72247 86.8248 5.73101C86.581 5.76517 86.2396 5.75663 85.8495 5.75663C85.5082 5.75663 85.0693 5.76517 85.0693 5.81213C85.0693 5.83775 84.8742 5.84629 84.5816 5.85056C84.2403 5.85483 83.8989 5.85056 83.5088 5.84202C83.2649 5.83775 83.1186 5.82067 83.1186 5.79505C83.1674 5.77371 83.1674 5.75236 83.1186 5.73101C82.9724 5.68831 83.2162 5.67123 83.6551 5.67123C84.0452 5.67123 84.4353 5.66269 84.8254 5.66269C84.8742 5.64135 84.6791 5.64135 84.5816 5.64135C83.8501 5.63281 83.2649 5.58157 82.4359 5.58584C82.1921 5.58584 81.8995 5.57303 81.8507 5.55168C81.6557 5.48764 81.0217 5.46629 80.5341 5.43213C80.4853 5.42786 80.4853 5.42359 80.4853 5.41505C80.4365 5.3937 80.8267 5.37662 80.5828 5.35954C80.339 5.34247 80.144 5.35954 79.9001 5.36808C79.7051 5.37662 79.51 5.37235 79.3149 5.37662C79.0711 5.38089 78.9248 5.39797 78.8761 5.42359C79.1686 5.41932 79.0711 5.37235 79.4612 5.38516C79.8026 5.39797 79.9001 5.42786 79.8026 5.45775C79.7538 5.47056 79.7051 5.48337 79.8514 5.48764C79.9977 5.49617 80.1439 5.48764 80.2902 5.4791C80.7291 5.44921 81.0217 5.44067 81.0705 5.50471C81.0705 5.52179 81.2168 5.5346 81.4606 5.53887C81.9483 5.54314 81.8507 5.5773 81.7532 5.60292C81.6557 5.63708 81.3631 5.64135 81.0217 5.63281C80.6804 5.62 80.2903 5.60292 80.144 5.65842C80.339 5.63281 80.5828 5.61573 80.8754 5.63281C81.2168 5.65415 81.6557 5.66269 81.8995 5.69258C81.997 5.70112 81.997 5.70966 82.1433 5.70112C82.631 5.68831 82.6798 5.71393 82.5822 5.74382C82.5335 5.75663 82.4359 5.76517 82.4359 5.78225C82.3872 5.82067 82.1433 5.82067 81.8995 5.80359C81.5094 5.77798 81.0705 5.77798 80.6316 5.78225C80.144 5.78652 79.7051 5.7609 79.2662 5.74382C78.8761 5.73101 78.5347 5.72247 78.3396 5.76517C78.2421 5.78651 77.9983 5.79078 77.7057 5.79078C77.6082 5.79078 77.5106 5.79505 77.5594 5.80359C77.6082 5.8164 77.7057 5.8164 77.8032 5.81213C78.1446 5.78652 78.5835 5.78651 78.9736 5.78651C79.2174 5.78651 79.3149 5.79932 79.3637 5.8164C79.51 5.86337 78.8273 5.92315 78.3396 5.91034C78.1446 5.90607 78.047 5.91034 77.9983 5.92315C77.9007 5.94449 77.7544 5.96584 77.4619 5.94876C77.1693 5.93595 76.8767 5.92315 76.8767 5.88472C76.8767 5.8591 77.0717 5.82494 76.5841 5.82067C76.0477 5.8164 76.1452 5.8591 76.0964 5.88899C76.0477 5.93595 75.2186 5.96157 74.7798 5.93169C74.6335 5.91888 74.6335 5.90607 74.6822 5.88899C74.731 5.88045 74.8285 5.87191 74.9748 5.86337C75.2186 5.84629 75.4625 5.82921 75.3649 5.80359C75.3162 5.78652 74.4872 5.77371 74.2433 5.78651C73.8532 5.80786 73.4143 5.82067 73.0242 5.84202C72.6341 5.86337 72.2439 5.87618 71.7563 5.8591C72.0001 5.87191 72.0977 5.88472 71.9514 5.90607C71.6588 5.94449 70.4884 5.98292 69.952 5.97011C69.7569 5.96584 69.6594 5.9573 69.6594 5.94022C69.6106 5.88472 69.1717 5.86764 68.6353 5.89753C68.5378 5.9018 68.3915 5.91034 68.3427 5.90607C67.8551 5.85483 67.7575 5.91034 67.5625 5.92742C67.2699 5.9573 66.8797 5.94449 66.5384 5.95303C66.3433 5.9573 66.2946 5.93169 66.3921 5.91888C66.6359 5.88899 66.9285 5.8591 66.8797 5.8164C66.8797 5.80359 67.026 5.79932 67.1723 5.79932C68.1476 5.80786 68.1476 5.80786 68.7328 5.74809C68.0013 5.78225 67.3186 5.82494 66.4896 5.7609C66.5872 5.80359 66.2458 5.82494 65.9532 5.84202C65.2705 5.88045 64.7828 5.94449 63.9051 5.9573C63.4174 5.96584 62.7347 5.92742 62.6859 5.88472C62.6372 5.86764 62.7347 5.84202 62.4421 5.84202C62.1495 5.83775 61.8569 5.84629 61.7106 5.86764C61.5156 5.89753 61.3205 5.92742 60.9304 5.94022C60.589 5.95303 60.2964 5.95303 60.0038 5.92315C59.6137 5.88045 59.5162 5.88472 59.2236 5.92742C59.0773 5.95303 58.931 5.96584 58.6384 5.93595C58.5896 5.92742 58.4921 5.91034 58.3458 5.91888C57.7606 5.94876 57.6143 5.9018 57.4192 5.87191C57.2242 5.84202 57.0291 5.83348 56.7853 5.8591C56.3952 5.89326 56.1513 5.8591 55.8588 5.84629C55.7612 5.84202 55.7612 5.83348 55.7612 5.82494C55.81 5.79932 56.7853 5.74809 57.0291 5.7609C57.273 5.77371 57.5655 5.76517 57.7606 5.76944C57.3705 5.76944 56.8828 5.75236 56.5902 5.70966C56.4927 5.69685 56.3952 5.68831 56.2489 5.70539C55.81 5.74809 55.3711 5.74382 54.981 5.69685C54.9322 5.68831 54.7859 5.68831 54.6884 5.69685C54.5909 5.70539 54.4933 5.71393 54.6396 5.72674C55.1273 5.7609 54.9322 5.79932 54.6396 5.83348C54.2983 5.87191 53.8594 5.87191 53.4205 5.83775C53.2742 5.8591 53.4692 5.87618 53.4692 5.89326C53.518 5.94022 53.2742 5.96584 52.7378 5.97011C52.4939 5.97011 52.2013 5.97865 51.9575 5.97438C51.0797 5.97438 50.9822 5.96584 50.8847 5.88899C50.8359 5.85056 51.1773 5.82921 51.6162 5.84629C51.8112 5.85483 51.9088 5.87618 52.2013 5.87191C52.3476 5.84629 52.0063 5.82921 52.055 5.80786C51.6649 5.83775 50.5433 5.82921 50.2507 5.79932C50.1044 5.78652 50.1532 5.76944 50.2507 5.75663C50.397 5.73955 50.5433 5.72247 50.397 5.69685C50.0069 5.74382 49.5192 5.7182 49.0316 5.7182C49.0316 5.73528 49.2267 5.73528 49.3729 5.73955C49.568 5.74382 49.7631 5.74382 49.8606 5.75663C50.0557 5.79505 50.202 5.82494 50.7871 5.83348C51.0797 5.83775 50.8359 5.86764 50.6408 5.87618C50.0557 5.89753 49.568 5.88045 49.0804 5.85056C48.5927 5.82067 48.1538 5.77798 47.5686 5.75663C47.5686 5.79078 48.4464 5.77798 48.105 5.82921C48.105 5.83348 48.2513 5.83348 48.3489 5.83775C48.5927 5.84202 49.0316 5.82921 49.0804 5.86337C49.1779 5.90607 48.6415 5.89326 48.4464 5.90607C48.0563 5.93169 47.6662 5.95303 47.1785 5.96584C46.9834 5.97011 46.8371 5.97438 46.6421 5.97438C46.3495 5.97438 46.1057 5.97438 46.2032 5.93595C46.252 5.92315 46.252 5.91034 46.1544 5.89753C45.9594 5.87618 45.7155 5.87191 45.4717 5.86764C45.2766 5.86337 45.2279 5.88045 45.1791 5.89326C45.0328 5.91888 45.2766 5.93168 45.4717 5.94449C45.5205 5.94876 45.618 5.9573 45.5692 5.97011C44.8865 5.97011 44.2038 5.97011 43.5211 5.97011C43.2285 5.97011 43.131 5.9573 43.1797 5.93169C43.326 5.88472 43.2285 5.83775 43.2773 5.79078C43.0334 5.79505 42.9847 5.80786 42.8871 5.82067C42.497 5.89326 41.7655 5.89753 41.1316 5.83348C40.9365 5.81213 40.839 5.78225 40.4489 5.76517C40.4489 5.80786 40.2538 5.83775 39.8149 5.85483C39.5711 5.86337 39.4736 5.87618 39.4736 5.9018C39.4736 5.91888 39.3273 5.92315 39.181 5.92315C38.9859 5.92315 38.8396 5.91034 38.8884 5.89326C38.8884 5.87618 38.9371 5.86337 38.9859 5.84629C38.9859 5.82494 38.9371 5.81213 38.6933 5.80786C38.4007 5.80359 38.2544 5.82067 38.2544 5.84202C38.3032 5.87618 38.1569 5.90607 37.9618 5.93595C37.7668 5.97011 36.889 5.98719 36.5476 5.96584C36.4501 5.9573 36.4013 5.94449 36.4501 5.93595C36.5964 5.91034 36.7915 5.90607 37.1328 5.92315C36.7915 5.89326 36.7427 5.86764 37.1328 5.84629C37.3766 5.83348 37.5229 5.8164 37.4254 5.79078C37.2791 5.76517 37.084 5.7609 36.7915 5.76517C36.4013 5.76517 36.06 5.77371 35.6699 5.76517C35.4748 5.7609 35.3773 5.76517 35.2797 5.77798C34.9384 5.81213 34.4995 5.82921 33.9631 5.83348C33.4754 5.83775 33.3779 5.85056 33.7192 5.88899C33.8655 5.90607 34.0606 5.91888 33.9143 5.94022C33.7192 5.96157 33.4754 5.96584 33.1828 5.95303C32.8902 5.94022 32.6464 5.94022 32.305 5.94876C31.5248 5.97011 31.1834 5.95303 30.5495 5.8591C30.7933 5.92742 30.0131 5.93168 29.7205 5.94022C28.989 5.96584 28.2575 5.92742 27.5748 5.89753C27.4285 5.88899 27.4772 5.87191 27.5748 5.86337C27.7698 5.84629 28.0137 5.83348 28.3063 5.84629C28.7451 5.86764 28.989 5.85056 29.2816 5.82494C29.5254 5.79932 29.818 5.79505 30.1593 5.78225C30.647 5.7609 31.2322 5.7609 31.6223 5.72247C31.7686 5.70539 31.9637 5.70112 32.2075 5.70539C32.4026 5.70966 32.6952 5.70966 32.7439 5.73101C32.7927 5.75236 32.5001 5.75236 32.3538 5.76517C32.305 5.76944 32.2563 5.77371 32.2075 5.77798C31.5248 5.82067 31.5248 5.82067 32.2075 5.87191C32.3538 5.86764 32.3538 5.8591 32.305 5.85056C32.2563 5.82494 32.0612 5.79505 32.305 5.77798C32.6464 5.75236 33.0853 5.74382 33.5242 5.73955C33.6217 5.73955 33.768 5.73955 33.8168 5.75236C33.8655 5.79078 34.1581 5.77371 34.4507 5.77371C33.9143 5.75236 33.5729 5.7182 33.6217 5.66696C33.5242 5.6755 33.5242 5.70966 33.2803 5.70112C32.7927 5.68404 32.9877 5.64135 33.0365 5.61146C32.6952 5.60292 32.5489 5.62 32.4026 5.63708C31.7198 5.73101 31.2322 5.74382 30.0618 5.70112C29.9643 5.69685 29.9155 5.69685 29.818 5.69685C29.0377 5.70966 29.0377 5.70966 28.3063 5.68404C28.4526 5.7182 28.5989 5.75236 28.1112 5.76944C27.7211 5.78652 27.0384 5.76944 26.7458 5.73528C26.5995 5.7182 26.5507 5.70112 26.4044 5.68404C26.2581 5.66269 26.1118 5.64988 25.7705 5.66269C26.5019 5.68404 26.2581 5.7609 26.8433 5.78651C26.8921 5.78651 26.8921 5.79505 26.8921 5.79505C26.7945 5.83348 26.4532 5.83775 26.1118 5.84629C25.8192 5.85056 25.4779 5.83775 25.5266 5.8164C25.6242 5.77798 25.3803 5.76944 25.0877 5.7609C24.6976 5.74809 24.6001 5.73528 24.9902 5.71393C25.1365 5.70539 25.2828 5.69685 25.1853 5.6755C25.0877 5.65842 24.8927 5.65415 24.6976 5.65842C24.3563 5.66696 24.0637 5.67123 23.7223 5.67977C23.3809 5.68831 23.0884 5.68404 22.8933 5.65842C22.7958 5.64561 22.5519 5.64135 22.6495 5.62C22.747 5.59865 22.9421 5.59011 23.1859 5.59438C23.6248 5.60292 23.7223 5.57303 23.8686 5.55168C24.0149 5.52606 23.7223 5.52179 23.576 5.50898C23.4297 5.49618 23.3809 5.48337 23.4785 5.46629C23.576 5.44921 23.7711 5.44067 23.9661 5.44494C24.6001 5.45348 24.8439 5.42359 24.8439 5.36381C23.9661 5.41078 22.9421 5.37235 22.1618 5.42359C22.0155 5.41932 22.113 5.4364 22.113 5.42786C22.4056 5.42359 22.5519 5.44494 22.7958 5.45348C22.8445 5.45775 22.8933 5.45775 22.9421 5.46202C23.1859 5.4791 23.3809 5.50044 23.6248 5.51752C23.7711 5.52606 23.9661 5.5346 23.8198 5.55168C23.7223 5.56876 23.576 5.58157 23.3322 5.57303C23.0396 5.56022 22.747 5.56876 22.5032 5.57303C22.113 5.5773 21.6742 5.58157 22.0643 5.63281C22.113 5.64135 22.113 5.64988 22.0155 5.65842C21.8692 5.66696 21.7229 5.66696 21.5766 5.65842C21.284 5.63708 20.9427 5.62 20.6013 5.60719C20.3575 5.59865 20.3575 5.5773 20.3575 5.55595C20.4063 5.52179 20.3087 5.49617 19.8698 5.49617C19.5285 5.49617 19.1871 5.50471 19.2846 5.55168C19.3334 5.5773 19.0896 5.60292 19.2359 5.62854C19.2846 5.63708 19.2359 5.64562 19.0896 5.64988C18.9433 5.65415 18.797 5.64988 18.6507 5.64135C18.4069 5.62 18.2118 5.59865 17.8705 5.59011C17.5291 5.56876 17.8705 5.55168 17.9192 5.53033C18.0167 5.51752 18.1143 5.50898 18.2606 5.50044C18.6507 5.48337 18.6995 5.45348 18.5532 5.42359C18.5044 5.40651 18.3093 5.38943 18.5044 5.37662C18.6995 5.35954 18.9433 5.37662 19.0896 5.38089C19.4309 5.3937 19.7723 5.38943 20.1137 5.38516C20.7476 5.38089 21.1377 5.35528 21.284 5.29977C21.4791 5.23572 21.9667 5.19303 22.6982 5.17595C22.747 5.17595 22.7958 5.16741 22.747 5.15887C22.5519 5.15887 22.4056 5.17168 22.2593 5.18022C22.1618 5.18449 22.0155 5.19303 21.9667 5.18449C21.5279 5.12044 20.7476 5.16314 20.2112 5.13752C20.455 5.16314 20.8939 5.17168 21.1865 5.1973C21.4791 5.22291 21.4303 5.26561 21.089 5.26561C20.455 5.26988 20.1137 5.32539 19.4797 5.32539C19.3334 5.32539 19.2359 5.32966 19.0896 5.32966C18.6507 5.32966 18.4556 5.31258 18.8945 5.26561C18.2118 5.31685 18.7482 5.42359 17.5291 5.41078C17.7242 5.44067 17.8705 5.43213 18.0167 5.43213C18.163 5.43213 18.4069 5.41932 18.5044 5.44067C18.6019 5.46202 18.4069 5.4791 18.2118 5.48764C18.0167 5.49617 17.8217 5.50045 17.8705 5.52606C17.7729 5.56876 17.5779 5.59865 16.9927 5.58157C16.7488 5.57303 16.6513 5.56022 16.7488 5.53887C16.7976 5.52179 16.8464 5.50471 16.7488 5.48764C16.7001 5.48337 16.6513 5.48764 16.6513 5.49191C16.4563 5.51325 16.3587 5.55168 15.9198 5.54741C15.3834 5.54314 15.4322 5.49618 15.2371 5.46629C15.1883 5.46202 15.1396 5.46202 15.0908 5.45775C14.9445 5.44494 14.7495 5.43213 14.7007 5.41078C14.7982 5.37235 15.0421 5.37235 15.3346 5.38943C15.6272 5.40651 15.9198 5.41932 16.1637 5.38516C16.2612 5.37235 16.4563 5.36808 16.6025 5.36381C16.8951 5.35528 17.139 5.35101 16.9927 5.31258C16.9439 5.30404 16.9927 5.29123 17.0902 5.28696C17.5779 5.26561 17.4316 5.24853 17.139 5.22291C16.7976 5.18876 17.334 5.18022 17.5779 5.15887C17.2853 5.17168 17.0414 5.17168 16.9439 5.18876C16.7488 5.24853 16.3587 5.24853 15.7735 5.23572C15.3834 5.22718 14.9445 5.23572 14.6032 5.26134C14.5544 5.26561 14.5056 5.26561 14.4569 5.26561C14.1643 5.26561 14.0667 5.28269 13.9692 5.30404C13.4816 5.32112 13.1402 5.30831 12.8476 5.26988C12.9451 5.1973 12.5062 5.13752 12.0186 5.08201C11.8723 5.07774 11.9211 5.05213 11.6285 5.0564C11.0433 5.0692 10.4093 5.04786 9.82415 5.07347C9.43402 5.08628 9.23896 5.06067 8.99514 5.03505C8.80007 5.0137 8.60501 4.99662 8.84884 4.971C8.99514 4.95392 8.94637 4.93257 9.0439 4.91123C9.09267 4.89415 9.33649 4.87707 9.48279 4.89842C9.67785 4.93257 9.92168 4.92404 10.2143 4.91977C10.5069 4.9155 10.7995 4.92404 10.9945 4.95819C11.0433 4.92404 10.8482 4.9155 10.7019 4.90696C10.0192 4.86426 10.068 4.84718 10.7507 4.80875C11.2871 4.7746 11.9211 4.74898 11.9698 4.67639C11.9698 4.65504 12.0186 4.63797 11.8235 4.62089C11.6772 4.60808 11.6285 4.591 11.5797 4.57392C11.5309 4.55257 11.3846 4.53122 11.1408 4.52695C10.5556 4.51414 10.7019 4.49279 10.9458 4.46291C11.0433 4.4501 11.1896 4.44156 11.1408 4.41167C10.9458 4.45437 10.7995 4.49706 10.3118 4.5056C10.2143 4.5056 10.3606 4.5056 10.3606 4.50987C10.9945 4.5483 11.2383 4.60808 11.5309 4.66358C11.7748 4.70201 11.6285 4.71482 11.1896 4.71482C11.0921 4.71482 10.9458 4.71055 10.897 4.71909C10.5069 4.76179 10.0192 4.74898 9.53156 4.75752C8.8976 4.76606 8.65378 4.74898 8.36118 4.71055C8.31242 4.70201 8.21489 4.69774 8.06859 4.69347C7.87353 4.71055 7.776 4.74471 7.38587 4.72763C7.09328 4.71482 6.94699 4.65931 7.14205 4.63369C7.23958 4.62089 7.38588 4.60808 7.48341 4.591C7.53217 4.57819 7.776 4.56965 7.48341 4.55257C7.23958 4.53549 7.38588 4.50987 7.87353 4.47999C7.48341 4.48853 6.75192 4.46718 6.3618 4.44156C6.26427 4.43302 6.02044 4.43729 5.97168 4.42448C5.82538 4.40313 5.87415 4.38605 6.11797 4.37751C6.31303 4.36897 6.60563 4.37751 6.60563 4.35616C6.60563 4.32201 6.89822 4.28785 6.65439 4.25369C6.41057 4.21953 6.41057 4.18965 6.75192 4.15976C6.99575 4.13841 6.65439 4.12987 6.55686 4.12133C6.06921 4.08717 5.97168 4.04875 6.16674 3.99751C6.26427 3.98043 6.3618 3.96335 6.60563 3.97189C7.14205 3.99324 7.58094 3.97616 8.06859 3.95481C8.26365 3.94627 8.50748 3.942 8.70254 3.95054C8.89761 3.95481 9.09267 3.96762 8.94637 3.9847C8.55625 4.0274 9.1902 4.04448 9.23896 4.07436C9.23896 4.0829 9.43402 4.0829 9.53156 4.07863C9.67785 4.07009 9.58032 4.06155 9.53156 4.05302C9.48279 4.04448 9.38526 4.03167 9.43403 4.0274C9.92168 3.99324 9.92168 3.942 9.97045 3.89077C10.0192 3.85661 10.4093 3.86088 10.7019 3.87369C10.897 3.88223 11.1408 3.91212 11.3846 3.8865C11.5797 3.86942 11.3359 3.84807 11.2871 3.82672C11.1896 3.79683 10.9945 3.79256 10.7019 3.79683C10.3606 3.8011 10.0192 3.8011 9.82415 3.77122C9.77538 3.76695 9.77538 3.76268 9.77538 3.75414C9.92168 3.72425 10.1655 3.72852 10.4093 3.73279C9.87291 3.71571 9.53156 3.68582 9.28773 3.63885C9.09267 3.6047 8.8976 3.55346 8.21489 3.56627C8.16612 3.56627 8.11736 3.56627 8.11736 3.562C7.53217 3.48941 7.43464 3.56627 7.14205 3.58335C7.09328 3.58762 7.09328 3.59189 7.04452 3.59616C6.94699 3.61751 6.89822 3.63458 7.14205 3.65166C7.38587 3.66447 7.33711 3.69009 7.23958 3.70717C7.14205 3.72852 6.89822 3.71998 6.70316 3.71571C6.41057 3.71144 6.11797 3.71144 5.92291 3.73706C5.77661 3.75414 5.53279 3.75414 5.43526 3.73706C5.0939 3.67301 4.11859 3.67301 3.72847 3.61324C3.63093 3.60043 3.38711 3.60897 3.24081 3.60897C2.65562 3.60897 2.46056 3.59189 2.50933 3.54065C2.50933 3.5193 2.36303 3.51503 2.21674 3.50649C2.02167 3.49368 1.92414 3.47661 2.07044 3.45526C2.21674 3.43391 2.46056 3.4211 2.75316 3.42537C2.99698 3.42537 3.14328 3.43818 3.19204 3.45953C3.19204 3.47234 3.14328 3.49368 3.38711 3.49795C3.63093 3.50222 3.72846 3.48514 3.87476 3.47234C4.31365 3.4211 4.26488 3.36132 3.63093 3.3229C3.28958 3.30155 3.04575 3.27593 2.75316 3.25031C2.50933 3.23323 2.31427 3.19907 2.75316 3.17346C2.99698 3.15638 2.89945 3.12222 3.19204 3.10514C2.85069 3.10514 2.50933 3.10941 2.50933 3.07098C2.50933 3.03683 2.85069 3.03256 3.19204 3.02829C4.41118 3.02402 5.14266 3.06671 5.33773 3.16065C5.77661 3.11795 5.77661 3.10941 5.33773 3.03256C5.0939 2.98986 4.85007 2.95143 4.21612 2.9557C4.02106 2.9557 3.77723 2.96851 3.6797 2.94716C3.5334 2.92581 3.6797 2.90874 3.87476 2.89166C3.97229 2.89166 3.87476 2.87885 3.87476 2.88739C3.87476 2.89166 3.87476 2.89166 3.826 2.89166C3.38711 2.88739 3.19204 2.87031 3.33834 2.83188C3.5334 2.78491 3.28958 2.75076 2.94822 2.7166C2.60686 2.67817 2.60686 2.64828 3.09451 2.62693C3.24081 2.6184 4.02106 2.63547 4.16735 2.64401C4.31365 2.65255 4.50871 2.65682 4.70377 2.66109C4.99637 2.6739 4.99637 2.64828 5.04513 2.6312C5.14266 2.60986 5.33773 2.61413 5.48402 2.62267C5.92291 2.66109 6.5081 2.65255 7.04452 2.65255C7.43464 2.65255 7.53217 2.65682 7.67847 2.68671C7.9223 2.75503 8.16612 2.76357 8.94637 2.74649C9.33649 2.73795 9.53156 2.75503 9.87291 2.78064C9.62909 2.71233 8.99514 2.66963 9.23896 2.58851C8.65378 2.66109 8.01983 2.66963 7.23958 2.62693C7.14205 2.62267 7.04452 2.62693 6.89822 2.62693C6.3618 2.6312 5.97168 2.6184 5.77661 2.5757C5.72785 2.57143 5.72785 2.56716 5.67908 2.56289C5.48402 2.50738 5.19143 2.53727 4.89884 2.55862C4.31365 2.59705 3.24081 2.5757 2.89945 2.52019C2.85069 2.48603 2.70439 2.45188 3.19204 2.43053C3.48464 2.41772 3.28958 2.3921 3.14328 2.38356C2.75316 2.35367 2.89945 2.33233 3.14328 2.30244C3.14328 2.29817 3.19204 2.29817 3.19204 2.2939C3.28958 2.22558 3.826 2.21277 4.50871 2.21704C4.55748 2.2085 4.70377 2.2085 4.65501 2.19569C4.55748 2.16581 4.85007 2.16154 5.0939 2.153C5.14266 2.153 5.19143 2.153 5.19143 2.153C5.24019 2.14873 5.28896 2.153 5.38649 2.153C5.33773 2.14019 5.24019 2.12738 5.0939 2.11884C4.9476 2.11457 4.89884 2.10603 4.9476 2.09749C5.04513 2.08895 5.0939 2.08041 5.24019 2.07614C5.33773 2.07614 5.43526 2.07614 5.48402 2.08041C5.53279 2.08041 5.58155 2.09322 5.63032 2.08041C5.53279 2.07187 5.38649 2.07187 5.28896 2.0676C5.0939 2.05906 5.19143 2.04626 5.28896 2.03345C5.43526 2.02064 5.63032 2.01637 5.82538 2.00783C5.92291 2.00356 6.02044 1.99929 6.06921 1.99502C6.16674 1.98648 6.11797 1.97367 6.11797 1.96086C6.06921 1.93097 6.02044 1.90536 6.41057 1.89255C7.04452 1.86266 7.19081 1.83277 6.99575 1.76445C7.04452 1.75165 7.14205 1.74311 7.23958 1.7303C7.6297 1.71749 7.09328 1.6876 7.38587 1.67052C7.14205 1.6449 7.48341 1.61929 7.38587 1.5894C7.38587 1.56805 7.28834 1.55097 7.04452 1.53816C6.65439 1.51254 6.31303 1.48692 5.77661 1.49546C5.67908 1.49546 5.48402 1.49973 5.48402 1.48265C5.48402 1.46985 5.63032 1.46558 5.77661 1.46558C6.3618 1.46985 6.41057 1.4058 6.84946 1.39299C6.94699 1.38872 6.89822 1.37591 6.80069 1.37164C6.16674 1.35456 6.55686 1.28625 6.16674 1.26917C5.43526 1.23074 5.14266 1.20085 5.24019 1.12827C5.28896 1.09838 5.24019 1.07276 4.9476 1.05568C4.45995 1.03007 4.50871 0.995908 4.60624 0.957481C4.75254 0.906245 4.70377 0.863547 3.97229 0.859278C3.6797 0.855008 3.72846 0.837929 3.77723 0.82085C4.02106 0.765344 3.92353 0.731187 3.14328 0.709838C2.55809 0.692759 2.89945 0.654332 3.14328 0.624444C3.72846 0.594556 3.87476 0.594556 4.02106 0.590286C4.11859 0.590286 4.26489 0.594556 4.36242 0.590286C4.36242 0.581747 4.26489 0.590286 4.26489 0.586017C4.21612 0.586017 4.16735 0.586017 4.11859 0.586017C3.97229 0.581747 3.92353 0.573208 3.826 0.568938Z" fill="white"/>
<path d="M17.7089 5.62343C17.7089 5.64374 17.6119 5.65898 17.4178 5.66406C17.0782 5.67421 16.9811 5.68945 17.2237 5.71992C17.3208 5.73007 17.5148 5.76054 17.2237 5.76054C17.0297 5.76054 16.69 5.7707 16.496 5.74023C16.3504 5.70976 16.2534 5.70468 16.0593 5.72499C15.8167 5.75038 15.6226 5.76562 15.283 5.76562C15.186 5.76562 15.0404 5.7707 15.0404 5.78085C15.0404 5.79609 15.1375 5.80117 15.2345 5.80117C15.5741 5.80117 15.8167 5.85703 16.1563 5.8164C16.2534 5.81132 16.3504 5.8164 16.3989 5.82148C16.5445 5.86718 16.9326 5.85703 17.3208 5.85195C17.1752 5.88242 16.9811 5.90273 16.69 5.90273C16.4474 5.90273 16.2049 5.91289 16.1078 5.93828C16.0108 5.95351 15.9623 5.96367 15.7682 5.95351C15.6226 5.94335 15.4771 5.9332 15.5741 5.91796C15.6712 5.90273 15.8167 5.88242 15.5256 5.87734C15.3801 5.87226 15.0889 5.86718 14.9919 5.89257C14.8949 5.91289 14.9919 5.94335 14.6523 5.94843C14.5553 5.94843 14.7978 5.9789 14.8464 5.99414C14.6523 6.00429 14.5067 5.99921 14.3127 5.99414C13.5 6 13.5849 5.89765 13.3908 5.84687C13.1968 5.80624 12.8571 5.82148 12.7116 5.79609C12.469 5.75546 13.2453 5.76562 13.0512 5.73515C12.9057 5.6996 12.9542 5.62343 12.1779 5.66913C12.0809 5.67421 11.9353 5.66913 11.7898 5.66406C11.7412 5.64374 12.0323 5.63359 11.9353 5.61327H11.8868C12.0323 5.58281 11.6927 5.59804 11.6442 5.58788C11.4501 5.55234 11.4987 5.50663 11.6927 5.47616C11.8383 5.44569 11.9353 5.41523 11.9838 5.38476C11.9353 5.36444 11.6442 5.35429 11.7412 5.3289C11.7412 5.31874 11.6927 5.31366 11.5957 5.30858C11.4016 5.30858 11.3046 5.27812 11.062 5.29335C10.9164 5.29843 10.7709 5.28827 10.6739 5.29843C10.5768 5.30351 10.5283 5.3289 10.3827 5.31874C10.1402 5.29843 9.75202 5.27304 9.75202 5.2578C9.84906 5.19686 9.4124 5.22733 9.26685 5.2121C9.21833 5.20702 9.21833 5.19686 9.26685 5.19179C9.31536 5.17655 9.65499 5.17655 9.46092 5.14608C9.4124 5.13593 9.26685 5.12069 9.46092 5.11561C9.7035 5.10546 9.84906 5.0953 9.65499 5.07499C9.50943 5.05975 9.36388 5.03944 9.12129 5.0496C8.87871 5.05975 8.73315 5.05975 8.53908 5.04452C8.5876 5.03944 8.63612 5.03436 8.5876 5.02929C8.5876 5.02929 8.53908 5.02929 8.5876 5.03436C8.5876 5.03944 8.5876 5.04452 8.53908 5.04452C8.2965 5.04452 8.00539 5.03436 8.15094 5.00897C8.34501 4.96835 8.19946 4.92772 8.19946 4.8871C8.5876 4.85663 8.63612 4.83124 8.19946 4.80077C7.95687 4.78046 8.00539 4.75506 8.15094 4.7246C8.19946 4.70936 8.39353 4.69413 8.19946 4.68397C8.00539 4.67381 7.71429 4.66366 7.52022 4.67381C7.27763 4.68397 7.42318 4.70428 7.4717 4.71952C7.52022 4.72967 7.52022 4.73983 7.37466 4.74999C7.03504 4.71952 6.6469 4.72967 6.25876 4.72967C6.06469 4.72967 5.91914 4.73983 5.8221 4.71444C5.87062 4.69413 6.3558 4.71444 6.21024 4.67381C6.21024 4.65858 6.25876 4.64842 6.40431 4.64335C6.50135 4.64335 6.59838 4.64335 6.59838 4.63827C6.59838 4.62811 6.50135 4.63319 6.40431 4.63319C6.16172 4.63827 6.11321 4.6535 6.21024 4.67889C6.06469 4.71444 5.87062 4.69413 5.67655 4.68905C5.48248 4.67381 5.33693 4.65858 5.14286 4.64842C4.7062 4.62811 5.14286 4.59764 5.04582 4.57225C4.94879 4.55194 5.23989 4.56717 5.38545 4.56717C5.48248 4.56209 5.72507 4.56209 5.67655 4.55194C5.43396 4.51639 5.91914 4.46053 5.28841 4.43006C5.09434 4.42498 4.60916 4.39452 4.80323 4.34373C4.85175 4.3285 4.60916 4.33866 4.51213 4.33358C4.41509 4.3285 4.36658 4.32342 4.36658 4.31326C4.36658 4.30819 4.36658 4.29803 4.36658 4.29295C4.51213 4.2574 4.80323 4.22694 5.04582 4.21678C5.67655 4.19647 5.531 4.166 5.23989 4.13045L5.19137 4.12537C5.57951 4.08475 4.94879 4.0949 4.94879 4.07459C4.80323 4.06443 4.85175 4.03904 4.7062 4.03397C4.46361 4.02889 4.41509 3.98826 4.02695 4.0035C3.78437 4.01365 3.78437 3.98318 3.8814 3.96795C4.07547 3.9324 3.97844 3.91717 3.63881 3.91209C3.20216 3.90193 3.25067 3.86639 3.20216 3.83084C3.20216 3.81053 3.29919 3.80037 3.39623 3.78006C3.10512 3.78514 2.81402 3.80037 2.57143 3.7699C2.23181 3.7242 2.32884 3.66326 2.08625 3.61756C1.89218 3.58201 2.37736 3.54138 2.86253 3.55662C3.00809 3.52615 3.0566 3.52107 3.29919 3.50076C3.10512 3.50076 2.86253 3.50584 2.66846 3.4906C2.57143 3.47537 2.47439 3.46521 2.37736 3.44998C2.28032 3.42966 2.08625 3.41443 1.89218 3.3992C1.69811 3.38904 1.60108 3.34334 1.30997 3.38904C1.21294 3.40427 0.97035 3.3992 0.77628 3.38904C0.630728 3.38396 0.58221 3.3738 0.533693 3.36365C0.436658 3.29255 0.0485175 3.22654 0 3.15037C0.19407 3.11482 0.0485175 3.07419 0.145553 3.03865C0.339623 3.0031 0.533693 2.97263 0.824798 2.95232C0.970351 2.94216 1.1159 2.93201 0.97035 2.91169C0.873315 2.90661 0.77628 2.90154 0.679245 2.89138C0.533693 2.87107 0.533693 2.85583 0.630728 2.83552C0.921833 2.81521 1.30997 2.81521 1.45553 2.77458C1.6496 2.73396 1.6496 2.69841 1.30997 2.67302C1.01887 2.65271 1.06739 2.64255 1.30997 2.62732C1.6496 2.607 1.84367 2.5613 2.08625 2.53083C2.28032 2.50544 2.18329 2.48513 1.98922 2.46481C1.79515 2.4445 1.60108 2.42927 1.74663 2.3988C1.6496 2.37341 1.6496 2.35309 1.9407 2.34802C2.13477 2.34294 2.23181 2.33278 2.32884 2.31755C2.37736 2.31247 2.37736 2.31247 2.42588 2.30739C2.52291 2.29723 2.7655 2.29723 2.66846 2.27184C2.61995 2.26169 2.52291 2.25661 2.47439 2.25661C2.28032 2.26677 2.47439 2.28708 2.37736 2.29723C2.18329 2.31755 2.03774 2.36325 1.6496 2.32263C1.45553 2.28708 1.06739 2.30739 0.824798 2.282C0.630728 2.26169 0.485175 2.25153 0.485175 2.22614C0.58221 2.20075 0.727763 2.19059 0.97035 2.19059C1.1159 2.19567 1.1159 2.22106 1.30997 2.21091C1.74663 2.19059 2.03774 2.15505 2.18329 2.10934C2.37736 2.09919 2.81402 2.09411 2.37736 2.05856C2.28032 2.05348 2.28032 2.03825 2.42588 2.03317C2.61995 2.03317 2.7655 2.02809 2.91105 2.01286C3.29919 2.03825 3.78437 2.04333 4.17251 2.06872C4.41509 2.08395 4.7062 2.05348 4.90027 2.03317C5.09434 2.01286 5.23989 1.99255 5.531 2.0027C5.77358 2.01286 5.87062 2.03825 5.77358 2.06872C5.67655 2.0738 5.67655 2.06364 5.72507 2.06872C5.72507 2.06872 5.72507 2.06872 5.77358 2.06872C5.87062 2.06364 5.8221 2.05856 5.8221 2.06364C5.8221 2.06364 5.8221 2.06364 5.77358 2.06364C6.11321 2.1195 6.54987 2.13981 7.13208 2.11442C7.27763 2.10934 7.32615 2.10426 7.4717 2.1195C7.85984 2.1652 8.34501 2.16012 8.78167 2.11442C8.97574 2.09411 9.21833 2.06872 9.65499 2.08903C9.16981 2.1195 9.12129 2.15505 9.50943 2.20075C9.75202 2.23122 9.60647 2.28708 10.1402 2.29723C10.2372 2.29723 10.1402 2.32263 10.0431 2.32263C9.84906 2.3277 9.55795 2.35817 9.46092 2.31755C9.31536 2.26169 9.02426 2.29723 8.83019 2.29723C8.63612 2.29723 8.5876 2.34294 8.39353 2.32263C8.00539 2.27692 7.56873 2.26169 7.4717 2.21091C7.42318 2.17536 7.4717 2.1652 6.98652 2.17028C6.45283 2.17536 5.62803 2.19567 5.23989 2.09919C5.14286 2.18552 5.14286 2.15505 4.46361 2.16012C3.73585 2.16012 3.92992 2.12458 3.8814 2.08903C3.8814 2.07887 3.83288 2.06364 3.68733 2.06872C3.39623 2.08395 3.63881 2.09411 3.63881 2.10426C3.63881 2.12458 3.49326 2.14489 3.29919 2.13473C3.00809 2.1195 2.91105 2.12458 2.86253 2.15505C2.86253 2.17536 2.71698 2.19059 3.0566 2.21091C3.34771 2.22614 3.5903 2.28708 3.54178 2.33278C3.44474 2.41911 3.39623 2.41911 4.22102 2.41911C4.26954 2.4445 4.07547 2.43435 3.97844 2.43942C3.73585 2.44958 3.63881 2.47497 3.68733 2.49528C3.78437 2.52067 3.97844 2.50036 4.12399 2.4902C4.7062 2.46481 4.90027 2.53083 5.23989 2.55622C5.62803 2.58161 5.38545 2.65778 5.87062 2.69333C5.91914 2.69841 5.33693 2.78474 5.19137 2.78474C5.04582 2.78474 4.85175 2.77966 4.94879 2.76443C5.23989 2.72888 4.75472 2.70349 4.94879 2.6781C4.75472 2.66286 4.12399 2.75427 4.41509 2.65271C4.46361 2.63747 4.36658 2.62732 4.26954 2.62732C3.78437 2.62224 3.29919 2.61716 2.86253 2.61716C2.61995 2.61716 2.47439 2.63239 2.57143 2.65778C2.61995 2.67302 2.71698 2.68317 2.91105 2.67302C3.0566 2.66794 3.15364 2.63747 3.34771 2.65778C3.49326 2.6781 3.34771 2.70349 3.20216 2.71872C3.10512 2.73396 2.7655 2.72888 3.10512 2.75427C3.25067 2.76443 3.00809 2.77458 2.86253 2.77458C2.71698 2.77966 2.47439 2.77966 2.57143 2.79997C2.66846 2.82029 2.61995 2.86599 2.95957 2.86091C3.25067 2.85583 3.44474 2.84568 3.25067 2.89138C3.20216 2.90154 3.68733 2.94216 3.92992 2.95232C4.36658 2.96755 4.31806 2.99294 4.22102 3.02849C4.07547 3.07419 4.22102 3.13005 3.68733 3.16052C3.54178 3.17576 3.39623 3.18591 3.20216 3.17576C3.00809 3.17068 3.00809 3.14529 3.00809 3.13005C3.00809 3.10974 3.15364 3.08435 2.7655 3.07927C2.47439 3.07927 2.28032 3.08943 2.18329 3.11482C2.03774 3.14529 2.37736 3.15037 2.52291 3.16052C2.7655 3.17576 2.95957 3.18083 2.66846 3.22146C2.47439 3.24685 2.91105 3.27732 3.10512 3.27224C3.68733 3.25193 3.97844 3.27732 4.31806 3.32302C4.51213 3.34841 4.85175 3.36365 5.14286 3.37888C5.33693 3.38904 5.8221 3.36873 5.531 3.42459C5.48248 3.43474 5.72507 3.44998 5.77358 3.43982C6.06469 3.35857 6.59838 3.3992 7.13208 3.40935C7.13208 3.37888 7.32615 3.34841 6.79245 3.33826C6.59838 3.33318 6.69542 3.28748 7.03504 3.26716C7.13208 3.27224 7.13208 3.27224 7.13208 3.27224C7.08356 3.27224 7.08356 3.26716 7.03504 3.26716C6.93801 3.26209 7.03504 3.25193 6.98652 3.26209C6.98652 3.26716 7.08356 3.27224 7.03504 3.26716C6.98652 3.19607 7.56873 3.18083 8.05391 3.15037C8.00539 3.20115 8.05391 3.22654 8.63612 3.2113C9.02426 3.20115 9.16981 3.26716 9.31536 3.29763C9.60647 3.35349 9.84906 3.3992 10.4313 3.41443C10.5768 3.41951 10.8679 3.42966 10.7224 3.45506C10.6253 3.47537 10.4313 3.45506 10.2857 3.4449C10.0431 3.42966 9.89757 3.43982 9.75202 3.46013C9.4124 3.47537 9.4124 3.4449 9.31536 3.42459C9.21833 3.40427 9.31536 3.3738 9.21833 3.35349C9.07278 3.33318 8.87871 3.32302 8.5876 3.33318C8.24798 3.34334 8.19946 3.31287 8.05391 3.29255C7.7628 3.32302 7.85984 3.34841 8.19946 3.36873C8.34501 3.35857 8.44205 3.33318 8.63612 3.3281C8.83019 3.3281 9.02426 3.3281 9.12129 3.34334C9.31536 3.36873 9.07278 3.3992 9.16981 3.42966C9.21833 3.4449 9.12129 3.46013 8.92722 3.45506C8.39353 3.44998 7.90836 3.48552 7.37466 3.46013C7.27763 3.45506 7.08356 3.44998 7.08356 3.45506C6.88949 3.53123 5.96766 3.55662 5.87062 3.64295C6.3558 3.60232 6.6469 3.61248 6.84097 3.66326C6.88949 3.67342 6.93801 3.67849 7.03504 3.67342C7.18059 3.66834 7.18059 3.65818 7.22911 3.64803C7.27763 3.63279 7.18059 3.61756 7.27763 3.60232C7.37466 3.57693 7.52022 3.54138 7.81132 3.55154C8.53908 3.57693 8.92722 3.52107 9.4124 3.48045C9.50943 3.47029 9.65499 3.46013 9.80054 3.44998C10.0916 3.47537 10.3828 3.4906 10.7709 3.47537C10.965 3.47029 11.3046 3.46013 11.3046 3.4906C11.3531 3.53123 11.7898 3.56677 11.5957 3.61248C11.4016 3.6531 11.1105 3.63787 10.8194 3.61756C10.5768 3.60232 10.3827 3.56677 10.0916 3.59217C9.89757 3.61248 9.89757 3.63787 10.1402 3.66834C10.2857 3.68865 10.0916 3.71912 9.75202 3.73435C9.60647 3.73943 9.26685 3.75467 9.60647 3.78006C9.75202 3.79021 9.94609 3.79529 9.84906 3.82068C9.75202 3.841 9.55795 3.84607 9.4124 3.84607C9.21833 3.85115 8.92722 3.841 8.92722 3.82068C8.87871 3.78514 8.78167 3.76482 8.44205 3.74959C8.39353 3.74451 8.2965 3.71912 8.53908 3.71404C8.68464 3.71404 8.83019 3.71404 8.83019 3.69373C8.78167 3.67342 8.5876 3.67849 8.44205 3.67342C8.15094 3.66834 8.00539 3.68865 7.7628 3.69881C7.27763 3.7242 6.84097 3.7242 6.40431 3.69881C6.06469 3.79529 6.06469 3.79529 7.03504 3.92732C6.54987 3.95272 6.25876 3.98318 6.79245 4.03904C6.88949 4.0492 6.98652 4.07459 6.84097 4.0949C6.69542 4.11522 6.69542 4.13045 6.79245 4.15584C6.93801 4.19139 6.54987 4.20155 6.30728 4.20155C6.11321 4.20155 6.01617 4.19647 5.96766 4.22186C5.96766 4.24217 6.11321 4.23709 6.21024 4.24217C6.50135 4.24725 6.59838 4.26756 6.6469 4.29803C6.6469 4.31834 6.84097 4.36912 7.08356 4.3285C7.42318 4.27772 7.7628 4.28787 8.24798 4.29803C8.24798 4.31834 8.10243 4.33358 7.90836 4.33358C7.56873 4.3285 7.4717 4.35897 7.42318 4.37928C7.37466 4.40975 7.7628 4.38944 7.85984 4.41483C7.42318 4.42498 7.56873 4.48592 7.13208 4.51131C6.93801 4.52147 7.18059 4.56209 7.27763 4.58749C7.32615 4.60272 7.4717 4.6078 7.61725 4.60272C7.95687 4.58749 7.61725 4.55702 7.7628 4.5367C7.81132 4.5367 7.85984 4.5367 7.90836 4.54178C8.2965 4.56717 8.49057 4.63319 8.83019 4.64335C9.16981 4.64842 9.60647 4.62303 10.0431 4.64335C10.2372 4.6535 10.3342 4.63827 10.4313 4.62303C10.6739 4.58241 10.965 4.55702 11.4501 4.60272C11.2075 4.54178 11.159 4.47577 10.6739 4.43514C10.4313 4.40975 10.3827 4.35389 9.84906 4.3742C9.84906 4.3742 9.80054 4.36405 9.80054 4.35897C9.80054 4.34881 9.89757 4.33866 9.94609 4.34373C10.5768 4.35389 10.8679 4.3285 10.7224 4.25741C10.7224 4.24725 10.7709 4.22694 10.8679 4.23201C11.0135 4.23201 11.2075 4.24217 11.3531 4.25233C11.4987 4.26248 11.4016 4.27264 11.3046 4.27772C11.1105 4.30311 10.9164 4.3285 10.6739 4.35897C11.3046 4.36405 11.6927 4.39452 11.6442 4.46053C11.6442 4.46561 11.6927 4.47577 11.6927 4.48084C12.6146 4.51639 11.9838 4.59764 11.8868 4.63827C11.7898 4.67889 11.159 4.71444 10.6739 4.74491C10.5283 4.75506 10.2857 4.74999 10.2372 4.78046C10.2372 4.80585 10.3827 4.82616 10.6253 4.83124C11.2075 4.84647 11.159 4.8871 11.062 4.93788C10.6739 4.92772 10.6253 4.86171 10.0916 4.88202C9.99461 4.8871 9.84906 4.87694 9.75202 4.89218C9.46092 4.92772 9.36388 4.90741 9.31536 4.87186C9.31536 4.85663 9.36388 4.83632 9.12129 4.83632C8.92722 4.84139 9.02426 4.86171 9.02426 4.87694C9.02426 4.8871 9.07278 4.90741 9.02426 4.90741C8.34501 4.95311 9.02426 4.9785 9.16981 5.01405C9.26685 5.03944 9.50943 5.03944 9.65499 5.02929C10.2857 4.98358 10.965 5.02421 11.6442 5.00897C11.8383 5.00389 11.7898 5.03436 11.9353 5.03944C12.0323 5.05468 12.2749 5.06991 12.2264 5.08514C12.0323 5.16132 12.5175 5.20702 12.8086 5.26288C13.0997 5.30351 13.3908 5.32382 13.876 5.29335C13.973 5.27304 14.1186 5.26288 14.2642 5.25272C14.3127 5.25272 14.3612 5.25272 14.4097 5.25272C15.1375 5.23749 15.7682 5.25272 16.3504 5.30858C16.496 5.32382 16.6415 5.33398 16.5445 5.35429C16.4474 5.3746 16.2534 5.36444 16.1563 5.35937C15.8652 5.34413 15.5741 5.35429 15.2345 5.33905C15.4771 5.35937 15.9623 5.36952 15.8167 5.41523C15.7197 5.44569 15.4286 5.44062 15.2345 5.42538C14.9434 5.40507 14.7493 5.41523 14.7008 5.45077C14.5553 5.49648 14.2156 5.5371 14.0701 5.5828C13.9245 5.63359 14.1186 5.6539 14.6523 5.6539C14.6523 5.61327 14.5067 5.57773 14.6038 5.5371C14.6523 5.51679 14.6038 5.47109 15.0889 5.48632C15.3801 5.52695 15.4771 5.57773 15.6226 5.62851C15.7197 5.67929 15.9137 5.66406 16.1563 5.64882C16.3989 5.62851 16.69 5.62851 16.9326 5.61835C17.5148 5.6539 17.5633 5.59804 17.7574 5.56757C17.903 5.56249 17.9515 5.56757 18 5.5828C17.9515 5.58788 17.5633 5.59804 17.7089 5.62343Z" fill="white"/>
<path d="M1.25081 2.58182C1.00709 2.57767 0.860859 2.59842 0.665882 2.60257C0.617138 2.59842 0.51965 2.59427 0.470906 2.59012C0.275929 2.57353 -0.114025 2.56523 0.0322077 2.53619C0.227185 2.51129 0.51965 2.53204 0.714627 2.54034C0.958348 2.54863 1.15332 2.54448 1.25081 2.53204C1.44579 2.503 1.787 2.49055 2.07946 2.46981C2.32319 2.46566 2.56691 2.46151 2.46942 2.4947C2.12821 2.52374 1.83574 2.55693 1.49453 2.58597C1.44579 2.59012 1.3483 2.58597 1.25081 2.58182Z" fill="white"/>
<path d="M8.70868 0.0554084C8.70868 0.0512597 8.70868 0.0471109 8.70868 0.0429622C8.85491 0.0388134 9.00115 0.0305159 9.09863 0.0263672C9.04989 0.0388134 9.00114 0.0512597 9.19612 0.0595572C9.24487 0.0595572 9.24487 0.0637059 9.24487 0.0637059C9.24487 0.0720034 9.24487 0.0720034 9.24487 0.0720034C8.9524 0.101045 8.90366 0.0595572 8.70868 0.0554084Z" fill="white"/>
<path d="M10.9883 3.31445C11.5029 3.27623 11.7368 3.30489 11.7368 3.40044C11.7368 3.40999 11.7368 3.41955 11.7368 3.43866C12.345 3.41955 12.3918 3.60109 13 3.56287C12.5789 3.68708 12.1579 3.75397 11.3626 3.71575C11.7368 3.65842 12.2515 3.61064 11.6433 3.50554C11.7368 3.60109 11.4094 3.62975 11.1287 3.66797C10.8947 3.70619 10.7076 3.75396 10.848 3.82085V3.8304C11.0351 3.89729 10.6608 3.93551 10.5673 3.99283C10.5673 4.00239 10.4269 4.00239 10.3801 3.99283C10.193 3.94506 10.1462 3.85907 10.2398 3.83996C10.6608 3.7253 9.81871 3.67753 10.0058 3.58198C10.0058 3.57242 9.8655 3.57242 9.81871 3.57242C9.44444 3.60109 9.11696 3.57242 8.83626 3.52465C8.69591 3.49599 8.50877 3.46732 8.32164 3.50554C8.18129 3.53421 7.90058 3.54376 8.04094 3.60109C8.18129 3.66797 7.90058 3.66797 7.71345 3.64886C7.5731 3.63931 7.43275 3.61064 7.24561 3.6202C7.05848 3.63931 6.73099 3.59153 6.63743 3.65842C6.54386 3.71575 6.77778 3.74441 6.96491 3.77307C7.05848 3.79218 7.2924 3.82085 7.05848 3.83996C6.68421 3.87818 6.63743 4.05016 6.12281 3.97372C5.74854 3.92595 5.5614 3.93551 5.23392 3.94506C5.18713 3.94506 5.09357 3.93551 5 3.9164C5.46784 3.92595 5.74854 3.83996 6.16959 3.82085C6.30994 3.81129 6.45029 3.79218 6.40351 3.75397C6.35673 3.7253 6.26316 3.67753 6.07602 3.67753C5.46784 3.69664 5.51462 3.64886 5.70175 3.56287C5.74854 3.53421 5.65497 3.46732 5.5614 3.43866C5.37427 3.36222 5.37427 3.27623 5.2807 3.19979C5.65497 3.15202 5.93567 3.28578 6.35672 3.2189C6.35672 3.2189 6.59064 3.29534 6.45029 3.34311C6.26316 3.40999 6.45029 3.47688 6.63743 3.47688C6.87135 3.46732 7.38596 3.5151 7.43275 3.39088C7.43275 3.35267 7.5731 3.31445 7.66667 3.25712C7.15205 3.27623 6.77778 3.26667 6.54386 3.16157C6.30994 3.06602 6.68421 3.0278 6.91813 3.00869C7.10526 2.98958 7.47953 2.99914 7.5731 3.06602C7.61988 3.10424 7.66667 3.13291 7.90058 3.12335C8.46199 3.09469 8.88304 3.19023 9.39766 3.19023C9.5848 3.19023 9.5848 3.22845 9.53801 3.25712C9.49123 3.28578 9.39766 3.31445 9.58479 3.33356C9.72515 3.34311 9.81871 3.324 9.91228 3.30489C10.3333 3.23801 10.3333 3.23801 10.5205 3.33356C10.614 3.38133 10.8947 3.36222 11.0819 3.38133C11.1754 3.39088 11.269 3.37178 11.269 3.36222C11.3626 3.324 11.0819 3.35267 10.9883 3.31445Z" fill="white"/>
<path d="M9.24481 0.0720348C9.24481 0.0678861 9.24481 0.0637373 9.24481 0.0637373C9.3423 0.0595886 9.43979 0.0471424 9.58602 0.0595886C9.68351 0.0637373 9.68351 0.0720348 9.58602 0.0803323C9.43979 0.0886298 9.3423 0.0720348 9.24481 0.0720348Z" fill="white"/>
<path d="M8.40192 3C8.61057 3.15965 8.77749 3.31929 8.94442 3.51087C9.11134 3.70245 8.86095 3.89402 8.73576 3.95788C8.52711 4.0856 8.52711 3.89402 8.48538 3.76631C8.44365 3.67052 8.36019 3.63859 8.23499 3.60666C7.94288 3.5428 7.90115 3.47894 8.23499 3.38315C8.61057 3.3193 8.15153 3.12772 8.40192 3Z" fill="white"/>
<path d="M6.07854 5C6.07854 4.83423 6.07854 4.62701 6.07854 4.46124C6.07854 4.29546 5.82406 4.08825 6.23123 4.00536C6.53661 3.96392 6.84199 4.17113 6.94378 4.33691C7.14737 4.62701 6.7402 4.50268 6.6384 4.58557C6.43482 4.7099 6.33303 4.91711 6.07854 5Z" fill="white"/>
<path d="M8 3.1905C7.6 4.14297 7.4 4.14296 7.1 3.76197C7 3.57148 7 3.38099 7 3C7.3 3.19049 7.6 3.1905 8 3.1905Z" fill="white"/>
</g>
</svg>
